<svg viewBox="0 0 330 200" xmlns="http://www.w3.org/2000/svg"><g><g><g><g><g><line x1="51.41600036621094" y1="176.95999908447266" x2="46.41600036621094" y2="176.95999908447266" style="visibility: inherit;" fill="rgb(0, 0, 0)" stroke="rgb(204, 204, 204)" stroke-width="1px"></line><line x1="51.41600036621094" y1="151.67999921526226" x2="46.41600036621094" y2="151.67999921526226" style="visibility: inherit;" fill="rgb(0, 0, 0)" stroke="rgb(204, 204, 204)" stroke-width="1px"></line><line x1="51.41600036621094" y1="126.39999934605191" x2="46.41600036621094" y2="126.39999934605191" style="visibility: inherit;" fill="rgb(0, 0, 0)" stroke="rgb(204, 204, 204)" stroke-width="1px"></line><line x1="51.41600036621094" y1="101.11999947684151" x2="46.41600036621094" y2="101.11999947684151" style="visibility: inherit;" fill="rgb(0, 0, 0)" stroke="rgb(204, 204, 204)" stroke-width="1px"></line><line x1="51.41600036621094" y1="75.83999960763116" x2="46.41600036621094" y2="75.83999960763116" style="visibility: inherit;" fill="rgb(0, 0, 0)" stroke="rgb(204, 204, 204)" stroke-width="1px"></line><line x1="51.41600036621094" y1="50.55999973842076" x2="46.41600036621094" y2="50.55999973842076" style="visibility: inherit;" fill="rgb(0, 0, 0)" stroke="rgb(204, 204, 204)" stroke-width="1px"></line><line x1="51.41600036621094" y1="25.27999986921035" x2="46.41600036621094" y2="25.27999986921035" style="visibility: inherit;" fill="rgb(0, 0, 0)" stroke="rgb(204, 204, 204)" stroke-width="1px"></line><line x1="51.41600036621094" y1="0" x2="46.41600036621094" y2="0" style="visibility: inherit;" fill="rgb(0, 0, 0)" stroke="rgb(204, 204, 204)" stroke-width="1px"></line></g><g transform="translate(41.41600036621094, 0)"><text style="text-anchor: end; visibility: hidden; font-family: Roboto, sans-serif; font-size: 12px; font-weight: 200;" x="0" y="176.95999908447266" dx="0em" dy="0.3em" fill="rgb(33, 33, 33)" stroke="none" stroke-width="1px">0.5</text><text style="text-anchor: end; visibility: inherit; font-family: Roboto, sans-serif; font-size: 12px; font-weight: 200;" x="0" y="151.67999921526226" dx="0em" dy="0.3em" fill="rgb(33, 33, 33)" stroke="none" stroke-width="1px">0.55</text><text style="text-anchor: end; visibility: inherit; font-family: Roboto, sans-serif; font-size: 12px; font-weight: 200;" x="0" y="126.39999934605191" dx="0em" dy="0.3em" fill="rgb(33, 33, 33)" stroke="none" stroke-width="1px">0.6</text><text style="text-anchor: end; visibility: inherit; font-family: Roboto, sans-serif; font-size: 12px; font-weight: 200;" x="0" y="101.11999947684151" dx="0em" dy="0.3em" fill="rgb(33, 33, 33)" stroke="none" stroke-width="1px">0.65</text><text style="text-anchor: end; visibility: inherit; font-family: Roboto, sans-serif; font-size: 12px; font-weight: 200;" x="0" y="75.83999960763116" dx="0em" dy="0.3em" fill="rgb(33, 33, 33)" stroke="none" stroke-width="1px">0.7</text><text style="text-anchor: end; visibility: inherit; font-family: Roboto, sans-serif; font-size: 12px; font-weight: 200;" x="0" y="50.55999973842076" dx="0em" dy="0.3em" fill="rgb(33, 33, 33)" stroke="none" stroke-width="1px">0.75</text><text style="text-anchor: end; visibility: inherit; font-family: Roboto, sans-serif; font-size: 12px; font-weight: 200;" x="0" y="25.27999986921035" dx="0em" dy="0.3em" fill="rgb(33, 33, 33)" stroke="none" stroke-width="1px">0.8</text><text style="text-anchor: end; visibility: hidden; font-family: Roboto, sans-serif; font-size: 12px; font-weight: 200;" x="0" y="0" dx="0em" dy="0.3em" fill="rgb(33, 33, 33)" stroke="none" stroke-width="1px">0.85</text></g><line x1="51.41600036621094" y1="0" x2="51.41600036621094" y2="176.95999908447266" fill="rgb(0, 0, 0)" stroke="rgb(204, 204, 204)" stroke-width="1px"></line></g></g><g transform="translate(51, 0)" clip-path="url(#clip_0)"><clipPath id="clip_0"><rect width="278" height="176"></rect></clipPath><g><g><g><line x1="0" y1="0" x2="0" y2="176.95999908447266" fill="rgb(0, 0, 0)" stroke="rgb(66, 66, 66)" stroke-width="1px" opacity="0.25"></line><line x1="25.325818148526277" y1="0" x2="25.325818148526277" y2="176.95999908447266" fill="rgb(0, 0, 0)" stroke="rgb(66, 66, 66)" stroke-width="1px" opacity="0.25"></line><line x1="50.651636297052555" y1="0" x2="50.651636297052555" y2="176.95999908447266" fill="rgb(0, 0, 0)" stroke="rgb(66, 66, 66)" stroke-width="1px" opacity="0.25"></line><line x1="75.97745444557883" y1="0" x2="75.97745444557883" y2="176.95999908447266" fill="rgb(0, 0, 0)" stroke="rgb(66, 66, 66)" stroke-width="1px" opacity="0.25"></line><line x1="101.30327259410511" y1="0" x2="101.30327259410511" y2="176.95999908447266" fill="rgb(0, 0, 0)" stroke="rgb(66, 66, 66)" stroke-width="1px" opacity="0.25"></line><line x1="126.62909074263139" y1="0" x2="126.62909074263139" y2="176.95999908447266" fill="rgb(0, 0, 0)" stroke="rgb(66, 66, 66)" stroke-width="1px" opacity="0.25"></line><line x1="151.95490889115766" y1="0" x2="151.95490889115766" y2="176.95999908447266" fill="rgb(0, 0, 0)" stroke="rgb(66, 66, 66)" stroke-width="1px" opacity="0.25"></line><line x1="177.28072703968394" y1="0" x2="177.28072703968394" y2="176.95999908447266" fill="rgb(0, 0, 0)" stroke="rgb(66, 66, 66)" stroke-width="1px" opacity="0.25"></line><line x1="202.60654518821022" y1="0" x2="202.60654518821022" y2="176.95999908447266" fill="rgb(0, 0, 0)" stroke="rgb(66, 66, 66)" stroke-width="1px" opacity="0.25"></line><line x1="227.93236333673653" y1="0" x2="227.93236333673653" y2="176.95999908447266" fill="rgb(0, 0, 0)" stroke="rgb(66, 66, 66)" stroke-width="1px" opacity="0.25"></line><line x1="253.25818148526278" y1="0" x2="253.25818148526278" y2="176.95999908447266" fill="rgb(0, 0, 0)" stroke="rgb(66, 66, 66)" stroke-width="1px" opacity="0.25"></line><line x1="278.58399963378906" y1="0" x2="278.58399963378906" y2="176.95999908447266" fill="rgb(0, 0, 0)" stroke="rgb(66, 66, 66)" stroke-width="1px" opacity="0.25"></line></g><g><line x1="0" y1="176.95999908447266" x2="278.58399963378906" y2="176.95999908447266" fill="rgb(0, 0, 0)" stroke="rgb(66, 66, 66)" stroke-width="1px" opacity="0.25"></line><line x1="0" y1="151.67999921526226" x2="278.58399963378906" y2="151.67999921526226" fill="rgb(0, 0, 0)" stroke="rgb(66, 66, 66)" stroke-width="1px" opacity="0.25"></line><line x1="0" y1="126.39999934605191" x2="278.58399963378906" y2="126.39999934605191" fill="rgb(0, 0, 0)" stroke="rgb(66, 66, 66)" stroke-width="1px" opacity="0.25"></line><line x1="0" y1="101.11999947684151" x2="278.58399963378906" y2="101.11999947684151" fill="rgb(0, 0, 0)" stroke="rgb(66, 66, 66)" stroke-width="1px" opacity="0.25"></line><line x1="0" y1="75.83999960763116" x2="278.58399963378906" y2="75.83999960763116" fill="rgb(0, 0, 0)" stroke="rgb(66, 66, 66)" stroke-width="1px" opacity="0.25"></line><line x1="0" y1="50.55999973842076" x2="278.58399963378906" y2="50.55999973842076" fill="rgb(0, 0, 0)" stroke="rgb(66, 66, 66)" stroke-width="1px" opacity="0.25"></line><line x1="0" y1="25.27999986921035" x2="278.58399963378906" y2="25.27999986921035" fill="rgb(0, 0, 0)" stroke="rgb(66, 66, 66)" stroke-width="1px" opacity="0.25"></line><line x1="0" y1="0" x2="278.58399963378906" y2="0" fill="rgb(0, 0, 0)" stroke="rgb(66, 66, 66)" stroke-width="1px" opacity="0.25"></line></g></g></g><g><g><line x1="0" y1="429.7599977765765" x2="278.58399963378906" y2="429.7599977765765" fill="rgb(0, 0, 0)" stroke="rgb(153, 153, 153)" stroke-width="1.5px"></line></g></g><g><g><line x1="25.325818148526277" y1="0" x2="25.325818148526277" y2="176.95999908447266" fill="rgb(0, 0, 0)" stroke="rgb(153, 153, 153)" stroke-width="1.5px"></line></g></g><g><g><g><g><g><path style="fill: none;" stroke="rgb(255, 112, 67)" stroke-width="2px" d="M30.390981778231534,-51.48013950416811L35.45614540793679,14.331470377209097L40.52130903764204,45.36491968156798L45.5864726673473,103.18964687815355L50.651636297052555,119.95444826952895L55.716799926757815,124.71935541119998L60.78196355646307,97.6462095301527L65.84712718616832,52.494678789545084L70.91229081587358,99.26101651893929L75.97745444557883,61.13708353414539L81.04261807528408,42.47633110697333L86.10778170498935,69.10131220369892L91.1729453346946,90.34443880538649L96.23810896439986,115.5886201010737L101.30327259410511,124.2063344755835L106.36843622381038,106.6892219691629L111.43359985351563,40.9253343192951L116.49876348322087,-16.221990040162716L121.56392711292614,-87.51838066599004L126.62909074263139,17.4044755364263L131.69425437233664,96.70305090936229L136.7594180020419,107.75004551498616L141.82458163174715,133.77761445693764L146.8897452614524,140.52539571560476L151.95490889115766,154.93433708055423L157.02007252086293,148.8145124795346L162.08523615056816,150.80487946414803L167.15039978027343,156.3171472451549L172.2155634099787,148.78525483085085L177.28072703968394,130.33812498726L182.3458906693892,154.18003442375948L187.41105429909447,138.14935541548982L192.4762179287997,118.59884650597192L197.54138155850498,154.4535604988299L202.60654518821022,121.35464205163774L207.6717088179155,144.21474408173844L212.73687244762075,140.72706520223272L217.802036077326,160.5135136425227L222.86719970703126,82.70294014431403L227.93236333673653,98.34190139815789L232.99752696644174,133.6115683071237L238.062690596147,157.59763409192257L243.12785422585227,140.29329020499728L248.1930178555575,76.56144265721144L253.25818148526278,130.38269621771656L258.32334511496805,120.10043239373522L263.3885087446733,127.8182749561635L268.4536723743785,157.41596263411313" fill="none"></path></g></g></g></g><g opacity="0.2"><g><g><g><path style="fill: none;" stroke="rgb(255, 112, 67)" stroke-width="2px" d="M30.390981778231534,-51.48013950416811L35.45614540793679,53.81843630603544L40.52130903764204,75.15703101375246L45.5864726673473,171.19152606133812L50.651636297052555,141.84257296610875L55.716799926757815,131.31093735470208L60.78196355646307,58.93117774992086L65.84712718616832,-13.336686484955862L70.91229081587358,168.23228077635522L75.97745444557883,4.527486167372298L81.04261807528408,14.654454117298355L86.10778170498935,108.8938918774181L91.1729453346946,122.13976621379592L96.23810896439986,153.40543606546635L101.30327259410511,137.12277623759758L106.36843622381038,80.42590763444241L111.43359985351563,-57.692668082256205L121.56392711292614,-194.452105317217L126.62909074263139,174.77916947539416L131.69425437233664,215.64656504643168L136.7594180020419,124.32017391735903L141.82458163174715,172.81845400091905L146.8897452614524,150.64698766970338L151.95490889115766,176.54764671539021L157.02007252086293,139.63480167626142L162.08523615056816,153.7904248482646L167.15039978027343,164.58554045403562L172.2155634099787,137.48742314733215L177.28072703968394,102.66744041732194L182.3458906693892,189.9428906722721L187.41105429909447,114.10334009265378L192.4762179287997,89.27308547563318L197.54138155850498,208.23562891991722L202.60654518821022,71.70626580333399L207.6717088179155,178.5048965374174L212.73687244762075,135.49554693693426L217.802036077326,190.1931861192804L222.86719970703126,-34.012919669610454L227.93236333673653,121.80034322666037L232.99752696644174,186.51606859985233L238.062690596147,193.5767327402639L243.12785422585227,114.33677438710038L248.1930178555575,-19.036328636864454L253.25818148526278,211.11457654448793L258.32334511496805,104.67703665936642L263.3885087446733,139.3950387990839L268.4536723743785,201.81249414937625" fill="none"></path></g></g></g></g></g></g><g transform="translate(51, 176)" clip-path="url(#clip_1)"><clipPath id="clip_1"><rect width="278" height="23"></rect></clipPath><g><g><line x1="0" y1="0" x2="0" y2="5" style="visibility: inherit;" fill="rgb(0, 0, 0)" stroke="rgb(204, 204, 204)" stroke-width="1px"></line><line x1="25.325818148526277" y1="0" x2="25.325818148526277" y2="5" style="visibility: inherit;" fill="rgb(0, 0, 0)" stroke="rgb(204, 204, 204)" stroke-width="1px"></line><line x1="50.651636297052555" y1="0" x2="50.651636297052555" y2="5" style="visibility: inherit;" fill="rgb(0, 0, 0)" stroke="rgb(204, 204, 204)" stroke-width="1px"></line><line x1="75.97745444557883" y1="0" x2="75.97745444557883" y2="5" style="visibility: inherit;" fill="rgb(0, 0, 0)" stroke="rgb(204, 204, 204)" stroke-width="1px"></line><line x1="101.30327259410511" y1="0" x2="101.30327259410511" y2="5" style="visibility: inherit;" fill="rgb(0, 0, 0)" stroke="rgb(204, 204, 204)" stroke-width="1px"></line><line x1="126.62909074263139" y1="0" x2="126.62909074263139" y2="5" style="visibility: inherit;" fill="rgb(0, 0, 0)" stroke="rgb(204, 204, 204)" stroke-width="1px"></line><line x1="151.95490889115766" y1="0" x2="151.95490889115766" y2="5" style="visibility: inherit;" fill="rgb(0, 0, 0)" stroke="rgb(204, 204, 204)" stroke-width="1px"></line><line x1="177.28072703968394" y1="0" x2="177.28072703968394" y2="5" style="visibility: inherit;" fill="rgb(0, 0, 0)" stroke="rgb(204, 204, 204)" stroke-width="1px"></line><line x1="202.60654518821022" y1="0" x2="202.60654518821022" y2="5" style="visibility: inherit;" fill="rgb(0, 0, 0)" stroke="rgb(204, 204, 204)" stroke-width="1px"></line><line x1="227.93236333673653" y1="0" x2="227.93236333673653" y2="5" style="visibility: inherit;" fill="rgb(0, 0, 0)" stroke="rgb(204, 204, 204)" stroke-width="1px"></line><line x1="253.25818148526278" y1="0" x2="253.25818148526278" y2="5" style="visibility: inherit;" fill="rgb(0, 0, 0)" stroke="rgb(204, 204, 204)" stroke-width="1px"></line><line x1="278.58399963378906" y1="0" x2="278.58399963378906" y2="5" style="visibility: inherit;" fill="rgb(0, 0, 0)" stroke="rgb(204, 204, 204)" stroke-width="1px"></line></g><g transform="translate(0, 8)"><text style="text-anchor: middle; visibility: hidden; font-family: Roboto, sans-serif; font-size: 12px; font-weight: 200;" x="0" y="0" dx="0em" dy="0.95em" fill="rgb(33, 33, 33)" stroke="none" stroke-width="1px">-500</text><text style="text-anchor: middle; visibility: inherit; font-family: Roboto, sans-serif; font-size: 12px; font-weight: 200;" x="25.325818148526277" y="0" dx="0em" dy="0.95em" fill="rgb(33, 33, 33)" stroke="none" stroke-width="1px">0</text><text style="text-anchor: middle; visibility: inherit; font-family: Roboto, sans-serif; font-size: 12px; font-weight: 200;" x="50.651636297052555" y="0" dx="0em" dy="0.95em" fill="rgb(33, 33, 33)" stroke="none" stroke-width="1px">500</text><text style="text-anchor: middle; visibility: inherit; font-family: Roboto, sans-serif; font-size: 12px; font-weight: 200;" x="75.97745444557883" y="0" dx="0em" dy="0.95em" fill="rgb(33, 33, 33)" stroke="none" stroke-width="1px">1k</text><text style="text-anchor: middle; visibility: inherit; font-family: Roboto, sans-serif; font-size: 12px; font-weight: 200;" x="101.30327259410511" y="0" dx="0em" dy="0.95em" fill="rgb(33, 33, 33)" stroke="none" stroke-width="1px">1.5k</text><text style="text-anchor: middle; visibility: inherit; font-family: Roboto, sans-serif; font-size: 12px; font-weight: 200;" x="126.62909074263139" y="0" dx="0em" dy="0.95em" fill="rgb(33, 33, 33)" stroke="none" stroke-width="1px">2k</text><text style="text-anchor: middle; visibility: inherit; font-family: Roboto, sans-serif; font-size: 12px; font-weight: 200;" x="151.95490889115766" y="0" dx="0em" dy="0.95em" fill="rgb(33, 33, 33)" stroke="none" stroke-width="1px">2.5k</text><text style="text-anchor: middle; visibility: inherit; font-family: Roboto, sans-serif; font-size: 12px; font-weight: 200;" x="177.28072703968394" y="0" dx="0em" dy="0.95em" fill="rgb(33, 33, 33)" stroke="none" stroke-width="1px">3k</text><text style="text-anchor: middle; visibility: inherit; font-family: Roboto, sans-serif; font-size: 12px; font-weight: 200;" x="202.60654518821022" y="0" dx="0em" dy="0.95em" fill="rgb(33, 33, 33)" stroke="none" stroke-width="1px">3.5k</text><text style="text-anchor: middle; visibility: inherit; font-family: Roboto, sans-serif; font-size: 12px; font-weight: 200;" x="227.93236333673653" y="0" dx="0em" dy="0.95em" fill="rgb(33, 33, 33)" stroke="none" stroke-width="1px">4k</text><text style="text-anchor: middle; visibility: inherit; font-family: Roboto, sans-serif; font-size: 12px; font-weight: 200;" x="253.25818148526278" y="0" dx="0em" dy="0.95em" fill="rgb(33, 33, 33)" stroke="none" stroke-width="1px">4.5k</text><text style="text-anchor: middle; visibility: hidden; font-family: Roboto, sans-serif; font-size: 12px; font-weight: 200;" x="278.58399963378906" y="0" dx="0em" dy="0.95em" fill="rgb(33, 33, 33)" stroke="none" stroke-width="1px">5k</text></g><line x1="0" y1="0" x2="278.58399963378906" y2="0" fill="rgb(0, 0, 0)" stroke="rgb(204, 204, 204)" stroke-width="1px"></line></g></g></g></g></svg>