<svg viewBox="0 0 330 200" xmlns="http://www.w3.org/2000/svg"><g><g><g><g><g><line x1="61.77000045776367" y1="176.95999908447266" x2="56.77000045776367" y2="176.95999908447266" style="visibility: inherit;" fill="rgb(0, 0, 0)" stroke="rgb(204, 204, 204)" stroke-width="1px"></line><line x1="61.77000045776367" y1="164.31999914986744" x2="56.77000045776367" y2="164.31999914986744" style="visibility: inherit;" fill="rgb(0, 0, 0)" stroke="rgb(204, 204, 204)" stroke-width="1px"></line><line x1="61.77000045776367" y1="151.67999921526226" x2="56.77000045776367" y2="151.67999921526226" style="visibility: inherit;" fill="rgb(0, 0, 0)" stroke="rgb(204, 204, 204)" stroke-width="1px"></line><line x1="61.77000045776367" y1="139.0399992806571" x2="56.77000045776367" y2="139.0399992806571" style="visibility: inherit;" fill="rgb(0, 0, 0)" stroke="rgb(204, 204, 204)" stroke-width="1px"></line><line x1="61.77000045776367" y1="126.39999934605189" x2="56.77000045776367" y2="126.39999934605189" style="visibility: inherit;" fill="rgb(0, 0, 0)" stroke="rgb(204, 204, 204)" stroke-width="1px"></line><line x1="61.77000045776367" y1="113.7599994114467" x2="56.77000045776367" y2="113.7599994114467" style="visibility: inherit;" fill="rgb(0, 0, 0)" stroke="rgb(204, 204, 204)" stroke-width="1px"></line><line x1="61.77000045776367" y1="101.11999947684153" x2="56.77000045776367" y2="101.11999947684153" style="visibility: inherit;" fill="rgb(0, 0, 0)" stroke="rgb(204, 204, 204)" stroke-width="1px"></line><line x1="61.77000045776367" y1="88.47999954223633" x2="56.77000045776367" y2="88.47999954223633" style="visibility: inherit;" fill="rgb(0, 0, 0)" stroke="rgb(204, 204, 204)" stroke-width="1px"></line><line x1="61.77000045776367" y1="75.83999960763113" x2="56.77000045776367" y2="75.83999960763113" style="visibility: inherit;" fill="rgb(0, 0, 0)" stroke="rgb(204, 204, 204)" stroke-width="1px"></line><line x1="61.77000045776367" y1="63.19999967302596" x2="56.77000045776367" y2="63.19999967302596" style="visibility: inherit;" fill="rgb(0, 0, 0)" stroke="rgb(204, 204, 204)" stroke-width="1px"></line><line x1="61.77000045776367" y1="50.55999973842076" x2="56.77000045776367" y2="50.55999973842076" style="visibility: inherit;" fill="rgb(0, 0, 0)" stroke="rgb(204, 204, 204)" stroke-width="1px"></line><line x1="61.77000045776367" y1="37.91999980381557" x2="56.77000045776367" y2="37.91999980381557" style="visibility: inherit;" fill="rgb(0, 0, 0)" stroke="rgb(204, 204, 204)" stroke-width="1px"></line><line x1="61.77000045776367" y1="25.279999869210407" x2="56.77000045776367" y2="25.279999869210407" style="visibility: inherit;" fill="rgb(0, 0, 0)" stroke="rgb(204, 204, 204)" stroke-width="1px"></line><line x1="61.77000045776367" y1="12.639999934605203" x2="56.77000045776367" y2="12.639999934605203" style="visibility: inherit;" fill="rgb(0, 0, 0)" stroke="rgb(204, 204, 204)" stroke-width="1px"></line><line x1="61.77000045776367" y1="0" x2="56.77000045776367" y2="0" style="visibility: inherit;" fill="rgb(0, 0, 0)" stroke="rgb(204, 204, 204)" stroke-width="1px"></line></g><g transform="translate(51.77000045776367, 0)"><text style="text-anchor: end; visibility: hidden; font-family: Roboto, sans-serif; font-size: 12px; font-weight: 200;" x="0" y="176.95999908447266" dx="0em" dy="0.3em" fill="rgb(33, 33, 33)" stroke="none" stroke-width="1px">0.06</text><text style="text-anchor: end; visibility: inherit; font-family: Roboto, sans-serif; font-size: 12px; font-weight: 200;" x="0" y="164.31999914986744" dx="0em" dy="0.3em" fill="rgb(33, 33, 33)" stroke="none" stroke-width="1px">0.065</text><text style="text-anchor: end; visibility: hidden; font-family: Roboto, sans-serif; font-size: 12px; font-weight: 200;" x="0" y="151.67999921526226" dx="0em" dy="0.3em" fill="rgb(33, 33, 33)" stroke="none" stroke-width="1px">0.07</text><text style="text-anchor: end; visibility: inherit; font-family: Roboto, sans-serif; font-size: 12px; font-weight: 200;" x="0" y="139.0399992806571" dx="0em" dy="0.3em" fill="rgb(33, 33, 33)" stroke="none" stroke-width="1px">0.075</text><text style="text-anchor: end; visibility: hidden; font-family: Roboto, sans-serif; font-size: 12px; font-weight: 200;" x="0" y="126.39999934605189" dx="0em" dy="0.3em" fill="rgb(33, 33, 33)" stroke="none" stroke-width="1px">0.08</text><text style="text-anchor: end; visibility: inherit; font-family: Roboto, sans-serif; font-size: 12px; font-weight: 200;" x="0" y="113.7599994114467" dx="0em" dy="0.3em" fill="rgb(33, 33, 33)" stroke="none" stroke-width="1px">0.085</text><text style="text-anchor: end; visibility: hidden; font-family: Roboto, sans-serif; font-size: 12px; font-weight: 200;" x="0" y="101.11999947684153" dx="0em" dy="0.3em" fill="rgb(33, 33, 33)" stroke="none" stroke-width="1px">0.09</text><text style="text-anchor: end; visibility: inherit; font-family: Roboto, sans-serif; font-size: 12px; font-weight: 200;" x="0" y="88.47999954223633" dx="0em" dy="0.3em" fill="rgb(33, 33, 33)" stroke="none" stroke-width="1px">0.095</text><text style="text-anchor: end; visibility: hidden; font-family: Roboto, sans-serif; font-size: 12px; font-weight: 200;" x="0" y="75.83999960763113" dx="0em" dy="0.3em" fill="rgb(33, 33, 33)" stroke="none" stroke-width="1px">0.1</text><text style="text-anchor: end; visibility: inherit; font-family: Roboto, sans-serif; font-size: 12px; font-weight: 200;" x="0" y="63.19999967302596" dx="0em" dy="0.3em" fill="rgb(33, 33, 33)" stroke="none" stroke-width="1px">0.105</text><text style="text-anchor: end; visibility: hidden; font-family: Roboto, sans-serif; font-size: 12px; font-weight: 200;" x="0" y="50.55999973842076" dx="0em" dy="0.3em" fill="rgb(33, 33, 33)" stroke="none" stroke-width="1px">0.11</text><text style="text-anchor: end; visibility: inherit; font-family: Roboto, sans-serif; font-size: 12px; font-weight: 200;" x="0" y="37.91999980381557" dx="0em" dy="0.3em" fill="rgb(33, 33, 33)" stroke="none" stroke-width="1px">0.115</text><text style="text-anchor: end; visibility: hidden; font-family: Roboto, sans-serif; font-size: 12px; font-weight: 200;" x="0" y="25.279999869210407" dx="0em" dy="0.3em" fill="rgb(33, 33, 33)" stroke="none" stroke-width="1px">0.12</text><text style="text-anchor: end; visibility: inherit; font-family: Roboto, sans-serif; font-size: 12px; font-weight: 200;" x="0" y="12.639999934605203" dx="0em" dy="0.3em" fill="rgb(33, 33, 33)" stroke="none" stroke-width="1px">0.125</text><text style="text-anchor: end; visibility: hidden; font-family: Roboto, sans-serif; font-size: 12px; font-weight: 200;" x="0" y="0" dx="0em" dy="0.3em" fill="rgb(33, 33, 33)" stroke="none" stroke-width="1px">0.13</text></g><line x1="61.77000045776367" y1="0" x2="61.77000045776367" y2="176.95999908447266" fill="rgb(0, 0, 0)" stroke="rgb(204, 204, 204)" stroke-width="1px"></line></g></g><g transform="translate(61, 0)" clip-path="url(#clip_0)"><clipPath id="clip_0"><rect width="268" height="176"></rect></clipPath><g><g><g><line x1="0" y1="0" x2="0" y2="176.95999908447266" fill="rgb(0, 0, 0)" stroke="rgb(66, 66, 66)" stroke-width="1px" opacity="0.25"></line><line x1="22.352499961853027" y1="0" x2="22.352499961853027" y2="176.95999908447266" fill="rgb(0, 0, 0)" stroke="rgb(66, 66, 66)" stroke-width="1px" opacity="0.25"></line><line x1="44.704999923706055" y1="0" x2="44.704999923706055" y2="176.95999908447266" fill="rgb(0, 0, 0)" stroke="rgb(66, 66, 66)" stroke-width="1px" opacity="0.25"></line><line x1="67.05749988555908" y1="0" x2="67.05749988555908" y2="176.95999908447266" fill="rgb(0, 0, 0)" stroke="rgb(66, 66, 66)" stroke-width="1px" opacity="0.25"></line><line x1="89.40999984741211" y1="0" x2="89.40999984741211" y2="176.95999908447266" fill="rgb(0, 0, 0)" stroke="rgb(66, 66, 66)" stroke-width="1px" opacity="0.25"></line><line x1="111.76249980926514" y1="0" x2="111.76249980926514" y2="176.95999908447266" fill="rgb(0, 0, 0)" stroke="rgb(66, 66, 66)" stroke-width="1px" opacity="0.25"></line><line x1="134.11499977111816" y1="0" x2="134.11499977111816" y2="176.95999908447266" fill="rgb(0, 0, 0)" stroke="rgb(66, 66, 66)" stroke-width="1px" opacity="0.25"></line><line x1="156.4674997329712" y1="0" x2="156.4674997329712" y2="176.95999908447266" fill="rgb(0, 0, 0)" stroke="rgb(66, 66, 66)" stroke-width="1px" opacity="0.25"></line><line x1="178.81999969482422" y1="0" x2="178.81999969482422" y2="176.95999908447266" fill="rgb(0, 0, 0)" stroke="rgb(66, 66, 66)" stroke-width="1px" opacity="0.25"></line><line x1="201.17249965667725" y1="0" x2="201.17249965667725" y2="176.95999908447266" fill="rgb(0, 0, 0)" stroke="rgb(66, 66, 66)" stroke-width="1px" opacity="0.25"></line><line x1="223.52499961853027" y1="0" x2="223.52499961853027" y2="176.95999908447266" fill="rgb(0, 0, 0)" stroke="rgb(66, 66, 66)" stroke-width="1px" opacity="0.25"></line><line x1="245.8774995803833" y1="0" x2="245.8774995803833" y2="176.95999908447266" fill="rgb(0, 0, 0)" stroke="rgb(66, 66, 66)" stroke-width="1px" opacity="0.25"></line><line x1="268.2299995422363" y1="0" x2="268.2299995422363" y2="176.95999908447266" fill="rgb(0, 0, 0)" stroke="rgb(66, 66, 66)" stroke-width="1px" opacity="0.25"></line></g><g><line x1="0" y1="176.95999908447266" x2="268.2299995422363" y2="176.95999908447266" fill="rgb(0, 0, 0)" stroke="rgb(66, 66, 66)" stroke-width="1px" opacity="0.25"></line><line x1="0" y1="164.31999914986744" x2="268.2299995422363" y2="164.31999914986744" fill="rgb(0, 0, 0)" stroke="rgb(66, 66, 66)" stroke-width="1px" opacity="0.25"></line><line x1="0" y1="151.67999921526226" x2="268.2299995422363" y2="151.67999921526226" fill="rgb(0, 0, 0)" stroke="rgb(66, 66, 66)" stroke-width="1px" opacity="0.25"></line><line x1="0" y1="139.0399992806571" x2="268.2299995422363" y2="139.0399992806571" fill="rgb(0, 0, 0)" stroke="rgb(66, 66, 66)" stroke-width="1px" opacity="0.25"></line><line x1="0" y1="126.39999934605189" x2="268.2299995422363" y2="126.39999934605189" fill="rgb(0, 0, 0)" stroke="rgb(66, 66, 66)" stroke-width="1px" opacity="0.25"></line><line x1="0" y1="113.7599994114467" x2="268.2299995422363" y2="113.7599994114467" fill="rgb(0, 0, 0)" stroke="rgb(66, 66, 66)" stroke-width="1px" opacity="0.25"></line><line x1="0" y1="101.11999947684153" x2="268.2299995422363" y2="101.11999947684153" fill="rgb(0, 0, 0)" stroke="rgb(66, 66, 66)" stroke-width="1px" opacity="0.25"></line><line x1="0" y1="88.47999954223633" x2="268.2299995422363" y2="88.47999954223633" fill="rgb(0, 0, 0)" stroke="rgb(66, 66, 66)" stroke-width="1px" opacity="0.25"></line><line x1="0" y1="75.83999960763113" x2="268.2299995422363" y2="75.83999960763113" fill="rgb(0, 0, 0)" stroke="rgb(66, 66, 66)" stroke-width="1px" opacity="0.25"></line><line x1="0" y1="63.19999967302596" x2="268.2299995422363" y2="63.19999967302596" fill="rgb(0, 0, 0)" stroke="rgb(66, 66, 66)" stroke-width="1px" opacity="0.25"></line><line x1="0" y1="50.55999973842076" x2="268.2299995422363" y2="50.55999973842076" fill="rgb(0, 0, 0)" stroke="rgb(66, 66, 66)" stroke-width="1px" opacity="0.25"></line><line x1="0" y1="37.91999980381557" x2="268.2299995422363" y2="37.91999980381557" fill="rgb(0, 0, 0)" stroke="rgb(66, 66, 66)" stroke-width="1px" opacity="0.25"></line><line x1="0" y1="25.279999869210407" x2="268.2299995422363" y2="25.279999869210407" fill="rgb(0, 0, 0)" stroke="rgb(66, 66, 66)" stroke-width="1px" opacity="0.25"></line><line x1="0" y1="12.639999934605203" x2="268.2299995422363" y2="12.639999934605203" fill="rgb(0, 0, 0)" stroke="rgb(66, 66, 66)" stroke-width="1px" opacity="0.25"></line><line x1="0" y1="0" x2="268.2299995422363" y2="0" fill="rgb(0, 0, 0)" stroke="rgb(66, 66, 66)" stroke-width="1px" opacity="0.25"></line></g></g></g><g><g><line x1="0" y1="328.6399982997349" x2="268.2299995422363" y2="328.6399982997349" fill="rgb(0, 0, 0)" stroke="rgb(153, 153, 153)" stroke-width="1.5px"></line></g></g><g><g><line x1="22.352499961853027" y1="0" x2="22.352499961853027" y2="176.95999908447266" fill="rgb(0, 0, 0)" stroke="rgb(153, 153, 153)" stroke-width="1.5px"></line></g></g><g><g><g><g><g><path style="fill: none;" stroke="rgb(255, 112, 67)" stroke-width="2px" d="M29.058249950408936,-5.1099748568953896L31.29349994659424,59.074731431147846L33.52874994277954,101.18129522201136L35.763999938964844,62.851417121480594L37.99924993515015,94.71347235166004L40.23449993133545,79.22358071684057L42.46974992752075,49.72265895514031L44.704999923706055,26.491197063855996L46.94024991989136,13.729584671610084L49.17549991607666,45.35256326324345L51.41074991226196,85.37349992822492L53.645999908447266,96.90613956910725L55.88124990463257,37.26136717470196L58.11649990081787,55.616558381100276L60.351749897003174,51.957882378991165L62.58699989318848,75.22492207118141L64.82224988937378,76.41100674040013L67.05749988555908,79.82419367538641L69.29274988174438,101.43551321567129L71.52799987792969,97.48666008038674L73.76324987411499,101.03704135312569L75.9984998703003,97.93849207171607L78.2337498664856,98.5873285596632L80.4689998626709,81.16079468268919L82.7042498588562,110.71066322310638L84.9394998550415,133.43776013078624L87.1747498512268,94.47133768378588L89.40999984741211,46.280083437874204L91.64524984359741,86.4937368328201L93.88049983978271,103.58710246848308L96.11574983596802,131.1928974614318L98.35099983215332,140.92078456869675L100.58624982833862,-63.00027261678928L102.82149982452393,33.10112814435092L105.05674982070923,72.49603944125602L107.29199981689453,56.14580579339613L109.52724981307983,65.56522252887675L111.76249980926514,51.719586502545404L113.99774980545044,57.47029256754336L116.23299980163574,76.15509151357402L118.46824979782104,92.85841221671075L120.70349979400635,103.17945277167554L122.93874979019165,114.24532689569874L125.17399978637695,141.59940638396685L127.40924978256226,61.131253882594265L129.64449977874756,90.91675287740671L131.87974977493286,78.34775768835907L134.11499977111816,121.04917476100228L136.35024976730347,137.324787702207L138.58549976348877,160.92452395804392L140.82074975967407,92.32544790183631L143.05599975585938,83.06912614949222L145.29124975204468,109.99703258750392L147.52649974822998,104.72525559557934L149.76174974441528,109.93612486583204L151.9969997406006,93.7282762010135L154.2322497367859,93.99413892614501L156.4674997329712,42.267806686227466L158.7027497291565,29.62277835003712L160.9379997253418,79.51242435433588L163.1732497215271,69.91193233814701L165.4084997177124,42.76111037218772L167.6437497138977,-54.27408224926326L169.878999710083,10.955018976923807L172.1142497062683,84.10455481781305L174.3494997024536,82.65901812069178L176.58474969863892,49.94252338892974L178.81999969482422,99.98886081616283L181.05524969100952,95.41660632641936L183.29049968719482,132.0010896088385L185.52574968338013,128.57974930832583L187.76099967956543,96.35039422823269L189.99624967575073,116.95929262359336L192.23149967193604,136.48265803292588L194.46674966812134,145.01003245477148L196.70199966430664,106.26401455526629L198.93724966049194,124.96809656116672L201.17249965667725,148.59150910234328L203.40774965286255,150.89670655265118L205.64299964904785,144.76383442298803L207.87824964523315,181.34055739382694L210.11349964141846,181.4123497466836L212.34874963760376,163.20471924772374L214.58399963378906,149.0909646915015L216.81924962997437,48.24808150764172L219.05449962615967,70.98256942457496L221.28974962234497,125.46708000808616L223.52499961853027,51.770984378311226L225.76024961471558,59.65880883231168L227.99549961090088,86.70608621397136L230.23074960708618,73.20414970000984L232.46599960327148,131.09941112382091L234.7012495994568,164.40036770058006L236.9364995956421,187.5195909509997L239.1717495918274,151.8230694802849L241.4069995880127,161.7634912153586L243.642249584198,157.96821457323728L245.8774995803833,144.39143946215947L248.1127495765686,145.8399879933346" fill="none"></path></g></g></g></g><g opacity="0.2"><g><g><g><path style="fill: none;" stroke="rgb(255, 112, 67)" stroke-width="2px" d="M26.822999954223633,-1.6013830674291036L29.058249950408936,16.71391205723552L31.29349994659424,134.55594602588658L33.52874994277954,156.15562490736272L35.763999938964844,9.82739695233042L37.99924993515015,140.27672112370024L40.23449993133545,56.63917001031405L42.46974992752075,6.21452961567542L44.704999923706055,-8.004816357206545L46.94024991989136,-5.297087031615774L49.17549991607666,92.6149402976686L51.41074991226196,145.27422962369334L53.645999908447266,114.18250538879877L55.88124990463257,-52.13568122593522L58.11649990081787,83.13639968775634L60.351749897003174,46.47141660489529L62.58699989318848,110.11957411060934L64.82224988937378,78.18995305616669L67.05749988555908,84.9436620990605L69.29274988174438,133.85130730997344L71.52799987792969,91.56351031615458L73.76324987411499,106.36254316614915L75.9984998703003,93.29070485487188L78.2337498664856,99.56057867993198L80.4689998626709,55.021068183434686L82.7042498588562,155.0353904237175L84.9394998550415,167.52837060085884L87.1747498512268,36.0217399068677L89.40999984741211,-26.006771296419537L91.64524984359741,146.814203589954L93.88049983978271,129.22714752096994L96.11574983596802,172.60158665527743L98.35099983215332,155.51261453280551L100.58624982833862,-368.88184963114986L102.82149982452393,177.2532268079846L105.05674982070923,131.58840577710995L107.29199981689453,31.62045547338531L109.52724981307983,79.69434757963349L111.76249980926514,30.951132509318843L113.99774980545044,66.09635165350942L116.23299980163574,104.18228991014078L118.46824979782104,117.91339325935857L120.70349979400635,118.66101359965263L122.93874979019165,130.84413807885787L125.17399978637695,182.63052561210407L127.40924978256226,-59.57097486193668L129.64449977874756,135.59500136795353L131.87974977493286,59.494264905210784L134.11499977111816,185.1013003691042L136.35024976730347,161.73820711381677L138.58549976348877,196.32412834162756L140.82074975967407,-10.573166182175664L143.05599975585938,69.18464352100032L145.29124975204468,150.38889224447922L147.52649974822998,96.81759010769744L149.76174974441528,117.75242877120819L151.9969997406006,69.41650320379125L154.2322497367859,94.3929330138422L156.4674997329712,-35.321691673642526L158.7027497291565,10.655235845752559L160.9379997253418,154.34689336078173L163.1732497215271,55.511194313864024L165.4084997177124,2.0348774232491462L167.6437497138977,-199.82687118143866L169.878999710083,108.7986708162042L172.1142497062683,193.82885857914658L174.3494997024536,80.49071307500984L176.58474969863892,0.8677812912867932L178.81999969482422,175.05836695701242L181.05524969100952,88.55822459180416L183.29049968719482,186.87781453246717L185.52574968338013,123.44773885755691L187.76099967956543,48.00636160809295L189.99624967575073,147.87264021663438L192.23149967193604,165.76770614692467L194.46674966812134,157.80109408753984L196.70199966430664,48.14498770600855L198.93724966049194,153.02421957001735L201.17249965667725,184.02662791410813L203.40774965286255,154.35450272811298L205.64299964904785,135.56452622849326L207.87824964523315,236.20564185008533L210.11349964141846,181.52003827596855L212.34874963760376,135.8932734992839L214.58399963378906,127.92033285716818L216.81924962997437,-103.01624326814797L219.05449962615967,105.08430129997484L221.28974962234497,207.193845883353L223.52499961853027,-58.773159066351184L225.76024961471558,71.49054551331237L227.99549961090088,127.27700228646088L230.23074960708618,52.951244929067514L232.46599960327148,217.94230325953754L236.9364995956421,222.19842582662923L239.1717495918274,98.27828727421257L241.4069995880127,176.6741238179692L243.642249584198,152.27529961005533L245.8774995803833,124.02627679554277L248.1127495765686,148.01281079009743" fill="none"></path></g></g></g></g></g></g><g transform="translate(61, 176)" clip-path="url(#clip_1)"><clipPath id="clip_1"><rect width="268" height="23"></rect></clipPath><g><g><line x1="0" y1="0" x2="0" y2="5" style="visibility: inherit;" fill="rgb(0, 0, 0)" stroke="rgb(204, 204, 204)" stroke-width="1px"></line><line x1="22.352499961853027" y1="0" x2="22.352499961853027" y2="5" style="visibility: inherit;" fill="rgb(0, 0, 0)" stroke="rgb(204, 204, 204)" stroke-width="1px"></line><line x1="44.704999923706055" y1="0" x2="44.704999923706055" y2="5" style="visibility: inherit;" fill="rgb(0, 0, 0)" stroke="rgb(204, 204, 204)" stroke-width="1px"></line><line x1="67.05749988555908" y1="0" x2="67.05749988555908" y2="5" style="visibility: inherit;" fill="rgb(0, 0, 0)" stroke="rgb(204, 204, 204)" stroke-width="1px"></line><line x1="89.40999984741211" y1="0" x2="89.40999984741211" y2="5" style="visibility: inherit;" fill="rgb(0, 0, 0)" stroke="rgb(204, 204, 204)" stroke-width="1px"></line><line x1="111.76249980926514" y1="0" x2="111.76249980926514" y2="5" style="visibility: inherit;" fill="rgb(0, 0, 0)" stroke="rgb(204, 204, 204)" stroke-width="1px"></line><line x1="134.11499977111816" y1="0" x2="134.11499977111816" y2="5" style="visibility: inherit;" fill="rgb(0, 0, 0)" stroke="rgb(204, 204, 204)" stroke-width="1px"></line><line x1="156.4674997329712" y1="0" x2="156.4674997329712" y2="5" style="visibility: inherit;" fill="rgb(0, 0, 0)" stroke="rgb(204, 204, 204)" stroke-width="1px"></line><line x1="178.81999969482422" y1="0" x2="178.81999969482422" y2="5" style="visibility: inherit;" fill="rgb(0, 0, 0)" stroke="rgb(204, 204, 204)" stroke-width="1px"></line><line x1="201.17249965667725" y1="0" x2="201.17249965667725" y2="5" style="visibility: inherit;" fill="rgb(0, 0, 0)" stroke="rgb(204, 204, 204)" stroke-width="1px"></line><line x1="223.52499961853027" y1="0" x2="223.52499961853027" y2="5" style="visibility: inherit;" fill="rgb(0, 0, 0)" stroke="rgb(204, 204, 204)" stroke-width="1px"></line><line x1="245.8774995803833" y1="0" x2="245.8774995803833" y2="5" style="visibility: inherit;" fill="rgb(0, 0, 0)" stroke="rgb(204, 204, 204)" stroke-width="1px"></line><line x1="268.2299995422363" y1="0" x2="268.2299995422363" y2="5" style="visibility: inherit;" fill="rgb(0, 0, 0)" stroke="rgb(204, 204, 204)" stroke-width="1px"></line></g><g transform="translate(0, 8)"><text style="text-anchor: middle; visibility: hidden; font-family: Roboto, sans-serif; font-size: 12px; font-weight: 200;" x="0" y="0" dx="0em" dy="0.95em" fill="rgb(33, 33, 33)" stroke="none" stroke-width="1px">-1k</text><text style="text-anchor: middle; visibility: inherit; font-family: Roboto, sans-serif; font-size: 12px; font-weight: 200;" x="22.352499961853027" y="0" dx="0em" dy="0.95em" fill="rgb(33, 33, 33)" stroke="none" stroke-width="1px">0</text><text style="text-anchor: middle; visibility: hidden; font-family: Roboto, sans-serif; font-size: 12px; font-weight: 200;" x="44.704999923706055" y="0" dx="0em" dy="0.95em" fill="rgb(33, 33, 33)" stroke="none" stroke-width="1px">1k</text><text style="text-anchor: middle; visibility: inherit; font-family: Roboto, sans-serif; font-size: 12px; font-weight: 200;" x="67.05749988555908" y="0" dx="0em" dy="0.95em" fill="rgb(33, 33, 33)" stroke="none" stroke-width="1px">2k</text><text style="text-anchor: middle; visibility: hidden; font-family: Roboto, sans-serif; font-size: 12px; font-weight: 200;" x="89.40999984741211" y="0" dx="0em" dy="0.95em" fill="rgb(33, 33, 33)" stroke="none" stroke-width="1px">3k</text><text style="text-anchor: middle; visibility: inherit; font-family: Roboto, sans-serif; font-size: 12px; font-weight: 200;" x="111.76249980926514" y="0" dx="0em" dy="0.95em" fill="rgb(33, 33, 33)" stroke="none" stroke-width="1px">4k</text><text style="text-anchor: middle; visibility: hidden; font-family: Roboto, sans-serif; font-size: 12px; font-weight: 200;" x="134.11499977111816" y="0" dx="0em" dy="0.95em" fill="rgb(33, 33, 33)" stroke="none" stroke-width="1px">5k</text><text style="text-anchor: middle; visibility: inherit; font-family: Roboto, sans-serif; font-size: 12px; font-weight: 200;" x="156.4674997329712" y="0" dx="0em" dy="0.95em" fill="rgb(33, 33, 33)" stroke="none" stroke-width="1px">6k</text><text style="text-anchor: middle; visibility: hidden; font-family: Roboto, sans-serif; font-size: 12px; font-weight: 200;" x="178.81999969482422" y="0" dx="0em" dy="0.95em" fill="rgb(33, 33, 33)" stroke="none" stroke-width="1px">7k</text><text style="text-anchor: middle; visibility: inherit; font-family: Roboto, sans-serif; font-size: 12px; font-weight: 200;" x="201.17249965667725" y="0" dx="0em" dy="0.95em" fill="rgb(33, 33, 33)" stroke="none" stroke-width="1px">8k</text><text style="text-anchor: middle; visibility: hidden; font-family: Roboto, sans-serif; font-size: 12px; font-weight: 200;" x="223.52499961853027" y="0" dx="0em" dy="0.95em" fill="rgb(33, 33, 33)" stroke="none" stroke-width="1px">9k</text><text style="text-anchor: middle; visibility: inherit; font-family: Roboto, sans-serif; font-size: 12px; font-weight: 200;" x="245.8774995803833" y="0" dx="0em" dy="0.95em" fill="rgb(33, 33, 33)" stroke="none" stroke-width="1px">10k</text><text style="text-anchor: middle; visibility: hidden; font-family: Roboto, sans-serif; font-size: 12px; font-weight: 200;" x="268.2299995422363" y="0" dx="0em" dy="0.95em" fill="rgb(33, 33, 33)" stroke="none" stroke-width="1px">11k</text></g><line x1="0" y1="0" x2="268.2299995422363" y2="0" fill="rgb(0, 0, 0)" stroke="rgb(204, 204, 204)" stroke-width="1px"></line></g></g></g></g></svg>