<svg viewBox="0 0 330 200" xmlns="http://www.w3.org/2000/svg"><g><g><g><g><g><line x1="51.41600036621094" y1="176.95999908447266" x2="46.41600036621094" y2="176.95999908447266" style="visibility: inherit;" fill="rgb(0, 0, 0)" stroke="rgb(204, 204, 204)" stroke-width="1px"></line><line x1="51.41600036621094" y1="154.8399991989136" x2="46.41600036621094" y2="154.8399991989136" style="visibility: inherit;" fill="rgb(0, 0, 0)" stroke="rgb(204, 204, 204)" stroke-width="1px"></line><line x1="51.41600036621094" y1="132.7199993133545" x2="46.41600036621094" y2="132.7199993133545" style="visibility: inherit;" fill="rgb(0, 0, 0)" stroke="rgb(204, 204, 204)" stroke-width="1px"></line><line x1="51.41600036621094" y1="110.59999942779537" x2="46.41600036621094" y2="110.59999942779537" style="visibility: inherit;" fill="rgb(0, 0, 0)" stroke="rgb(204, 204, 204)" stroke-width="1px"></line><line x1="51.41600036621094" y1="88.47999954223634" x2="46.41600036621094" y2="88.47999954223634" style="visibility: inherit;" fill="rgb(0, 0, 0)" stroke="rgb(204, 204, 204)" stroke-width="1px"></line><line x1="51.41600036621094" y1="66.35999965667725" x2="46.41600036621094" y2="66.35999965667725" style="visibility: inherit;" fill="rgb(0, 0, 0)" stroke="rgb(204, 204, 204)" stroke-width="1px"></line><line x1="51.41600036621094" y1="44.23999977111814" x2="46.41600036621094" y2="44.23999977111814" style="visibility: inherit;" fill="rgb(0, 0, 0)" stroke="rgb(204, 204, 204)" stroke-width="1px"></line><line x1="51.41600036621094" y1="22.119999885559103" x2="46.41600036621094" y2="22.119999885559103" style="visibility: inherit;" fill="rgb(0, 0, 0)" stroke="rgb(204, 204, 204)" stroke-width="1px"></line><line x1="51.41600036621094" y1="0" x2="46.41600036621094" y2="0" style="visibility: inherit;" fill="rgb(0, 0, 0)" stroke="rgb(204, 204, 204)" stroke-width="1px"></line></g><g transform="translate(41.41600036621094, 0)"><text style="text-anchor: end; visibility: hidden; font-family: Roboto, sans-serif; font-size: 12px; font-weight: 200;" x="0" y="176.95999908447266" dx="0em" dy="0.3em" fill="rgb(33, 33, 33)" stroke="none" stroke-width="1px">0.22</text><text style="text-anchor: end; visibility: inherit; font-family: Roboto, sans-serif; font-size: 12px; font-weight: 200;" x="0" y="154.8399991989136" dx="0em" dy="0.3em" fill="rgb(33, 33, 33)" stroke="none" stroke-width="1px">0.24</text><text style="text-anchor: end; visibility: hidden; font-family: Roboto, sans-serif; font-size: 12px; font-weight: 200;" x="0" y="132.7199993133545" dx="0em" dy="0.3em" fill="rgb(33, 33, 33)" stroke="none" stroke-width="1px">0.26</text><text style="text-anchor: end; visibility: inherit; font-family: Roboto, sans-serif; font-size: 12px; font-weight: 200;" x="0" y="110.59999942779537" dx="0em" dy="0.3em" fill="rgb(33, 33, 33)" stroke="none" stroke-width="1px">0.28</text><text style="text-anchor: end; visibility: hidden; font-family: Roboto, sans-serif; font-size: 12px; font-weight: 200;" x="0" y="88.47999954223634" dx="0em" dy="0.3em" fill="rgb(33, 33, 33)" stroke="none" stroke-width="1px">0.3</text><text style="text-anchor: end; visibility: inherit; font-family: Roboto, sans-serif; font-size: 12px; font-weight: 200;" x="0" y="66.35999965667725" dx="0em" dy="0.3em" fill="rgb(33, 33, 33)" stroke="none" stroke-width="1px">0.32</text><text style="text-anchor: end; visibility: hidden; font-family: Roboto, sans-serif; font-size: 12px; font-weight: 200;" x="0" y="44.23999977111814" dx="0em" dy="0.3em" fill="rgb(33, 33, 33)" stroke="none" stroke-width="1px">0.34</text><text style="text-anchor: end; visibility: inherit; font-family: Roboto, sans-serif; font-size: 12px; font-weight: 200;" x="0" y="22.119999885559103" dx="0em" dy="0.3em" fill="rgb(33, 33, 33)" stroke="none" stroke-width="1px">0.36</text><text style="text-anchor: end; visibility: hidden; font-family: Roboto, sans-serif; font-size: 12px; font-weight: 200;" x="0" y="0" dx="0em" dy="0.3em" fill="rgb(33, 33, 33)" stroke="none" stroke-width="1px">0.38</text></g><line x1="51.41600036621094" y1="0" x2="51.41600036621094" y2="176.95999908447266" fill="rgb(0, 0, 0)" stroke="rgb(204, 204, 204)" stroke-width="1px"></line></g></g><g transform="translate(51, 0)" clip-path="url(#clip_0)"><clipPath id="clip_0"><rect width="278" height="176"></rect></clipPath><g><g><g><line x1="0" y1="0" x2="0" y2="176.95999908447266" fill="rgb(0, 0, 0)" stroke="rgb(66, 66, 66)" stroke-width="1px" opacity="0.25"></line><line x1="23.215333302815754" y1="0" x2="23.215333302815754" y2="176.95999908447266" fill="rgb(0, 0, 0)" stroke="rgb(66, 66, 66)" stroke-width="1px" opacity="0.25"></line><line x1="46.43066660563151" y1="0" x2="46.43066660563151" y2="176.95999908447266" fill="rgb(0, 0, 0)" stroke="rgb(66, 66, 66)" stroke-width="1px" opacity="0.25"></line><line x1="69.64599990844727" y1="0" x2="69.64599990844727" y2="176.95999908447266" fill="rgb(0, 0, 0)" stroke="rgb(66, 66, 66)" stroke-width="1px" opacity="0.25"></line><line x1="92.86133321126302" y1="0" x2="92.86133321126302" y2="176.95999908447266" fill="rgb(0, 0, 0)" stroke="rgb(66, 66, 66)" stroke-width="1px" opacity="0.25"></line><line x1="116.07666651407878" y1="0" x2="116.07666651407878" y2="176.95999908447266" fill="rgb(0, 0, 0)" stroke="rgb(66, 66, 66)" stroke-width="1px" opacity="0.25"></line><line x1="139.29199981689453" y1="0" x2="139.29199981689453" y2="176.95999908447266" fill="rgb(0, 0, 0)" stroke="rgb(66, 66, 66)" stroke-width="1px" opacity="0.25"></line><line x1="162.5073331197103" y1="0" x2="162.5073331197103" y2="176.95999908447266" fill="rgb(0, 0, 0)" stroke="rgb(66, 66, 66)" stroke-width="1px" opacity="0.25"></line><line x1="185.72266642252603" y1="0" x2="185.72266642252603" y2="176.95999908447266" fill="rgb(0, 0, 0)" stroke="rgb(66, 66, 66)" stroke-width="1px" opacity="0.25"></line><line x1="208.9379997253418" y1="0" x2="208.9379997253418" y2="176.95999908447266" fill="rgb(0, 0, 0)" stroke="rgb(66, 66, 66)" stroke-width="1px" opacity="0.25"></line><line x1="232.15333302815756" y1="0" x2="232.15333302815756" y2="176.95999908447266" fill="rgb(0, 0, 0)" stroke="rgb(66, 66, 66)" stroke-width="1px" opacity="0.25"></line><line x1="255.3686663309733" y1="0" x2="255.3686663309733" y2="176.95999908447266" fill="rgb(0, 0, 0)" stroke="rgb(66, 66, 66)" stroke-width="1px" opacity="0.25"></line><line x1="278.58399963378906" y1="0" x2="278.58399963378906" y2="176.95999908447266" fill="rgb(0, 0, 0)" stroke="rgb(66, 66, 66)" stroke-width="1px" opacity="0.25"></line></g><g><line x1="0" y1="176.95999908447266" x2="278.58399963378906" y2="176.95999908447266" fill="rgb(0, 0, 0)" stroke="rgb(66, 66, 66)" stroke-width="1px" opacity="0.25"></line><line x1="0" y1="154.8399991989136" x2="278.58399963378906" y2="154.8399991989136" fill="rgb(0, 0, 0)" stroke="rgb(66, 66, 66)" stroke-width="1px" opacity="0.25"></line><line x1="0" y1="132.7199993133545" x2="278.58399963378906" y2="132.7199993133545" fill="rgb(0, 0, 0)" stroke="rgb(66, 66, 66)" stroke-width="1px" opacity="0.25"></line><line x1="0" y1="110.59999942779537" x2="278.58399963378906" y2="110.59999942779537" fill="rgb(0, 0, 0)" stroke="rgb(66, 66, 66)" stroke-width="1px" opacity="0.25"></line><line x1="0" y1="88.47999954223634" x2="278.58399963378906" y2="88.47999954223634" fill="rgb(0, 0, 0)" stroke="rgb(66, 66, 66)" stroke-width="1px" opacity="0.25"></line><line x1="0" y1="66.35999965667725" x2="278.58399963378906" y2="66.35999965667725" fill="rgb(0, 0, 0)" stroke="rgb(66, 66, 66)" stroke-width="1px" opacity="0.25"></line><line x1="0" y1="44.23999977111814" x2="278.58399963378906" y2="44.23999977111814" fill="rgb(0, 0, 0)" stroke="rgb(66, 66, 66)" stroke-width="1px" opacity="0.25"></line><line x1="0" y1="22.119999885559103" x2="278.58399963378906" y2="22.119999885559103" fill="rgb(0, 0, 0)" stroke="rgb(66, 66, 66)" stroke-width="1px" opacity="0.25"></line><line x1="0" y1="0" x2="278.58399963378906" y2="0" fill="rgb(0, 0, 0)" stroke="rgb(66, 66, 66)" stroke-width="1px" opacity="0.25"></line></g></g></g><g><g><line x1="0" y1="420.27999782562256" x2="278.58399963378906" y2="420.27999782562256" fill="rgb(0, 0, 0)" stroke="rgb(153, 153, 153)" stroke-width="1.5px"></line></g></g><g><g><line x1="23.215333302815754" y1="0" x2="23.215333302815754" y2="176.95999908447266" fill="rgb(0, 0, 0)" stroke="rgb(153, 153, 153)" stroke-width="1.5px"></line></g></g><g><g><g><g><g><path style="fill: none;" stroke="rgb(255, 112, 67)" stroke-width="2px" d="M25.53686663309733,-36.777267773613914L27.858399963378908,3.623460861473454L30.179933293660483,9.444280859587076L32.50146662394206,62.814771245845265L34.82299995422363,84.28128152055619L37.14453328450521,63.60691542409978L39.46606661478678,63.186434402485006L41.78759994506836,38.30400526412847L44.10913327534993,30.306328010407864L46.43066660563151,28.250546121595345L48.75219993591308,36.516548007979765L51.07373326619466,51.93929740532301L53.39526659647624,80.73911253925696L55.716799926757815,90.68004648974188L58.03833325703939,43.18605892282364L60.359866587320965,62.805874678295794L62.68139991760254,79.42757576542708L65.00293324788412,87.16999838401962L67.3244665781657,82.3117653015608L69.64599990844727,81.57544548640679L71.96753323872885,86.41208830807105L74.28906656901042,87.42855145317094L76.610599899292,93.32938186237347L78.93213322957357,89.71694894308276L81.25366655985515,89.49431870250574L83.57519989013672,84.48378176156763L85.8967332204183,76.09981231028218L88.21826655069987,113.04656881159836L90.53979988098145,84.94558908949556L92.86133321126302,53.28003682998404L95.1828665415446,75.2796475423181L97.50439987182617,96.88987508358015L99.82593320210775,121.41140982145141L102.14746653238932,119.72152637090764L104.4689998626709,-96.7253533684338L106.79053319295248,-6.734979031762704L109.11206652323405,50.26900028072307L111.43359985351563,30.785624600190655L113.7551331837972,26.052755279804657L116.07666651407878,38.46472032804026L118.39819984436035,29.20086791097099L120.71973317464193,42.64286040769954L123.0412665049235,76.03744358571122L125.36279983520508,87.91645257655466L127.68433316548665,91.46735173081822L130.00586649576823,114.9337520221183L132.3273998260498,73.09007545868003L134.6489331563314,103.75645615220128L136.97046648661293,70.90692059931182L139.29199981689453,114.07774018421723L141.6135331471761,120.81068455963629L143.9350664774577,132.77322368256222L146.25659980773926,100.55453517561942L148.57813313802083,83.77930479104144L150.8996664683024,105.8862024694717L153.221199798584,100.8073527518812L155.54273312886556,114.90222222641289L157.86426645914713,103.8875319637172L160.1857997894287,106.57025067982157L162.5073331197103,62.7825847619964L164.82886644999186,48.077170958686544L167.15039978027343,81.4994933323525L169.471933110555,56.99820084604703L171.7934664408366,52.04386466541172L174.11499977111816,9.71424204343903L176.43653310139973,41.71730714442235L178.75806643168133,100.84951693720488L181.0795997619629,103.66985542395223L183.40113309224446,66.48164580478507L185.72266642252603,105.52831134295327L188.04419975280763,92.27078229119886L190.3657330830892,125.00029068830835L192.68726641337076,114.77765265129004L195.00879974365233,101.06571066971658L197.33033307393393,120.9908765919889L199.6518664042155,131.28624599370278L201.97339973449706,140.93156393264917L204.29493306477863,104.12550752658578L206.61646639506023,108.60471531855421L208.9379997253418,132.53354781001843L211.25953305562336,148.68461815724234L213.58106638590496,140.22474006324828L215.90259971618653,152.5496337774174L218.2241330464681,149.30594555973096L220.54566637674967,141.87043862923656L222.86719970703126,121.84453899520636L225.18873303731283,71.28483201479547L227.5102663675944,85.4571522848861L229.83179969787597,119.75092322977392L232.15333302815756,81.32932267811599L234.47486635843913,68.74465562601569L236.7963996887207,98.3152517204563L239.11793301900227,97.35966666856694L241.43946634928386,133.66789163900026L243.76099967956543,153.0120834378772L246.082533009847,161.04859226049632L248.4040663401286,141.94939093401442L250.72559967041016,157.12102750585748L253.04713300069173,143.91332277344765L255.3686663309733,131.29999801867655L257.6901996612549,119.01830334870156" fill="none"></path></g></g></g></g><g opacity="0.2"><g><g><g><path style="fill: none;" stroke="rgb(255, 112, 67)" stroke-width="2px" d="M25.53686663309733,-36.777267773613914L27.858399963378908,27.863898042525875L30.179933293660483,15.032268057776093L32.50146662394206,125.57846794008492L34.82299995422363,112.30795733521882L37.14453328450521,35.00682434090572L39.46606661478678,62.58513981387944L41.78759994506836,2.0251847090849537L44.10913327534993,18.511307529999726L46.43066660563151,25.197949605753195L48.75219993591308,48.8405788088246L51.07373326619466,74.98949158018627L53.39526659647624,123.84479884686237L55.716799926757815,105.57197209098513L58.03833325703939,-27.99909502802484L60.359866587320965,92.22176089735137L62.68139991760254,104.35309364928167L65.00293324788412,98.78166651164429L67.3244665781657,75.02515578078453L69.64599990844727,80.47103306622341L71.96753323872885,93.6667872875804L74.28906656901042,88.95321272366795L76.610599899292,102.18051097457442L78.93213322957357,84.29834235685854L81.25366655985515,89.16037492400073L83.57519989013672,76.96799771781167L85.8967332204183,63.52387958563406L88.21826655069987,168.46664684159856L90.53979988098145,42.79414539131517L92.86133321126302,5.781725941786192L95.1828665415446,108.27905631550885L97.50439987182617,129.30521209576136L99.82593320210775,158.19370900087955L102.14746653238932,117.18670131613487L104.4689998626709,-421.3956636752582L106.79053319295248,128.25058015274658L109.11206652323405,135.77496836750692L111.43359985351563,1.560561260255838L113.7551331837972,18.953451325586684L116.07666651407878,57.082667858914476L118.39819984436035,15.305089303942282L120.71973317464193,62.80584913662062L123.0412665049235,126.12931832862296L125.36279983520508,105.73496605767497L127.68433316548665,96.79370046129088L130.00586649576823,150.13335245540938L132.3273998260498,10.3245606174371L134.6489331563314,149.75602719076187L136.97046648661293,21.63261727108386L139.29199981689453,178.83396956070308L141.6135331471761,130.91010112268316L143.9350664774577,150.71703236686412L146.25659980773926,52.22650241534575L148.57813313802083,58.61645921421848L150.8996664683024,139.04654898708225L153.221199798584,93.18907817550036L155.54273312886556,136.04452643820247L157.86426645914713,87.36549656967748L160.1857997894287,110.59432875397755L162.5073331197103,-2.898914114736101L164.82886644999186,26.01905025372298L167.15039978027343,131.63297689284997L169.471933110555,20.24626211658949L171.7934664408366,44.61236039445873L174.11499977111816,-53.780191889519585L176.43653310139973,89.72190479589722L178.75806643168133,189.5478316263786L181.0795997619629,107.90036315407315L183.40113309224446,10.699331376034365L185.72266642252603,164.0983096502057L188.04419975280763,72.38448871356718L190.3657330830892,174.09455328397266L192.68726641337076,99.44369559576268L195.00879974365233,80.4977976973563L197.33033307393393,150.87862547539737L199.6518664042155,146.7293000962736L201.97339973449706,155.39954084106876L204.29493306477863,48.91642291749059L206.61646639506023,115.32352700650699L208.9379997253418,168.42679654721474L211.25953305562336,172.9112236780781L213.58106638590496,127.53492292225724L215.90259971618653,171.0369743486711L218.2241330464681,144.4404132332013L220.54566637674967,130.71717823349496L222.86719970703126,91.80568954416111L225.18873303731283,-4.55472845582085L227.5102663675944,106.715632690022L229.83179969787597,171.1915796471056L232.15333302815756,23.69692185062911L234.47486635843913,49.86765504786513L236.7963996887207,142.67114586211727L239.11793301900227,95.92628909073278L241.43946634928386,188.13022909465028L243.76099967956543,182.02837113619262L246.082533009847,173.10335549442493L248.4040663401286,113.30058894429152L250.72559967041016,179.87848236362206L253.04713300069173,124.10176567483285L255.3686663309733,112.38001088651993L257.6901996612549,100.59576134373907" fill="none"></path></g></g></g></g></g></g><g transform="translate(51, 176)" clip-path="url(#clip_1)"><clipPath id="clip_1"><rect width="278" height="23"></rect></clipPath><g><g><line x1="0" y1="0" x2="0" y2="5" style="visibility: inherit;" fill="rgb(0, 0, 0)" stroke="rgb(204, 204, 204)" stroke-width="1px"></line><line x1="23.215333302815754" y1="0" x2="23.215333302815754" y2="5" style="visibility: inherit;" fill="rgb(0, 0, 0)" stroke="rgb(204, 204, 204)" stroke-width="1px"></line><line x1="46.43066660563151" y1="0" x2="46.43066660563151" y2="5" style="visibility: inherit;" fill="rgb(0, 0, 0)" stroke="rgb(204, 204, 204)" stroke-width="1px"></line><line x1="69.64599990844727" y1="0" x2="69.64599990844727" y2="5" style="visibility: inherit;" fill="rgb(0, 0, 0)" stroke="rgb(204, 204, 204)" stroke-width="1px"></line><line x1="92.86133321126302" y1="0" x2="92.86133321126302" y2="5" style="visibility: inherit;" fill="rgb(0, 0, 0)" stroke="rgb(204, 204, 204)" stroke-width="1px"></line><line x1="116.07666651407878" y1="0" x2="116.07666651407878" y2="5" style="visibility: inherit;" fill="rgb(0, 0, 0)" stroke="rgb(204, 204, 204)" stroke-width="1px"></line><line x1="139.29199981689453" y1="0" x2="139.29199981689453" y2="5" style="visibility: inherit;" fill="rgb(0, 0, 0)" stroke="rgb(204, 204, 204)" stroke-width="1px"></line><line x1="162.5073331197103" y1="0" x2="162.5073331197103" y2="5" style="visibility: inherit;" fill="rgb(0, 0, 0)" stroke="rgb(204, 204, 204)" stroke-width="1px"></line><line x1="185.72266642252603" y1="0" x2="185.72266642252603" y2="5" style="visibility: inherit;" fill="rgb(0, 0, 0)" stroke="rgb(204, 204, 204)" stroke-width="1px"></line><line x1="208.9379997253418" y1="0" x2="208.9379997253418" y2="5" style="visibility: inherit;" fill="rgb(0, 0, 0)" stroke="rgb(204, 204, 204)" stroke-width="1px"></line><line x1="232.15333302815756" y1="0" x2="232.15333302815756" y2="5" style="visibility: inherit;" fill="rgb(0, 0, 0)" stroke="rgb(204, 204, 204)" stroke-width="1px"></line><line x1="255.3686663309733" y1="0" x2="255.3686663309733" y2="5" style="visibility: inherit;" fill="rgb(0, 0, 0)" stroke="rgb(204, 204, 204)" stroke-width="1px"></line><line x1="278.58399963378906" y1="0" x2="278.58399963378906" y2="5" style="visibility: inherit;" fill="rgb(0, 0, 0)" stroke="rgb(204, 204, 204)" stroke-width="1px"></line></g><g transform="translate(0, 8)"><text style="text-anchor: middle; visibility: hidden; font-family: Roboto, sans-serif; font-size: 12px; font-weight: 200;" x="0" y="0" dx="0em" dy="0.95em" fill="rgb(33, 33, 33)" stroke="none" stroke-width="1px">-1k</text><text style="text-anchor: middle; visibility: inherit; font-family: Roboto, sans-serif; font-size: 12px; font-weight: 200;" x="23.215333302815754" y="0" dx="0em" dy="0.95em" fill="rgb(33, 33, 33)" stroke="none" stroke-width="1px">0</text><text style="text-anchor: middle; visibility: hidden; font-family: Roboto, sans-serif; font-size: 12px; font-weight: 200;" x="46.43066660563151" y="0" dx="0em" dy="0.95em" fill="rgb(33, 33, 33)" stroke="none" stroke-width="1px">1k</text><text style="text-anchor: middle; visibility: inherit; font-family: Roboto, sans-serif; font-size: 12px; font-weight: 200;" x="69.64599990844727" y="0" dx="0em" dy="0.95em" fill="rgb(33, 33, 33)" stroke="none" stroke-width="1px">2k</text><text style="text-anchor: middle; visibility: hidden; font-family: Roboto, sans-serif; font-size: 12px; font-weight: 200;" x="92.86133321126302" y="0" dx="0em" dy="0.95em" fill="rgb(33, 33, 33)" stroke="none" stroke-width="1px">3k</text><text style="text-anchor: middle; visibility: inherit; font-family: Roboto, sans-serif; font-size: 12px; font-weight: 200;" x="116.07666651407878" y="0" dx="0em" dy="0.95em" fill="rgb(33, 33, 33)" stroke="none" stroke-width="1px">4k</text><text style="text-anchor: middle; visibility: hidden; font-family: Roboto, sans-serif; font-size: 12px; font-weight: 200;" x="139.29199981689453" y="0" dx="0em" dy="0.95em" fill="rgb(33, 33, 33)" stroke="none" stroke-width="1px">5k</text><text style="text-anchor: middle; visibility: inherit; font-family: Roboto, sans-serif; font-size: 12px; font-weight: 200;" x="162.5073331197103" y="0" dx="0em" dy="0.95em" fill="rgb(33, 33, 33)" stroke="none" stroke-width="1px">6k</text><text style="text-anchor: middle; visibility: hidden; font-family: Roboto, sans-serif; font-size: 12px; font-weight: 200;" x="185.72266642252603" y="0" dx="0em" dy="0.95em" fill="rgb(33, 33, 33)" stroke="none" stroke-width="1px">7k</text><text style="text-anchor: middle; visibility: inherit; font-family: Roboto, sans-serif; font-size: 12px; font-weight: 200;" x="208.9379997253418" y="0" dx="0em" dy="0.95em" fill="rgb(33, 33, 33)" stroke="none" stroke-width="1px">8k</text><text style="text-anchor: middle; visibility: hidden; font-family: Roboto, sans-serif; font-size: 12px; font-weight: 200;" x="232.15333302815756" y="0" dx="0em" dy="0.95em" fill="rgb(33, 33, 33)" stroke="none" stroke-width="1px">9k</text><text style="text-anchor: middle; visibility: inherit; font-family: Roboto, sans-serif; font-size: 12px; font-weight: 200;" x="255.3686663309733" y="0" dx="0em" dy="0.95em" fill="rgb(33, 33, 33)" stroke="none" stroke-width="1px">10k</text><text style="text-anchor: middle; visibility: hidden; font-family: Roboto, sans-serif; font-size: 12px; font-weight: 200;" x="278.58399963378906" y="0" dx="0em" dy="0.95em" fill="rgb(33, 33, 33)" stroke="none" stroke-width="1px">11k</text></g><line x1="0" y1="0" x2="278.58399963378906" y2="0" fill="rgb(0, 0, 0)" stroke="rgb(204, 204, 204)" stroke-width="1px"></line></g></g></g></g></svg>