<svg viewBox="0 0 330 200" xmlns="http://www.w3.org/2000/svg"><g><g><g><g><g><line x1="72.1240005493164" y1="176.95999908447266" x2="67.1240005493164" y2="176.95999908447266" style="visibility: inherit;" fill="rgb(0, 0, 0)" stroke="rgb(204, 204, 204)" stroke-width="1px"></line><line x1="72.1240005493164" y1="159.2639991760254" x2="67.1240005493164" y2="159.2639991760254" style="visibility: inherit;" fill="rgb(0, 0, 0)" stroke="rgb(204, 204, 204)" stroke-width="1px"></line><line x1="72.1240005493164" y1="141.56799926757813" x2="67.1240005493164" y2="141.56799926757813" style="visibility: inherit;" fill="rgb(0, 0, 0)" stroke="rgb(204, 204, 204)" stroke-width="1px"></line><line x1="72.1240005493164" y1="123.87199935913085" x2="67.1240005493164" y2="123.87199935913085" style="visibility: inherit;" fill="rgb(0, 0, 0)" stroke="rgb(204, 204, 204)" stroke-width="1px"></line><line x1="72.1240005493164" y1="106.17599945068359" x2="67.1240005493164" y2="106.17599945068359" style="visibility: inherit;" fill="rgb(0, 0, 0)" stroke="rgb(204, 204, 204)" stroke-width="1px"></line><line x1="72.1240005493164" y1="88.47999954223633" x2="67.1240005493164" y2="88.47999954223633" style="visibility: inherit;" fill="rgb(0, 0, 0)" stroke="rgb(204, 204, 204)" stroke-width="1px"></line><line x1="72.1240005493164" y1="70.78399963378907" x2="67.1240005493164" y2="70.78399963378907" style="visibility: inherit;" fill="rgb(0, 0, 0)" stroke="rgb(204, 204, 204)" stroke-width="1px"></line><line x1="72.1240005493164" y1="53.0879997253418" x2="67.1240005493164" y2="53.0879997253418" style="visibility: inherit;" fill="rgb(0, 0, 0)" stroke="rgb(204, 204, 204)" stroke-width="1px"></line><line x1="72.1240005493164" y1="35.391999816894526" x2="67.1240005493164" y2="35.391999816894526" style="visibility: inherit;" fill="rgb(0, 0, 0)" stroke="rgb(204, 204, 204)" stroke-width="1px"></line><line x1="72.1240005493164" y1="17.695999908447263" x2="67.1240005493164" y2="17.695999908447263" style="visibility: inherit;" fill="rgb(0, 0, 0)" stroke="rgb(204, 204, 204)" stroke-width="1px"></line><line x1="72.1240005493164" y1="0" x2="67.1240005493164" y2="0" style="visibility: inherit;" fill="rgb(0, 0, 0)" stroke="rgb(204, 204, 204)" stroke-width="1px"></line></g><g transform="translate(62.124000549316406, 0)"><text style="text-anchor: end; visibility: hidden; font-family: Roboto, sans-serif; font-size: 12px; font-weight: 200;" x="0" y="176.95999908447266" dx="0em" dy="0.3em" fill="rgb(33, 33, 33)" stroke="none" stroke-width="1px">0.0805</text><text style="text-anchor: end; visibility: inherit; font-family: Roboto, sans-serif; font-size: 12px; font-weight: 200;" x="0" y="159.2639991760254" dx="0em" dy="0.3em" fill="rgb(33, 33, 33)" stroke="none" stroke-width="1px">0.081</text><text style="text-anchor: end; visibility: hidden; font-family: Roboto, sans-serif; font-size: 12px; font-weight: 200;" x="0" y="141.56799926757813" dx="0em" dy="0.3em" fill="rgb(33, 33, 33)" stroke="none" stroke-width="1px">0.0815</text><text style="text-anchor: end; visibility: inherit; font-family: Roboto, sans-serif; font-size: 12px; font-weight: 200;" x="0" y="123.87199935913085" dx="0em" dy="0.3em" fill="rgb(33, 33, 33)" stroke="none" stroke-width="1px">0.082</text><text style="text-anchor: end; visibility: hidden; font-family: Roboto, sans-serif; font-size: 12px; font-weight: 200;" x="0" y="106.17599945068359" dx="0em" dy="0.3em" fill="rgb(33, 33, 33)" stroke="none" stroke-width="1px">0.0825</text><text style="text-anchor: end; visibility: inherit; font-family: Roboto, sans-serif; font-size: 12px; font-weight: 200;" x="0" y="88.47999954223633" dx="0em" dy="0.3em" fill="rgb(33, 33, 33)" stroke="none" stroke-width="1px">0.083</text><text style="text-anchor: end; visibility: hidden; font-family: Roboto, sans-serif; font-size: 12px; font-weight: 200;" x="0" y="70.78399963378907" dx="0em" dy="0.3em" fill="rgb(33, 33, 33)" stroke="none" stroke-width="1px">0.0835</text><text style="text-anchor: end; visibility: inherit; font-family: Roboto, sans-serif; font-size: 12px; font-weight: 200;" x="0" y="53.0879997253418" dx="0em" dy="0.3em" fill="rgb(33, 33, 33)" stroke="none" stroke-width="1px">0.084</text><text style="text-anchor: end; visibility: hidden; font-family: Roboto, sans-serif; font-size: 12px; font-weight: 200;" x="0" y="35.391999816894526" dx="0em" dy="0.3em" fill="rgb(33, 33, 33)" stroke="none" stroke-width="1px">0.0845</text><text style="text-anchor: end; visibility: inherit; font-family: Roboto, sans-serif; font-size: 12px; font-weight: 200;" x="0" y="17.695999908447263" dx="0em" dy="0.3em" fill="rgb(33, 33, 33)" stroke="none" stroke-width="1px">0.085</text><text style="text-anchor: end; visibility: hidden; font-family: Roboto, sans-serif; font-size: 12px; font-weight: 200;" x="0" y="0" dx="0em" dy="0.3em" fill="rgb(33, 33, 33)" stroke="none" stroke-width="1px">0.0855</text></g><line x1="72.1240005493164" y1="0" x2="72.1240005493164" y2="176.95999908447266" fill="rgb(0, 0, 0)" stroke="rgb(204, 204, 204)" stroke-width="1px"></line></g></g><g transform="translate(72, 0)" clip-path="url(#clip_0)"><clipPath id="clip_0"><rect width="257" height="176"></rect></clipPath><g><g><g><line x1="0" y1="0" x2="0" y2="176.95999908447266" fill="rgb(0, 0, 0)" stroke="rgb(66, 66, 66)" stroke-width="1px" opacity="0.25"></line><line x1="21.489666620890297" y1="0" x2="21.489666620890297" y2="176.95999908447266" fill="rgb(0, 0, 0)" stroke="rgb(66, 66, 66)" stroke-width="1px" opacity="0.25"></line><line x1="42.979333241780594" y1="0" x2="42.979333241780594" y2="176.95999908447266" fill="rgb(0, 0, 0)" stroke="rgb(66, 66, 66)" stroke-width="1px" opacity="0.25"></line><line x1="64.4689998626709" y1="0" x2="64.4689998626709" y2="176.95999908447266" fill="rgb(0, 0, 0)" stroke="rgb(66, 66, 66)" stroke-width="1px" opacity="0.25"></line><line x1="85.95866648356119" y1="0" x2="85.95866648356119" y2="176.95999908447266" fill="rgb(0, 0, 0)" stroke="rgb(66, 66, 66)" stroke-width="1px" opacity="0.25"></line><line x1="107.4483331044515" y1="0" x2="107.4483331044515" y2="176.95999908447266" fill="rgb(0, 0, 0)" stroke="rgb(66, 66, 66)" stroke-width="1px" opacity="0.25"></line><line x1="128.9379997253418" y1="0" x2="128.9379997253418" y2="176.95999908447266" fill="rgb(0, 0, 0)" stroke="rgb(66, 66, 66)" stroke-width="1px" opacity="0.25"></line><line x1="150.42766634623212" y1="0" x2="150.42766634623212" y2="176.95999908447266" fill="rgb(0, 0, 0)" stroke="rgb(66, 66, 66)" stroke-width="1px" opacity="0.25"></line><line x1="171.91733296712238" y1="0" x2="171.91733296712238" y2="176.95999908447266" fill="rgb(0, 0, 0)" stroke="rgb(66, 66, 66)" stroke-width="1px" opacity="0.25"></line><line x1="193.4069995880127" y1="0" x2="193.4069995880127" y2="176.95999908447266" fill="rgb(0, 0, 0)" stroke="rgb(66, 66, 66)" stroke-width="1px" opacity="0.25"></line><line x1="214.896666208903" y1="0" x2="214.896666208903" y2="176.95999908447266" fill="rgb(0, 0, 0)" stroke="rgb(66, 66, 66)" stroke-width="1px" opacity="0.25"></line><line x1="236.38633282979328" y1="0" x2="236.38633282979328" y2="176.95999908447266" fill="rgb(0, 0, 0)" stroke="rgb(66, 66, 66)" stroke-width="1px" opacity="0.25"></line><line x1="257.8759994506836" y1="0" x2="257.8759994506836" y2="176.95999908447266" fill="rgb(0, 0, 0)" stroke="rgb(66, 66, 66)" stroke-width="1px" opacity="0.25"></line></g><g><line x1="0" y1="176.95999908447266" x2="257.8759994506836" y2="176.95999908447266" fill="rgb(0, 0, 0)" stroke="rgb(66, 66, 66)" stroke-width="1px" opacity="0.25"></line><line x1="0" y1="159.2639991760254" x2="257.8759994506836" y2="159.2639991760254" fill="rgb(0, 0, 0)" stroke="rgb(66, 66, 66)" stroke-width="1px" opacity="0.25"></line><line x1="0" y1="141.56799926757813" x2="257.8759994506836" y2="141.56799926757813" fill="rgb(0, 0, 0)" stroke="rgb(66, 66, 66)" stroke-width="1px" opacity="0.25"></line><line x1="0" y1="123.87199935913085" x2="257.8759994506836" y2="123.87199935913085" fill="rgb(0, 0, 0)" stroke="rgb(66, 66, 66)" stroke-width="1px" opacity="0.25"></line><line x1="0" y1="106.17599945068359" x2="257.8759994506836" y2="106.17599945068359" fill="rgb(0, 0, 0)" stroke="rgb(66, 66, 66)" stroke-width="1px" opacity="0.25"></line><line x1="0" y1="88.47999954223633" x2="257.8759994506836" y2="88.47999954223633" fill="rgb(0, 0, 0)" stroke="rgb(66, 66, 66)" stroke-width="1px" opacity="0.25"></line><line x1="0" y1="70.78399963378907" x2="257.8759994506836" y2="70.78399963378907" fill="rgb(0, 0, 0)" stroke="rgb(66, 66, 66)" stroke-width="1px" opacity="0.25"></line><line x1="0" y1="53.0879997253418" x2="257.8759994506836" y2="53.0879997253418" fill="rgb(0, 0, 0)" stroke="rgb(66, 66, 66)" stroke-width="1px" opacity="0.25"></line><line x1="0" y1="35.391999816894526" x2="257.8759994506836" y2="35.391999816894526" fill="rgb(0, 0, 0)" stroke="rgb(66, 66, 66)" stroke-width="1px" opacity="0.25"></line><line x1="0" y1="17.695999908447263" x2="257.8759994506836" y2="17.695999908447263" fill="rgb(0, 0, 0)" stroke="rgb(66, 66, 66)" stroke-width="1px" opacity="0.25"></line><line x1="0" y1="0" x2="257.8759994506836" y2="0" fill="rgb(0, 0, 0)" stroke="rgb(66, 66, 66)" stroke-width="1px" opacity="0.25"></line></g></g></g><g><g><line x1="0" y1="3026.0159843444803" x2="257.8759994506836" y2="3026.0159843444803" fill="rgb(0, 0, 0)" stroke="rgb(153, 153, 153)" stroke-width="1.5px"></line></g></g><g><g><line x1="21.489666620890297" y1="0" x2="21.489666620890297" y2="176.95999908447266" fill="rgb(0, 0, 0)" stroke="rgb(153, 153, 153)" stroke-width="1.5px"></line></g></g><g><g><g><g><g><path style="fill: none;" stroke="rgb(255, 112, 67)" stroke-width="2px" d="M23.638633282979328,-1.0231883797159058L25.78759994506836,1.613556284662984L27.936566607157392,4.258622012857785L30.08553326924642,7.415968936363196L32.23449993133545,10.867652029597357L34.38346659342448,14.512094731670043L36.53243325551351,16.531895686517867L38.68139991760254,19.007827475820054L40.830366579691564,21.372816117986282L42.979333241780594,23.273307617828387L45.128299903869625,24.571575152539438L47.277266565958655,25.44941569396547L49.42623322804769,27.607164756171876L51.57519989013672,30.311650985841823L53.72416655222575,33.57665861012559L55.873133214314784,36.519791266517885L58.02209987640381,39.61552718862286L60.17106653849284,42.627927977655034L62.32003320058187,45.05836505907067L64.4689998626709,47.97068304463916L66.61796652475994,51.463994488705644L68.76693318684896,54.84507342477603L70.915899848938,57.732804195087624L73.06486651102702,59.511943365304184L75.21383317311606,61.64262639358406L77.36279983520508,63.92601298567032L79.51176649729412,66.51883135960092L81.66073315938313,69.09848600025028L83.80969982147217,72.0581850982803L85.95866648356119,74.43996578961394L88.10763314565023,76.59713740719421L90.25659980773925,78.9722567346978L92.40556646982829,81.24968286840118L94.55453313191731,84.0045240935879L96.70349979400635,87.04465413665233L98.85246645609539,88.74648500469698L101.00143311818441,90.7586395760859L103.15039978027345,92.86828273535254L105.29936644236247,93.99557814016235L107.4483331044515,92.08092813155517L109.59729976654053,91.62353579193831L111.74626642862957,92.09566219825356L113.89523309071858,94.73855011380573L116.04419975280761,97.75612470576971L118.19316641489664,100.51226519709152L120.34213307698568,103.99332775537194L122.4910997390747,108.25625536387217L124.64006640116374,112.24943996865596L126.78903306325276,115.27852543370757L128.9379997253418,118.56895434334736L131.0869663874308,121.4653916693951L133.23593304951987,124.54997647016009L135.38489971160888,127.14918773492548L137.53386637369792,129.6877462422584L139.68283303578693,131.30770866243972L141.831799697876,132.47059836026415L143.980766359965,132.81509178619393L146.12973302205404,133.06788101930874L148.27869968414305,133.72795070522912L150.42766634623212,131.32159060714608L152.57663300832112,130.46485607296916L154.72559967041016,130.248680646332L156.87456633249917,131.84045536954125L159.02353299458824,133.47879618565003L161.17249965667725,133.25472899576886L163.32146631876626,132.47319109760227L165.47043298085532,133.90917176071292L167.61939964294433,135.9382781960567L169.76836630503337,138.06990583274637L171.91733296712238,140.49667636939273L174.06629962921144,142.260835193998L176.21526629130045,144.55783412920425L178.3642329533895,146.26395955216864L180.5131996154785,147.4439507994017L182.66216627756756,148.13612409091405L184.81113293965657,148.67905448422874L186.9600996017456,148.77656183638857L189.10906626383462,148.35472681840727L191.2580329259237,144.28802185395978L193.4069995880127,140.13411319537673L195.5559662501017,139.50332061052958L197.70493291219077,140.5417092566978L199.85389957427978,142.29154659964092L202.00286623636882,144.2913692733189L204.15183289845783,145.6969418162809L206.3007995605469,146.9486898809612L208.4497662226359,148.58352529814385L210.59873288472494,148.96289475987845L212.74769954681395,148.89718662734032L214.896666208903,148.15075358039417L217.04563287099202,147.98008567584122L219.19459953308106,149.1676610464303L221.34356619517007,150.824114383102L223.49253285725914,153.25457466502613L225.64149951934814,156.0422751131911L227.79046618143715,154.98274074076895L229.93943284352622,154.22814823835338L232.08839950561523,154.93932457750057L234.23736616770427,156.51551195768346L236.38633282979328,156.71297495423985L238.53529949188234,155.60507889529802" fill="none"></path></g></g></g></g><g opacity="0.2"><g><g><g><path style="fill: none;" stroke="rgb(255, 112, 67)" stroke-width="2px" d="M23.638633282979328,-1.0231883797159058L25.78759994506836,3.1956030832903295L27.936566607157392,6.797885111925147L30.08553326924642,11.129008918405392L32.23449993133545,15.374169476123855L34.38346659342448,19.55367098800892L36.53243325551351,19.420243368765146L38.68139991760254,22.61775979356756L40.830366579691564,24.860714989788026L42.979333241780594,26.095316004213633L45.128299903869625,26.50720126361833L47.277266565958655,26.761399336644022L49.42623322804769,30.836742924415862L51.57519989013672,34.363081960279494L53.72416655222575,38.47033215265311L55.873133214314784,40.932414525932025L58.02209987640381,44.25782106008865L60.17106653849284,47.14576431296974L62.32003320058187,48.70365042856702L64.4689998626709,52.3388938255921L66.61796652475994,56.70377007330398L68.76693318684896,59.916580573039475L70.915899848938,62.064343337348866L73.06486651102702,62.180631045029706L75.21383317311606,64.83863579202033L77.36279983520508,67.35108313619956L79.51176649729412,70.4080522861859L81.66073315938313,72.96796400084712L83.80969982147217,76.49773101902336L85.95866648356119,78.01263551023973L88.10763314565023,79.83289411822349L90.25659980773925,82.53493525338351L92.40556646982829,84.66582179707709L94.55453313191731,88.1367857340451L96.70349979400635,91.60484907059478L98.85246645609539,91.29923126288028L101.00143311818441,93.7768714020394L103.15039978027345,96.03274745466884L105.29936644236247,95.68652124109754L107.4483331044515,89.20895312504351L109.59729976654053,90.93744728342878L111.74626642862957,92.8038518071589L113.89523309071858,98.70288198522708L116.04419975280761,102.2824865924094L118.19316641489664,104.6464759333589L120.34213307698568,109.21492159224904L122.4910997390747,114.65064677622372L124.64006640116374,118.2392168756082L126.78903306325276,119.82215363118208L128.9379997253418,123.50459770774201L131.0869663874308,125.8100476584304L133.23593304951987,129.1768536712852L135.38489971160888,131.0480046320635L137.53386637369792,133.4955840032507L139.68283303578693,133.7376522927088L141.831799697876,134.21493290699976L143.980766359965,133.3318319250879L146.12973302205404,133.44706486898025L148.27869968414305,134.7180552341087L150.42766634623212,127.71205046002198L152.57663300832112,129.17975427170353L154.72559967041016,129.9244175063763L156.87456633249917,134.22811745435587L159.02353299458824,135.93630740981274L161.17249965667725,132.9186282109476L163.32146631876626,131.3008842503536L165.47043298085532,136.06314275537846L167.61939964294433,138.98193784907284L169.76836630503337,141.26734728777993L171.91733296712238,144.13683217436247L174.06629962921144,144.90707343090608L176.21526629130045,148.00333253201362L178.3642329533895,148.82314768661618L180.5131996154785,149.2139376702511L182.66216627756756,149.1743840281828L184.81113293965657,149.49345007420052L186.9600996017456,148.92282286462833L189.10906626383462,147.72197429143435L191.2580329259237,138.18796440728823L193.4069995880127,133.90325020750146L195.5559662501017,138.55713173325915L197.70493291219077,142.0992922259501L199.85389957427978,144.91630261405535L202.00286623636882,147.29110328383686L204.15183289845783,147.80530063072493L206.3007995605469,148.82631197798165L208.4497662226359,151.0357784239176L210.59873288472494,149.53194895248035L212.74769954681395,148.79862442853383L214.896666208903,147.03110400997448L217.04563287099202,147.72408381901133L219.19459953308106,150.94902410231444L221.34356619517007,153.30879438811L223.49253285725914,156.9002650879128L225.64149951934814,160.22382578543957L227.79046618143715,153.39343918213618L229.93943284352622,153.0962594847296L232.08839950561523,156.0060890862218L234.23736616770427,158.8797930279583L236.38633282979328,157.00916944907422L238.53529949188234,153.94323480688573" fill="none"></path></g></g></g></g></g></g><g transform="translate(72, 176)" clip-path="url(#clip_1)"><clipPath id="clip_1"><rect width="257" height="23"></rect></clipPath><g><g><line x1="0" y1="0" x2="0" y2="5" style="visibility: inherit;" fill="rgb(0, 0, 0)" stroke="rgb(204, 204, 204)" stroke-width="1px"></line><line x1="21.489666620890297" y1="0" x2="21.489666620890297" y2="5" style="visibility: inherit;" fill="rgb(0, 0, 0)" stroke="rgb(204, 204, 204)" stroke-width="1px"></line><line x1="42.979333241780594" y1="0" x2="42.979333241780594" y2="5" style="visibility: inherit;" fill="rgb(0, 0, 0)" stroke="rgb(204, 204, 204)" stroke-width="1px"></line><line x1="64.4689998626709" y1="0" x2="64.4689998626709" y2="5" style="visibility: inherit;" fill="rgb(0, 0, 0)" stroke="rgb(204, 204, 204)" stroke-width="1px"></line><line x1="85.95866648356119" y1="0" x2="85.95866648356119" y2="5" style="visibility: inherit;" fill="rgb(0, 0, 0)" stroke="rgb(204, 204, 204)" stroke-width="1px"></line><line x1="107.4483331044515" y1="0" x2="107.4483331044515" y2="5" style="visibility: inherit;" fill="rgb(0, 0, 0)" stroke="rgb(204, 204, 204)" stroke-width="1px"></line><line x1="128.9379997253418" y1="0" x2="128.9379997253418" y2="5" style="visibility: inherit;" fill="rgb(0, 0, 0)" stroke="rgb(204, 204, 204)" stroke-width="1px"></line><line x1="150.42766634623212" y1="0" x2="150.42766634623212" y2="5" style="visibility: inherit;" fill="rgb(0, 0, 0)" stroke="rgb(204, 204, 204)" stroke-width="1px"></line><line x1="171.91733296712238" y1="0" x2="171.91733296712238" y2="5" style="visibility: inherit;" fill="rgb(0, 0, 0)" stroke="rgb(204, 204, 204)" stroke-width="1px"></line><line x1="193.4069995880127" y1="0" x2="193.4069995880127" y2="5" style="visibility: inherit;" fill="rgb(0, 0, 0)" stroke="rgb(204, 204, 204)" stroke-width="1px"></line><line x1="214.896666208903" y1="0" x2="214.896666208903" y2="5" style="visibility: inherit;" fill="rgb(0, 0, 0)" stroke="rgb(204, 204, 204)" stroke-width="1px"></line><line x1="236.38633282979328" y1="0" x2="236.38633282979328" y2="5" style="visibility: inherit;" fill="rgb(0, 0, 0)" stroke="rgb(204, 204, 204)" stroke-width="1px"></line><line x1="257.8759994506836" y1="0" x2="257.8759994506836" y2="5" style="visibility: inherit;" fill="rgb(0, 0, 0)" stroke="rgb(204, 204, 204)" stroke-width="1px"></line></g><g transform="translate(0, 8)"><text style="text-anchor: middle; visibility: hidden; font-family: Roboto, sans-serif; font-size: 12px; font-weight: 200;" x="0" y="0" dx="0em" dy="0.95em" fill="rgb(33, 33, 33)" stroke="none" stroke-width="1px">-1k</text><text style="text-anchor: middle; visibility: inherit; font-family: Roboto, sans-serif; font-size: 12px; font-weight: 200;" x="21.489666620890297" y="0" dx="0em" dy="0.95em" fill="rgb(33, 33, 33)" stroke="none" stroke-width="1px">0</text><text style="text-anchor: middle; visibility: hidden; font-family: Roboto, sans-serif; font-size: 12px; font-weight: 200;" x="42.979333241780594" y="0" dx="0em" dy="0.95em" fill="rgb(33, 33, 33)" stroke="none" stroke-width="1px">1k</text><text style="text-anchor: middle; visibility: inherit; font-family: Roboto, sans-serif; font-size: 12px; font-weight: 200;" x="64.4689998626709" y="0" dx="0em" dy="0.95em" fill="rgb(33, 33, 33)" stroke="none" stroke-width="1px">2k</text><text style="text-anchor: middle; visibility: hidden; font-family: Roboto, sans-serif; font-size: 12px; font-weight: 200;" x="85.95866648356119" y="0" dx="0em" dy="0.95em" fill="rgb(33, 33, 33)" stroke="none" stroke-width="1px">3k</text><text style="text-anchor: middle; visibility: inherit; font-family: Roboto, sans-serif; font-size: 12px; font-weight: 200;" x="107.4483331044515" y="0" dx="0em" dy="0.95em" fill="rgb(33, 33, 33)" stroke="none" stroke-width="1px">4k</text><text style="text-anchor: middle; visibility: hidden; font-family: Roboto, sans-serif; font-size: 12px; font-weight: 200;" x="128.9379997253418" y="0" dx="0em" dy="0.95em" fill="rgb(33, 33, 33)" stroke="none" stroke-width="1px">5k</text><text style="text-anchor: middle; visibility: inherit; font-family: Roboto, sans-serif; font-size: 12px; font-weight: 200;" x="150.42766634623212" y="0" dx="0em" dy="0.95em" fill="rgb(33, 33, 33)" stroke="none" stroke-width="1px">6k</text><text style="text-anchor: middle; visibility: hidden; font-family: Roboto, sans-serif; font-size: 12px; font-weight: 200;" x="171.91733296712238" y="0" dx="0em" dy="0.95em" fill="rgb(33, 33, 33)" stroke="none" stroke-width="1px">7k</text><text style="text-anchor: middle; visibility: inherit; font-family: Roboto, sans-serif; font-size: 12px; font-weight: 200;" x="193.4069995880127" y="0" dx="0em" dy="0.95em" fill="rgb(33, 33, 33)" stroke="none" stroke-width="1px">8k</text><text style="text-anchor: middle; visibility: hidden; font-family: Roboto, sans-serif; font-size: 12px; font-weight: 200;" x="214.896666208903" y="0" dx="0em" dy="0.95em" fill="rgb(33, 33, 33)" stroke="none" stroke-width="1px">9k</text><text style="text-anchor: middle; visibility: inherit; font-family: Roboto, sans-serif; font-size: 12px; font-weight: 200;" x="236.38633282979328" y="0" dx="0em" dy="0.95em" fill="rgb(33, 33, 33)" stroke="none" stroke-width="1px">10k</text><text style="text-anchor: middle; visibility: hidden; font-family: Roboto, sans-serif; font-size: 12px; font-weight: 200;" x="257.8759994506836" y="0" dx="0em" dy="0.95em" fill="rgb(33, 33, 33)" stroke="none" stroke-width="1px">11k</text></g><line x1="0" y1="0" x2="257.8759994506836" y2="0" fill="rgb(0, 0, 0)" stroke="rgb(204, 204, 204)" stroke-width="1px"></line></g></g></g></g></svg>