<svg viewBox="0 0 330 200" xmlns="http://www.w3.org/2000/svg"><g><g><g><g><g><line x1="61.77000045776367" y1="176.95999908447266" x2="56.77000045776367" y2="176.95999908447266" style="visibility: inherit;" fill="rgb(0, 0, 0)" stroke="rgb(204, 204, 204)" stroke-width="1px"></line><line x1="61.77000045776367" y1="164.31999914986744" x2="56.77000045776367" y2="164.31999914986744" style="visibility: inherit;" fill="rgb(0, 0, 0)" stroke="rgb(204, 204, 204)" stroke-width="1px"></line><line x1="61.77000045776367" y1="151.67999921526228" x2="56.77000045776367" y2="151.67999921526228" style="visibility: inherit;" fill="rgb(0, 0, 0)" stroke="rgb(204, 204, 204)" stroke-width="1px"></line><line x1="61.77000045776367" y1="139.0399992806571" x2="56.77000045776367" y2="139.0399992806571" style="visibility: inherit;" fill="rgb(0, 0, 0)" stroke="rgb(204, 204, 204)" stroke-width="1px"></line><line x1="61.77000045776367" y1="126.39999934605189" x2="56.77000045776367" y2="126.39999934605189" style="visibility: inherit;" fill="rgb(0, 0, 0)" stroke="rgb(204, 204, 204)" stroke-width="1px"></line><line x1="61.77000045776367" y1="113.75999941144674" x2="56.77000045776367" y2="113.75999941144674" style="visibility: inherit;" fill="rgb(0, 0, 0)" stroke="rgb(204, 204, 204)" stroke-width="1px"></line><line x1="61.77000045776367" y1="101.11999947684153" x2="56.77000045776367" y2="101.11999947684153" style="visibility: inherit;" fill="rgb(0, 0, 0)" stroke="rgb(204, 204, 204)" stroke-width="1px"></line><line x1="61.77000045776367" y1="88.47999954223633" x2="56.77000045776367" y2="88.47999954223633" style="visibility: inherit;" fill="rgb(0, 0, 0)" stroke="rgb(204, 204, 204)" stroke-width="1px"></line><line x1="61.77000045776367" y1="75.83999960763113" x2="56.77000045776367" y2="75.83999960763113" style="visibility: inherit;" fill="rgb(0, 0, 0)" stroke="rgb(204, 204, 204)" stroke-width="1px"></line><line x1="61.77000045776367" y1="63.19999967302592" x2="56.77000045776367" y2="63.19999967302592" style="visibility: inherit;" fill="rgb(0, 0, 0)" stroke="rgb(204, 204, 204)" stroke-width="1px"></line><line x1="61.77000045776367" y1="50.55999973842079" x2="56.77000045776367" y2="50.55999973842079" style="visibility: inherit;" fill="rgb(0, 0, 0)" stroke="rgb(204, 204, 204)" stroke-width="1px"></line><line x1="61.77000045776367" y1="37.91999980381559" x2="56.77000045776367" y2="37.91999980381559" style="visibility: inherit;" fill="rgb(0, 0, 0)" stroke="rgb(204, 204, 204)" stroke-width="1px"></line><line x1="61.77000045776367" y1="25.279999869210407" x2="56.77000045776367" y2="25.279999869210407" style="visibility: inherit;" fill="rgb(0, 0, 0)" stroke="rgb(204, 204, 204)" stroke-width="1px"></line><line x1="61.77000045776367" y1="12.639999934605203" x2="56.77000045776367" y2="12.639999934605203" style="visibility: inherit;" fill="rgb(0, 0, 0)" stroke="rgb(204, 204, 204)" stroke-width="1px"></line><line x1="61.77000045776367" y1="0" x2="56.77000045776367" y2="0" style="visibility: inherit;" fill="rgb(0, 0, 0)" stroke="rgb(204, 204, 204)" stroke-width="1px"></line></g><g transform="translate(51.77000045776367, 0)"><text style="text-anchor: end; visibility: hidden; font-family: Roboto, sans-serif; font-size: 12px; font-weight: 200;" x="0" y="176.95999908447266" dx="0em" dy="0.3em" fill="rgb(33, 33, 33)" stroke="none" stroke-width="1px">0.095</text><text style="text-anchor: end; visibility: inherit; font-family: Roboto, sans-serif; font-size: 12px; font-weight: 200;" x="0" y="164.31999914986744" dx="0em" dy="0.3em" fill="rgb(33, 33, 33)" stroke="none" stroke-width="1px">0.1</text><text style="text-anchor: end; visibility: hidden; font-family: Roboto, sans-serif; font-size: 12px; font-weight: 200;" x="0" y="151.67999921526228" dx="0em" dy="0.3em" fill="rgb(33, 33, 33)" stroke="none" stroke-width="1px">0.105</text><text style="text-anchor: end; visibility: inherit; font-family: Roboto, sans-serif; font-size: 12px; font-weight: 200;" x="0" y="139.0399992806571" dx="0em" dy="0.3em" fill="rgb(33, 33, 33)" stroke="none" stroke-width="1px">0.11</text><text style="text-anchor: end; visibility: hidden; font-family: Roboto, sans-serif; font-size: 12px; font-weight: 200;" x="0" y="126.39999934605189" dx="0em" dy="0.3em" fill="rgb(33, 33, 33)" stroke="none" stroke-width="1px">0.115</text><text style="text-anchor: end; visibility: inherit; font-family: Roboto, sans-serif; font-size: 12px; font-weight: 200;" x="0" y="113.75999941144674" dx="0em" dy="0.3em" fill="rgb(33, 33, 33)" stroke="none" stroke-width="1px">0.12</text><text style="text-anchor: end; visibility: hidden; font-family: Roboto, sans-serif; font-size: 12px; font-weight: 200;" x="0" y="101.11999947684153" dx="0em" dy="0.3em" fill="rgb(33, 33, 33)" stroke="none" stroke-width="1px">0.125</text><text style="text-anchor: end; visibility: inherit; font-family: Roboto, sans-serif; font-size: 12px; font-weight: 200;" x="0" y="88.47999954223633" dx="0em" dy="0.3em" fill="rgb(33, 33, 33)" stroke="none" stroke-width="1px">0.13</text><text style="text-anchor: end; visibility: hidden; font-family: Roboto, sans-serif; font-size: 12px; font-weight: 200;" x="0" y="75.83999960763113" dx="0em" dy="0.3em" fill="rgb(33, 33, 33)" stroke="none" stroke-width="1px">0.135</text><text style="text-anchor: end; visibility: inherit; font-family: Roboto, sans-serif; font-size: 12px; font-weight: 200;" x="0" y="63.19999967302592" dx="0em" dy="0.3em" fill="rgb(33, 33, 33)" stroke="none" stroke-width="1px">0.14</text><text style="text-anchor: end; visibility: hidden; font-family: Roboto, sans-serif; font-size: 12px; font-weight: 200;" x="0" y="50.55999973842079" dx="0em" dy="0.3em" fill="rgb(33, 33, 33)" stroke="none" stroke-width="1px">0.145</text><text style="text-anchor: end; visibility: inherit; font-family: Roboto, sans-serif; font-size: 12px; font-weight: 200;" x="0" y="37.91999980381559" dx="0em" dy="0.3em" fill="rgb(33, 33, 33)" stroke="none" stroke-width="1px">0.15</text><text style="text-anchor: end; visibility: hidden; font-family: Roboto, sans-serif; font-size: 12px; font-weight: 200;" x="0" y="25.279999869210407" dx="0em" dy="0.3em" fill="rgb(33, 33, 33)" stroke="none" stroke-width="1px">0.155</text><text style="text-anchor: end; visibility: inherit; font-family: Roboto, sans-serif; font-size: 12px; font-weight: 200;" x="0" y="12.639999934605203" dx="0em" dy="0.3em" fill="rgb(33, 33, 33)" stroke="none" stroke-width="1px">0.16</text><text style="text-anchor: end; visibility: hidden; font-family: Roboto, sans-serif; font-size: 12px; font-weight: 200;" x="0" y="0" dx="0em" dy="0.3em" fill="rgb(33, 33, 33)" stroke="none" stroke-width="1px">0.165</text></g><line x1="61.77000045776367" y1="0" x2="61.77000045776367" y2="176.95999908447266" fill="rgb(0, 0, 0)" stroke="rgb(204, 204, 204)" stroke-width="1px"></line></g></g><g transform="translate(61, 0)" clip-path="url(#clip_0)"><clipPath id="clip_0"><rect width="268" height="176"></rect></clipPath><g><g><g><line x1="0" y1="0" x2="0" y2="176.95999908447266" fill="rgb(0, 0, 0)" stroke="rgb(66, 66, 66)" stroke-width="1px" opacity="0.25"></line><line x1="22.352499961853027" y1="0" x2="22.352499961853027" y2="176.95999908447266" fill="rgb(0, 0, 0)" stroke="rgb(66, 66, 66)" stroke-width="1px" opacity="0.25"></line><line x1="44.704999923706055" y1="0" x2="44.704999923706055" y2="176.95999908447266" fill="rgb(0, 0, 0)" stroke="rgb(66, 66, 66)" stroke-width="1px" opacity="0.25"></line><line x1="67.05749988555908" y1="0" x2="67.05749988555908" y2="176.95999908447266" fill="rgb(0, 0, 0)" stroke="rgb(66, 66, 66)" stroke-width="1px" opacity="0.25"></line><line x1="89.40999984741211" y1="0" x2="89.40999984741211" y2="176.95999908447266" fill="rgb(0, 0, 0)" stroke="rgb(66, 66, 66)" stroke-width="1px" opacity="0.25"></line><line x1="111.76249980926514" y1="0" x2="111.76249980926514" y2="176.95999908447266" fill="rgb(0, 0, 0)" stroke="rgb(66, 66, 66)" stroke-width="1px" opacity="0.25"></line><line x1="134.11499977111816" y1="0" x2="134.11499977111816" y2="176.95999908447266" fill="rgb(0, 0, 0)" stroke="rgb(66, 66, 66)" stroke-width="1px" opacity="0.25"></line><line x1="156.4674997329712" y1="0" x2="156.4674997329712" y2="176.95999908447266" fill="rgb(0, 0, 0)" stroke="rgb(66, 66, 66)" stroke-width="1px" opacity="0.25"></line><line x1="178.81999969482422" y1="0" x2="178.81999969482422" y2="176.95999908447266" fill="rgb(0, 0, 0)" stroke="rgb(66, 66, 66)" stroke-width="1px" opacity="0.25"></line><line x1="201.17249965667725" y1="0" x2="201.17249965667725" y2="176.95999908447266" fill="rgb(0, 0, 0)" stroke="rgb(66, 66, 66)" stroke-width="1px" opacity="0.25"></line><line x1="223.52499961853027" y1="0" x2="223.52499961853027" y2="176.95999908447266" fill="rgb(0, 0, 0)" stroke="rgb(66, 66, 66)" stroke-width="1px" opacity="0.25"></line><line x1="245.8774995803833" y1="0" x2="245.8774995803833" y2="176.95999908447266" fill="rgb(0, 0, 0)" stroke="rgb(66, 66, 66)" stroke-width="1px" opacity="0.25"></line><line x1="268.2299995422363" y1="0" x2="268.2299995422363" y2="176.95999908447266" fill="rgb(0, 0, 0)" stroke="rgb(66, 66, 66)" stroke-width="1px" opacity="0.25"></line></g><g><line x1="0" y1="176.95999908447266" x2="268.2299995422363" y2="176.95999908447266" fill="rgb(0, 0, 0)" stroke="rgb(66, 66, 66)" stroke-width="1px" opacity="0.25"></line><line x1="0" y1="164.31999914986744" x2="268.2299995422363" y2="164.31999914986744" fill="rgb(0, 0, 0)" stroke="rgb(66, 66, 66)" stroke-width="1px" opacity="0.25"></line><line x1="0" y1="151.67999921526228" x2="268.2299995422363" y2="151.67999921526228" fill="rgb(0, 0, 0)" stroke="rgb(66, 66, 66)" stroke-width="1px" opacity="0.25"></line><line x1="0" y1="139.0399992806571" x2="268.2299995422363" y2="139.0399992806571" fill="rgb(0, 0, 0)" stroke="rgb(66, 66, 66)" stroke-width="1px" opacity="0.25"></line><line x1="0" y1="126.39999934605189" x2="268.2299995422363" y2="126.39999934605189" fill="rgb(0, 0, 0)" stroke="rgb(66, 66, 66)" stroke-width="1px" opacity="0.25"></line><line x1="0" y1="113.75999941144674" x2="268.2299995422363" y2="113.75999941144674" fill="rgb(0, 0, 0)" stroke="rgb(66, 66, 66)" stroke-width="1px" opacity="0.25"></line><line x1="0" y1="101.11999947684153" x2="268.2299995422363" y2="101.11999947684153" fill="rgb(0, 0, 0)" stroke="rgb(66, 66, 66)" stroke-width="1px" opacity="0.25"></line><line x1="0" y1="88.47999954223633" x2="268.2299995422363" y2="88.47999954223633" fill="rgb(0, 0, 0)" stroke="rgb(66, 66, 66)" stroke-width="1px" opacity="0.25"></line><line x1="0" y1="75.83999960763113" x2="268.2299995422363" y2="75.83999960763113" fill="rgb(0, 0, 0)" stroke="rgb(66, 66, 66)" stroke-width="1px" opacity="0.25"></line><line x1="0" y1="63.19999967302592" x2="268.2299995422363" y2="63.19999967302592" fill="rgb(0, 0, 0)" stroke="rgb(66, 66, 66)" stroke-width="1px" opacity="0.25"></line><line x1="0" y1="50.55999973842079" x2="268.2299995422363" y2="50.55999973842079" fill="rgb(0, 0, 0)" stroke="rgb(66, 66, 66)" stroke-width="1px" opacity="0.25"></line><line x1="0" y1="37.91999980381559" x2="268.2299995422363" y2="37.91999980381559" fill="rgb(0, 0, 0)" stroke="rgb(66, 66, 66)" stroke-width="1px" opacity="0.25"></line><line x1="0" y1="25.279999869210407" x2="268.2299995422363" y2="25.279999869210407" fill="rgb(0, 0, 0)" stroke="rgb(66, 66, 66)" stroke-width="1px" opacity="0.25"></line><line x1="0" y1="12.639999934605203" x2="268.2299995422363" y2="12.639999934605203" fill="rgb(0, 0, 0)" stroke="rgb(66, 66, 66)" stroke-width="1px" opacity="0.25"></line><line x1="0" y1="0" x2="268.2299995422363" y2="0" fill="rgb(0, 0, 0)" stroke="rgb(66, 66, 66)" stroke-width="1px" opacity="0.25"></line></g></g></g><g><g><line x1="0" y1="417.1199978419712" x2="268.2299995422363" y2="417.1199978419712" fill="rgb(0, 0, 0)" stroke="rgb(153, 153, 153)" stroke-width="1.5px"></line></g></g><g><g><line x1="22.352499961853027" y1="0" x2="22.352499961853027" y2="176.95999908447266" fill="rgb(0, 0, 0)" stroke="rgb(153, 153, 153)" stroke-width="1.5px"></line></g></g><g><g><g><g><g><path style="fill: none;" stroke="rgb(255, 112, 67)" stroke-width="2px" d="M24.58774995803833,-11.145705527815862L26.822999954223633,37.27412084845505L29.058249950408936,27.656709476942332L31.29349994659424,85.23617336983737L33.52874994277954,91.94936316820338L35.763999938964844,82.76323416610877L37.99924993515015,49.795818084940294L40.23449993133545,8.23473193133154L42.46974992752075,19.286334958450016L44.704999923706055,37.68311067976482L46.94024991989136,69.24568913007266L49.17549991607666,72.8119948232387L51.41074991226196,98.46508279751652L53.645999908447266,109.4614158088828L55.88124990463257,60.31528925806386L58.11649990081787,86.59516096057305L60.351749897003174,128.02517624127648L62.58699989318848,122.23995584067289L64.82224988937378,109.77572803250355L67.05749988555908,104.47150456029091L69.29274988174438,93.66584810413757L71.52799987792969,99.69654097542008L73.76324987411499,109.4274986744629L75.9984998703003,104.14198044575203L78.2337498664856,102.8320626228459L80.4689998626709,108.64283678534622L82.7042498588562,59.74440530240708L84.9394998550415,121.28277476425231L87.1747498512268,95.80698583512655L89.40999984741211,71.44971915563919L91.64524984359741,81.3668058838905L93.88049983978271,113.49857920313481L96.11574983596802,141.7793351900614L98.35099983215332,127.99206534068956L100.58624982833862,-163.03978038117393L102.82149982452393,-53.5704302405296L105.05674982070923,37.18575485697209L107.29199981689453,8.851876699104674L109.52724981307983,-11.466043883767957L111.76249980926514,30.88656124458842L113.99774980545044,3.9940303901805203L116.23299980163574,16.000031687266908L118.46824979782104,75.43842834923741L120.70349979400635,92.05386377717811L122.93874979019165,88.907453750021L125.17399978637695,114.94221882778817L127.40924978256226,99.46317168396311L129.64449977874756,139.48703541087275L131.87974977493286,76.75501811079286L134.11499977111816,132.49472398934898L136.35024976730347,131.40179899933412L138.58549976348877,134.9246941721679L140.82074975967407,129.6953993352318L143.05599975585938,100.42701392871365L145.29124975204468,123.91344903666186L147.52649974822998,117.49335637681605L149.76174974441528,144.47474350011913L151.9969997406006,135.48809696910084L154.2322497367859,141.30702007571168L156.4674997329712,93.11914475681935L158.7027497291565,72.21299587141365L160.9379997253418,98.73266426348651L163.1732497215271,52.21649244666036L165.4084997177124,67.92607871982298L167.6437497138977,68.22385945397991L169.878999710083,76.2004417869308L172.1142497062683,138.10766660223604L174.3494997024536,145.85476281675813L176.58474969863892,93.41735847585232L178.81999969482422,132.44721334672548L181.05524969100952,106.59054757138897L183.29049968719482,144.65229531893468L185.52574968338013,124.58572690274785L187.76099967956543,125.38921506591588L189.99624967575073,150.27411955555235L192.23149967193604,154.24425078641875L194.46674966812134,167.75634770160877L196.70199966430664,122.40437236646792L198.93724966049194,114.22894622980208L201.17249965667725,145.59672340686134L203.40774965286255,180.25331940640552L205.64299964904785,166.97515947229542L207.87824964523315,158.4446429474235L210.11349964141846,150.815859603411L212.34874963760376,151.92765397491897L214.58399963378906,120.17850180358913L216.81924962997437,105.33958234027429L219.05449962615967,114.97185087431114L221.28974962234497,138.87779480958318L223.52499961853027,124.80640894425052L225.76024961471558,88.165831198713L227.99549961090088,128.62365904446875L230.23074960708618,139.8230743902782L232.46599960327148,164.74443573046244L234.7012495994568,175.4596410719693L236.9364995956421,170.78527340948366L239.1717495918274,162.88037264886515L241.4069995880127,187.56718772794872L243.642249584198,161.06084160632253L245.8774995803833,145.79304142975116L248.1127495765686,116.35118238210498" fill="none"></path></g></g></g></g><g opacity="0.2"><g><g><g><path style="fill: none;" stroke="rgb(255, 112, 67)" stroke-width="2px" d="M24.58774995803833,-11.145705527815862L26.822999954223633,66.32601667421757L29.058249950408936,18.42399456029003L31.29349994659424,152.94962290788195L33.52874994277954,100.71410376895003L35.763999938964844,70.05551074977114L37.99924993515015,2.6518856102119943L40.23449993133545,-52.361730667056996L42.46974992752075,35.58530276007781L44.704999923706055,65.00017859208772L46.94024991989136,116.30328654199593L49.17549991607666,78.14204568489355L51.41074991226196,136.86095297578385L53.645999908447266,125.9343723648183L55.88124990463257,-13.346131141279036L58.11649990081787,125.99643391273025L60.351749897003174,190.15266736834562L62.58699989318848,113.56359410660042L64.82224988937378,91.08128511990371L67.05749988555908,96.51565417900747L69.29274988174438,77.45795602778826L71.52799987792969,108.74238183982611L73.76324987411499,124.02374310224229L75.9984998703003,96.213765714688L78.2337498664856,100.86719519882206L80.4689998626709,117.3589732487992L82.7042498588562,-13.603116804317176L84.9394998550415,213.59023448112737L87.1747498512268,57.59332590824015L89.40999984741211,34.91383259829907L91.64524984359741,96.24243268765369L93.88049983978271,161.69623278885388L96.11574983596802,184.20046579429703L98.35099983215332,107.31116155418567L100.58624982833862,-599.5875364563606L102.82149982452393,110.63359214765336L105.05674982070923,173.32003109907785L107.29199981689453,-33.64894027467346L109.52724981307983,-41.94292464491032L111.76249980926514,94.41546879558598L113.99774980545044,-36.34476583750843L116.23299980163574,34.0090336184526L118.46824979782104,164.59602329928782L120.70349979400635,116.97701691189286L122.93874979019165,84.18783871010284L125.17399978637695,153.99436644037965L127.40924978256226,76.24460096967363L129.64449977874756,199.52283099899068L134.11499977111816,216.104282806057L136.35024976730347,129.76241151432495L138.58549976348877,140.20903693139297L140.82074975967407,121.85145707985055L143.05599975585938,56.52443581901313L145.29124975204468,159.14310169854724L147.52649974822998,107.86321738705342L149.76174974441528,184.94682418505843L151.9969997406006,122.00812717257637L154.2322497367859,150.0354047356269L156.4674997329712,20.83733177848666L158.7027497291565,40.8537725433065L160.9379997253418,138.51216685159469L163.1732497215271,-17.557765278577698L165.4084997177124,91.49045812956658L167.6437497138977,68.67053055521535L169.878999710083,88.16531528635707L172.1142497062683,230.9685038251937L174.3494997024536,157.47540713854127L176.58474969863892,14.76125196449364L178.81999969482422,190.99199565303522L181.05524969100952,67.8055489083843L183.29049968719482,201.7449169402532L185.52574968338013,94.48587427846758L187.76099967956543,126.59444731066785L189.99624967575073,187.60147629000707L192.23149967193604,160.19944763271832L194.46674966812134,188.02449307439386L196.70199966430664,54.376409363756615L198.93724966049194,101.96580702480327L201.17249965667725,192.64838917245024L203.40774965286255,232.23821340572184L205.64299964904785,147.0579195711302L207.87824964523315,145.6488681601157L210.11349964141846,139.3726845873923L212.34874963760376,153.59534553218097L214.58399963378906,72.55477354659428L216.81924962997437,83.08120314530204L219.05449962615967,129.42025367536638L221.28974962234497,174.73671071249126L223.52499961853027,103.69933014625151L225.76024961471558,33.20496458040674L227.99549961090088,189.31040081310238L230.23074960708618,156.62219740899243L232.46599960327148,202.12647774073886L234.7012495994568,191.53244908422957L236.9364995956421,163.77372191575523L239.1717495918274,151.0230215079374L241.4069995880127,224.597410346574L243.642249584198,121.30132242388325L245.8774995803833,122.89134116489413L248.1127495765686,72.18839381063579" fill="none"></path></g></g></g></g></g></g><g transform="translate(61, 176)" clip-path="url(#clip_1)"><clipPath id="clip_1"><rect width="268" height="23"></rect></clipPath><g><g><line x1="0" y1="0" x2="0" y2="5" style="visibility: inherit;" fill="rgb(0, 0, 0)" stroke="rgb(204, 204, 204)" stroke-width="1px"></line><line x1="22.352499961853027" y1="0" x2="22.352499961853027" y2="5" style="visibility: inherit;" fill="rgb(0, 0, 0)" stroke="rgb(204, 204, 204)" stroke-width="1px"></line><line x1="44.704999923706055" y1="0" x2="44.704999923706055" y2="5" style="visibility: inherit;" fill="rgb(0, 0, 0)" stroke="rgb(204, 204, 204)" stroke-width="1px"></line><line x1="67.05749988555908" y1="0" x2="67.05749988555908" y2="5" style="visibility: inherit;" fill="rgb(0, 0, 0)" stroke="rgb(204, 204, 204)" stroke-width="1px"></line><line x1="89.40999984741211" y1="0" x2="89.40999984741211" y2="5" style="visibility: inherit;" fill="rgb(0, 0, 0)" stroke="rgb(204, 204, 204)" stroke-width="1px"></line><line x1="111.76249980926514" y1="0" x2="111.76249980926514" y2="5" style="visibility: inherit;" fill="rgb(0, 0, 0)" stroke="rgb(204, 204, 204)" stroke-width="1px"></line><line x1="134.11499977111816" y1="0" x2="134.11499977111816" y2="5" style="visibility: inherit;" fill="rgb(0, 0, 0)" stroke="rgb(204, 204, 204)" stroke-width="1px"></line><line x1="156.4674997329712" y1="0" x2="156.4674997329712" y2="5" style="visibility: inherit;" fill="rgb(0, 0, 0)" stroke="rgb(204, 204, 204)" stroke-width="1px"></line><line x1="178.81999969482422" y1="0" x2="178.81999969482422" y2="5" style="visibility: inherit;" fill="rgb(0, 0, 0)" stroke="rgb(204, 204, 204)" stroke-width="1px"></line><line x1="201.17249965667725" y1="0" x2="201.17249965667725" y2="5" style="visibility: inherit;" fill="rgb(0, 0, 0)" stroke="rgb(204, 204, 204)" stroke-width="1px"></line><line x1="223.52499961853027" y1="0" x2="223.52499961853027" y2="5" style="visibility: inherit;" fill="rgb(0, 0, 0)" stroke="rgb(204, 204, 204)" stroke-width="1px"></line><line x1="245.8774995803833" y1="0" x2="245.8774995803833" y2="5" style="visibility: inherit;" fill="rgb(0, 0, 0)" stroke="rgb(204, 204, 204)" stroke-width="1px"></line><line x1="268.2299995422363" y1="0" x2="268.2299995422363" y2="5" style="visibility: inherit;" fill="rgb(0, 0, 0)" stroke="rgb(204, 204, 204)" stroke-width="1px"></line></g><g transform="translate(0, 8)"><text style="text-anchor: middle; visibility: hidden; font-family: Roboto, sans-serif; font-size: 12px; font-weight: 200;" x="0" y="0" dx="0em" dy="0.95em" fill="rgb(33, 33, 33)" stroke="none" stroke-width="1px">-1k</text><text style="text-anchor: middle; visibility: inherit; font-family: Roboto, sans-serif; font-size: 12px; font-weight: 200;" x="22.352499961853027" y="0" dx="0em" dy="0.95em" fill="rgb(33, 33, 33)" stroke="none" stroke-width="1px">0</text><text style="text-anchor: middle; visibility: hidden; font-family: Roboto, sans-serif; font-size: 12px; font-weight: 200;" x="44.704999923706055" y="0" dx="0em" dy="0.95em" fill="rgb(33, 33, 33)" stroke="none" stroke-width="1px">1k</text><text style="text-anchor: middle; visibility: inherit; font-family: Roboto, sans-serif; font-size: 12px; font-weight: 200;" x="67.05749988555908" y="0" dx="0em" dy="0.95em" fill="rgb(33, 33, 33)" stroke="none" stroke-width="1px">2k</text><text style="text-anchor: middle; visibility: hidden; font-family: Roboto, sans-serif; font-size: 12px; font-weight: 200;" x="89.40999984741211" y="0" dx="0em" dy="0.95em" fill="rgb(33, 33, 33)" stroke="none" stroke-width="1px">3k</text><text style="text-anchor: middle; visibility: inherit; font-family: Roboto, sans-serif; font-size: 12px; font-weight: 200;" x="111.76249980926514" y="0" dx="0em" dy="0.95em" fill="rgb(33, 33, 33)" stroke="none" stroke-width="1px">4k</text><text style="text-anchor: middle; visibility: hidden; font-family: Roboto, sans-serif; font-size: 12px; font-weight: 200;" x="134.11499977111816" y="0" dx="0em" dy="0.95em" fill="rgb(33, 33, 33)" stroke="none" stroke-width="1px">5k</text><text style="text-anchor: middle; visibility: inherit; font-family: Roboto, sans-serif; font-size: 12px; font-weight: 200;" x="156.4674997329712" y="0" dx="0em" dy="0.95em" fill="rgb(33, 33, 33)" stroke="none" stroke-width="1px">6k</text><text style="text-anchor: middle; visibility: hidden; font-family: Roboto, sans-serif; font-size: 12px; font-weight: 200;" x="178.81999969482422" y="0" dx="0em" dy="0.95em" fill="rgb(33, 33, 33)" stroke="none" stroke-width="1px">7k</text><text style="text-anchor: middle; visibility: inherit; font-family: Roboto, sans-serif; font-size: 12px; font-weight: 200;" x="201.17249965667725" y="0" dx="0em" dy="0.95em" fill="rgb(33, 33, 33)" stroke="none" stroke-width="1px">8k</text><text style="text-anchor: middle; visibility: hidden; font-family: Roboto, sans-serif; font-size: 12px; font-weight: 200;" x="223.52499961853027" y="0" dx="0em" dy="0.95em" fill="rgb(33, 33, 33)" stroke="none" stroke-width="1px">9k</text><text style="text-anchor: middle; visibility: inherit; font-family: Roboto, sans-serif; font-size: 12px; font-weight: 200;" x="245.8774995803833" y="0" dx="0em" dy="0.95em" fill="rgb(33, 33, 33)" stroke="none" stroke-width="1px">10k</text><text style="text-anchor: middle; visibility: hidden; font-family: Roboto, sans-serif; font-size: 12px; font-weight: 200;" x="268.2299995422363" y="0" dx="0em" dy="0.95em" fill="rgb(33, 33, 33)" stroke="none" stroke-width="1px">11k</text></g><line x1="0" y1="0" x2="268.2299995422363" y2="0" fill="rgb(0, 0, 0)" stroke="rgb(204, 204, 204)" stroke-width="1px"></line></g></g></g></g></svg>