<svg viewBox="0 0 330 200" xmlns="http://www.w3.org/2000/svg"><g><g><g><g><g><line x1="61.91500186920166" y1="176.89999961853027" x2="56.91500186920166" y2="176.89999961853027" style="visibility: inherit;" fill="rgb(0, 0, 0)" stroke="rgb(204, 204, 204)" stroke-width="1px"></line><line x1="61.91500186920166" y1="159.20999965667727" x2="56.91500186920166" y2="159.20999965667727" style="visibility: inherit;" fill="rgb(0, 0, 0)" stroke="rgb(204, 204, 204)" stroke-width="1px"></line><line x1="61.91500186920166" y1="141.51999969482424" x2="56.91500186920166" y2="141.51999969482424" style="visibility: inherit;" fill="rgb(0, 0, 0)" stroke="rgb(204, 204, 204)" stroke-width="1px"></line><line x1="61.91500186920166" y1="123.82999973297119" x2="56.91500186920166" y2="123.82999973297119" style="visibility: inherit;" fill="rgb(0, 0, 0)" stroke="rgb(204, 204, 204)" stroke-width="1px"></line><line x1="61.91500186920166" y1="106.1399997711182" x2="56.91500186920166" y2="106.1399997711182" style="visibility: inherit;" fill="rgb(0, 0, 0)" stroke="rgb(204, 204, 204)" stroke-width="1px"></line><line x1="61.91500186920166" y1="88.44999980926515" x2="56.91500186920166" y2="88.44999980926515" style="visibility: inherit;" fill="rgb(0, 0, 0)" stroke="rgb(204, 204, 204)" stroke-width="1px"></line><line x1="61.91500186920166" y1="70.75999984741212" x2="56.91500186920166" y2="70.75999984741212" style="visibility: inherit;" fill="rgb(0, 0, 0)" stroke="rgb(204, 204, 204)" stroke-width="1px"></line><line x1="61.91500186920166" y1="53.06999988555913" x2="56.91500186920166" y2="53.06999988555913" style="visibility: inherit;" fill="rgb(0, 0, 0)" stroke="rgb(204, 204, 204)" stroke-width="1px"></line><line x1="61.91500186920166" y1="35.37999992370609" x2="56.91500186920166" y2="35.37999992370609" style="visibility: inherit;" fill="rgb(0, 0, 0)" stroke="rgb(204, 204, 204)" stroke-width="1px"></line><line x1="61.91500186920166" y1="17.689999961853044" x2="56.91500186920166" y2="17.689999961853044" style="visibility: inherit;" fill="rgb(0, 0, 0)" stroke="rgb(204, 204, 204)" stroke-width="1px"></line><line x1="61.91500186920166" y1="0" x2="56.91500186920166" y2="0" style="visibility: inherit;" fill="rgb(0, 0, 0)" stroke="rgb(204, 204, 204)" stroke-width="1px"></line></g><g transform="translate(51.91500186920166, 0)"><text style="text-anchor: end; visibility: hidden; font-family: Roboto, sans-serif; font-size: 12px; font-weight: 200;" x="0" y="176.89999961853027" dx="0em" dy="0.3em" fill="rgb(33, 33, 33)" stroke="none" stroke-width="1px">0.085</text><text style="text-anchor: end; visibility: inherit; font-family: Roboto, sans-serif; font-size: 12px; font-weight: 200;" x="0" y="159.20999965667727" dx="0em" dy="0.3em" fill="rgb(33, 33, 33)" stroke="none" stroke-width="1px">0.09</text><text style="text-anchor: end; visibility: hidden; font-family: Roboto, sans-serif; font-size: 12px; font-weight: 200;" x="0" y="141.51999969482424" dx="0em" dy="0.3em" fill="rgb(33, 33, 33)" stroke="none" stroke-width="1px">0.095</text><text style="text-anchor: end; visibility: inherit; font-family: Roboto, sans-serif; font-size: 12px; font-weight: 200;" x="0" y="123.82999973297119" dx="0em" dy="0.3em" fill="rgb(33, 33, 33)" stroke="none" stroke-width="1px">0.1</text><text style="text-anchor: end; visibility: hidden; font-family: Roboto, sans-serif; font-size: 12px; font-weight: 200;" x="0" y="106.1399997711182" dx="0em" dy="0.3em" fill="rgb(33, 33, 33)" stroke="none" stroke-width="1px">0.105</text><text style="text-anchor: end; visibility: inherit; font-family: Roboto, sans-serif; font-size: 12px; font-weight: 200;" x="0" y="88.44999980926515" dx="0em" dy="0.3em" fill="rgb(33, 33, 33)" stroke="none" stroke-width="1px">0.11</text><text style="text-anchor: end; visibility: hidden; font-family: Roboto, sans-serif; font-size: 12px; font-weight: 200;" x="0" y="70.75999984741212" dx="0em" dy="0.3em" fill="rgb(33, 33, 33)" stroke="none" stroke-width="1px">0.115</text><text style="text-anchor: end; visibility: inherit; font-family: Roboto, sans-serif; font-size: 12px; font-weight: 200;" x="0" y="53.06999988555913" dx="0em" dy="0.3em" fill="rgb(33, 33, 33)" stroke="none" stroke-width="1px">0.12</text><text style="text-anchor: end; visibility: hidden; font-family: Roboto, sans-serif; font-size: 12px; font-weight: 200;" x="0" y="35.37999992370609" dx="0em" dy="0.3em" fill="rgb(33, 33, 33)" stroke="none" stroke-width="1px">0.125</text><text style="text-anchor: end; visibility: inherit; font-family: Roboto, sans-serif; font-size: 12px; font-weight: 200;" x="0" y="17.689999961853044" dx="0em" dy="0.3em" fill="rgb(33, 33, 33)" stroke="none" stroke-width="1px">0.13</text><text style="text-anchor: end; visibility: hidden; font-family: Roboto, sans-serif; font-size: 12px; font-weight: 200;" x="0" y="0" dx="0em" dy="0.3em" fill="rgb(33, 33, 33)" stroke="none" stroke-width="1px">0.135</text></g><line x1="61.91500186920166" y1="0" x2="61.91500186920166" y2="176.89999961853027" fill="rgb(0, 0, 0)" stroke="rgb(204, 204, 204)" stroke-width="1px"></line></g></g><g transform="translate(61, 0)" clip-path="url(#clip_0)"><clipPath id="clip_0"><rect width="268" height="176"></rect></clipPath><g><g><g><line x1="0" y1="0" x2="0" y2="176.89999961853027" fill="rgb(0, 0, 0)" stroke="rgb(66, 66, 66)" stroke-width="1px" opacity="0.25"></line><line x1="33.51062476634979" y1="0" x2="33.51062476634979" y2="176.89999961853027" fill="rgb(0, 0, 0)" stroke="rgb(66, 66, 66)" stroke-width="1px" opacity="0.25"></line><line x1="67.02124953269958" y1="0" x2="67.02124953269958" y2="176.89999961853027" fill="rgb(0, 0, 0)" stroke="rgb(66, 66, 66)" stroke-width="1px" opacity="0.25"></line><line x1="100.53187429904938" y1="0" x2="100.53187429904938" y2="176.89999961853027" fill="rgb(0, 0, 0)" stroke="rgb(66, 66, 66)" stroke-width="1px" opacity="0.25"></line><line x1="134.04249906539917" y1="0" x2="134.04249906539917" y2="176.89999961853027" fill="rgb(0, 0, 0)" stroke="rgb(66, 66, 66)" stroke-width="1px" opacity="0.25"></line><line x1="167.55312383174896" y1="0" x2="167.55312383174896" y2="176.89999961853027" fill="rgb(0, 0, 0)" stroke="rgb(66, 66, 66)" stroke-width="1px" opacity="0.25"></line><line x1="201.06374859809875" y1="0" x2="201.06374859809875" y2="176.89999961853027" fill="rgb(0, 0, 0)" stroke="rgb(66, 66, 66)" stroke-width="1px" opacity="0.25"></line><line x1="234.57437336444855" y1="0" x2="234.57437336444855" y2="176.89999961853027" fill="rgb(0, 0, 0)" stroke="rgb(66, 66, 66)" stroke-width="1px" opacity="0.25"></line><line x1="268.08499813079834" y1="0" x2="268.08499813079834" y2="176.89999961853027" fill="rgb(0, 0, 0)" stroke="rgb(66, 66, 66)" stroke-width="1px" opacity="0.25"></line></g><g><line x1="0" y1="176.89999961853027" x2="268.08499813079834" y2="176.89999961853027" fill="rgb(0, 0, 0)" stroke="rgb(66, 66, 66)" stroke-width="1px" opacity="0.25"></line><line x1="0" y1="159.20999965667727" x2="268.08499813079834" y2="159.20999965667727" fill="rgb(0, 0, 0)" stroke="rgb(66, 66, 66)" stroke-width="1px" opacity="0.25"></line><line x1="0" y1="141.51999969482424" x2="268.08499813079834" y2="141.51999969482424" fill="rgb(0, 0, 0)" stroke="rgb(66, 66, 66)" stroke-width="1px" opacity="0.25"></line><line x1="0" y1="123.82999973297119" x2="268.08499813079834" y2="123.82999973297119" fill="rgb(0, 0, 0)" stroke="rgb(66, 66, 66)" stroke-width="1px" opacity="0.25"></line><line x1="0" y1="106.1399997711182" x2="268.08499813079834" y2="106.1399997711182" fill="rgb(0, 0, 0)" stroke="rgb(66, 66, 66)" stroke-width="1px" opacity="0.25"></line><line x1="0" y1="88.44999980926515" x2="268.08499813079834" y2="88.44999980926515" fill="rgb(0, 0, 0)" stroke="rgb(66, 66, 66)" stroke-width="1px" opacity="0.25"></line><line x1="0" y1="70.75999984741212" x2="268.08499813079834" y2="70.75999984741212" fill="rgb(0, 0, 0)" stroke="rgb(66, 66, 66)" stroke-width="1px" opacity="0.25"></line><line x1="0" y1="53.06999988555913" x2="268.08499813079834" y2="53.06999988555913" fill="rgb(0, 0, 0)" stroke="rgb(66, 66, 66)" stroke-width="1px" opacity="0.25"></line><line x1="0" y1="35.37999992370609" x2="268.08499813079834" y2="35.37999992370609" fill="rgb(0, 0, 0)" stroke="rgb(66, 66, 66)" stroke-width="1px" opacity="0.25"></line><line x1="0" y1="17.689999961853044" x2="268.08499813079834" y2="17.689999961853044" fill="rgb(0, 0, 0)" stroke="rgb(66, 66, 66)" stroke-width="1px" opacity="0.25"></line><line x1="0" y1="0" x2="268.08499813079834" y2="0" fill="rgb(0, 0, 0)" stroke="rgb(66, 66, 66)" stroke-width="1px" opacity="0.25"></line></g></g></g><g><g><line x1="0" y1="477.62999897003175" x2="268.08499813079834" y2="477.62999897003175" fill="rgb(0, 0, 0)" stroke="rgb(153, 153, 153)" stroke-width="1.5px"></line></g></g><g><g><line x1="33.51062476634979" y1="0" x2="33.51062476634979" y2="176.89999961853027" fill="rgb(0, 0, 0)" stroke="rgb(153, 153, 153)" stroke-width="1.5px"></line></g></g><g><g><g><g><g><path style="fill: none;" stroke="rgb(255, 112, 67)" stroke-width="2px" d="M35.18615600466728,13.815285061608696L36.86168724298477,14.424567073323692L38.53721848130226,15.192108187734L40.21274971961975,16.100719143761314L41.88828095793724,17.136142579464085L43.56381219625473,18.317401219792053L45.23934343457222,19.60274334871118L46.91487467288971,21.045454473675573L48.5904059112072,22.51189670021189L50.26593714952469,24.043561873280638L51.94146838784218,25.68440982669134L53.61699962615967,27.367070451208573L55.29253086447716,29.140671744431703L56.96806210279465,30.952923104010804L58.64359334111214,32.80545564138867L60.31912457942963,34.622457301144195L61.994655817747116,36.4718736966298L63.670187056064606,38.35169782732966L65.3457182943821,40.1577265756945L67.02124953269958,41.9247644536741L68.69678077101707,43.7010825760304L70.37231200933456,45.502717713526216L72.04784324765205,47.19832291430584L73.72337448596954,48.91453063742045L75.39890572428703,50.571359915577645L77.07443696260452,52.242553084956555L78.74996820092201,53.9122113755031L80.4254994392395,55.645289100130405L82.10103067755699,57.399980519973155L83.77656191587448,59.09278800883023L85.45209315419197,60.77124043292784L87.12762439250946,62.40950041290838L88.80315563082695,64.12914885115558L90.47868686914444,65.8814452461041L92.15421810746193,67.60265566613577L93.82974934577942,69.34077963007789L95.50528058409691,71.1127231434428L97.1808118224144,72.8488323488047L98.85634306073189,74.59431398380259L100.53187429904938,76.21106664402033L102.20740553736687,77.77125882506006L103.88293677568436,79.24671342998936L105.55846801400185,80.70953716888232L107.23399925231934,82.14212319980687L108.90953049063683,83.6489009537972L110.58506172895432,85.22627975015281L112.2605929672718,86.84569230603721L113.9361242055893,88.42141967484696L115.61165544390678,89.8746791927278L117.28718668222427,91.22612610643694L118.96271792054176,92.65885137788462L120.63824915885925,94.14098685173647L122.31378039717674,95.60518309685942L123.98931163549423,97.07099453310872L125.66484287381172,98.51435672313623L127.34037411212921,99.9690911746501L129.0159053504467,101.39200499715254L130.6914365887642,102.7605881882539L132.36696782708168,104.16204107922529L134.04249906539917,105.48346896702283L135.71803030371666,106.68263057086116L137.39356154203415,107.98132338300273L139.06909278035164,109.29799098010128L140.74462401866913,110.47377766557263L142.42015525698662,111.71828319591475L144.0956864953041,112.88679115588772L145.7712177336216,114.00343740102626L147.4467489719391,115.19657931034187L149.12228021025658,116.37111004906222L150.79781144857407,117.28662537256189L152.47334268689156,117.94153334396653L154.14887392520905,118.79187952066707L155.82440516352654,119.6828016602517L157.49993640184402,120.74561243206779L159.17546764016151,121.86686010593907L160.850998878479,123.02440357625517L162.5265301167965,124.14738760310615L164.20206135511398,125.21620074442383L165.87759259343147,126.31956104237783L167.55312383174896,127.4609840716465L169.22865507006645,128.61704145974954L170.90418630838394,129.78048764701705L172.57971754670143,130.93793903682322L174.25524878501892,131.9713381879997L175.9307800233364,133.04378118734687L177.6063112616539,134.075521512714L179.2818424999714,135.04347925159828L180.95737373828888,136.0313706588348L182.63290497660637,136.97274490123812L184.30843621492386,137.89195535833431L185.98396745324135,138.77362674654034L187.65949869155884,139.71340513275834L189.33502992987633,140.5620040049625L191.01056116819382,141.43906672695906L192.6860924065113,142.3969993317412L194.3616236448288,143.38983093855836L196.0371548831463,144.33119587532815L197.71268612146378,145.22708782876248L199.38821735978127,145.96564553595212L201.06374859809875,146.69399702757465L202.73927983641624,147.48369624027856L204.41481107473373,148.1235847386999L206.09034231305122,148.8857438727704L207.7658735513687,149.63943292585776L209.4414047896862,150.3903279917306L211.1169360280037,151.1708203520932L212.79246726632118,151.91641404532922L214.46799850463867,152.71136579723014L216.14352974295616,153.4340240285984L217.81906098127365,154.0016129027154L219.49459221959114,154.52163670032652L221.17012345790863,155.078958572902L222.84565469622612,155.64738768856492L224.5211859345436,156.18690548611363L226.1967171728611,156.83900042029765L227.8722484111786,157.52610266224795L229.54777964949608,158.18498960913155L231.22331088781357,158.83551970108698L232.89884212613106,159.48089860728413L234.57437336444855,160.13521757635536L236.24990460276604,160.81910974867196L237.92543584108353,161.23402117481282L239.60096707940102,161.7565126215727L241.2764983177185,162.18274459666247L242.952029556036,162.58437141854006L244.62756079435349,163.0713193815586L246.30309203267097,163.62020442807082L247.97862327098846,164.2550390978784L249.65415450930595,164.91334361739786L251.32968574762344,165.58847150277035L253.00521698594093,166.17617138156447L254.68074822425842,166.77666110982773L256.3562794625759,167.37577794288705L258.0318107008934,167.79869166159867L259.7073419392109,168.29315027596027L261.3828731775284,168.81120856272926" fill="none"></path></g></g></g></g><g opacity="0.2"><g><g><g><path style="fill: none;" stroke="rgb(255, 112, 67)" stroke-width="2px" d="M35.18615600466728,13.815285061608696L36.86168724298477,14.790136280352689L38.53721848130226,15.928947657568036L40.21274971961975,17.169245628049417L41.88828095793724,18.487991417117733L43.56381219625473,19.95150717247619L45.23934343457222,21.44080315853963L46.91487467288971,23.148941143900366L48.5904059112072,24.674614142615006L50.26593714952469,26.317906148901862L51.94146838784218,28.13079938663642L53.61699962615967,29.881904423172124L55.29253086447716,31.7952825683171L56.96806210279465,33.66774975430652L58.64359334111214,35.58207686499892L60.31912457942963,37.3466783004313L61.994655817747116,39.24521567882075L63.670187056064606,41.17095673623631L65.3457182943821,42.866494567939604L67.02124953269958,44.57515975638224L68.69678077101707,46.36546234205732L70.37231200933456,48.205111136198376L72.04784324765205,49.741697238708376L73.72337448596954,51.488821891975725L75.39890572428703,53.0565920567802L77.07443696260452,54.74933571214941L78.74996820092201,56.41669453912507L80.4254994392395,58.24490302638886L82.10103067755699,60.03201603341844L83.77656191587448,61.63199830652709L85.45209315419197,63.2889185124811L87.12762439250946,64.86689005692035L88.80315563082695,66.70862130323492L90.47868686914444,68.50988971301355L92.15421810746193,70.18447122221126L93.82974934577942,71.94796553117165L95.50528058409691,73.77063838607548L97.1808118224144,75.45299614073123L98.85634306073189,77.21253642657736L100.53187429904938,78.63619562894407L102.20740553736687,80.11154709349121L103.88293677568436,81.4598953356083L105.55846801400185,82.90377277616592L107.23399925231934,84.29100224557324L108.90953049063683,85.90906758439111L110.58506172895432,87.59234794444019L112.2605929672718,89.27481113971233L113.9361242055893,90.78501072797316L115.61165544390678,92.05456846950007L117.28718668222427,93.25329647697352L118.96271792054176,94.80793928503864L120.63824915885925,96.36419006250357L122.31378039717674,97.80147746453743L123.98931163549423,99.2697116874789L125.66484287381172,100.67940000817522L127.34037411212921,102.15119285191953L129.0159053504467,103.5263757309054L130.6914365887642,104.81346297490553L132.36696782708168,106.26422041568198L134.04249906539917,107.46561079871903L135.71803030371666,108.48137297661857L137.39356154203415,109.92936260121503L139.06909278035164,111.2729923757491L140.74462401866913,112.23745769377963L142.42015525698662,113.58504149142796L144.0956864953041,114.63955309584726L145.7712177336216,115.67840676873409L147.4467489719391,116.98629217431524L149.12228021025658,118.13290615714273L150.79781144857407,118.65989835781143L152.47334268689156,118.92389530107359L154.14887392520905,120.06739878571786L155.82440516352654,121.01918486962866L157.49993640184402,122.33982858979182L159.17546764016151,123.54873161674597L160.850998878479,124.76071878172924L162.5265301167965,125.83186364338253L164.20206135511398,126.81942045640035L165.87759259343147,127.97460148930874L167.55312383174896,129.17311861554944L169.22865507006645,130.35112754190416L170.90418630838394,131.52565692791833L172.57971754670143,132.67411612153248L174.25524878501892,133.5214369147645L175.9307800233364,134.6524456863677L177.6063112616539,135.62313200076468L179.2818424999714,136.49541585992475L180.95737373828888,137.51320776968961L182.63290497660637,138.3848062648432L184.30843621492386,139.2707710439786L185.98396745324135,140.09613382884945L187.65949869155884,141.1230727120853L189.33502992987633,141.83490231326866L191.01056116819382,142.75466080995395L192.6860924065113,143.83389823891443L194.3616236448288,144.87907834878408L196.0371548831463,145.74324328048286L197.71268612146378,146.57092575891406L199.38821735978127,147.07348209673663L201.06374859809875,147.78652426500835L202.73927983641624,148.66824505933445L204.41481107473373,149.08341748633185L206.09034231305122,150.02898257387622L207.7658735513687,150.76996650548872L209.4414047896862,151.51667059053986L211.1169360280037,152.34155889263698L212.79246726632118,153.0348045851833L214.46799850463867,153.9037934250815L216.14352974295616,154.5180113756508L217.81906098127365,154.85299621389098L219.49459221959114,155.30167239674321L221.17012345790863,155.9149413817651L222.84565469622612,156.50003136205933L224.5211859345436,156.9961821824368L226.1967171728611,157.81714282157375L227.8722484111786,158.5567560251733L229.54777964949608,159.17332002945707L231.22331088781357,159.81131483902013L232.89884212613106,160.44896696657995L234.57437336444855,161.11669602996224L236.24990460276604,161.84494800714683L237.92543584108353,161.8563883140241L239.60096707940102,162.54024979171257L241.2764983177185,162.8220925592971L242.952029556036,163.18681165135652L244.62756079435349,163.8017413260864L246.30309203267097,164.44353199783913L247.97862327098846,165.20729110258978L249.65415450930595,165.90080039667706L251.32968574762344,166.60116333082905L253.00521698594093,167.05772119975572L254.68074822425842,167.6773957022227L256.3562794625759,168.2744531924761L258.0318107008934,168.43306223966616L259.7073419392109,169.03483819750258L261.3828731775284,169.58829599288273" fill="none"></path></g></g></g></g></g></g><g transform="translate(61, 176)" clip-path="url(#clip_1)"><clipPath id="clip_1"><rect width="268" height="23"></rect></clipPath><g><g><line x1="0" y1="0" x2="0" y2="5" style="visibility: inherit;" fill="rgb(0, 0, 0)" stroke="rgb(204, 204, 204)" stroke-width="1px"></line><line x1="33.51062476634979" y1="0" x2="33.51062476634979" y2="5" style="visibility: inherit;" fill="rgb(0, 0, 0)" stroke="rgb(204, 204, 204)" stroke-width="1px"></line><line x1="67.02124953269958" y1="0" x2="67.02124953269958" y2="5" style="visibility: inherit;" fill="rgb(0, 0, 0)" stroke="rgb(204, 204, 204)" stroke-width="1px"></line><line x1="100.53187429904938" y1="0" x2="100.53187429904938" y2="5" style="visibility: inherit;" fill="rgb(0, 0, 0)" stroke="rgb(204, 204, 204)" stroke-width="1px"></line><line x1="134.04249906539917" y1="0" x2="134.04249906539917" y2="5" style="visibility: inherit;" fill="rgb(0, 0, 0)" stroke="rgb(204, 204, 204)" stroke-width="1px"></line><line x1="167.55312383174896" y1="0" x2="167.55312383174896" y2="5" style="visibility: inherit;" fill="rgb(0, 0, 0)" stroke="rgb(204, 204, 204)" stroke-width="1px"></line><line x1="201.06374859809875" y1="0" x2="201.06374859809875" y2="5" style="visibility: inherit;" fill="rgb(0, 0, 0)" stroke="rgb(204, 204, 204)" stroke-width="1px"></line><line x1="234.57437336444855" y1="0" x2="234.57437336444855" y2="5" style="visibility: inherit;" fill="rgb(0, 0, 0)" stroke="rgb(204, 204, 204)" stroke-width="1px"></line><line x1="268.08499813079834" y1="0" x2="268.08499813079834" y2="5" style="visibility: inherit;" fill="rgb(0, 0, 0)" stroke="rgb(204, 204, 204)" stroke-width="1px"></line></g><g transform="translate(0, 8)"><text style="text-anchor: middle; visibility: hidden; font-family: Roboto, sans-serif; font-size: 12px; font-weight: 200;" x="0" y="0" dx="0em" dy="0.95em" fill="rgb(33, 33, 33)" stroke="none" stroke-width="1px">-2k</text><text style="text-anchor: middle; visibility: inherit; font-family: Roboto, sans-serif; font-size: 12px; font-weight: 200;" x="33.51062476634979" y="0" dx="0em" dy="0.95em" fill="rgb(33, 33, 33)" stroke="none" stroke-width="1px">0</text><text style="text-anchor: middle; visibility: inherit; font-family: Roboto, sans-serif; font-size: 12px; font-weight: 200;" x="67.02124953269958" y="0" dx="0em" dy="0.95em" fill="rgb(33, 33, 33)" stroke="none" stroke-width="1px">2k</text><text style="text-anchor: middle; visibility: inherit; font-family: Roboto, sans-serif; font-size: 12px; font-weight: 200;" x="100.53187429904938" y="0" dx="0em" dy="0.95em" fill="rgb(33, 33, 33)" stroke="none" stroke-width="1px">4k</text><text style="text-anchor: middle; visibility: inherit; font-family: Roboto, sans-serif; font-size: 12px; font-weight: 200;" x="134.04249906539917" y="0" dx="0em" dy="0.95em" fill="rgb(33, 33, 33)" stroke="none" stroke-width="1px">6k</text><text style="text-anchor: middle; visibility: inherit; font-family: Roboto, sans-serif; font-size: 12px; font-weight: 200;" x="167.55312383174896" y="0" dx="0em" dy="0.95em" fill="rgb(33, 33, 33)" stroke="none" stroke-width="1px">8k</text><text style="text-anchor: middle; visibility: inherit; font-family: Roboto, sans-serif; font-size: 12px; font-weight: 200;" x="201.06374859809875" y="0" dx="0em" dy="0.95em" fill="rgb(33, 33, 33)" stroke="none" stroke-width="1px">10k</text><text style="text-anchor: middle; visibility: inherit; font-family: Roboto, sans-serif; font-size: 12px; font-weight: 200;" x="234.57437336444855" y="0" dx="0em" dy="0.95em" fill="rgb(33, 33, 33)" stroke="none" stroke-width="1px">12k</text><text style="text-anchor: middle; visibility: hidden; font-family: Roboto, sans-serif; font-size: 12px; font-weight: 200;" x="268.08499813079834" y="0" dx="0em" dy="0.95em" fill="rgb(33, 33, 33)" stroke="none" stroke-width="1px">14k</text></g><line x1="0" y1="0" x2="268.08499813079834" y2="0" fill="rgb(0, 0, 0)" stroke="rgb(204, 204, 204)" stroke-width="1px"></line></g></g></g></g></svg>