<svg viewBox="0 0 330 200" xmlns="http://www.w3.org/2000/svg"><g><g><g><g><g><line x1="51.53200149536133" y1="176.89999961853027" x2="46.53200149536133" y2="176.89999961853027" style="visibility: inherit;" fill="rgb(0, 0, 0)" stroke="rgb(204, 204, 204)" stroke-width="1px"></line><line x1="51.53200149536133" y1="154.78749966621396" x2="46.53200149536133" y2="154.78749966621396" style="visibility: inherit;" fill="rgb(0, 0, 0)" stroke="rgb(204, 204, 204)" stroke-width="1px"></line><line x1="51.53200149536133" y1="132.6749997138977" x2="46.53200149536133" y2="132.6749997138977" style="visibility: inherit;" fill="rgb(0, 0, 0)" stroke="rgb(204, 204, 204)" stroke-width="1px"></line><line x1="51.53200149536133" y1="110.56249976158144" x2="46.53200149536133" y2="110.56249976158144" style="visibility: inherit;" fill="rgb(0, 0, 0)" stroke="rgb(204, 204, 204)" stroke-width="1px"></line><line x1="51.53200149536133" y1="88.44999980926514" x2="46.53200149536133" y2="88.44999980926514" style="visibility: inherit;" fill="rgb(0, 0, 0)" stroke="rgb(204, 204, 204)" stroke-width="1px"></line><line x1="51.53200149536133" y1="66.33749985694884" x2="46.53200149536133" y2="66.33749985694884" style="visibility: inherit;" fill="rgb(0, 0, 0)" stroke="rgb(204, 204, 204)" stroke-width="1px"></line><line x1="51.53200149536133" y1="44.22499990463261" x2="46.53200149536133" y2="44.22499990463261" style="visibility: inherit;" fill="rgb(0, 0, 0)" stroke="rgb(204, 204, 204)" stroke-width="1px"></line><line x1="51.53200149536133" y1="22.112499952316305" x2="46.53200149536133" y2="22.112499952316305" style="visibility: inherit;" fill="rgb(0, 0, 0)" stroke="rgb(204, 204, 204)" stroke-width="1px"></line><line x1="51.53200149536133" y1="0" x2="46.53200149536133" y2="0" style="visibility: inherit;" fill="rgb(0, 0, 0)" stroke="rgb(204, 204, 204)" stroke-width="1px"></line></g><g transform="translate(41.53200149536133, 0)"><text style="text-anchor: end; visibility: hidden; font-family: Roboto, sans-serif; font-size: 12px; font-weight: 200;" x="0" y="176.89999961853027" dx="0em" dy="0.3em" fill="rgb(33, 33, 33)" stroke="none" stroke-width="1px">0.09</text><text style="text-anchor: end; visibility: inherit; font-family: Roboto, sans-serif; font-size: 12px; font-weight: 200;" x="0" y="154.78749966621396" dx="0em" dy="0.3em" fill="rgb(33, 33, 33)" stroke="none" stroke-width="1px">0.1</text><text style="text-anchor: end; visibility: hidden; font-family: Roboto, sans-serif; font-size: 12px; font-weight: 200;" x="0" y="132.6749997138977" dx="0em" dy="0.3em" fill="rgb(33, 33, 33)" stroke="none" stroke-width="1px">0.11</text><text style="text-anchor: end; visibility: inherit; font-family: Roboto, sans-serif; font-size: 12px; font-weight: 200;" x="0" y="110.56249976158144" dx="0em" dy="0.3em" fill="rgb(33, 33, 33)" stroke="none" stroke-width="1px">0.12</text><text style="text-anchor: end; visibility: hidden; font-family: Roboto, sans-serif; font-size: 12px; font-weight: 200;" x="0" y="88.44999980926514" dx="0em" dy="0.3em" fill="rgb(33, 33, 33)" stroke="none" stroke-width="1px">0.13</text><text style="text-anchor: end; visibility: inherit; font-family: Roboto, sans-serif; font-size: 12px; font-weight: 200;" x="0" y="66.33749985694884" dx="0em" dy="0.3em" fill="rgb(33, 33, 33)" stroke="none" stroke-width="1px">0.14</text><text style="text-anchor: end; visibility: hidden; font-family: Roboto, sans-serif; font-size: 12px; font-weight: 200;" x="0" y="44.22499990463261" dx="0em" dy="0.3em" fill="rgb(33, 33, 33)" stroke="none" stroke-width="1px">0.15</text><text style="text-anchor: end; visibility: inherit; font-family: Roboto, sans-serif; font-size: 12px; font-weight: 200;" x="0" y="22.112499952316305" dx="0em" dy="0.3em" fill="rgb(33, 33, 33)" stroke="none" stroke-width="1px">0.16</text><text style="text-anchor: end; visibility: hidden; font-family: Roboto, sans-serif; font-size: 12px; font-weight: 200;" x="0" y="0" dx="0em" dy="0.3em" fill="rgb(33, 33, 33)" stroke="none" stroke-width="1px">0.17</text></g><line x1="51.53200149536133" y1="0" x2="51.53200149536133" y2="176.89999961853027" fill="rgb(0, 0, 0)" stroke="rgb(204, 204, 204)" stroke-width="1px"></line></g></g><g transform="translate(51, 0)" clip-path="url(#clip_0)"><clipPath id="clip_0"><rect width="278" height="176"></rect></clipPath><g><g><g><line x1="0" y1="0" x2="0" y2="176.89999961853027" fill="rgb(0, 0, 0)" stroke="rgb(66, 66, 66)" stroke-width="1px" opacity="0.25"></line><line x1="34.808499813079834" y1="0" x2="34.808499813079834" y2="176.89999961853027" fill="rgb(0, 0, 0)" stroke="rgb(66, 66, 66)" stroke-width="1px" opacity="0.25"></line><line x1="69.61699962615967" y1="0" x2="69.61699962615967" y2="176.89999961853027" fill="rgb(0, 0, 0)" stroke="rgb(66, 66, 66)" stroke-width="1px" opacity="0.25"></line><line x1="104.4254994392395" y1="0" x2="104.4254994392395" y2="176.89999961853027" fill="rgb(0, 0, 0)" stroke="rgb(66, 66, 66)" stroke-width="1px" opacity="0.25"></line><line x1="139.23399925231934" y1="0" x2="139.23399925231934" y2="176.89999961853027" fill="rgb(0, 0, 0)" stroke="rgb(66, 66, 66)" stroke-width="1px" opacity="0.25"></line><line x1="174.04249906539917" y1="0" x2="174.04249906539917" y2="176.89999961853027" fill="rgb(0, 0, 0)" stroke="rgb(66, 66, 66)" stroke-width="1px" opacity="0.25"></line><line x1="208.850998878479" y1="0" x2="208.850998878479" y2="176.89999961853027" fill="rgb(0, 0, 0)" stroke="rgb(66, 66, 66)" stroke-width="1px" opacity="0.25"></line><line x1="243.65949869155884" y1="0" x2="243.65949869155884" y2="176.89999961853027" fill="rgb(0, 0, 0)" stroke="rgb(66, 66, 66)" stroke-width="1px" opacity="0.25"></line><line x1="278.4679985046387" y1="0" x2="278.4679985046387" y2="176.89999961853027" fill="rgb(0, 0, 0)" stroke="rgb(66, 66, 66)" stroke-width="1px" opacity="0.25"></line></g><g><line x1="0" y1="176.89999961853027" x2="278.4679985046387" y2="176.89999961853027" fill="rgb(0, 0, 0)" stroke="rgb(66, 66, 66)" stroke-width="1px" opacity="0.25"></line><line x1="0" y1="154.78749966621396" x2="278.4679985046387" y2="154.78749966621396" fill="rgb(0, 0, 0)" stroke="rgb(66, 66, 66)" stroke-width="1px" opacity="0.25"></line><line x1="0" y1="132.6749997138977" x2="278.4679985046387" y2="132.6749997138977" fill="rgb(0, 0, 0)" stroke="rgb(66, 66, 66)" stroke-width="1px" opacity="0.25"></line><line x1="0" y1="110.56249976158144" x2="278.4679985046387" y2="110.56249976158144" fill="rgb(0, 0, 0)" stroke="rgb(66, 66, 66)" stroke-width="1px" opacity="0.25"></line><line x1="0" y1="88.44999980926514" x2="278.4679985046387" y2="88.44999980926514" fill="rgb(0, 0, 0)" stroke="rgb(66, 66, 66)" stroke-width="1px" opacity="0.25"></line><line x1="0" y1="66.33749985694884" x2="278.4679985046387" y2="66.33749985694884" fill="rgb(0, 0, 0)" stroke="rgb(66, 66, 66)" stroke-width="1px" opacity="0.25"></line><line x1="0" y1="44.22499990463261" x2="278.4679985046387" y2="44.22499990463261" fill="rgb(0, 0, 0)" stroke="rgb(66, 66, 66)" stroke-width="1px" opacity="0.25"></line><line x1="0" y1="22.112499952316305" x2="278.4679985046387" y2="22.112499952316305" fill="rgb(0, 0, 0)" stroke="rgb(66, 66, 66)" stroke-width="1px" opacity="0.25"></line><line x1="0" y1="0" x2="278.4679985046387" y2="0" fill="rgb(0, 0, 0)" stroke="rgb(66, 66, 66)" stroke-width="1px" opacity="0.25"></line></g></g></g><g><g><line x1="0" y1="375.91249918937683" x2="278.4679985046387" y2="375.91249918937683" fill="rgb(0, 0, 0)" stroke="rgb(153, 153, 153)" stroke-width="1.5px"></line></g></g><g><g><line x1="34.808499813079834" y1="0" x2="34.808499813079834" y2="176.89999961853027" fill="rgb(0, 0, 0)" stroke="rgb(153, 153, 153)" stroke-width="1.5px"></line></g></g><g><g><g><g><g><path style="fill: none;" stroke="rgb(255, 112, 67)" stroke-width="2px" d="M36.548924803733826,-5.96883249634833L38.28934979438782,28.782294087816556L40.02977478504181,-4.489150300566414L41.7701997756958,-10.191405737473554L43.51062476634979,62.93553702596163L45.251049757003784,60.48342826430638L46.991474747657776,73.49587834641132L48.73189973831177,69.07648793263049L50.47232472896576,103.7031262027502L52.21274971961975,89.28341494506749L53.95317471027374,36.46774902861481L55.693599700927734,-0.9107410186186908L57.434024691581726,72.8680532229402L59.17444968223572,90.67049844437116L60.91487467288971,22.40698527691408L62.6552996635437,15.133220541224429L64.39572465419769,49.191108222310845L66.13614964485168,98.51893826704311L67.87657463550568,30.139810413550947L69.61699962615967,68.22388495877888L71.35742461681366,81.05353962269498L73.09784960746765,90.53142191393292L74.83827459812164,82.06069850339331L76.57869958877563,117.67714141161548L78.31912457942963,81.32765857789947L80.05954957008362,66.43766635110951L81.79997456073761,16.85239992726719L83.5403995513916,35.661055641841564L85.2808245420456,56.87558818146465L87.02124953269958,75.04318131934575L88.76167452335358,85.8273215856264L90.50209951400757,81.14551469874982L92.24252450466156,77.06102104845438L93.98294949531555,86.93534488530841L95.72337448596954,22.7699092121381L97.46379947662354,67.02642885799864L99.20422446727753,63.87970872686631L100.94464945793152,47.90668183088358L102.68507444858551,20.843961534873422L104.4254994392395,46.96965401821393L106.1659244298935,40.15188407811541L107.90634942054749,58.00518052717924L109.64677441120148,79.45875643699965L111.38719940185547,60.30487658699548L113.12762439250946,54.384887554238645L114.86804938316345,91.25344898626797L116.60847437381744,99.34178417113078L118.34889936447144,67.70982779881541L120.08932435512543,50.23157478992031L121.82974934577942,33.48863351368495L123.57017433643341,32.67099195344713L125.3105993270874,-90.32653756896089L127.0510243177414,12.891781765665943L128.79144930839539,45.61702086654439L130.53187429904938,26.114149595674945L132.27229928970337,79.47059196745363L134.01272428035736,91.67431392520535L135.75314927101135,51.89201931819348L137.49357426166534,56.13119976980611L139.23399925231934,26.296359424792097L140.97442424297333,53.969538812834756L142.71484923362732,24.819296637986767L144.4552742242813,16.289929855618105L146.1956992149353,39.29912140872209L147.9361242055893,33.805023159722474L149.6765491962433,73.91652850276319L151.41697418689728,93.67537195471414L153.15739917755127,80.85259831381084L154.89782416820526,114.90728288999907L156.63824915885925,137.1558799003584L158.37867414951324,134.9921665020858L160.11909914016724,75.48729140116852L161.85952413082123,100.88413916508401L163.59994912147522,88.80517400443944L165.3403741121292,111.59010957968663L167.0807991027832,85.98480377529484L168.8212240934372,88.43883066775403L170.5616490840912,102.33460949719738L172.30207407474518,120.66336600151894L174.04249906539917,135.14106966997778L175.78292405605316,125.51630768713846L177.52334904670715,111.20259919137936L179.26377403736115,139.9572227911682L181.00419902801514,165.53140993600533L182.74462401866913,105.74421102113031L184.48504900932312,118.705823493537L186.2254739999771,127.34730518072153L187.9658989906311,120.25804315131963L189.7063239812851,98.44566437906263L191.4467489719391,124.95992695759071L193.18717396259308,121.02544356709872L194.92759895324707,129.92533687944504L196.66802394390106,120.79344282804134L198.40844893455505,124.7074441672063L200.14887392520905,144.35100567402367L201.88929891586304,116.37423403378635L203.62972390651703,113.40993991835538L205.37014889717102,125.3140166045715L207.110573887825,150.74452465388015L208.850998878479,142.52581724254088L210.591423869133,172.17919404893547L212.331848859787,168.21216503460894L214.07227385044098,146.4339649401069L215.81269884109497,108.41324454953588L217.55312383174896,137.02692260977213L219.29354882240295,102.81007509133809L221.03397381305695,141.48677060890662L222.77439880371094,117.51339730016302L224.51482379436493,104.27343036279711L226.25524878501892,98.90042192965532L227.9956737756729,101.74785461075481L229.7360987663269,122.2700306798419L231.4765237569809,163.48843808351458L233.2169487476349,176.897440479804L234.95737373828888,125.08645779166086L236.69779872894287,124.57768646929087L238.43822371959686,140.01059551740767L240.17864871025085,98.44412844855603L241.91907370090485,109.15844566304341L243.65949869155884,105.36344133707895L245.39992368221283,82.41690153239448L247.14034867286682,91.58440075450942L248.8807736635208,57.8135097667459L250.6211986541748,75.49896733885424L252.3616236448288,74.17597866730843L254.1020486354828,59.29497643397064L255.84247362613678,122.79205831696147L257.58289861679077,115.83729160774291L259.32332360744476,137.1649415120134L261.06374859809875,107.99851877897231L262.80417358875275,116.129697371951L264.54459857940674,151.68216718912169L266.28502357006073,160.1421242256089L268.0254485607147,161.89186876316853L269.7658735513687,144.2634045468248L271.5062985420227,140.79581773738437" fill="none"></path></g></g></g></g><g opacity="0.2"><g><g><g><path style="fill: none;" stroke="rgb(255, 112, 67)" stroke-width="2px" d="M36.548924803733826,-5.96883249634833L38.28934979438782,49.6329700383155L40.02977478504181,-36.429736913414075L41.7701997756958,-16.89725813127635L43.51062476634979,158.41007349790277L45.251049757003784,57.09127908778286L46.991474747657776,92.10389016302271L48.73189973831177,62.63297428319007L50.47232472896576,154.7706917729591L52.21274971961975,67.87182425823751L53.95317471027374,-42.276715643434855L57.434024691581726,183.29534402116388L59.17444968223572,117.33928943305165L60.91487467288971,-79.90804327705715L62.6552996635437,4.227703460129964L64.39572465419769,100.26352758728581L66.13614964485168,172.4981590034367L67.87657463550568,-72.4184644947945L69.61699962615967,125.34651574135628L71.35742461681366,100.29731800981642L73.09784960746765,104.74793347703594L74.83827459812164,69.35478062724108L76.57869958877563,171.10138386322774L78.31912457942963,26.803692683892216L80.05954957008362,44.10274150993964L81.79997456073761,-57.52537283338964L83.5403995513916,63.874010337986114L85.2808245420456,88.69736744931642L87.02124953269958,102.29456098521487L88.76167452335358,102.00352840890895L90.50209951400757,74.1228052999579L92.24252450466156,70.93428106061786L93.98294949531555,101.74682993331187L95.72337448596954,-73.4782415399943L97.46379947662354,133.41120718558818L99.20422446727753,59.15962857885277L100.94464945793152,23.947141635187002L102.68507444858551,-19.750118758408252L104.4254994392395,86.1581926559159L106.1659244298935,29.92522918163815L107.90634942054749,84.78512517929616L109.64677441120148,111.63912028624412L111.38719940185547,31.574056820284973L113.12762439250946,45.504904006641816L114.86804938316345,146.55629112856352L116.60847437381744,111.47428694766836L118.34889936447144,20.261893242117928L120.08932435512543,24.014195277166344L121.82974934577942,8.374221599670198L123.57017433643341,31.444529613100308L125.3105993270874,-274.8228318516782L127.0510243177414,167.71926076715567L128.79144930839539,94.70487951777619L130.53187429904938,-3.1401573105986564L132.27229928970337,159.5052555250715L134.01272428035736,109.97989686182605L135.75314927101135,-7.781422592310793L137.49357426166534,62.4899704472243L139.23399925231934,-18.4559010927254L140.97442424297333,95.47930789489682L142.71484923362732,-18.906066624284012L144.4552742242813,3.495879682065498L146.1956992149353,73.8129087383777L147.9361242055893,25.563875786223072L149.6765491962433,134.08378651732397L151.41697418689728,123.31363713264057L153.15739917755127,61.61843785245595L154.89782416820526,165.98930975428127L156.63824915885925,170.52877541589748L158.37867414951324,131.74659640467695L160.11909914016724,-13.770021250207353L161.85952413082123,138.97941081095726L163.59994912147522,70.68672626347251L165.3403741121292,145.76751294255737L167.0807991027832,47.57684506870718L168.8212240934372,92.11987100644285L170.5616490840912,123.17827774136236L172.30207407474518,148.15650075800124L174.04249906539917,156.85762517266605L175.78292405605316,111.07916471287953L177.52334904670715,89.73203644774065L179.26377403736115,183.0891581908515L181.00419902801514,203.892690653261L182.74462401866913,16.06341264881778L184.48504900932312,138.14824220214697L186.2254739999771,140.30952771149833L187.9658989906311,109.62415010721674L189.7063239812851,65.72709622067713L191.4467489719391,164.73132082538285L193.18717396259308,115.12371848136075L194.92759895324707,143.27517684796453L196.66802394390106,107.09560175093577L198.40844893455505,130.5784461759538L200.14887392520905,173.8163479342498L201.88929891586304,74.4090765734304L203.62972390651703,108.96349874520897L205.37014889717102,143.17013163389566L207.110573887825,188.89028672784315L208.850998878479,130.19775612553198L210.591423869133,216.6592592585274L212.331848859787,162.26162151311914L214.07227385044098,113.76666479835377L215.81269884109497,51.38216396367931L217.55312383174896,179.94743970012652L219.29354882240295,51.484803813687L221.03397381305695,199.50181388525948L222.77439880371094,81.55333733704758L224.51482379436493,84.41347995674825L226.25524878501892,90.84090927994252L227.9956737756729,106.01900363240406L229.7360987663269,153.0532947834725L231.4765237569809,225.3160491890236L233.2169487476349,197.01094407423815L234.95737373828888,47.36998375944609L236.69779872894287,123.81452948573587L238.43822371959686,163.1599590895829L240.17864871025085,36.09442784527858L241.91907370090485,125.22992148477451L243.65949869155884,99.67093484813225L245.39992368221283,47.99709182536788L247.14034867286682,105.3356495876819L248.8807736635208,7.157173285100674L250.6211986541748,102.02715369701667L252.3616236448288,72.19149565998976L254.1020486354828,36.97347308396403L255.84247362613678,218.0376811414477L257.58289861679077,105.40514154391505L259.32332360744476,169.15641636841906L261.06374859809875,64.24888467941066L262.80417358875275,128.32646526141906L264.54459857940674,205.01087191487773L266.28502357006073,172.83205978033976L268.0254485607147,164.516485569508L269.7658735513687,117.82070822230924L271.5062985420227,135.5944375232237" fill="none"></path></g></g></g></g></g></g><g transform="translate(51, 176)" clip-path="url(#clip_1)"><clipPath id="clip_1"><rect width="278" height="23"></rect></clipPath><g><g><line x1="0" y1="0" x2="0" y2="5" style="visibility: inherit;" fill="rgb(0, 0, 0)" stroke="rgb(204, 204, 204)" stroke-width="1px"></line><line x1="34.808499813079834" y1="0" x2="34.808499813079834" y2="5" style="visibility: inherit;" fill="rgb(0, 0, 0)" stroke="rgb(204, 204, 204)" stroke-width="1px"></line><line x1="69.61699962615967" y1="0" x2="69.61699962615967" y2="5" style="visibility: inherit;" fill="rgb(0, 0, 0)" stroke="rgb(204, 204, 204)" stroke-width="1px"></line><line x1="104.4254994392395" y1="0" x2="104.4254994392395" y2="5" style="visibility: inherit;" fill="rgb(0, 0, 0)" stroke="rgb(204, 204, 204)" stroke-width="1px"></line><line x1="139.23399925231934" y1="0" x2="139.23399925231934" y2="5" style="visibility: inherit;" fill="rgb(0, 0, 0)" stroke="rgb(204, 204, 204)" stroke-width="1px"></line><line x1="174.04249906539917" y1="0" x2="174.04249906539917" y2="5" style="visibility: inherit;" fill="rgb(0, 0, 0)" stroke="rgb(204, 204, 204)" stroke-width="1px"></line><line x1="208.850998878479" y1="0" x2="208.850998878479" y2="5" style="visibility: inherit;" fill="rgb(0, 0, 0)" stroke="rgb(204, 204, 204)" stroke-width="1px"></line><line x1="243.65949869155884" y1="0" x2="243.65949869155884" y2="5" style="visibility: inherit;" fill="rgb(0, 0, 0)" stroke="rgb(204, 204, 204)" stroke-width="1px"></line><line x1="278.4679985046387" y1="0" x2="278.4679985046387" y2="5" style="visibility: inherit;" fill="rgb(0, 0, 0)" stroke="rgb(204, 204, 204)" stroke-width="1px"></line></g><g transform="translate(0, 8)"><text style="text-anchor: middle; visibility: hidden; font-family: Roboto, sans-serif; font-size: 12px; font-weight: 200;" x="0" y="0" dx="0em" dy="0.95em" fill="rgb(33, 33, 33)" stroke="none" stroke-width="1px">-2k</text><text style="text-anchor: middle; visibility: inherit; font-family: Roboto, sans-serif; font-size: 12px; font-weight: 200;" x="34.808499813079834" y="0" dx="0em" dy="0.95em" fill="rgb(33, 33, 33)" stroke="none" stroke-width="1px">0</text><text style="text-anchor: middle; visibility: inherit; font-family: Roboto, sans-serif; font-size: 12px; font-weight: 200;" x="69.61699962615967" y="0" dx="0em" dy="0.95em" fill="rgb(33, 33, 33)" stroke="none" stroke-width="1px">2k</text><text style="text-anchor: middle; visibility: inherit; font-family: Roboto, sans-serif; font-size: 12px; font-weight: 200;" x="104.4254994392395" y="0" dx="0em" dy="0.95em" fill="rgb(33, 33, 33)" stroke="none" stroke-width="1px">4k</text><text style="text-anchor: middle; visibility: inherit; font-family: Roboto, sans-serif; font-size: 12px; font-weight: 200;" x="139.23399925231934" y="0" dx="0em" dy="0.95em" fill="rgb(33, 33, 33)" stroke="none" stroke-width="1px">6k</text><text style="text-anchor: middle; visibility: inherit; font-family: Roboto, sans-serif; font-size: 12px; font-weight: 200;" x="174.04249906539917" y="0" dx="0em" dy="0.95em" fill="rgb(33, 33, 33)" stroke="none" stroke-width="1px">8k</text><text style="text-anchor: middle; visibility: inherit; font-family: Roboto, sans-serif; font-size: 12px; font-weight: 200;" x="208.850998878479" y="0" dx="0em" dy="0.95em" fill="rgb(33, 33, 33)" stroke="none" stroke-width="1px">10k</text><text style="text-anchor: middle; visibility: inherit; font-family: Roboto, sans-serif; font-size: 12px; font-weight: 200;" x="243.65949869155884" y="0" dx="0em" dy="0.95em" fill="rgb(33, 33, 33)" stroke="none" stroke-width="1px">12k</text><text style="text-anchor: middle; visibility: hidden; font-family: Roboto, sans-serif; font-size: 12px; font-weight: 200;" x="278.4679985046387" y="0" dx="0em" dy="0.95em" fill="rgb(33, 33, 33)" stroke="none" stroke-width="1px">14k</text></g><line x1="0" y1="0" x2="278.4679985046387" y2="0" fill="rgb(0, 0, 0)" stroke="rgb(204, 204, 204)" stroke-width="1px"></line></g></g></g></g></svg>