<svg viewBox="0 0 330 200" xmlns="http://www.w3.org/2000/svg"><g><g><g><g><g><line x1="51.53200149536133" y1="176.89999961853027" x2="46.53200149536133" y2="176.89999961853027" style="visibility: inherit;" fill="rgb(0, 0, 0)" stroke="rgb(204, 204, 204)" stroke-width="1px"></line><line x1="51.53200149536133" y1="162.15833298365274" x2="46.53200149536133" y2="162.15833298365274" style="visibility: inherit;" fill="rgb(0, 0, 0)" stroke="rgb(204, 204, 204)" stroke-width="1px"></line><line x1="51.53200149536133" y1="147.4166663487752" x2="46.53200149536133" y2="147.4166663487752" style="visibility: inherit;" fill="rgb(0, 0, 0)" stroke="rgb(204, 204, 204)" stroke-width="1px"></line><line x1="51.53200149536133" y1="132.6749997138977" x2="46.53200149536133" y2="132.6749997138977" style="visibility: inherit;" fill="rgb(0, 0, 0)" stroke="rgb(204, 204, 204)" stroke-width="1px"></line><line x1="51.53200149536133" y1="117.93333307902016" x2="46.53200149536133" y2="117.93333307902016" style="visibility: inherit;" fill="rgb(0, 0, 0)" stroke="rgb(204, 204, 204)" stroke-width="1px"></line><line x1="51.53200149536133" y1="103.19166644414264" x2="46.53200149536133" y2="103.19166644414264" style="visibility: inherit;" fill="rgb(0, 0, 0)" stroke="rgb(204, 204, 204)" stroke-width="1px"></line><line x1="51.53200149536133" y1="88.44999980926514" x2="46.53200149536133" y2="88.44999980926514" style="visibility: inherit;" fill="rgb(0, 0, 0)" stroke="rgb(204, 204, 204)" stroke-width="1px"></line><line x1="51.53200149536133" y1="73.7083331743876" x2="46.53200149536133" y2="73.7083331743876" style="visibility: inherit;" fill="rgb(0, 0, 0)" stroke="rgb(204, 204, 204)" stroke-width="1px"></line><line x1="51.53200149536133" y1="58.96666653951006" x2="46.53200149536133" y2="58.96666653951006" style="visibility: inherit;" fill="rgb(0, 0, 0)" stroke="rgb(204, 204, 204)" stroke-width="1px"></line><line x1="51.53200149536133" y1="44.22499990463257" x2="46.53200149536133" y2="44.22499990463257" style="visibility: inherit;" fill="rgb(0, 0, 0)" stroke="rgb(204, 204, 204)" stroke-width="1px"></line><line x1="51.53200149536133" y1="29.48333326975504" x2="46.53200149536133" y2="29.48333326975504" style="visibility: inherit;" fill="rgb(0, 0, 0)" stroke="rgb(204, 204, 204)" stroke-width="1px"></line><line x1="51.53200149536133" y1="14.74166663487749" x2="46.53200149536133" y2="14.74166663487749" style="visibility: inherit;" fill="rgb(0, 0, 0)" stroke="rgb(204, 204, 204)" stroke-width="1px"></line><line x1="51.53200149536133" y1="0" x2="46.53200149536133" y2="0" style="visibility: inherit;" fill="rgb(0, 0, 0)" stroke="rgb(204, 204, 204)" stroke-width="1px"></line></g><g transform="translate(41.53200149536133, 0)"><text style="text-anchor: end; visibility: hidden; font-family: Roboto, sans-serif; font-size: 12px; font-weight: 200;" x="0" y="176.89999961853027" dx="0em" dy="0.3em" fill="rgb(33, 33, 33)" stroke="none" stroke-width="1px">0.06</text><text style="text-anchor: end; visibility: inherit; font-family: Roboto, sans-serif; font-size: 12px; font-weight: 200;" x="0" y="162.15833298365274" dx="0em" dy="0.3em" fill="rgb(33, 33, 33)" stroke="none" stroke-width="1px">0.07</text><text style="text-anchor: end; visibility: hidden; font-family: Roboto, sans-serif; font-size: 12px; font-weight: 200;" x="0" y="147.4166663487752" dx="0em" dy="0.3em" fill="rgb(33, 33, 33)" stroke="none" stroke-width="1px">0.08</text><text style="text-anchor: end; visibility: inherit; font-family: Roboto, sans-serif; font-size: 12px; font-weight: 200;" x="0" y="132.6749997138977" dx="0em" dy="0.3em" fill="rgb(33, 33, 33)" stroke="none" stroke-width="1px">0.09</text><text style="text-anchor: end; visibility: hidden; font-family: Roboto, sans-serif; font-size: 12px; font-weight: 200;" x="0" y="117.93333307902016" dx="0em" dy="0.3em" fill="rgb(33, 33, 33)" stroke="none" stroke-width="1px">0.1</text><text style="text-anchor: end; visibility: inherit; font-family: Roboto, sans-serif; font-size: 12px; font-weight: 200;" x="0" y="103.19166644414264" dx="0em" dy="0.3em" fill="rgb(33, 33, 33)" stroke="none" stroke-width="1px">0.11</text><text style="text-anchor: end; visibility: hidden; font-family: Roboto, sans-serif; font-size: 12px; font-weight: 200;" x="0" y="88.44999980926514" dx="0em" dy="0.3em" fill="rgb(33, 33, 33)" stroke="none" stroke-width="1px">0.12</text><text style="text-anchor: end; visibility: inherit; font-family: Roboto, sans-serif; font-size: 12px; font-weight: 200;" x="0" y="73.7083331743876" dx="0em" dy="0.3em" fill="rgb(33, 33, 33)" stroke="none" stroke-width="1px">0.13</text><text style="text-anchor: end; visibility: hidden; font-family: Roboto, sans-serif; font-size: 12px; font-weight: 200;" x="0" y="58.96666653951006" dx="0em" dy="0.3em" fill="rgb(33, 33, 33)" stroke="none" stroke-width="1px">0.14</text><text style="text-anchor: end; visibility: inherit; font-family: Roboto, sans-serif; font-size: 12px; font-weight: 200;" x="0" y="44.22499990463257" dx="0em" dy="0.3em" fill="rgb(33, 33, 33)" stroke="none" stroke-width="1px">0.15</text><text style="text-anchor: end; visibility: hidden; font-family: Roboto, sans-serif; font-size: 12px; font-weight: 200;" x="0" y="29.48333326975504" dx="0em" dy="0.3em" fill="rgb(33, 33, 33)" stroke="none" stroke-width="1px">0.16</text><text style="text-anchor: end; visibility: inherit; font-family: Roboto, sans-serif; font-size: 12px; font-weight: 200;" x="0" y="14.74166663487749" dx="0em" dy="0.3em" fill="rgb(33, 33, 33)" stroke="none" stroke-width="1px">0.17</text><text style="text-anchor: end; visibility: hidden; font-family: Roboto, sans-serif; font-size: 12px; font-weight: 200;" x="0" y="0" dx="0em" dy="0.3em" fill="rgb(33, 33, 33)" stroke="none" stroke-width="1px">0.18</text></g><line x1="51.53200149536133" y1="0" x2="51.53200149536133" y2="176.89999961853027" fill="rgb(0, 0, 0)" stroke="rgb(204, 204, 204)" stroke-width="1px"></line></g></g><g transform="translate(51, 0)" clip-path="url(#clip_0)"><clipPath id="clip_0"><rect width="278" height="176"></rect></clipPath><g><g><g><line x1="0" y1="0" x2="0" y2="176.89999961853027" fill="rgb(0, 0, 0)" stroke="rgb(66, 66, 66)" stroke-width="1px" opacity="0.25"></line><line x1="34.808499813079834" y1="0" x2="34.808499813079834" y2="176.89999961853027" fill="rgb(0, 0, 0)" stroke="rgb(66, 66, 66)" stroke-width="1px" opacity="0.25"></line><line x1="69.61699962615967" y1="0" x2="69.61699962615967" y2="176.89999961853027" fill="rgb(0, 0, 0)" stroke="rgb(66, 66, 66)" stroke-width="1px" opacity="0.25"></line><line x1="104.4254994392395" y1="0" x2="104.4254994392395" y2="176.89999961853027" fill="rgb(0, 0, 0)" stroke="rgb(66, 66, 66)" stroke-width="1px" opacity="0.25"></line><line x1="139.23399925231934" y1="0" x2="139.23399925231934" y2="176.89999961853027" fill="rgb(0, 0, 0)" stroke="rgb(66, 66, 66)" stroke-width="1px" opacity="0.25"></line><line x1="174.04249906539917" y1="0" x2="174.04249906539917" y2="176.89999961853027" fill="rgb(0, 0, 0)" stroke="rgb(66, 66, 66)" stroke-width="1px" opacity="0.25"></line><line x1="208.850998878479" y1="0" x2="208.850998878479" y2="176.89999961853027" fill="rgb(0, 0, 0)" stroke="rgb(66, 66, 66)" stroke-width="1px" opacity="0.25"></line><line x1="243.65949869155884" y1="0" x2="243.65949869155884" y2="176.89999961853027" fill="rgb(0, 0, 0)" stroke="rgb(66, 66, 66)" stroke-width="1px" opacity="0.25"></line><line x1="278.4679985046387" y1="0" x2="278.4679985046387" y2="176.89999961853027" fill="rgb(0, 0, 0)" stroke="rgb(66, 66, 66)" stroke-width="1px" opacity="0.25"></line></g><g><line x1="0" y1="176.89999961853027" x2="278.4679985046387" y2="176.89999961853027" fill="rgb(0, 0, 0)" stroke="rgb(66, 66, 66)" stroke-width="1px" opacity="0.25"></line><line x1="0" y1="162.15833298365274" x2="278.4679985046387" y2="162.15833298365274" fill="rgb(0, 0, 0)" stroke="rgb(66, 66, 66)" stroke-width="1px" opacity="0.25"></line><line x1="0" y1="147.4166663487752" x2="278.4679985046387" y2="147.4166663487752" fill="rgb(0, 0, 0)" stroke="rgb(66, 66, 66)" stroke-width="1px" opacity="0.25"></line><line x1="0" y1="132.6749997138977" x2="278.4679985046387" y2="132.6749997138977" fill="rgb(0, 0, 0)" stroke="rgb(66, 66, 66)" stroke-width="1px" opacity="0.25"></line><line x1="0" y1="117.93333307902016" x2="278.4679985046387" y2="117.93333307902016" fill="rgb(0, 0, 0)" stroke="rgb(66, 66, 66)" stroke-width="1px" opacity="0.25"></line><line x1="0" y1="103.19166644414264" x2="278.4679985046387" y2="103.19166644414264" fill="rgb(0, 0, 0)" stroke="rgb(66, 66, 66)" stroke-width="1px" opacity="0.25"></line><line x1="0" y1="88.44999980926514" x2="278.4679985046387" y2="88.44999980926514" fill="rgb(0, 0, 0)" stroke="rgb(66, 66, 66)" stroke-width="1px" opacity="0.25"></line><line x1="0" y1="73.7083331743876" x2="278.4679985046387" y2="73.7083331743876" fill="rgb(0, 0, 0)" stroke="rgb(66, 66, 66)" stroke-width="1px" opacity="0.25"></line><line x1="0" y1="58.96666653951006" x2="278.4679985046387" y2="58.96666653951006" fill="rgb(0, 0, 0)" stroke="rgb(66, 66, 66)" stroke-width="1px" opacity="0.25"></line><line x1="0" y1="44.22499990463257" x2="278.4679985046387" y2="44.22499990463257" fill="rgb(0, 0, 0)" stroke="rgb(66, 66, 66)" stroke-width="1px" opacity="0.25"></line><line x1="0" y1="29.48333326975504" x2="278.4679985046387" y2="29.48333326975504" fill="rgb(0, 0, 0)" stroke="rgb(66, 66, 66)" stroke-width="1px" opacity="0.25"></line><line x1="0" y1="14.74166663487749" x2="278.4679985046387" y2="14.74166663487749" fill="rgb(0, 0, 0)" stroke="rgb(66, 66, 66)" stroke-width="1px" opacity="0.25"></line><line x1="0" y1="0" x2="278.4679985046387" y2="0" fill="rgb(0, 0, 0)" stroke="rgb(66, 66, 66)" stroke-width="1px" opacity="0.25"></line></g></g></g><g><g><line x1="0" y1="265.3499994277954" x2="278.4679985046387" y2="265.3499994277954" fill="rgb(0, 0, 0)" stroke="rgb(153, 153, 153)" stroke-width="1.5px"></line></g></g><g><g><line x1="34.808499813079834" y1="0" x2="34.808499813079834" y2="176.89999961853027" fill="rgb(0, 0, 0)" stroke="rgb(153, 153, 153)" stroke-width="1.5px"></line></g></g><g><g><g><g><g><path style="fill: none;" stroke="rgb(255, 112, 67)" stroke-width="2px" d="M41.7701997756958,-24.684762670140806L43.51062476634979,53.97813185847013L45.251049757003784,-0.2438007949723873L46.991474747657776,59.49667124561676L48.73189973831177,24.941253936635952L50.47232472896576,77.3077282702356L52.21274971961975,89.8143572583792L53.95317471027374,3.0962020623641244L55.693599700927734,3.908345429605499L57.434024691581726,47.85230219992763L59.17444968223572,69.39240585726965L60.91487467288971,78.17945409151189L62.6552996635437,17.207220378953362L64.39572465419769,56.02844931043208L66.13614964485168,90.8143959089455L67.87657463550568,52.109906940338284L69.61699962615967,77.14653658025809L71.35742461681366,77.58150722047812L73.09784960746765,71.82812429765065L74.83827459812164,67.03414575320093L76.57869958877563,113.87184779258801L78.31912457942963,82.53818538052921L80.05954957008362,81.09566489005587L81.79997456073761,30.91694207954908L83.5403995513916,53.94389256725044L85.2808245420456,71.76073587089559L87.02124953269958,95.27805611887742L88.76167452335358,94.38582924194058L90.50209951400757,98.2651603499425L92.24252450466156,95.81918071068766L93.98294949531555,49.44757005730457L95.72337448596954,38.786040452190925L97.46379947662354,92.21554923428438L99.20422446727753,84.69287624859416L100.94464945793152,80.92669708568046L102.68507444858551,74.21286162920624L104.4254994392395,67.75586756409858L106.1659244298935,51.24415633790654L107.90634942054749,42.25702869528339L109.64677441120148,101.89769499141305L111.38719940185547,110.00970143383672L113.12762439250946,102.5157547634827L114.86804938316345,107.66780505135249L116.60847437381744,98.08979599542549L118.34889936447144,107.95680398368555L120.08932435512543,104.7815913734379L121.82974934577942,71.71620912510015L123.57017433643341,62.17938909504027L125.3105993270874,48.26580889822188L127.0510243177414,64.81398279806568L128.79144930839539,70.08434497190663L130.53187429904938,75.08333342019449L132.27229928970337,99.76082955411074L134.01272428035736,97.76018085061244L135.75314927101135,116.5945895070899L137.49357426166534,105.96616539561445L139.23399925231934,73.97435609107885L140.97442424297333,88.53317543884158L142.71484923362732,79.19595418663455L144.4552742242813,56.23014399929543L146.1956992149353,71.69470510050571L147.9361242055893,90.5856455918462L149.6765491962433,121.2782942826542L151.41697418689728,100.58879699161272L153.15739917755127,107.69153285199977L154.89782416820526,104.22470229612371L156.63824915885925,117.99631338118334L158.37867414951324,119.26908558256964L160.11909914016724,98.1152429189726L161.85952413082123,94.6488067330113L163.59994912147522,90.73278894771109L165.3403741121292,99.74251554713062L167.0807991027832,80.70965494408438L168.8212240934372,93.1935767371328L170.5616490840912,100.31699646795845L172.30207407474518,123.06122605863716L174.04249906539917,128.96324280045127L175.78292405605316,145.04869661614902L177.52334904670715,128.92857324556704L179.26377403736115,148.2122014979033L181.00419902801514,164.13595999262108L182.74462401866913,116.00821856781128L184.48504900932312,93.76839272349442L186.2254739999771,109.60473967753057L187.9658989906311,111.56787328068755L189.7063239812851,65.70108078415889L191.4467489719391,115.96933894799011L193.18717396259308,104.1413427790559L194.92759895324707,125.03097130622797L196.66802394390106,123.19423802934313L198.40844893455505,148.8649764370535L200.14887392520905,151.15724956280332L201.88929891586304,149.10754635614106L203.62972390651703,132.03079938152663L205.37014889717102,139.59577132899892L207.110573887825,155.52885422129486L208.850998878479,141.51780783025885L210.591423869133,126.55916599415113L212.331848859787,140.6577882163727L214.07227385044098,114.42600146809289L215.81269884109497,122.86358408332285L217.55312383174896,129.56758044796103L219.29354882240295,120.5762601517014L221.03397381305695,155.73129741175558L222.77439880371094,131.5708415469205L224.51482379436493,127.72619666819266L226.25524878501892,104.25257065141055L227.9956737756729,115.84438012359482L229.7360987663269,144.99750533793195L231.4765237569809,172.6231594861507L233.2169487476349,180.24513013221417L234.95737373828888,152.21160808562627L236.69779872894287,154.06875798042776L238.43822371959686,150.95035404067258L240.17864871025085,120.92109632404936L241.91907370090485,119.81407699563361L243.65949869155884,130.26389068181606L245.39992368221283,135.01057056921877L247.14034867286682,83.93471400248237L248.8807736635208,70.7271185736198L250.6211986541748,76.40060936052932L252.3616236448288,84.88929638263761L254.1020486354828,121.06942932917468L255.84247362613678,146.438910337428L257.58289861679077,117.90644894288852L259.32332360744476,144.69583424339928L261.06374859809875,153.6189814670426L262.80417358875275,133.5163857221248L264.54459857940674,166.84826353752996L266.28502357006073,160.63785585551972L268.0254485607147,155.92870700049352L269.7658735513687,153.43304911559244L271.5062985420227,154.39398917548124" fill="none"></path></g></g></g></g><g opacity="0.2"><g><g><g><path style="fill: none;" stroke="rgb(255, 112, 67)" stroke-width="2px" d="M41.7701997756958,-10.032553391875979L43.51062476634979,156.68040695502464L45.251049757003784,-75.25225355043867L46.991474747657776,144.92650211121185L48.73189973831177,-25.440876231864156L50.47232472896576,154.5381062483205L52.21274971961975,108.38524373320361L53.95317471027374,-126.19450344648692L55.693599700927734,5.1221408321274025L57.434024691581726,113.62475271210343L59.17444968223572,101.66036203784151L60.91487467288971,91.34969759752906L62.6552996635437,-74.20812784673282L64.39572465419769,114.24386486461637L66.13614964485168,142.9844836586426L67.87657463550568,-5.940930273238735L69.61699962615967,114.69919259301861L71.35742461681366,78.2339393259845L73.09784960746765,63.19823923092528L74.83827459812164,59.84327258526994L76.57869958877563,184.12784601443545L78.31912457942963,35.53791446870287L80.05954957008362,78.93189030603679L81.79997456073761,-44.351013742612274L83.5403995513916,88.48428294700938L85.2808245420456,98.48598441453248L87.02124953269958,130.55402349318467L88.76167452335358,93.04748922240748L90.50209951400757,104.08415624008839L92.24252450466156,92.15021154380628L93.98294949531555,-20.109842601266706L95.72337448596954,22.793746502718534L97.46379947662354,172.359811029688L99.20422446727753,73.40886688644693L100.94464945793152,75.27742837627125L102.68507444858551,64.14210848188952L104.4254994392395,58.07037648801563L106.1659244298935,26.476589531726432L107.90634942054749,28.776337242160913L109.64677441120148,191.3586943925562L111.38719940185547,122.17771109395885L113.12762439250946,91.27483475989905L114.86804938316345,115.39588048235386L116.60847437381744,83.72278241243109L118.34889936447144,122.75731596552183L120.08932435512543,100.01877245817327L121.82974934577942,22.11813575326181L123.57017433643341,47.87415905006597L125.3105993270874,27.395438603095442L127.0510243177414,89.63624364775916L128.79144930839539,77.98988823265427L130.53187429904938,82.58181609261847L132.27229928970337,136.77707375496183L134.01272428035736,94.75920779536614L135.75314927101135,144.84620249179974L137.49357426166534,90.02352922840346L139.23399925231934,25.98664213427933L140.97442424297333,110.3714044604846L142.71484923362732,65.19012230832439L144.4552742242813,21.781428718287405L146.1956992149353,94.89154675232093L147.9361242055893,118.9220563288567L149.6765491962433,167.31726731886604L151.41697418689728,69.55455105505058L153.15739917755127,118.34563664258022L154.89782416820526,99.02445646230959L156.63824915885925,138.65373000877287L158.37867414951324,121.17824388464909L160.11909914016724,66.38447892357709L161.85952413082123,89.44915245406938L163.59994912147522,84.85876226976073L165.3403741121292,113.25710544625993L167.0807991027832,52.16036403951501L168.8212240934372,111.91945942670544L170.5616490840912,111.0021260641969L172.30207407474518,157.17757044465523L174.04249906539917,137.8162679131724L175.78292405605316,169.1768773396956L177.52334904670715,104.74838818969408L179.26377403736115,177.13764387640768L181.00419902801514,188.02159773469782L182.74462401866913,43.81660643059661L184.48504900932312,60.40865395701909L186.2254739999771,133.3592601085848L187.9658989906311,114.51257368542302L189.7063239812851,-3.099107960634143L191.4467489719391,191.37172619373695L193.18717396259308,86.39934852565466L194.92759895324707,156.36541409698603L196.66802394390106,120.43913811401586L198.40844893455505,187.37108404861908L200.14887392520905,154.59565925142806L201.88929891586304,146.03299154614763L203.62972390651703,106.41567891960499L205.37014889717102,150.94322925020737L207.110573887825,179.4284785597388L208.850998878479,120.50123824370482L210.591423869133,104.1212032399895L212.331848859787,161.80572154970508L214.07227385044098,75.07832134567315L215.81269884109497,135.5199580061678L217.55312383174896,139.6235749949183L219.29354882240295,107.08927970731196L221.03397381305695,208.46385330183682L222.77439880371094,95.33015774966786L224.51482379436493,121.95922935010087L226.25524878501892,69.04213162623742L227.9956737756729,133.23209433187117L229.7360987663269,188.72719315943766L233.2169487476349,191.6780861013094L234.95737373828888,110.1613250157444L236.69779872894287,156.85448282262996L238.43822371959686,146.27274813103986L240.17864871025085,75.87720974911448L241.91907370090485,118.15354800300993L243.65949869155884,145.93861121108972L245.39992368221283,142.13059040032286L247.14034867286682,7.320929152377772L248.8807736635208,50.91572543032598L250.6211986541748,84.91084554089356L252.3616236448288,97.62232691580003L254.1020486354828,175.3396287489803L255.84247362613678,184.49313184980792L257.58289861679077,75.1077568510793L259.32332360744476,184.87991219416546L261.06374859809875,167.00370230250763L262.80417358875275,103.36249210474806L264.54459857940674,216.84608026063773L266.28502357006073,151.32224433250437L268.0254485607147,148.86498371795426L269.7658735513687,149.68956228824078L271.5062985420227,155.83539926531444" fill="none"></path></g></g></g></g></g></g><g transform="translate(51, 176)" clip-path="url(#clip_1)"><clipPath id="clip_1"><rect width="278" height="23"></rect></clipPath><g><g><line x1="0" y1="0" x2="0" y2="5" style="visibility: inherit;" fill="rgb(0, 0, 0)" stroke="rgb(204, 204, 204)" stroke-width="1px"></line><line x1="34.808499813079834" y1="0" x2="34.808499813079834" y2="5" style="visibility: inherit;" fill="rgb(0, 0, 0)" stroke="rgb(204, 204, 204)" stroke-width="1px"></line><line x1="69.61699962615967" y1="0" x2="69.61699962615967" y2="5" style="visibility: inherit;" fill="rgb(0, 0, 0)" stroke="rgb(204, 204, 204)" stroke-width="1px"></line><line x1="104.4254994392395" y1="0" x2="104.4254994392395" y2="5" style="visibility: inherit;" fill="rgb(0, 0, 0)" stroke="rgb(204, 204, 204)" stroke-width="1px"></line><line x1="139.23399925231934" y1="0" x2="139.23399925231934" y2="5" style="visibility: inherit;" fill="rgb(0, 0, 0)" stroke="rgb(204, 204, 204)" stroke-width="1px"></line><line x1="174.04249906539917" y1="0" x2="174.04249906539917" y2="5" style="visibility: inherit;" fill="rgb(0, 0, 0)" stroke="rgb(204, 204, 204)" stroke-width="1px"></line><line x1="208.850998878479" y1="0" x2="208.850998878479" y2="5" style="visibility: inherit;" fill="rgb(0, 0, 0)" stroke="rgb(204, 204, 204)" stroke-width="1px"></line><line x1="243.65949869155884" y1="0" x2="243.65949869155884" y2="5" style="visibility: inherit;" fill="rgb(0, 0, 0)" stroke="rgb(204, 204, 204)" stroke-width="1px"></line><line x1="278.4679985046387" y1="0" x2="278.4679985046387" y2="5" style="visibility: inherit;" fill="rgb(0, 0, 0)" stroke="rgb(204, 204, 204)" stroke-width="1px"></line></g><g transform="translate(0, 8)"><text style="text-anchor: middle; visibility: hidden; font-family: Roboto, sans-serif; font-size: 12px; font-weight: 200;" x="0" y="0" dx="0em" dy="0.95em" fill="rgb(33, 33, 33)" stroke="none" stroke-width="1px">-2k</text><text style="text-anchor: middle; visibility: inherit; font-family: Roboto, sans-serif; font-size: 12px; font-weight: 200;" x="34.808499813079834" y="0" dx="0em" dy="0.95em" fill="rgb(33, 33, 33)" stroke="none" stroke-width="1px">0</text><text style="text-anchor: middle; visibility: inherit; font-family: Roboto, sans-serif; font-size: 12px; font-weight: 200;" x="69.61699962615967" y="0" dx="0em" dy="0.95em" fill="rgb(33, 33, 33)" stroke="none" stroke-width="1px">2k</text><text style="text-anchor: middle; visibility: inherit; font-family: Roboto, sans-serif; font-size: 12px; font-weight: 200;" x="104.4254994392395" y="0" dx="0em" dy="0.95em" fill="rgb(33, 33, 33)" stroke="none" stroke-width="1px">4k</text><text style="text-anchor: middle; visibility: inherit; font-family: Roboto, sans-serif; font-size: 12px; font-weight: 200;" x="139.23399925231934" y="0" dx="0em" dy="0.95em" fill="rgb(33, 33, 33)" stroke="none" stroke-width="1px">6k</text><text style="text-anchor: middle; visibility: inherit; font-family: Roboto, sans-serif; font-size: 12px; font-weight: 200;" x="174.04249906539917" y="0" dx="0em" dy="0.95em" fill="rgb(33, 33, 33)" stroke="none" stroke-width="1px">8k</text><text style="text-anchor: middle; visibility: inherit; font-family: Roboto, sans-serif; font-size: 12px; font-weight: 200;" x="208.850998878479" y="0" dx="0em" dy="0.95em" fill="rgb(33, 33, 33)" stroke="none" stroke-width="1px">10k</text><text style="text-anchor: middle; visibility: inherit; font-family: Roboto, sans-serif; font-size: 12px; font-weight: 200;" x="243.65949869155884" y="0" dx="0em" dy="0.95em" fill="rgb(33, 33, 33)" stroke="none" stroke-width="1px">12k</text><text style="text-anchor: middle; visibility: hidden; font-family: Roboto, sans-serif; font-size: 12px; font-weight: 200;" x="278.4679985046387" y="0" dx="0em" dy="0.95em" fill="rgb(33, 33, 33)" stroke="none" stroke-width="1px">14k</text></g><line x1="0" y1="0" x2="278.4679985046387" y2="0" fill="rgb(0, 0, 0)" stroke="rgb(204, 204, 204)" stroke-width="1px"></line></g></g></g></g></svg>