<svg viewBox="0 0 330 200" xmlns="http://www.w3.org/2000/svg"><g><g><g><g><g><line x1="61.91500186920166" y1="176.89999961853027" x2="56.91500186920166" y2="176.89999961853027" style="visibility: inherit;" fill="rgb(0, 0, 0)" stroke="rgb(204, 204, 204)" stroke-width="1px"></line><line x1="61.91500186920166" y1="154.78749966621396" x2="56.91500186920166" y2="154.78749966621396" style="visibility: inherit;" fill="rgb(0, 0, 0)" stroke="rgb(204, 204, 204)" stroke-width="1px"></line><line x1="61.91500186920166" y1="132.6749997138977" x2="56.91500186920166" y2="132.6749997138977" style="visibility: inherit;" fill="rgb(0, 0, 0)" stroke="rgb(204, 204, 204)" stroke-width="1px"></line><line x1="61.91500186920166" y1="110.56249976158144" x2="56.91500186920166" y2="110.56249976158144" style="visibility: inherit;" fill="rgb(0, 0, 0)" stroke="rgb(204, 204, 204)" stroke-width="1px"></line><line x1="61.91500186920166" y1="88.44999980926514" x2="56.91500186920166" y2="88.44999980926514" style="visibility: inherit;" fill="rgb(0, 0, 0)" stroke="rgb(204, 204, 204)" stroke-width="1px"></line><line x1="61.91500186920166" y1="66.33749985694884" x2="56.91500186920166" y2="66.33749985694884" style="visibility: inherit;" fill="rgb(0, 0, 0)" stroke="rgb(204, 204, 204)" stroke-width="1px"></line><line x1="61.91500186920166" y1="44.22499990463261" x2="56.91500186920166" y2="44.22499990463261" style="visibility: inherit;" fill="rgb(0, 0, 0)" stroke="rgb(204, 204, 204)" stroke-width="1px"></line><line x1="61.91500186920166" y1="22.112499952316305" x2="56.91500186920166" y2="22.112499952316305" style="visibility: inherit;" fill="rgb(0, 0, 0)" stroke="rgb(204, 204, 204)" stroke-width="1px"></line><line x1="61.91500186920166" y1="0" x2="56.91500186920166" y2="0" style="visibility: inherit;" fill="rgb(0, 0, 0)" stroke="rgb(204, 204, 204)" stroke-width="1px"></line></g><g transform="translate(51.91500186920166, 0)"><text style="text-anchor: end; visibility: hidden; font-family: Roboto, sans-serif; font-size: 12px; font-weight: 200;" x="0" y="176.89999961853027" dx="0em" dy="0.3em" fill="rgb(33, 33, 33)" stroke="none" stroke-width="1px">0.045</text><text style="text-anchor: end; visibility: inherit; font-family: Roboto, sans-serif; font-size: 12px; font-weight: 200;" x="0" y="154.78749966621396" dx="0em" dy="0.3em" fill="rgb(33, 33, 33)" stroke="none" stroke-width="1px">0.05</text><text style="text-anchor: end; visibility: hidden; font-family: Roboto, sans-serif; font-size: 12px; font-weight: 200;" x="0" y="132.6749997138977" dx="0em" dy="0.3em" fill="rgb(33, 33, 33)" stroke="none" stroke-width="1px">0.055</text><text style="text-anchor: end; visibility: inherit; font-family: Roboto, sans-serif; font-size: 12px; font-weight: 200;" x="0" y="110.56249976158144" dx="0em" dy="0.3em" fill="rgb(33, 33, 33)" stroke="none" stroke-width="1px">0.06</text><text style="text-anchor: end; visibility: hidden; font-family: Roboto, sans-serif; font-size: 12px; font-weight: 200;" x="0" y="88.44999980926514" dx="0em" dy="0.3em" fill="rgb(33, 33, 33)" stroke="none" stroke-width="1px">0.065</text><text style="text-anchor: end; visibility: inherit; font-family: Roboto, sans-serif; font-size: 12px; font-weight: 200;" x="0" y="66.33749985694884" dx="0em" dy="0.3em" fill="rgb(33, 33, 33)" stroke="none" stroke-width="1px">0.07</text><text style="text-anchor: end; visibility: hidden; font-family: Roboto, sans-serif; font-size: 12px; font-weight: 200;" x="0" y="44.22499990463261" dx="0em" dy="0.3em" fill="rgb(33, 33, 33)" stroke="none" stroke-width="1px">0.075</text><text style="text-anchor: end; visibility: inherit; font-family: Roboto, sans-serif; font-size: 12px; font-weight: 200;" x="0" y="22.112499952316305" dx="0em" dy="0.3em" fill="rgb(33, 33, 33)" stroke="none" stroke-width="1px">0.08</text><text style="text-anchor: end; visibility: hidden; font-family: Roboto, sans-serif; font-size: 12px; font-weight: 200;" x="0" y="0" dx="0em" dy="0.3em" fill="rgb(33, 33, 33)" stroke="none" stroke-width="1px">0.085</text></g><line x1="61.91500186920166" y1="0" x2="61.91500186920166" y2="176.89999961853027" fill="rgb(0, 0, 0)" stroke="rgb(204, 204, 204)" stroke-width="1px"></line></g></g><g transform="translate(61, 0)" clip-path="url(#clip_0)"><clipPath id="clip_0"><rect width="268" height="176"></rect></clipPath><g><g><g><line x1="0" y1="0" x2="0" y2="176.89999961853027" fill="rgb(0, 0, 0)" stroke="rgb(66, 66, 66)" stroke-width="1px" opacity="0.25"></line><line x1="33.51062476634979" y1="0" x2="33.51062476634979" y2="176.89999961853027" fill="rgb(0, 0, 0)" stroke="rgb(66, 66, 66)" stroke-width="1px" opacity="0.25"></line><line x1="67.02124953269958" y1="0" x2="67.02124953269958" y2="176.89999961853027" fill="rgb(0, 0, 0)" stroke="rgb(66, 66, 66)" stroke-width="1px" opacity="0.25"></line><line x1="100.53187429904938" y1="0" x2="100.53187429904938" y2="176.89999961853027" fill="rgb(0, 0, 0)" stroke="rgb(66, 66, 66)" stroke-width="1px" opacity="0.25"></line><line x1="134.04249906539917" y1="0" x2="134.04249906539917" y2="176.89999961853027" fill="rgb(0, 0, 0)" stroke="rgb(66, 66, 66)" stroke-width="1px" opacity="0.25"></line><line x1="167.55312383174896" y1="0" x2="167.55312383174896" y2="176.89999961853027" fill="rgb(0, 0, 0)" stroke="rgb(66, 66, 66)" stroke-width="1px" opacity="0.25"></line><line x1="201.06374859809875" y1="0" x2="201.06374859809875" y2="176.89999961853027" fill="rgb(0, 0, 0)" stroke="rgb(66, 66, 66)" stroke-width="1px" opacity="0.25"></line><line x1="234.57437336444855" y1="0" x2="234.57437336444855" y2="176.89999961853027" fill="rgb(0, 0, 0)" stroke="rgb(66, 66, 66)" stroke-width="1px" opacity="0.25"></line><line x1="268.08499813079834" y1="0" x2="268.08499813079834" y2="176.89999961853027" fill="rgb(0, 0, 0)" stroke="rgb(66, 66, 66)" stroke-width="1px" opacity="0.25"></line></g><g><line x1="0" y1="176.89999961853027" x2="268.08499813079834" y2="176.89999961853027" fill="rgb(0, 0, 0)" stroke="rgb(66, 66, 66)" stroke-width="1px" opacity="0.25"></line><line x1="0" y1="154.78749966621396" x2="268.08499813079834" y2="154.78749966621396" fill="rgb(0, 0, 0)" stroke="rgb(66, 66, 66)" stroke-width="1px" opacity="0.25"></line><line x1="0" y1="132.6749997138977" x2="268.08499813079834" y2="132.6749997138977" fill="rgb(0, 0, 0)" stroke="rgb(66, 66, 66)" stroke-width="1px" opacity="0.25"></line><line x1="0" y1="110.56249976158144" x2="268.08499813079834" y2="110.56249976158144" fill="rgb(0, 0, 0)" stroke="rgb(66, 66, 66)" stroke-width="1px" opacity="0.25"></line><line x1="0" y1="88.44999980926514" x2="268.08499813079834" y2="88.44999980926514" fill="rgb(0, 0, 0)" stroke="rgb(66, 66, 66)" stroke-width="1px" opacity="0.25"></line><line x1="0" y1="66.33749985694884" x2="268.08499813079834" y2="66.33749985694884" fill="rgb(0, 0, 0)" stroke="rgb(66, 66, 66)" stroke-width="1px" opacity="0.25"></line><line x1="0" y1="44.22499990463261" x2="268.08499813079834" y2="44.22499990463261" fill="rgb(0, 0, 0)" stroke="rgb(66, 66, 66)" stroke-width="1px" opacity="0.25"></line><line x1="0" y1="22.112499952316305" x2="268.08499813079834" y2="22.112499952316305" fill="rgb(0, 0, 0)" stroke="rgb(66, 66, 66)" stroke-width="1px" opacity="0.25"></line><line x1="0" y1="0" x2="268.08499813079834" y2="0" fill="rgb(0, 0, 0)" stroke="rgb(66, 66, 66)" stroke-width="1px" opacity="0.25"></line></g></g></g><g><g><line x1="0" y1="375.91249918937683" x2="268.08499813079834" y2="375.91249918937683" fill="rgb(0, 0, 0)" stroke="rgb(153, 153, 153)" stroke-width="1.5px"></line></g></g><g><g><line x1="33.51062476634979" y1="0" x2="33.51062476634979" y2="176.89999961853027" fill="rgb(0, 0, 0)" stroke="rgb(153, 153, 153)" stroke-width="1.5px"></line></g></g><g><g><g><g><g><path style="fill: none;" stroke="rgb(255, 112, 67)" stroke-width="2px" d="M46.91487467288971,184.96659705211735L50.26593714952469,165.48390839255808L53.61699962615967,144.9148104184316L56.96806210279465,123.49872327860166L60.31912457942963,101.44336541879021L63.670187056064606,78.91880030911194L67.02124953269958,56.05805313339034L70.37231200933456,42.43184936654376L73.72337448596954,34.292220157041456L77.07443696260452,29.42706882959509L80.4254994392395,26.522230925949486L83.77656191587448,24.79387970742079L87.12762439250946,23.773394344493546L90.47868686914444,23.180190837822717L93.82974934577942,22.84613506410434L97.1808118224144,22.670450645603253L100.53187429904938,22.5926601172734L103.88293677568436,22.57650016828554L107.23399925231934,22.60022954111539L110.58506172895432,22.65077836394856L113.9361242055893,22.720331497311808L117.28718668222427,22.804173632292926L120.63824915885925,22.89948880062372L123.98931163549423,23.004587426667065L127.34037411212921,23.118442581584592L130.6914365887642,23.240438103382115L134.04249906539917,23.370204290886434L137.39356154203415,23.507519320476643L140.74462401866913,23.65225009597018L144.0956864953041,23.80430357823976L147.4467489719391,23.963637123010372L150.79781144857407,24.130198782994817L154.14887392520905,24.303983749612108L157.49993640184402,24.484962777326594L160.850998878479,24.673118318669953L164.20206135511398,24.86845302514484L167.55312383174896,25.07095530751689L170.90418630838394,25.280605032131536L174.25524878501892,25.497390118772643L177.6063112616539,25.721316499373188L180.95737373828888,25.952361372929573L184.30843621492386,26.190524238911205L187.65949869155884,26.435791616918916L191.01056116819382,26.688142238634082L194.3616236448288,26.9475897032182L197.71268612146378,27.21410262993627L201.06374859809875,27.487675370423556L204.41481107473373,27.768304535661315L207.7658735513687,28.055974912160742L211.1169360280037,28.350677371828354L214.46799850463867,28.652380077654147L217.81906098127365,28.961090287586075L221.17012345790863,29.276799176315777L224.5211859345436,29.599475088504107L227.8722484111786,29.92912539110176L231.22331088781357,30.26572814412497L234.57437336444855,30.609257003506517L237.92543584108353,30.959709342882974L241.2764983177185,31.317070406359402L244.62756079435349,31.681318160321606L247.97862327098846,32.05245256467831L251.32968574762344,32.430447235220484" fill="none"></path></g></g></g></g><g opacity="0.2"><g><g><g><path style="fill: none;" stroke="rgb(255, 112, 67)" stroke-width="2px" d="M43.56381219625473,187.22122767092836L46.91487467288971,163.63427711233112L50.26593714952469,140.0473100786376L53.61699962615967,116.46034304494405L56.96806210279465,92.87337601125051L60.31912457942963,69.2864419277496L63.670187056064606,45.699441943863455L67.02124953269958,22.112507860362534L70.37231200933456,22.116132381550607L73.72337448596954,22.127071845500062L77.07443696260452,22.145227401633043L80.4254994392395,22.17066495033479L83.77656191587448,22.2033844916053L87.12762439250946,22.243386025444572L90.47868686914444,22.29063660165999L93.82974934577942,22.345136220251554L97.1808118224144,22.4069507816045L100.53187429904938,22.475981435140973L103.88293677568436,22.55226113105359L107.23399925231934,22.635822819534972L110.58506172895432,22.72660060019988L113.9361242055893,22.824660373433552L117.28718668222427,22.92993623885075L120.63824915885925,23.042461146644094L123.98931163549423,23.162235096813582L127.34037411212921,23.289225139166597L130.6914365887642,23.423431273703137L134.04249906539917,23.564853500423204L137.39356154203415,23.713491819326798L140.74462401866913,23.869346230413917L144.0956864953041,24.032383783491944L147.4467489719391,24.202637428753498L150.79781144857407,24.38004126581334L154.14887392520905,24.564661195056708L157.49993640184402,24.756431316098364L160.850998878479,24.95535162893831L164.20206135511398,25.161455083769162L167.55312383174896,25.374708730398304L170.90418630838394,25.595079618633115L174.25524878501892,25.822567748473595L177.6063112616539,26.057206070112365L180.95737373828888,26.298928683164185L184.30843621492386,26.547768537821675L187.65949869155884,26.803692683892216L191.01056116819382,27.06666817118319L194.3616236448288,27.33676090007983L197.71268612146378,27.613872020004287L201.06374859809875,27.898034481149175L204.41481107473373,28.189248283514495L207.7658735513687,28.487480476907628L211.1169360280037,28.792731061328574L214.46799850463867,29.104934136392096L217.81906098127365,29.42415560248343L221.17012345790863,29.75036250940996L224.5211859345436,30.083488956786447L227.8722484111786,30.423600844998127L231.22331088781357,30.770632273659764L234.57437336444855,31.12455029257874L237.92543584108353,31.48538785194767L241.2764983177185,31.85311200157394L244.62756079435349,32.22768979126493L247.97862327098846,32.609154171213255L251.32968574762344,32.99743924103368" fill="none"></path></g></g></g></g></g><g><g opacity="0.973537"><span fill="rgb(0, 0, 0)" stroke="none" stroke-width="1px">Alt + Scroll to Zoom</span></g></g></g><g transform="translate(61, 176)" clip-path="url(#clip_1)"><clipPath id="clip_1"><rect width="268" height="23"></rect></clipPath><g><g><line x1="0" y1="0" x2="0" y2="5" style="visibility: inherit;" fill="rgb(0, 0, 0)" stroke="rgb(204, 204, 204)" stroke-width="1px"></line><line x1="33.51062476634979" y1="0" x2="33.51062476634979" y2="5" style="visibility: inherit;" fill="rgb(0, 0, 0)" stroke="rgb(204, 204, 204)" stroke-width="1px"></line><line x1="67.02124953269958" y1="0" x2="67.02124953269958" y2="5" style="visibility: inherit;" fill="rgb(0, 0, 0)" stroke="rgb(204, 204, 204)" stroke-width="1px"></line><line x1="100.53187429904938" y1="0" x2="100.53187429904938" y2="5" style="visibility: inherit;" fill="rgb(0, 0, 0)" stroke="rgb(204, 204, 204)" stroke-width="1px"></line><line x1="134.04249906539917" y1="0" x2="134.04249906539917" y2="5" style="visibility: inherit;" fill="rgb(0, 0, 0)" stroke="rgb(204, 204, 204)" stroke-width="1px"></line><line x1="167.55312383174896" y1="0" x2="167.55312383174896" y2="5" style="visibility: inherit;" fill="rgb(0, 0, 0)" stroke="rgb(204, 204, 204)" stroke-width="1px"></line><line x1="201.06374859809875" y1="0" x2="201.06374859809875" y2="5" style="visibility: inherit;" fill="rgb(0, 0, 0)" stroke="rgb(204, 204, 204)" stroke-width="1px"></line><line x1="234.57437336444855" y1="0" x2="234.57437336444855" y2="5" style="visibility: inherit;" fill="rgb(0, 0, 0)" stroke="rgb(204, 204, 204)" stroke-width="1px"></line><line x1="268.08499813079834" y1="0" x2="268.08499813079834" y2="5" style="visibility: inherit;" fill="rgb(0, 0, 0)" stroke="rgb(204, 204, 204)" stroke-width="1px"></line></g><g transform="translate(0, 8)"><text style="text-anchor: middle; visibility: hidden; font-family: Roboto, sans-serif; font-size: 12px; font-weight: 200;" x="0" y="0" dx="0em" dy="0.95em" fill="rgb(33, 33, 33)" stroke="none" stroke-width="1px">-1k</text><text style="text-anchor: middle; visibility: inherit; font-family: Roboto, sans-serif; font-size: 12px; font-weight: 200;" x="33.51062476634979" y="0" dx="0em" dy="0.95em" fill="rgb(33, 33, 33)" stroke="none" stroke-width="1px">0</text><text style="text-anchor: middle; visibility: inherit; font-family: Roboto, sans-serif; font-size: 12px; font-weight: 200;" x="67.02124953269958" y="0" dx="0em" dy="0.95em" fill="rgb(33, 33, 33)" stroke="none" stroke-width="1px">1k</text><text style="text-anchor: middle; visibility: inherit; font-family: Roboto, sans-serif; font-size: 12px; font-weight: 200;" x="100.53187429904938" y="0" dx="0em" dy="0.95em" fill="rgb(33, 33, 33)" stroke="none" stroke-width="1px">2k</text><text style="text-anchor: middle; visibility: inherit; font-family: Roboto, sans-serif; font-size: 12px; font-weight: 200;" x="134.04249906539917" y="0" dx="0em" dy="0.95em" fill="rgb(33, 33, 33)" stroke="none" stroke-width="1px">3k</text><text style="text-anchor: middle; visibility: inherit; font-family: Roboto, sans-serif; font-size: 12px; font-weight: 200;" x="167.55312383174896" y="0" dx="0em" dy="0.95em" fill="rgb(33, 33, 33)" stroke="none" stroke-width="1px">4k</text><text style="text-anchor: middle; visibility: inherit; font-family: Roboto, sans-serif; font-size: 12px; font-weight: 200;" x="201.06374859809875" y="0" dx="0em" dy="0.95em" fill="rgb(33, 33, 33)" stroke="none" stroke-width="1px">5k</text><text style="text-anchor: middle; visibility: inherit; font-family: Roboto, sans-serif; font-size: 12px; font-weight: 200;" x="234.57437336444855" y="0" dx="0em" dy="0.95em" fill="rgb(33, 33, 33)" stroke="none" stroke-width="1px">6k</text><text style="text-anchor: middle; visibility: hidden; font-family: Roboto, sans-serif; font-size: 12px; font-weight: 200;" x="268.08499813079834" y="0" dx="0em" dy="0.95em" fill="rgb(33, 33, 33)" stroke="none" stroke-width="1px">7k</text></g><line x1="0" y1="0" x2="268.08499813079834" y2="0" fill="rgb(0, 0, 0)" stroke="rgb(204, 204, 204)" stroke-width="1px"></line></g></g></g></g></svg>