<svg viewBox="0 0 330 200" xmlns="http://www.w3.org/2000/svg"><g><g><g><g><g><line x1="51.41600036621094" y1="160.87272644042972" x2="46.41600036621094" y2="160.87272644042972" style="visibility: inherit;" fill="rgb(0, 0, 0)" stroke="rgb(204, 204, 204)" stroke-width="1px"></line><line x1="51.41600036621094" y1="144.78545379638672" x2="46.41600036621094" y2="144.78545379638672" style="visibility: inherit;" fill="rgb(0, 0, 0)" stroke="rgb(204, 204, 204)" stroke-width="1px"></line><line x1="51.41600036621094" y1="128.69818115234375" x2="46.41600036621094" y2="128.69818115234375" style="visibility: inherit;" fill="rgb(0, 0, 0)" stroke="rgb(204, 204, 204)" stroke-width="1px"></line><line x1="51.41600036621094" y1="112.61090850830078" x2="46.41600036621094" y2="112.61090850830078" style="visibility: inherit;" fill="rgb(0, 0, 0)" stroke="rgb(204, 204, 204)" stroke-width="1px"></line><line x1="51.41600036621094" y1="96.52363586425783" x2="46.41600036621094" y2="96.52363586425783" style="visibility: inherit;" fill="rgb(0, 0, 0)" stroke="rgb(204, 204, 204)" stroke-width="1px"></line><line x1="51.41600036621094" y1="80.43636322021483" x2="46.41600036621094" y2="80.43636322021483" style="visibility: inherit;" fill="rgb(0, 0, 0)" stroke="rgb(204, 204, 204)" stroke-width="1px"></line><line x1="51.41600036621094" y1="64.34909057617186" x2="46.41600036621094" y2="64.34909057617186" style="visibility: inherit;" fill="rgb(0, 0, 0)" stroke="rgb(204, 204, 204)" stroke-width="1px"></line><line x1="51.41600036621094" y1="48.2618179321289" x2="46.41600036621094" y2="48.2618179321289" style="visibility: inherit;" fill="rgb(0, 0, 0)" stroke="rgb(204, 204, 204)" stroke-width="1px"></line><line x1="51.41600036621094" y1="32.17454528808593" x2="46.41600036621094" y2="32.17454528808593" style="visibility: inherit;" fill="rgb(0, 0, 0)" stroke="rgb(204, 204, 204)" stroke-width="1px"></line><line x1="51.41600036621094" y1="16.087272644042933" x2="46.41600036621094" y2="16.087272644042933" style="visibility: inherit;" fill="rgb(0, 0, 0)" stroke="rgb(204, 204, 204)" stroke-width="1px"></line><line x1="51.41600036621094" y1="0" x2="46.41600036621094" y2="0" style="visibility: inherit;" fill="rgb(0, 0, 0)" stroke="rgb(204, 204, 204)" stroke-width="1px"></line></g><g transform="translate(41.41600036621094, 0)"><text style="text-anchor: end; visibility: inherit; font-family: Roboto, sans-serif; font-size: 12px; font-weight: 200;" x="0" y="160.87272644042972" dx="0em" dy="0.3em" fill="rgb(33, 33, 33)" stroke="none" stroke-width="1px">0.16</text><text style="text-anchor: end; visibility: hidden; font-family: Roboto, sans-serif; font-size: 12px; font-weight: 200;" x="0" y="144.78545379638672" dx="0em" dy="0.3em" fill="rgb(33, 33, 33)" stroke="none" stroke-width="1px">0.18</text><text style="text-anchor: end; visibility: inherit; font-family: Roboto, sans-serif; font-size: 12px; font-weight: 200;" x="0" y="128.69818115234375" dx="0em" dy="0.3em" fill="rgb(33, 33, 33)" stroke="none" stroke-width="1px">0.2</text><text style="text-anchor: end; visibility: hidden; font-family: Roboto, sans-serif; font-size: 12px; font-weight: 200;" x="0" y="112.61090850830078" dx="0em" dy="0.3em" fill="rgb(33, 33, 33)" stroke="none" stroke-width="1px">0.22</text><text style="text-anchor: end; visibility: inherit; font-family: Roboto, sans-serif; font-size: 12px; font-weight: 200;" x="0" y="96.52363586425783" dx="0em" dy="0.3em" fill="rgb(33, 33, 33)" stroke="none" stroke-width="1px">0.24</text><text style="text-anchor: end; visibility: hidden; font-family: Roboto, sans-serif; font-size: 12px; font-weight: 200;" x="0" y="80.43636322021483" dx="0em" dy="0.3em" fill="rgb(33, 33, 33)" stroke="none" stroke-width="1px">0.26</text><text style="text-anchor: end; visibility: inherit; font-family: Roboto, sans-serif; font-size: 12px; font-weight: 200;" x="0" y="64.34909057617186" dx="0em" dy="0.3em" fill="rgb(33, 33, 33)" stroke="none" stroke-width="1px">0.28</text><text style="text-anchor: end; visibility: hidden; font-family: Roboto, sans-serif; font-size: 12px; font-weight: 200;" x="0" y="48.2618179321289" dx="0em" dy="0.3em" fill="rgb(33, 33, 33)" stroke="none" stroke-width="1px">0.3</text><text style="text-anchor: end; visibility: inherit; font-family: Roboto, sans-serif; font-size: 12px; font-weight: 200;" x="0" y="32.17454528808593" dx="0em" dy="0.3em" fill="rgb(33, 33, 33)" stroke="none" stroke-width="1px">0.32</text><text style="text-anchor: end; visibility: hidden; font-family: Roboto, sans-serif; font-size: 12px; font-weight: 200;" x="0" y="16.087272644042933" dx="0em" dy="0.3em" fill="rgb(33, 33, 33)" stroke="none" stroke-width="1px">0.34</text><text style="text-anchor: end; visibility: hidden; font-family: Roboto, sans-serif; font-size: 12px; font-weight: 200;" x="0" y="0" dx="0em" dy="0.3em" fill="rgb(33, 33, 33)" stroke="none" stroke-width="1px">0.36</text></g><line x1="51.41600036621094" y1="0" x2="51.41600036621094" y2="176.95999908447266" fill="rgb(0, 0, 0)" stroke="rgb(204, 204, 204)" stroke-width="1px"></line></g></g><g transform="translate(51, 0)" clip-path="url(#clip_0)"><clipPath id="clip_0"><rect width="278" height="176"></rect></clipPath><g><g><g><line x1="0" y1="0" x2="0" y2="176.95999908447266" fill="rgb(0, 0, 0)" stroke="rgb(66, 66, 66)" stroke-width="1px" opacity="0.25"></line><line x1="34.82299995422363" y1="0" x2="34.82299995422363" y2="176.95999908447266" fill="rgb(0, 0, 0)" stroke="rgb(66, 66, 66)" stroke-width="1px" opacity="0.25"></line><line x1="69.64599990844727" y1="0" x2="69.64599990844727" y2="176.95999908447266" fill="rgb(0, 0, 0)" stroke="rgb(66, 66, 66)" stroke-width="1px" opacity="0.25"></line><line x1="104.4689998626709" y1="0" x2="104.4689998626709" y2="176.95999908447266" fill="rgb(0, 0, 0)" stroke="rgb(66, 66, 66)" stroke-width="1px" opacity="0.25"></line><line x1="139.29199981689453" y1="0" x2="139.29199981689453" y2="176.95999908447266" fill="rgb(0, 0, 0)" stroke="rgb(66, 66, 66)" stroke-width="1px" opacity="0.25"></line><line x1="174.11499977111816" y1="0" x2="174.11499977111816" y2="176.95999908447266" fill="rgb(0, 0, 0)" stroke="rgb(66, 66, 66)" stroke-width="1px" opacity="0.25"></line><line x1="208.9379997253418" y1="0" x2="208.9379997253418" y2="176.95999908447266" fill="rgb(0, 0, 0)" stroke="rgb(66, 66, 66)" stroke-width="1px" opacity="0.25"></line><line x1="243.76099967956543" y1="0" x2="243.76099967956543" y2="176.95999908447266" fill="rgb(0, 0, 0)" stroke="rgb(66, 66, 66)" stroke-width="1px" opacity="0.25"></line><line x1="278.58399963378906" y1="0" x2="278.58399963378906" y2="176.95999908447266" fill="rgb(0, 0, 0)" stroke="rgb(66, 66, 66)" stroke-width="1px" opacity="0.25"></line></g><g><line x1="0" y1="160.87272644042972" x2="278.58399963378906" y2="160.87272644042972" fill="rgb(0, 0, 0)" stroke="rgb(66, 66, 66)" stroke-width="1px" opacity="0.25"></line><line x1="0" y1="144.78545379638672" x2="278.58399963378906" y2="144.78545379638672" fill="rgb(0, 0, 0)" stroke="rgb(66, 66, 66)" stroke-width="1px" opacity="0.25"></line><line x1="0" y1="128.69818115234375" x2="278.58399963378906" y2="128.69818115234375" fill="rgb(0, 0, 0)" stroke="rgb(66, 66, 66)" stroke-width="1px" opacity="0.25"></line><line x1="0" y1="112.61090850830078" x2="278.58399963378906" y2="112.61090850830078" fill="rgb(0, 0, 0)" stroke="rgb(66, 66, 66)" stroke-width="1px" opacity="0.25"></line><line x1="0" y1="96.52363586425783" x2="278.58399963378906" y2="96.52363586425783" fill="rgb(0, 0, 0)" stroke="rgb(66, 66, 66)" stroke-width="1px" opacity="0.25"></line><line x1="0" y1="80.43636322021483" x2="278.58399963378906" y2="80.43636322021483" fill="rgb(0, 0, 0)" stroke="rgb(66, 66, 66)" stroke-width="1px" opacity="0.25"></line><line x1="0" y1="64.34909057617186" x2="278.58399963378906" y2="64.34909057617186" fill="rgb(0, 0, 0)" stroke="rgb(66, 66, 66)" stroke-width="1px" opacity="0.25"></line><line x1="0" y1="48.2618179321289" x2="278.58399963378906" y2="48.2618179321289" fill="rgb(0, 0, 0)" stroke="rgb(66, 66, 66)" stroke-width="1px" opacity="0.25"></line><line x1="0" y1="32.17454528808593" x2="278.58399963378906" y2="32.17454528808593" fill="rgb(0, 0, 0)" stroke="rgb(66, 66, 66)" stroke-width="1px" opacity="0.25"></line><line x1="0" y1="16.087272644042933" x2="278.58399963378906" y2="16.087272644042933" fill="rgb(0, 0, 0)" stroke="rgb(66, 66, 66)" stroke-width="1px" opacity="0.25"></line><line x1="0" y1="0" x2="278.58399963378906" y2="0" fill="rgb(0, 0, 0)" stroke="rgb(66, 66, 66)" stroke-width="1px" opacity="0.25"></line></g></g></g><g><g><line x1="0" y1="289.57090759277344" x2="278.58399963378906" y2="289.57090759277344" fill="rgb(0, 0, 0)" stroke="rgb(153, 153, 153)" stroke-width="1.5px"></line></g></g><g><g><line x1="34.82299995422363" y1="0" x2="34.82299995422363" y2="176.95999908447266" fill="rgb(0, 0, 0)" stroke="rgb(153, 153, 153)" stroke-width="1.5px"></line></g></g><g><g><g><g><g><path style="fill: none;" stroke="rgb(255, 112, 67)" stroke-width="2px" d="M38.305299949646,-117.54835368983187L41.78759994506836,5.4651212110408025L45.269899940490724,23.168840343696754L48.75219993591308,30.214594310373197L52.23449993133545,51.59457363662158L55.716799926757815,74.988387926008L59.199099922180174,110.90657594012958L62.68139991760254,129.0766732686815L66.1636999130249,125.295890161525L69.64599990844727,117.15015095649828L73.12829990386963,93.84953985091902L76.610599899292,64.52624487761032L80.09289989471435,112.29314203566412L83.57519989013672,48.46284849996658L87.05749988555908,87.11455050353459L90.53979988098145,102.45045246407041L94.02209987640381,105.693609531088L97.50439987182617,133.55486157771458L100.98669986724853,128.79414003796717L104.4689998626709,139.72951506691948L107.95129985809326,145.6346848087209L111.43359985351563,99.78866459879376L114.91589984893798,109.60647743696664L118.39819984436035,122.7050554124194L121.88049983978271,145.8413902382225L125.36279983520508,147.17472269873522L128.84509983062745,168.1787345749481L132.3273998260498,145.75363556952095L135.80969982147215,143.54185331459595L139.29199981689453,138.264707605201L142.77429981231688,99.19525403493597L146.25659980773926,100.36872955998614L149.73889980316162,120.04231096276128L153.221199798584,88.1890224402511L156.70349979400635,121.58716674619704L160.1857997894287,73.24205773668183L163.66809978485108,98.45078661820074L167.15039978027343,122.83501369670684L170.6326997756958,118.66870505133217L174.11499977111816,133.73505670901238L177.59729976654052,126.38343088210246L181.0795997619629,119.19298020801503L184.56189975738525,136.49833263294826L188.04419975280763,133.0917636756207L191.52649974822998,-149.772354532061L195.00879974365233,-20.08890371919263L198.4910997390747,50.053182646561375L201.97339973449706,59.66815929888346L205.45569972991944,115.38279484701631L208.9379997253418,57.569805182815884L212.42029972076415,98.63211183111262L215.90259971618653,100.1731078074665L219.38489971160888,114.54188765032097L222.86719970703126,135.44747640180256L226.3494997024536,168.33432972378338L229.83179969787597,180.11103446808886L233.31409969329835,174.87533526357484L236.7963996887207,172.3381755321496L240.27869968414308,134.9121566218065L243.76099967956543,129.98188670437617L247.24329967498778,108.63097435177717L250.72559967041016,92.80916262293937L254.2078996658325,123.9113352501293L257.6901996612549,151.0744688531267L261.17249965667725,160.9447455389697" fill="none"></path></g></g></g></g><g opacity="0.2"><g><g><g><path style="fill: none;" stroke="rgb(255, 112, 67)" stroke-width="2px" d="M38.305299949646,-117.54835368983187L41.78759994506836,79.2732061515644L45.269899940490724,40.16441071104645L48.75219993591308,38.50040097518467L52.23449993133545,79.50827464497159L55.716799926757815,107.35045486137346L59.199099922180174,162.2701594913317L62.68139991760254,155.56884960664456L66.1636999130249,119.71996945777981L69.64599990844727,105.05467757406359L73.12829990386963,59.10995802035267L76.610599899292,20.700878493975324L80.09289989471435,183.78752056577605L83.57519989013672,-47.1575416136566L87.05749988555908,145.04666988411054L90.53979988098145,125.44348933863398L94.02209987640381,110.55697273623444L97.50439987182617,175.33966567877795L100.98669986724853,121.65378297635607L104.4689998626709,156.13157807375524L107.95129985809326,154.4921155678801L111.43359985351563,31.021142866726674L114.91589984893798,124.33300285863788L118.39819984436035,142.3527672104549L121.88049983978271,180.5457280337614L125.36279983520508,149.1747157034504L128.84509983062745,199.68469864575778L132.3273998260498,112.1160214891895L135.80969982147215,140.22418196957256L139.29199981689453,130.34899195770686L142.77429981231688,40.59108663539428L146.25659980773926,102.12894261407907L149.73889980316162,149.55268071829346L153.221199798584,40.409091938071455L156.70349979400635,171.68438176977156L160.1857997894287,0.7243954690388675L163.66809978485108,136.26387955045882L167.15039978027343,159.4113540881076L170.6326997756958,112.41924210647562L174.11499977111816,156.33458414518284L177.59729976654052,115.35599215647858L181.0795997619629,108.40730420553452L184.56189975738525,162.45636125785632L188.04419975280763,127.98191024110474L191.52649974822998,-574.0685317700774L195.00879974365233,174.4362724798898L198.4910997390747,155.26631218863056L201.97339973449706,74.09062427682692L205.45569972991944,198.95474816733918L208.9379997253418,-29.149679312316508L212.42029972076415,160.2255718030599L215.90259971618653,102.48460177198602L219.38489971160888,136.09505741453995L222.86719970703126,166.80585952897013L226.3494997024536,217.66460970670292L229.83179969787597,197.77609158453598L233.31409969329835,167.02178645680672L236.7963996887207,168.5324359350127L240.27869968414308,78.77312825629951L243.76099967956543,122.58648182823119L247.24329967498778,76.60460582288033L250.72559967041016,69.07644502968333L254.2078996658325,170.56459419091334L257.6901996612549,191.81916925762235L261.17249965667725,175.75016056773418" fill="none"></path></g></g></g></g></g></g><g transform="translate(51, 176)" clip-path="url(#clip_1)"><clipPath id="clip_1"><rect width="278" height="23"></rect></clipPath><g><g><line x1="0" y1="0" x2="0" y2="5" style="visibility: inherit;" fill="rgb(0, 0, 0)" stroke="rgb(204, 204, 204)" stroke-width="1px"></line><line x1="34.82299995422363" y1="0" x2="34.82299995422363" y2="5" style="visibility: inherit;" fill="rgb(0, 0, 0)" stroke="rgb(204, 204, 204)" stroke-width="1px"></line><line x1="69.64599990844727" y1="0" x2="69.64599990844727" y2="5" style="visibility: inherit;" fill="rgb(0, 0, 0)" stroke="rgb(204, 204, 204)" stroke-width="1px"></line><line x1="104.4689998626709" y1="0" x2="104.4689998626709" y2="5" style="visibility: inherit;" fill="rgb(0, 0, 0)" stroke="rgb(204, 204, 204)" stroke-width="1px"></line><line x1="139.29199981689453" y1="0" x2="139.29199981689453" y2="5" style="visibility: inherit;" fill="rgb(0, 0, 0)" stroke="rgb(204, 204, 204)" stroke-width="1px"></line><line x1="174.11499977111816" y1="0" x2="174.11499977111816" y2="5" style="visibility: inherit;" fill="rgb(0, 0, 0)" stroke="rgb(204, 204, 204)" stroke-width="1px"></line><line x1="208.9379997253418" y1="0" x2="208.9379997253418" y2="5" style="visibility: inherit;" fill="rgb(0, 0, 0)" stroke="rgb(204, 204, 204)" stroke-width="1px"></line><line x1="243.76099967956543" y1="0" x2="243.76099967956543" y2="5" style="visibility: inherit;" fill="rgb(0, 0, 0)" stroke="rgb(204, 204, 204)" stroke-width="1px"></line><line x1="278.58399963378906" y1="0" x2="278.58399963378906" y2="5" style="visibility: inherit;" fill="rgb(0, 0, 0)" stroke="rgb(204, 204, 204)" stroke-width="1px"></line></g><g transform="translate(0, 8)"><text style="text-anchor: middle; visibility: hidden; font-family: Roboto, sans-serif; font-size: 12px; font-weight: 200;" x="0" y="0" dx="0em" dy="0.95em" fill="rgb(33, 33, 33)" stroke="none" stroke-width="1px">-1k</text><text style="text-anchor: middle; visibility: inherit; font-family: Roboto, sans-serif; font-size: 12px; font-weight: 200;" x="34.82299995422363" y="0" dx="0em" dy="0.95em" fill="rgb(33, 33, 33)" stroke="none" stroke-width="1px">0</text><text style="text-anchor: middle; visibility: inherit; font-family: Roboto, sans-serif; font-size: 12px; font-weight: 200;" x="69.64599990844727" y="0" dx="0em" dy="0.95em" fill="rgb(33, 33, 33)" stroke="none" stroke-width="1px">1k</text><text style="text-anchor: middle; visibility: inherit; font-family: Roboto, sans-serif; font-size: 12px; font-weight: 200;" x="104.4689998626709" y="0" dx="0em" dy="0.95em" fill="rgb(33, 33, 33)" stroke="none" stroke-width="1px">2k</text><text style="text-anchor: middle; visibility: inherit; font-family: Roboto, sans-serif; font-size: 12px; font-weight: 200;" x="139.29199981689453" y="0" dx="0em" dy="0.95em" fill="rgb(33, 33, 33)" stroke="none" stroke-width="1px">3k</text><text style="text-anchor: middle; visibility: inherit; font-family: Roboto, sans-serif; font-size: 12px; font-weight: 200;" x="174.11499977111816" y="0" dx="0em" dy="0.95em" fill="rgb(33, 33, 33)" stroke="none" stroke-width="1px">4k</text><text style="text-anchor: middle; visibility: inherit; font-family: Roboto, sans-serif; font-size: 12px; font-weight: 200;" x="208.9379997253418" y="0" dx="0em" dy="0.95em" fill="rgb(33, 33, 33)" stroke="none" stroke-width="1px">5k</text><text style="text-anchor: middle; visibility: inherit; font-family: Roboto, sans-serif; font-size: 12px; font-weight: 200;" x="243.76099967956543" y="0" dx="0em" dy="0.95em" fill="rgb(33, 33, 33)" stroke="none" stroke-width="1px">6k</text><text style="text-anchor: middle; visibility: hidden; font-family: Roboto, sans-serif; font-size: 12px; font-weight: 200;" x="278.58399963378906" y="0" dx="0em" dy="0.95em" fill="rgb(33, 33, 33)" stroke="none" stroke-width="1px">7k</text></g><line x1="0" y1="0" x2="278.58399963378906" y2="0" fill="rgb(0, 0, 0)" stroke="rgb(204, 204, 204)" stroke-width="1px"></line></g></g></g></g></svg>