<svg viewBox="0 0 330 200" xmlns="http://www.w3.org/2000/svg"><g><g><g><g><g><line x1="61.77000045776367" y1="176.95999908447266" x2="56.77000045776367" y2="176.95999908447266" style="visibility: inherit;" fill="rgb(0, 0, 0)" stroke="rgb(204, 204, 204)" stroke-width="1px"></line><line x1="61.77000045776367" y1="157.29777696397568" x2="56.77000045776367" y2="157.29777696397568" style="visibility: inherit;" fill="rgb(0, 0, 0)" stroke="rgb(204, 204, 204)" stroke-width="1px"></line><line x1="61.77000045776367" y1="137.63555484347873" x2="56.77000045776367" y2="137.63555484347873" style="visibility: inherit;" fill="rgb(0, 0, 0)" stroke="rgb(204, 204, 204)" stroke-width="1px"></line><line x1="61.77000045776367" y1="117.97333272298178" x2="56.77000045776367" y2="117.97333272298178" style="visibility: inherit;" fill="rgb(0, 0, 0)" stroke="rgb(204, 204, 204)" stroke-width="1px"></line><line x1="61.77000045776367" y1="98.31111060248482" x2="56.77000045776367" y2="98.31111060248482" style="visibility: inherit;" fill="rgb(0, 0, 0)" stroke="rgb(204, 204, 204)" stroke-width="1px"></line><line x1="61.77000045776367" y1="78.64888848198784" x2="56.77000045776367" y2="78.64888848198784" style="visibility: inherit;" fill="rgb(0, 0, 0)" stroke="rgb(204, 204, 204)" stroke-width="1px"></line><line x1="61.77000045776367" y1="58.98666636149089" x2="56.77000045776367" y2="58.98666636149089" style="visibility: inherit;" fill="rgb(0, 0, 0)" stroke="rgb(204, 204, 204)" stroke-width="1px"></line><line x1="61.77000045776367" y1="39.32444424099392" x2="56.77000045776367" y2="39.32444424099392" style="visibility: inherit;" fill="rgb(0, 0, 0)" stroke="rgb(204, 204, 204)" stroke-width="1px"></line><line x1="61.77000045776367" y1="19.66222212049697" x2="56.77000045776367" y2="19.66222212049697" style="visibility: inherit;" fill="rgb(0, 0, 0)" stroke="rgb(204, 204, 204)" stroke-width="1px"></line><line x1="61.77000045776367" y1="0" x2="56.77000045776367" y2="0" style="visibility: inherit;" fill="rgb(0, 0, 0)" stroke="rgb(204, 204, 204)" stroke-width="1px"></line></g><g transform="translate(51.77000045776367, 0)"><text style="text-anchor: end; visibility: hidden; font-family: Roboto, sans-serif; font-size: 12px; font-weight: 200;" x="0" y="176.95999908447266" dx="0em" dy="0.3em" fill="rgb(33, 33, 33)" stroke="none" stroke-width="1px">0.128</text><text style="text-anchor: end; visibility: inherit; font-family: Roboto, sans-serif; font-size: 12px; font-weight: 200;" x="0" y="157.29777696397568" dx="0em" dy="0.3em" fill="rgb(33, 33, 33)" stroke="none" stroke-width="1px">0.129</text><text style="text-anchor: end; visibility: hidden; font-family: Roboto, sans-serif; font-size: 12px; font-weight: 200;" x="0" y="137.63555484347873" dx="0em" dy="0.3em" fill="rgb(33, 33, 33)" stroke="none" stroke-width="1px">0.13</text><text style="text-anchor: end; visibility: inherit; font-family: Roboto, sans-serif; font-size: 12px; font-weight: 200;" x="0" y="117.97333272298178" dx="0em" dy="0.3em" fill="rgb(33, 33, 33)" stroke="none" stroke-width="1px">0.131</text><text style="text-anchor: end; visibility: hidden; font-family: Roboto, sans-serif; font-size: 12px; font-weight: 200;" x="0" y="98.31111060248482" dx="0em" dy="0.3em" fill="rgb(33, 33, 33)" stroke="none" stroke-width="1px">0.132</text><text style="text-anchor: end; visibility: inherit; font-family: Roboto, sans-serif; font-size: 12px; font-weight: 200;" x="0" y="78.64888848198784" dx="0em" dy="0.3em" fill="rgb(33, 33, 33)" stroke="none" stroke-width="1px">0.133</text><text style="text-anchor: end; visibility: hidden; font-family: Roboto, sans-serif; font-size: 12px; font-weight: 200;" x="0" y="58.98666636149089" dx="0em" dy="0.3em" fill="rgb(33, 33, 33)" stroke="none" stroke-width="1px">0.134</text><text style="text-anchor: end; visibility: inherit; font-family: Roboto, sans-serif; font-size: 12px; font-weight: 200;" x="0" y="39.32444424099392" dx="0em" dy="0.3em" fill="rgb(33, 33, 33)" stroke="none" stroke-width="1px">0.135</text><text style="text-anchor: end; visibility: hidden; font-family: Roboto, sans-serif; font-size: 12px; font-weight: 200;" x="0" y="19.66222212049697" dx="0em" dy="0.3em" fill="rgb(33, 33, 33)" stroke="none" stroke-width="1px">0.136</text><text style="text-anchor: end; visibility: hidden; font-family: Roboto, sans-serif; font-size: 12px; font-weight: 200;" x="0" y="0" dx="0em" dy="0.3em" fill="rgb(33, 33, 33)" stroke="none" stroke-width="1px">0.137</text></g><line x1="61.77000045776367" y1="0" x2="61.77000045776367" y2="176.95999908447266" fill="rgb(0, 0, 0)" stroke="rgb(204, 204, 204)" stroke-width="1px"></line></g></g><g transform="translate(61, 0)" clip-path="url(#clip_0)"><clipPath id="clip_0"><rect width="268" height="176"></rect></clipPath><g><g><g><line x1="0" y1="0" x2="0" y2="176.95999908447266" fill="rgb(0, 0, 0)" stroke="rgb(66, 66, 66)" stroke-width="1px" opacity="0.25"></line><line x1="33.52874994277954" y1="0" x2="33.52874994277954" y2="176.95999908447266" fill="rgb(0, 0, 0)" stroke="rgb(66, 66, 66)" stroke-width="1px" opacity="0.25"></line><line x1="67.05749988555908" y1="0" x2="67.05749988555908" y2="176.95999908447266" fill="rgb(0, 0, 0)" stroke="rgb(66, 66, 66)" stroke-width="1px" opacity="0.25"></line><line x1="100.58624982833862" y1="0" x2="100.58624982833862" y2="176.95999908447266" fill="rgb(0, 0, 0)" stroke="rgb(66, 66, 66)" stroke-width="1px" opacity="0.25"></line><line x1="134.11499977111816" y1="0" x2="134.11499977111816" y2="176.95999908447266" fill="rgb(0, 0, 0)" stroke="rgb(66, 66, 66)" stroke-width="1px" opacity="0.25"></line><line x1="167.6437497138977" y1="0" x2="167.6437497138977" y2="176.95999908447266" fill="rgb(0, 0, 0)" stroke="rgb(66, 66, 66)" stroke-width="1px" opacity="0.25"></line><line x1="201.17249965667725" y1="0" x2="201.17249965667725" y2="176.95999908447266" fill="rgb(0, 0, 0)" stroke="rgb(66, 66, 66)" stroke-width="1px" opacity="0.25"></line><line x1="234.7012495994568" y1="0" x2="234.7012495994568" y2="176.95999908447266" fill="rgb(0, 0, 0)" stroke="rgb(66, 66, 66)" stroke-width="1px" opacity="0.25"></line><line x1="268.2299995422363" y1="0" x2="268.2299995422363" y2="176.95999908447266" fill="rgb(0, 0, 0)" stroke="rgb(66, 66, 66)" stroke-width="1px" opacity="0.25"></line></g><g><line x1="0" y1="176.95999908447266" x2="268.2299995422363" y2="176.95999908447266" fill="rgb(0, 0, 0)" stroke="rgb(66, 66, 66)" stroke-width="1px" opacity="0.25"></line><line x1="0" y1="157.29777696397568" x2="268.2299995422363" y2="157.29777696397568" fill="rgb(0, 0, 0)" stroke="rgb(66, 66, 66)" stroke-width="1px" opacity="0.25"></line><line x1="0" y1="137.63555484347873" x2="268.2299995422363" y2="137.63555484347873" fill="rgb(0, 0, 0)" stroke="rgb(66, 66, 66)" stroke-width="1px" opacity="0.25"></line><line x1="0" y1="117.97333272298178" x2="268.2299995422363" y2="117.97333272298178" fill="rgb(0, 0, 0)" stroke="rgb(66, 66, 66)" stroke-width="1px" opacity="0.25"></line><line x1="0" y1="98.31111060248482" x2="268.2299995422363" y2="98.31111060248482" fill="rgb(0, 0, 0)" stroke="rgb(66, 66, 66)" stroke-width="1px" opacity="0.25"></line><line x1="0" y1="78.64888848198784" x2="268.2299995422363" y2="78.64888848198784" fill="rgb(0, 0, 0)" stroke="rgb(66, 66, 66)" stroke-width="1px" opacity="0.25"></line><line x1="0" y1="58.98666636149089" x2="268.2299995422363" y2="58.98666636149089" fill="rgb(0, 0, 0)" stroke="rgb(66, 66, 66)" stroke-width="1px" opacity="0.25"></line><line x1="0" y1="39.32444424099392" x2="268.2299995422363" y2="39.32444424099392" fill="rgb(0, 0, 0)" stroke="rgb(66, 66, 66)" stroke-width="1px" opacity="0.25"></line><line x1="0" y1="19.66222212049697" x2="268.2299995422363" y2="19.66222212049697" fill="rgb(0, 0, 0)" stroke="rgb(66, 66, 66)" stroke-width="1px" opacity="0.25"></line><line x1="0" y1="0" x2="268.2299995422363" y2="0" fill="rgb(0, 0, 0)" stroke="rgb(66, 66, 66)" stroke-width="1px" opacity="0.25"></line></g></g></g><g><g><line x1="0" y1="2693.7244305080817" x2="268.2299995422363" y2="2693.7244305080817" fill="rgb(0, 0, 0)" stroke="rgb(153, 153, 153)" stroke-width="1.5px"></line></g></g><g><g><line x1="33.52874994277954" y1="0" x2="33.52874994277954" y2="176.95999908447266" fill="rgb(0, 0, 0)" stroke="rgb(153, 153, 153)" stroke-width="1.5px"></line></g></g><g><g><g><g><g><path style="fill: none;" stroke="rgb(255, 112, 67)" stroke-width="2px" d="M36.881624937057495,159.27617865068711L40.23449993133545,161.31648735404426L43.5873749256134,163.71216594889393L46.94024991989136,166.33730625071289L50.29312491416931,168.61679252331191L53.645999908447266,170.1913820153531L56.99887490272522,170.51987429541978L60.351749897003174,170.60799677758374L63.70462489128113,169.71066981971114L67.05749988555908,168.42147478268882L70.41037487983704,164.17533190737043L73.76324987411499,161.1096991298604L77.11612486839294,159.01267239663747L80.4689998626709,158.60818982305352L83.82187485694885,157.28242026447927L87.1747498512268,153.97631138001972L90.52762484550476,152.54509513925342L93.88049983978271,149.97634027616758L97.23337483406067,149.38917051390968L100.58624982833862,148.8889848263939L103.93912482261658,148.47543692423537L107.29199981689453,147.37341286512225L110.64487481117249,145.8524512395945L113.99774980545044,143.2727612865229L117.3506247997284,139.29535844156888L120.70349979400635,132.40941117058517L124.0563747882843,128.6229928295875L127.40924978256226,126.33719797545565L130.7621247768402,123.15316832096487L134.11499977111816,121.00859366629253L137.46787476539612,116.32832203129065L140.82074975967407,111.44473573461697L144.17362475395203,108.78940878337356L147.52649974822998,102.2947252282392L150.87937474250793,95.87421701294251L154.2322497367859,93.33110842137424L157.58512473106384,92.97860940718772L160.9379997253418,93.2634349623862L164.29087471961975,88.72879463194595L167.6437497138977,80.50929241145396L170.99662470817566,75.46637210440427L174.3494997024536,73.43198068844261L177.70237469673157,68.18062461860832L181.05524969100952,65.21392585678963L184.40812468528748,64.7712298879936L187.76099967956543,65.85805387562463L191.11387467384338,68.91348615830817L194.46674966812134,68.8986821743956L197.8196246623993,70.20626218807668L201.17249965667725,52.5336158573433L204.5253746509552,39.0048164855731L207.87824964523315,30.75135513786064L211.2311246395111,25.677160121736797L214.58399963378906,21.71535020401235L217.93687462806702,20.667149430900324L221.28974962234497,22.32671480012366L224.64262461662292,25.874044821987876L227.99549961090088,29.388754041109376L231.34837460517883,33.1007033351084L234.7012495994568,37.299226432191865L238.05412459373474,40.365411108737675L241.4069995880127,43.06780149767267L244.75987458229065,42.963759369043025L248.1127495765686,42.87590256496458L251.46562457084656,43.16059569885772" fill="none"></path></g></g></g></g><g opacity="0.2"><g><g><g><path style="fill: none;" stroke="rgb(255, 112, 67)" stroke-width="2px" d="M36.881624937057495,159.27617865068711L40.23449993133545,162.54067257605854L43.5873749256134,166.01201739995017L46.94024991989136,169.4244712456512L50.29312491416931,171.5928898008185L53.645999908447266,172.36960613506366L56.99887490272522,170.9896235117914L60.351749897003174,170.7364802025542L63.70462489128113,168.38728685363768L67.05749988555908,166.5071704006572L70.41037487983704,157.84462979775543L73.76324987411499,156.52793300179246L77.11612486839294,155.8739794529297L80.4689998626709,158.0022583861462L83.82187485694885,155.29532431896735L87.1747498512268,149.0194797774617L90.52762484550476,150.39887642085148L93.88049983978271,146.12386018811998L97.23337483406067,148.50850531992737L100.58624982833862,148.13875201407393L103.93912482261658,147.85513775094708L107.29199981689453,145.72041303902319L110.64487481117249,143.5710388300369L113.99774980545044,139.40325691580173L117.3506247997284,133.32928244381512L120.70349979400635,122.08051962952817L124.0563747882843,122.94337500649989L127.40924978256226,122.90850920349152L130.7621247768402,118.3771267721691L134.11499977111816,117.79173286955807L137.46787476539612,109.30791613081684L140.82074975967407,104.11935726127793L144.17362475395203,104.80641867350158L147.52649974822998,92.55270036073824L150.87937474250793,86.24345496593048L154.2322497367859,89.51644559959807L157.58512473106384,92.44986089136063L160.9379997253418,93.69067329254067L164.29087471961975,81.92683416154193L167.6437497138977,68.18003910818511L170.99662470817566,67.90199165394192L174.3494997024536,70.38039356694829L177.70237469673157,60.303590517648395L181.05524969100952,60.76387771534705L184.40812468528748,64.10718593491386L187.76099967956543,67.4882898569015L191.11387467384338,73.49663458204884L194.46674966812134,68.87647619852866L197.8196246623993,72.16763220855353L201.17249965667725,26.024646361600976L204.5253746509552,18.7116174280818L207.87824964523315,18.37116311635306L211.2311246395111,18.065867597573938L214.58399963378906,15.772635327435538L217.93687462806702,19.09484827123257L221.28974962234497,24.816062853958094L224.64262461662292,31.195039854782586L227.99549961090088,34.66081786979054L231.34837460517883,38.668627276105L234.7012495994568,43.597011077816774L238.05412459373474,44.96468812355667L241.4069995880127,47.12138708107408L244.75987458229065,42.807696176098005L248.1127495765686,42.744117358847454L251.46562457084656,43.587635399696886" fill="none"></path></g></g></g></g></g></g><g transform="translate(61, 176)" clip-path="url(#clip_1)"><clipPath id="clip_1"><rect width="268" height="23"></rect></clipPath><g><g><line x1="0" y1="0" x2="0" y2="5" style="visibility: inherit;" fill="rgb(0, 0, 0)" stroke="rgb(204, 204, 204)" stroke-width="1px"></line><line x1="33.52874994277954" y1="0" x2="33.52874994277954" y2="5" style="visibility: inherit;" fill="rgb(0, 0, 0)" stroke="rgb(204, 204, 204)" stroke-width="1px"></line><line x1="67.05749988555908" y1="0" x2="67.05749988555908" y2="5" style="visibility: inherit;" fill="rgb(0, 0, 0)" stroke="rgb(204, 204, 204)" stroke-width="1px"></line><line x1="100.58624982833862" y1="0" x2="100.58624982833862" y2="5" style="visibility: inherit;" fill="rgb(0, 0, 0)" stroke="rgb(204, 204, 204)" stroke-width="1px"></line><line x1="134.11499977111816" y1="0" x2="134.11499977111816" y2="5" style="visibility: inherit;" fill="rgb(0, 0, 0)" stroke="rgb(204, 204, 204)" stroke-width="1px"></line><line x1="167.6437497138977" y1="0" x2="167.6437497138977" y2="5" style="visibility: inherit;" fill="rgb(0, 0, 0)" stroke="rgb(204, 204, 204)" stroke-width="1px"></line><line x1="201.17249965667725" y1="0" x2="201.17249965667725" y2="5" style="visibility: inherit;" fill="rgb(0, 0, 0)" stroke="rgb(204, 204, 204)" stroke-width="1px"></line><line x1="234.7012495994568" y1="0" x2="234.7012495994568" y2="5" style="visibility: inherit;" fill="rgb(0, 0, 0)" stroke="rgb(204, 204, 204)" stroke-width="1px"></line><line x1="268.2299995422363" y1="0" x2="268.2299995422363" y2="5" style="visibility: inherit;" fill="rgb(0, 0, 0)" stroke="rgb(204, 204, 204)" stroke-width="1px"></line></g><g transform="translate(0, 8)"><text style="text-anchor: middle; visibility: hidden; font-family: Roboto, sans-serif; font-size: 12px; font-weight: 200;" x="0" y="0" dx="0em" dy="0.95em" fill="rgb(33, 33, 33)" stroke="none" stroke-width="1px">-1k</text><text style="text-anchor: middle; visibility: inherit; font-family: Roboto, sans-serif; font-size: 12px; font-weight: 200;" x="33.52874994277954" y="0" dx="0em" dy="0.95em" fill="rgb(33, 33, 33)" stroke="none" stroke-width="1px">0</text><text style="text-anchor: middle; visibility: inherit; font-family: Roboto, sans-serif; font-size: 12px; font-weight: 200;" x="67.05749988555908" y="0" dx="0em" dy="0.95em" fill="rgb(33, 33, 33)" stroke="none" stroke-width="1px">1k</text><text style="text-anchor: middle; visibility: inherit; font-family: Roboto, sans-serif; font-size: 12px; font-weight: 200;" x="100.58624982833862" y="0" dx="0em" dy="0.95em" fill="rgb(33, 33, 33)" stroke="none" stroke-width="1px">2k</text><text style="text-anchor: middle; visibility: inherit; font-family: Roboto, sans-serif; font-size: 12px; font-weight: 200;" x="134.11499977111816" y="0" dx="0em" dy="0.95em" fill="rgb(33, 33, 33)" stroke="none" stroke-width="1px">3k</text><text style="text-anchor: middle; visibility: inherit; font-family: Roboto, sans-serif; font-size: 12px; font-weight: 200;" x="167.6437497138977" y="0" dx="0em" dy="0.95em" fill="rgb(33, 33, 33)" stroke="none" stroke-width="1px">4k</text><text style="text-anchor: middle; visibility: inherit; font-family: Roboto, sans-serif; font-size: 12px; font-weight: 200;" x="201.17249965667725" y="0" dx="0em" dy="0.95em" fill="rgb(33, 33, 33)" stroke="none" stroke-width="1px">5k</text><text style="text-anchor: middle; visibility: inherit; font-family: Roboto, sans-serif; font-size: 12px; font-weight: 200;" x="234.7012495994568" y="0" dx="0em" dy="0.95em" fill="rgb(33, 33, 33)" stroke="none" stroke-width="1px">6k</text><text style="text-anchor: middle; visibility: hidden; font-family: Roboto, sans-serif; font-size: 12px; font-weight: 200;" x="268.2299995422363" y="0" dx="0em" dy="0.95em" fill="rgb(33, 33, 33)" stroke="none" stroke-width="1px">7k</text></g><line x1="0" y1="0" x2="268.2299995422363" y2="0" fill="rgb(0, 0, 0)" stroke="rgb(204, 204, 204)" stroke-width="1px"></line></g></g></g></g></svg>