<svg viewBox="0 0 330 200" xmlns="http://www.w3.org/2000/svg"><g><g><g><g><g><line x1="61.91500186920166" y1="176.89999961853027" x2="56.91500186920166" y2="176.89999961853027" style="visibility: inherit;" fill="rgb(0, 0, 0)" stroke="rgb(204, 204, 204)" stroke-width="1px"></line><line x1="61.91500186920166" y1="151.6285711015974" x2="56.91500186920166" y2="151.6285711015974" style="visibility: inherit;" fill="rgb(0, 0, 0)" stroke="rgb(204, 204, 204)" stroke-width="1px"></line><line x1="61.91500186920166" y1="126.3571425846645" x2="56.91500186920166" y2="126.3571425846645" style="visibility: inherit;" fill="rgb(0, 0, 0)" stroke="rgb(204, 204, 204)" stroke-width="1px"></line><line x1="61.91500186920166" y1="101.0857140677316" x2="56.91500186920166" y2="101.0857140677316" style="visibility: inherit;" fill="rgb(0, 0, 0)" stroke="rgb(204, 204, 204)" stroke-width="1px"></line><line x1="61.91500186920166" y1="75.81428555079867" x2="56.91500186920166" y2="75.81428555079867" style="visibility: inherit;" fill="rgb(0, 0, 0)" stroke="rgb(204, 204, 204)" stroke-width="1px"></line><line x1="61.91500186920166" y1="50.54285703386583" x2="56.91500186920166" y2="50.54285703386583" style="visibility: inherit;" fill="rgb(0, 0, 0)" stroke="rgb(204, 204, 204)" stroke-width="1px"></line><line x1="61.91500186920166" y1="25.271428516932925" x2="56.91500186920166" y2="25.271428516932925" style="visibility: inherit;" fill="rgb(0, 0, 0)" stroke="rgb(204, 204, 204)" stroke-width="1px"></line><line x1="61.91500186920166" y1="0" x2="56.91500186920166" y2="0" style="visibility: inherit;" fill="rgb(0, 0, 0)" stroke="rgb(204, 204, 204)" stroke-width="1px"></line></g><g transform="translate(51.91500186920166, 0)"><text style="text-anchor: end; visibility: hidden; font-family: Roboto, sans-serif; font-size: 12px; font-weight: 200;" x="0" y="176.89999961853027" dx="0em" dy="0.3em" fill="rgb(33, 33, 33)" stroke="none" stroke-width="1px">0.05</text><text style="text-anchor: end; visibility: inherit; font-family: Roboto, sans-serif; font-size: 12px; font-weight: 200;" x="0" y="151.6285711015974" dx="0em" dy="0.3em" fill="rgb(33, 33, 33)" stroke="none" stroke-width="1px">0.055</text><text style="text-anchor: end; visibility: inherit; font-family: Roboto, sans-serif; font-size: 12px; font-weight: 200;" x="0" y="126.3571425846645" dx="0em" dy="0.3em" fill="rgb(33, 33, 33)" stroke="none" stroke-width="1px">0.06</text><text style="text-anchor: end; visibility: inherit; font-family: Roboto, sans-serif; font-size: 12px; font-weight: 200;" x="0" y="101.0857140677316" dx="0em" dy="0.3em" fill="rgb(33, 33, 33)" stroke="none" stroke-width="1px">0.065</text><text style="text-anchor: end; visibility: inherit; font-family: Roboto, sans-serif; font-size: 12px; font-weight: 200;" x="0" y="75.81428555079867" dx="0em" dy="0.3em" fill="rgb(33, 33, 33)" stroke="none" stroke-width="1px">0.07</text><text style="text-anchor: end; visibility: inherit; font-family: Roboto, sans-serif; font-size: 12px; font-weight: 200;" x="0" y="50.54285703386583" dx="0em" dy="0.3em" fill="rgb(33, 33, 33)" stroke="none" stroke-width="1px">0.075</text><text style="text-anchor: end; visibility: inherit; font-family: Roboto, sans-serif; font-size: 12px; font-weight: 200;" x="0" y="25.271428516932925" dx="0em" dy="0.3em" fill="rgb(33, 33, 33)" stroke="none" stroke-width="1px">0.08</text><text style="text-anchor: end; visibility: hidden; font-family: Roboto, sans-serif; font-size: 12px; font-weight: 200;" x="0" y="0" dx="0em" dy="0.3em" fill="rgb(33, 33, 33)" stroke="none" stroke-width="1px">0.085</text></g><line x1="61.91500186920166" y1="0" x2="61.91500186920166" y2="176.89999961853027" fill="rgb(0, 0, 0)" stroke="rgb(204, 204, 204)" stroke-width="1px"></line></g></g><g transform="translate(61, 0)" clip-path="url(#clip_0)"><clipPath id="clip_0"><rect width="268" height="176"></rect></clipPath><g><g><g><line x1="0" y1="0" x2="0" y2="176.89999961853027" fill="rgb(0, 0, 0)" stroke="rgb(66, 66, 66)" stroke-width="1px" opacity="0.25"></line><line x1="22.34041651089986" y1="0" x2="22.34041651089986" y2="176.89999961853027" fill="rgb(0, 0, 0)" stroke="rgb(66, 66, 66)" stroke-width="1px" opacity="0.25"></line><line x1="44.68083302179972" y1="0" x2="44.68083302179972" y2="176.89999961853027" fill="rgb(0, 0, 0)" stroke="rgb(66, 66, 66)" stroke-width="1px" opacity="0.25"></line><line x1="67.02124953269958" y1="0" x2="67.02124953269958" y2="176.89999961853027" fill="rgb(0, 0, 0)" stroke="rgb(66, 66, 66)" stroke-width="1px" opacity="0.25"></line><line x1="89.36166604359944" y1="0" x2="89.36166604359944" y2="176.89999961853027" fill="rgb(0, 0, 0)" stroke="rgb(66, 66, 66)" stroke-width="1px" opacity="0.25"></line><line x1="111.70208255449931" y1="0" x2="111.70208255449931" y2="176.89999961853027" fill="rgb(0, 0, 0)" stroke="rgb(66, 66, 66)" stroke-width="1px" opacity="0.25"></line><line x1="134.04249906539917" y1="0" x2="134.04249906539917" y2="176.89999961853027" fill="rgb(0, 0, 0)" stroke="rgb(66, 66, 66)" stroke-width="1px" opacity="0.25"></line><line x1="156.38291557629904" y1="0" x2="156.38291557629904" y2="176.89999961853027" fill="rgb(0, 0, 0)" stroke="rgb(66, 66, 66)" stroke-width="1px" opacity="0.25"></line><line x1="178.72333208719888" y1="0" x2="178.72333208719888" y2="176.89999961853027" fill="rgb(0, 0, 0)" stroke="rgb(66, 66, 66)" stroke-width="1px" opacity="0.25"></line><line x1="201.06374859809875" y1="0" x2="201.06374859809875" y2="176.89999961853027" fill="rgb(0, 0, 0)" stroke="rgb(66, 66, 66)" stroke-width="1px" opacity="0.25"></line><line x1="223.40416510899863" y1="0" x2="223.40416510899863" y2="176.89999961853027" fill="rgb(0, 0, 0)" stroke="rgb(66, 66, 66)" stroke-width="1px" opacity="0.25"></line><line x1="245.74458161989847" y1="0" x2="245.74458161989847" y2="176.89999961853027" fill="rgb(0, 0, 0)" stroke="rgb(66, 66, 66)" stroke-width="1px" opacity="0.25"></line><line x1="268.08499813079834" y1="0" x2="268.08499813079834" y2="176.89999961853027" fill="rgb(0, 0, 0)" stroke="rgb(66, 66, 66)" stroke-width="1px" opacity="0.25"></line></g><g><line x1="0" y1="176.89999961853027" x2="268.08499813079834" y2="176.89999961853027" fill="rgb(0, 0, 0)" stroke="rgb(66, 66, 66)" stroke-width="1px" opacity="0.25"></line><line x1="0" y1="151.6285711015974" x2="268.08499813079834" y2="151.6285711015974" fill="rgb(0, 0, 0)" stroke="rgb(66, 66, 66)" stroke-width="1px" opacity="0.25"></line><line x1="0" y1="126.3571425846645" x2="268.08499813079834" y2="126.3571425846645" fill="rgb(0, 0, 0)" stroke="rgb(66, 66, 66)" stroke-width="1px" opacity="0.25"></line><line x1="0" y1="101.0857140677316" x2="268.08499813079834" y2="101.0857140677316" fill="rgb(0, 0, 0)" stroke="rgb(66, 66, 66)" stroke-width="1px" opacity="0.25"></line><line x1="0" y1="75.81428555079867" x2="268.08499813079834" y2="75.81428555079867" fill="rgb(0, 0, 0)" stroke="rgb(66, 66, 66)" stroke-width="1px" opacity="0.25"></line><line x1="0" y1="50.54285703386583" x2="268.08499813079834" y2="50.54285703386583" fill="rgb(0, 0, 0)" stroke="rgb(66, 66, 66)" stroke-width="1px" opacity="0.25"></line><line x1="0" y1="25.271428516932925" x2="268.08499813079834" y2="25.271428516932925" fill="rgb(0, 0, 0)" stroke="rgb(66, 66, 66)" stroke-width="1px" opacity="0.25"></line><line x1="0" y1="0" x2="268.08499813079834" y2="0" fill="rgb(0, 0, 0)" stroke="rgb(66, 66, 66)" stroke-width="1px" opacity="0.25"></line></g></g></g><g><g><line x1="0" y1="429.6142847878593" x2="268.08499813079834" y2="429.6142847878593" fill="rgb(0, 0, 0)" stroke="rgb(153, 153, 153)" stroke-width="1.5px"></line></g></g><g><g><line x1="22.34041651089986" y1="0" x2="22.34041651089986" y2="176.89999961853027" fill="rgb(0, 0, 0)" stroke="rgb(153, 153, 153)" stroke-width="1.5px"></line></g></g><g><g><g><g><g><path style="fill: none;" stroke="rgb(255, 112, 67)" stroke-width="2px" d="M33.51062476634979,189.12446673435213L35.74466641743978,165.61692619249328L37.97870806852976,141.1413980326876L40.21274971961975,115.9352747643317L42.44679137070973,90.1929146389851L44.68083302179972,64.06634643816038L46.91487467288971,48.49354213319288L49.14891632397969,39.19110875090453L51.38295797506969,33.63093580525152L53.61699962615967,30.311121058227993L55.85104127724966,28.33586252276662L58.085082928339645,27.169593536564044L60.31912457942963,26.491646671797394L62.553166230519615,26.10986864469067L64.7872078816096,25.90908645211801L67.02124953269958,25.820182991169588L69.25529118378958,25.801714478040616L71.48933283487956,25.82883376127472L73.72337448596954,25.886603844512635L75.95741613705952,25.96609313978492L78.19145778814952,26.061912722620477L80.4254994392395,26.170844343569968L82.6595410903295,26.29095705904809L84.89358274141946,26.421077236096686L87.12762439250946,26.560500689579545L89.36166604359944,26.708804903870202L91.59570769468944,26.86573636625903L93.82974934577942,27.031142966823065L96.0637909968694,27.20491837513115L98.29783264795938,27.387013854869L100.53187429904938,27.577370037708363L102.76591595013937,27.775981428128123L104.99995760122935,27.982814602658983L107.23399925231934,28.197849507051394L109.46804090340932,28.421089171594115L111.70208255449931,28.652520351447883L113.9361242055893,28.892120036721753L116.17016585667929,29.139874421454447L118.40420750776926,29.395790284997936L120.63824915885925,29.659841569062383L122.87229080994923,29.932027701612807L125.10633246103923,30.212333276478756L127.34037411212921,30.500733987010392L129.5744157632192,30.797245375106506L131.80845741430917,31.10183157707001L134.04249906539917,31.414486137626916L136.27654071648914,31.735205183612944L138.51058236757916,32.063971328183726L140.74462401866913,32.40077413923242L142.97866566975912,32.74557723160474L145.2127073208491,33.098388900098385L147.4467489719391,33.45919905864659L149.68079062302908,33.82797152971899L151.91483227411905,34.20471473268773L154.14887392520905,34.58940359328569L156.38291557629904,34.98200800400745L158.616957227389,35.38252496329484L160.850998878479,35.79093760726788L163.08504052956897,36.20722075465328L165.319082180659,36.63137435963236L167.55312383174896,37.06336826882341L169.78716548283893,37.50319945314259L172.02120713392895,37.950820906304244L174.25524878501892,38.40623455042714L176.48929043610892,38.86942647583734L178.72333208719888,39.34035821084008L180.95737373828888,39.81903679830916L183.19141538937888,40.305421275132915L185.42545704046884,40.79950212638974L187.65949869155884,41.30124351723637L189.89354034264883,41.810654072657016L192.1275819937388,42.3276937788067L194.3616236448288,42.85233862737839L196.59566529591876,43.384559150442755L198.8297069470088,43.924367793132596L201.06374859809875,44.47171177074671L203.29779024918872,45.02655941246446L205.53183190027875,45.588906778738625L207.7658735513687,46.15875150584089L209.9999152024587,46.73603192375339L212.23395685354868,47.32074115635604L214.46799850463867,47.912875077976516L216.70204015572867,48.51237096143071L218.93608180681863,49.119221296298676L221.17012345790863,49.73340651338306L223.40416510899863,50.35488474527524L225.6382067600886,50.98364593447513L227.8722484111786,51.619668983537494L230.10629006226856,52.262911108104795L232.34033171335858,52.91337676345299L234.57437336444855,53.571008370966716L236.80841501553851,54.235771383476845L239.04245666662854,54.907660135627054L241.2764983177185,55.586641102313266L243.5105399688085,56.27269416847292L245.74458161989847,56.965777139178066" fill="none"></path></g></g></g></g><g opacity="0.2"><g><g><g><path style="fill: none;" stroke="rgb(255, 112, 67)" stroke-width="2px" d="M31.276583115259807,187.01060241409274L33.51062476634979,160.05406866130014L35.74466641743978,133.0975349085075L37.97870806852976,106.1410011557149L40.21274971961975,79.18450506028528L42.44679137070973,52.227933650129664L44.68083302179972,25.271437554700036L46.91487467288971,25.27557986462927L49.14891632397969,25.288082109142938L51.38295797506969,25.30883131615205L53.61699962615967,25.337902800382626L55.85104127724966,25.375296561834624L58.085082928339645,25.42101260050808L60.31912457942963,25.475013259039994L62.553166230519615,25.53729853743036L64.7872078816096,25.607943750405155L67.02124953269958,25.6868359258754L69.25529118378958,25.774012721204116L71.48933283487956,25.869511793754256L73.72337448596954,25.973257828799863L75.95741613705952,26.08532614106693L78.19145778814952,26.205641415829426L80.4254994392395,26.334241310450395L82.6595410903295,26.471125824929818L84.89358274141946,26.61625730190469L87.12762439250946,26.769635741375026L89.36166604359944,26.931261143340812L91.59570769468944,27.101133507802064L93.82974934577942,27.279252834758765L96.0637909968694,27.465581466847944L98.29783264795938,27.66015706143257L100.53187429904938,27.86290430378667L102.76591595013937,28.073898508636237L104.99995760122935,28.293064361255276L107.23399925231934,28.520401861643787L109.46804090340932,28.75594866716476L111.70208255449931,28.999667120455204L113.9361242055893,29.251519564152133L116.17016585667929,29.511505998255547L118.40420750776926,29.779664080128416L120.63824915885925,30.055918495044782L122.87229080994923,30.340306900367633L125.10633246103923,30.632791638733963L127.34037411212921,30.933335052780784L129.5744157632192,31.24201245723409L131.80845741430917,31.5587108800049L134.04249906539917,31.8834679784562L136.27654071648914,32.21628375258799L138.51058236757916,32.557120545037286L140.74462401866913,32.90597835580408L142.97866566975912,33.26278187016239L145.2127073208491,33.627606402838204L147.4467489719391,34.00041429646853L149.68079062302908,34.38113023632738L151.91483227411905,34.76982953714072L154.14887392520905,35.166436884182595L156.38291557629904,35.570914620089994L158.616957227389,35.98330040222592L160.850998878479,36.40355657322736L163.08504052956897,36.83164547573135L165.319082180659,37.26760476710087L167.55312383174896,37.71135913260993L169.78716548283893,38.16294622962152L172.02120713392895,38.622253086046676L174.25524878501892,39.08935501661137L176.48929043610892,39.564214363952615L178.72333208719888,40.046755813344426L180.95737373828888,40.537054679512785L183.19141538937888,41.034997990368716L185.42545704046884,41.540623403275205L187.65949869155884,42.05385560350628L189.89354034264883,42.57476990578791L192.1275819937388,43.10325333803114L194.3616236448288,43.63930590023594L196.59566529591876,44.182889935039356L198.8297069470088,44.73408075716731L201.06374859809875,45.29272773716791L203.29779024918872,45.85883087504109L205.53183190027875,46.43242782814988L207.7658735513687,47.01351859649428L209.9999152024587,47.6019525506223L212.23395685354868,48.197805005259916L214.46799850463867,48.801075960407175L216.70204015572867,49.411614786612056L218.93608180681863,50.02949679860057L221.17012345790863,50.65468433900971L223.40416510899863,51.28710209311352L225.6382067600886,51.92678771827495L227.8722484111786,52.57370355713103L230.10629006226856,53.227774294955786L232.34033171335858,53.88907524647518L234.57437336444855,54.55745578223725L236.80841501553851,55.232915902242006L239.04245666662854,55.915493263852426L241.2764983177185,56.605112552342526L243.5105399688085,57.30177376771232L245.74458161989847,58.00540159523582" fill="none"></path></g></g></g></g></g></g><g transform="translate(61, 176)" clip-path="url(#clip_1)"><clipPath id="clip_1"><rect width="268" height="23"></rect></clipPath><g><g><line x1="0" y1="0" x2="0" y2="5" style="visibility: inherit;" fill="rgb(0, 0, 0)" stroke="rgb(204, 204, 204)" stroke-width="1px"></line><line x1="22.34041651089986" y1="0" x2="22.34041651089986" y2="5" style="visibility: inherit;" fill="rgb(0, 0, 0)" stroke="rgb(204, 204, 204)" stroke-width="1px"></line><line x1="44.68083302179972" y1="0" x2="44.68083302179972" y2="5" style="visibility: inherit;" fill="rgb(0, 0, 0)" stroke="rgb(204, 204, 204)" stroke-width="1px"></line><line x1="67.02124953269958" y1="0" x2="67.02124953269958" y2="5" style="visibility: inherit;" fill="rgb(0, 0, 0)" stroke="rgb(204, 204, 204)" stroke-width="1px"></line><line x1="89.36166604359944" y1="0" x2="89.36166604359944" y2="5" style="visibility: inherit;" fill="rgb(0, 0, 0)" stroke="rgb(204, 204, 204)" stroke-width="1px"></line><line x1="111.70208255449931" y1="0" x2="111.70208255449931" y2="5" style="visibility: inherit;" fill="rgb(0, 0, 0)" stroke="rgb(204, 204, 204)" stroke-width="1px"></line><line x1="134.04249906539917" y1="0" x2="134.04249906539917" y2="5" style="visibility: inherit;" fill="rgb(0, 0, 0)" stroke="rgb(204, 204, 204)" stroke-width="1px"></line><line x1="156.38291557629904" y1="0" x2="156.38291557629904" y2="5" style="visibility: inherit;" fill="rgb(0, 0, 0)" stroke="rgb(204, 204, 204)" stroke-width="1px"></line><line x1="178.72333208719888" y1="0" x2="178.72333208719888" y2="5" style="visibility: inherit;" fill="rgb(0, 0, 0)" stroke="rgb(204, 204, 204)" stroke-width="1px"></line><line x1="201.06374859809875" y1="0" x2="201.06374859809875" y2="5" style="visibility: inherit;" fill="rgb(0, 0, 0)" stroke="rgb(204, 204, 204)" stroke-width="1px"></line><line x1="223.40416510899863" y1="0" x2="223.40416510899863" y2="5" style="visibility: inherit;" fill="rgb(0, 0, 0)" stroke="rgb(204, 204, 204)" stroke-width="1px"></line><line x1="245.74458161989847" y1="0" x2="245.74458161989847" y2="5" style="visibility: inherit;" fill="rgb(0, 0, 0)" stroke="rgb(204, 204, 204)" stroke-width="1px"></line><line x1="268.08499813079834" y1="0" x2="268.08499813079834" y2="5" style="visibility: inherit;" fill="rgb(0, 0, 0)" stroke="rgb(204, 204, 204)" stroke-width="1px"></line></g><g transform="translate(0, 8)"><text style="text-anchor: middle; visibility: hidden; font-family: Roboto, sans-serif; font-size: 12px; font-weight: 200;" x="0" y="0" dx="0em" dy="0.95em" fill="rgb(33, 33, 33)" stroke="none" stroke-width="1px">-1k</text><text style="text-anchor: middle; visibility: inherit; font-family: Roboto, sans-serif; font-size: 12px; font-weight: 200;" x="22.34041651089986" y="0" dx="0em" dy="0.95em" fill="rgb(33, 33, 33)" stroke="none" stroke-width="1px">0</text><text style="text-anchor: middle; visibility: inherit; font-family: Roboto, sans-serif; font-size: 12px; font-weight: 200;" x="44.68083302179972" y="0" dx="0em" dy="0.95em" fill="rgb(33, 33, 33)" stroke="none" stroke-width="1px">1k</text><text style="text-anchor: middle; visibility: inherit; font-family: Roboto, sans-serif; font-size: 12px; font-weight: 200;" x="67.02124953269958" y="0" dx="0em" dy="0.95em" fill="rgb(33, 33, 33)" stroke="none" stroke-width="1px">2k</text><text style="text-anchor: middle; visibility: inherit; font-family: Roboto, sans-serif; font-size: 12px; font-weight: 200;" x="89.36166604359944" y="0" dx="0em" dy="0.95em" fill="rgb(33, 33, 33)" stroke="none" stroke-width="1px">3k</text><text style="text-anchor: middle; visibility: inherit; font-family: Roboto, sans-serif; font-size: 12px; font-weight: 200;" x="111.70208255449931" y="0" dx="0em" dy="0.95em" fill="rgb(33, 33, 33)" stroke="none" stroke-width="1px">4k</text><text style="text-anchor: middle; visibility: inherit; font-family: Roboto, sans-serif; font-size: 12px; font-weight: 200;" x="134.04249906539917" y="0" dx="0em" dy="0.95em" fill="rgb(33, 33, 33)" stroke="none" stroke-width="1px">5k</text><text style="text-anchor: middle; visibility: inherit; font-family: Roboto, sans-serif; font-size: 12px; font-weight: 200;" x="156.38291557629904" y="0" dx="0em" dy="0.95em" fill="rgb(33, 33, 33)" stroke="none" stroke-width="1px">6k</text><text style="text-anchor: middle; visibility: inherit; font-family: Roboto, sans-serif; font-size: 12px; font-weight: 200;" x="178.72333208719888" y="0" dx="0em" dy="0.95em" fill="rgb(33, 33, 33)" stroke="none" stroke-width="1px">7k</text><text style="text-anchor: middle; visibility: inherit; font-family: Roboto, sans-serif; font-size: 12px; font-weight: 200;" x="201.06374859809875" y="0" dx="0em" dy="0.95em" fill="rgb(33, 33, 33)" stroke="none" stroke-width="1px">8k</text><text style="text-anchor: middle; visibility: inherit; font-family: Roboto, sans-serif; font-size: 12px; font-weight: 200;" x="223.40416510899863" y="0" dx="0em" dy="0.95em" fill="rgb(33, 33, 33)" stroke="none" stroke-width="1px">9k</text><text style="text-anchor: middle; visibility: inherit; font-family: Roboto, sans-serif; font-size: 12px; font-weight: 200;" x="245.74458161989847" y="0" dx="0em" dy="0.95em" fill="rgb(33, 33, 33)" stroke="none" stroke-width="1px">10k</text><text style="text-anchor: middle; visibility: hidden; font-family: Roboto, sans-serif; font-size: 12px; font-weight: 200;" x="268.08499813079834" y="0" dx="0em" dy="0.95em" fill="rgb(33, 33, 33)" stroke="none" stroke-width="1px">11k</text></g><line x1="0" y1="0" x2="268.08499813079834" y2="0" fill="rgb(0, 0, 0)" stroke="rgb(204, 204, 204)" stroke-width="1px"></line></g></g></g></g></svg>