<svg viewBox="0 0 330 200" xmlns="http://www.w3.org/2000/svg"><g><g><g><g><g><line x1="51.41600036621094" y1="176.95999908447266" x2="46.41600036621094" y2="176.95999908447266" style="visibility: inherit;" fill="rgb(0, 0, 0)" stroke="rgb(204, 204, 204)" stroke-width="1px"></line><line x1="51.41600036621094" y1="154.83999919891357" x2="46.41600036621094" y2="154.83999919891357" style="visibility: inherit;" fill="rgb(0, 0, 0)" stroke="rgb(204, 204, 204)" stroke-width="1px"></line><line x1="51.41600036621094" y1="132.71999931335446" x2="46.41600036621094" y2="132.71999931335446" style="visibility: inherit;" fill="rgb(0, 0, 0)" stroke="rgb(204, 204, 204)" stroke-width="1px"></line><line x1="51.41600036621094" y1="110.59999942779541" x2="46.41600036621094" y2="110.59999942779541" style="visibility: inherit;" fill="rgb(0, 0, 0)" stroke="rgb(204, 204, 204)" stroke-width="1px"></line><line x1="51.41600036621094" y1="88.47999954223631" x2="46.41600036621094" y2="88.47999954223631" style="visibility: inherit;" fill="rgb(0, 0, 0)" stroke="rgb(204, 204, 204)" stroke-width="1px"></line><line x1="51.41600036621094" y1="66.35999965667726" x2="46.41600036621094" y2="66.35999965667726" style="visibility: inherit;" fill="rgb(0, 0, 0)" stroke="rgb(204, 204, 204)" stroke-width="1px"></line><line x1="51.41600036621094" y1="44.239999771118164" x2="46.41600036621094" y2="44.239999771118164" style="visibility: inherit;" fill="rgb(0, 0, 0)" stroke="rgb(204, 204, 204)" stroke-width="1px"></line><line x1="51.41600036621094" y1="22.11999988555906" x2="46.41600036621094" y2="22.11999988555906" style="visibility: inherit;" fill="rgb(0, 0, 0)" stroke="rgb(204, 204, 204)" stroke-width="1px"></line><line x1="51.41600036621094" y1="0" x2="46.41600036621094" y2="0" style="visibility: inherit;" fill="rgb(0, 0, 0)" stroke="rgb(204, 204, 204)" stroke-width="1px"></line></g><g transform="translate(41.41600036621094, 0)"><text style="text-anchor: end; visibility: hidden; font-family: Roboto, sans-serif; font-size: 12px; font-weight: 200;" x="0" y="176.95999908447266" dx="0em" dy="0.3em" fill="rgb(33, 33, 33)" stroke="none" stroke-width="1px">0.45</text><text style="text-anchor: end; visibility: inherit; font-family: Roboto, sans-serif; font-size: 12px; font-weight: 200;" x="0" y="154.83999919891357" dx="0em" dy="0.3em" fill="rgb(33, 33, 33)" stroke="none" stroke-width="1px">0.5</text><text style="text-anchor: end; visibility: hidden; font-family: Roboto, sans-serif; font-size: 12px; font-weight: 200;" x="0" y="132.71999931335446" dx="0em" dy="0.3em" fill="rgb(33, 33, 33)" stroke="none" stroke-width="1px">0.55</text><text style="text-anchor: end; visibility: inherit; font-family: Roboto, sans-serif; font-size: 12px; font-weight: 200;" x="0" y="110.59999942779541" dx="0em" dy="0.3em" fill="rgb(33, 33, 33)" stroke="none" stroke-width="1px">0.6</text><text style="text-anchor: end; visibility: hidden; font-family: Roboto, sans-serif; font-size: 12px; font-weight: 200;" x="0" y="88.47999954223631" dx="0em" dy="0.3em" fill="rgb(33, 33, 33)" stroke="none" stroke-width="1px">0.65</text><text style="text-anchor: end; visibility: inherit; font-family: Roboto, sans-serif; font-size: 12px; font-weight: 200;" x="0" y="66.35999965667726" dx="0em" dy="0.3em" fill="rgb(33, 33, 33)" stroke="none" stroke-width="1px">0.7</text><text style="text-anchor: end; visibility: hidden; font-family: Roboto, sans-serif; font-size: 12px; font-weight: 200;" x="0" y="44.239999771118164" dx="0em" dy="0.3em" fill="rgb(33, 33, 33)" stroke="none" stroke-width="1px">0.75</text><text style="text-anchor: end; visibility: inherit; font-family: Roboto, sans-serif; font-size: 12px; font-weight: 200;" x="0" y="22.11999988555906" dx="0em" dy="0.3em" fill="rgb(33, 33, 33)" stroke="none" stroke-width="1px">0.8</text><text style="text-anchor: end; visibility: hidden; font-family: Roboto, sans-serif; font-size: 12px; font-weight: 200;" x="0" y="0" dx="0em" dy="0.3em" fill="rgb(33, 33, 33)" stroke="none" stroke-width="1px">0.85</text></g><line x1="51.41600036621094" y1="0" x2="51.41600036621094" y2="176.95999908447266" fill="rgb(0, 0, 0)" stroke="rgb(204, 204, 204)" stroke-width="1px"></line></g></g><g transform="translate(51, 0)" clip-path="url(#clip_0)"><clipPath id="clip_0"><rect width="278" height="176"></rect></clipPath><g><g><g><line x1="0" y1="0" x2="0" y2="176.95999908447266" fill="rgb(0, 0, 0)" stroke="rgb(66, 66, 66)" stroke-width="1px" opacity="0.25"></line><line x1="23.215333302815754" y1="0" x2="23.215333302815754" y2="176.95999908447266" fill="rgb(0, 0, 0)" stroke="rgb(66, 66, 66)" stroke-width="1px" opacity="0.25"></line><line x1="46.43066660563151" y1="0" x2="46.43066660563151" y2="176.95999908447266" fill="rgb(0, 0, 0)" stroke="rgb(66, 66, 66)" stroke-width="1px" opacity="0.25"></line><line x1="69.64599990844727" y1="0" x2="69.64599990844727" y2="176.95999908447266" fill="rgb(0, 0, 0)" stroke="rgb(66, 66, 66)" stroke-width="1px" opacity="0.25"></line><line x1="92.86133321126302" y1="0" x2="92.86133321126302" y2="176.95999908447266" fill="rgb(0, 0, 0)" stroke="rgb(66, 66, 66)" stroke-width="1px" opacity="0.25"></line><line x1="116.07666651407878" y1="0" x2="116.07666651407878" y2="176.95999908447266" fill="rgb(0, 0, 0)" stroke="rgb(66, 66, 66)" stroke-width="1px" opacity="0.25"></line><line x1="139.29199981689453" y1="0" x2="139.29199981689453" y2="176.95999908447266" fill="rgb(0, 0, 0)" stroke="rgb(66, 66, 66)" stroke-width="1px" opacity="0.25"></line><line x1="162.5073331197103" y1="0" x2="162.5073331197103" y2="176.95999908447266" fill="rgb(0, 0, 0)" stroke="rgb(66, 66, 66)" stroke-width="1px" opacity="0.25"></line><line x1="185.72266642252603" y1="0" x2="185.72266642252603" y2="176.95999908447266" fill="rgb(0, 0, 0)" stroke="rgb(66, 66, 66)" stroke-width="1px" opacity="0.25"></line><line x1="208.9379997253418" y1="0" x2="208.9379997253418" y2="176.95999908447266" fill="rgb(0, 0, 0)" stroke="rgb(66, 66, 66)" stroke-width="1px" opacity="0.25"></line><line x1="232.15333302815756" y1="0" x2="232.15333302815756" y2="176.95999908447266" fill="rgb(0, 0, 0)" stroke="rgb(66, 66, 66)" stroke-width="1px" opacity="0.25"></line><line x1="255.3686663309733" y1="0" x2="255.3686663309733" y2="176.95999908447266" fill="rgb(0, 0, 0)" stroke="rgb(66, 66, 66)" stroke-width="1px" opacity="0.25"></line><line x1="278.58399963378906" y1="0" x2="278.58399963378906" y2="176.95999908447266" fill="rgb(0, 0, 0)" stroke="rgb(66, 66, 66)" stroke-width="1px" opacity="0.25"></line></g><g><line x1="0" y1="176.95999908447266" x2="278.58399963378906" y2="176.95999908447266" fill="rgb(0, 0, 0)" stroke="rgb(66, 66, 66)" stroke-width="1px" opacity="0.25"></line><line x1="0" y1="154.83999919891357" x2="278.58399963378906" y2="154.83999919891357" fill="rgb(0, 0, 0)" stroke="rgb(66, 66, 66)" stroke-width="1px" opacity="0.25"></line><line x1="0" y1="132.71999931335446" x2="278.58399963378906" y2="132.71999931335446" fill="rgb(0, 0, 0)" stroke="rgb(66, 66, 66)" stroke-width="1px" opacity="0.25"></line><line x1="0" y1="110.59999942779541" x2="278.58399963378906" y2="110.59999942779541" fill="rgb(0, 0, 0)" stroke="rgb(66, 66, 66)" stroke-width="1px" opacity="0.25"></line><line x1="0" y1="88.47999954223631" x2="278.58399963378906" y2="88.47999954223631" fill="rgb(0, 0, 0)" stroke="rgb(66, 66, 66)" stroke-width="1px" opacity="0.25"></line><line x1="0" y1="66.35999965667726" x2="278.58399963378906" y2="66.35999965667726" fill="rgb(0, 0, 0)" stroke="rgb(66, 66, 66)" stroke-width="1px" opacity="0.25"></line><line x1="0" y1="44.239999771118164" x2="278.58399963378906" y2="44.239999771118164" fill="rgb(0, 0, 0)" stroke="rgb(66, 66, 66)" stroke-width="1px" opacity="0.25"></line><line x1="0" y1="22.11999988555906" x2="278.58399963378906" y2="22.11999988555906" fill="rgb(0, 0, 0)" stroke="rgb(66, 66, 66)" stroke-width="1px" opacity="0.25"></line><line x1="0" y1="0" x2="278.58399963378906" y2="0" fill="rgb(0, 0, 0)" stroke="rgb(66, 66, 66)" stroke-width="1px" opacity="0.25"></line></g></g></g><g><g><line x1="0" y1="376.0399980545044" x2="278.58399963378906" y2="376.0399980545044" fill="rgb(0, 0, 0)" stroke="rgb(153, 153, 153)" stroke-width="1.5px"></line></g></g><g><g><line x1="23.215333302815754" y1="0" x2="23.215333302815754" y2="176.95999908447266" fill="rgb(0, 0, 0)" stroke="rgb(153, 153, 153)" stroke-width="1.5px"></line></g></g><g><g><g><g><g><path style="fill: none;" stroke="rgb(255, 112, 67)" stroke-width="2px" d="M25.53686663309733,-14.175877650352959L27.858399963378908,40.51204263708496L30.179933293660483,21.38216581590093L32.50146662394206,-57.34960330986145L34.82299995422363,-31.365030158066332L37.14453328450521,21.092617808213074L39.46606661478678,-38.08546550235628L41.78759994506836,8.225045872837983L44.10913327534993,18.940536245687014L46.43066660563151,50.65312735947937L48.75219993591308,66.92437190780818L51.07373326619466,88.50239830622418L53.39526659647624,116.2123052465574L55.716799926757815,84.56405215276175L58.03833325703939,82.75836084553872L60.359866587320965,119.09966862269738L62.68139991760254,92.21844079927426L65.00293324788412,108.35316421181246L67.3244665781657,111.56994406960531L69.64599990844727,134.02033323267315L71.96753323872885,146.35479531892742L74.28906656901042,155.0278728360724L76.610599899292,108.88803978131476L78.93213322957357,101.05193631092963L81.25366655985515,132.77946939473878L83.57519989013672,153.9901039999552L85.8967332204183,40.88157837071952L88.21826655069987,75.868558024836L90.53979988098145,117.44323145681933L92.86133321126302,123.23160195580152L95.1828665415446,54.79785407351688L97.50439987182617,81.55837967390627L99.82593320210775,130.4089257574069L102.14746653238932,120.69393990979279L104.4689998626709,131.11191849353966L106.79053319295248,144.45314421765758L109.11206652323405,144.00421143795603L111.43359985351563,150.2934996047419L113.7551331837972,154.08337913807364L116.07666651407878,164.45301975037842L118.39819984436035,161.82898539908604L120.71973317464193,167.48234420139005L123.0412665049235,167.64811128969885L125.36279983520508,162.76505726245335L127.68433316548665,168.42603330910666L130.00586649576823,173.6785496561482L132.3273998260498,160.89165042737432L134.6489331563314,154.64067852378156L136.97046648661293,119.89421602505816L139.29199981689453,122.68971265631177L141.6135331471761,125.49743263009161L143.9350664774577,139.63491178277906L146.25659980773926,115.30502681680905L148.57813313802083,153.51267939399222L150.8996664683024,132.058680481142L153.221199798584,73.93221036077679L155.54273312886556,35.85946581731746L157.86426645914713,63.42009049033169L160.1857997894287,105.82720521156362L162.5073331197103,58.52277012074582L164.82886644999186,105.73013040942098L167.15039978027343,132.24629646037334L169.471933110555,132.49782724571503L171.7934664408366,139.56958886272423L174.11499977111816,145.3855939754266L176.43653310139973,136.22484535526146L178.75806643168133,120.07744418519655L181.0795997619629,137.74226136967212L183.40113309224446,114.12453527451144L185.72266642252603,140.9801923395774L188.04419975280763,127.72157936058208L190.3657330830892,138.79085904937477L192.68726641337076,154.88901708472144L195.00879974365233,98.32336501496987L197.33033307393393,33.79275454433245L199.6518664042155,90.05202280131638L201.97339973449706,127.18511144227152L204.29493306477863,128.88022617361975L206.61646639506023,149.1772853854745L208.9379997253418,160.519467669461L211.25953305562336,170.7192073163282L213.58106638590496,165.97562221511063L215.90259971618653,166.50149297416894L218.2241330464681,178.42478585065913L220.54566637674967,152.98668708391807L222.86719970703126,164.60557992783887L225.18873303731283,165.146653674051L227.5102663675944,140.57488550633283L229.83179969787597,157.07043147876792L232.15333302815756,157.80698261845833L234.47486635843913,140.3064952585035L236.7963996887207,154.88975144932962L239.11793301900227,116.21693456566784L241.43946634928386,37.37917993448298L243.76099967956543,-38.39142092387376L246.082533009847,44.35484021035277L248.4040663401286,95.87940665939222L250.72559967041016,134.91158227592751L253.04713300069173,153.98839875954747L255.3686663309733,146.35711312662323" fill="none"></path></g></g></g></g><g opacity="0.2"><g><g><g><path style="fill: none;" stroke="rgb(255, 112, 67)" stroke-width="2px" d="M25.53686663309733,-14.175877650352959L27.858399963378908,73.32479480954771L30.179933293660483,3.0174840675642827L32.50146662394206,-149.93816380175807L34.82299995422363,2.560428548917571L37.14453328450521,93.66042969884529L39.46606661478678,-122.71107148580363L41.78759994506836,75.7462160387804L44.10913327534993,34.74380316878933L46.43066660563151,97.7426292512423L48.75219993591308,91.18365973981167L51.07373326619466,120.7520112370737L53.39526659647624,157.6866880031174L55.716799926757815,37.15367473453807L58.03833325703939,80.05194640705281L60.359866587320965,173.58599958258037L62.68139991760254,51.907974298860154L65.00293324788412,132.55115272609328L67.3244665781657,116.39462381226008L69.64599990844727,167.69386492277943L71.96753323872885,164.85581199709384L74.28906656901042,168.03720372047974L76.610599899292,39.67920114969456L78.93213322957357,89.29787393146808L81.25366655985515,180.3705435147266L85.8967332204183,-128.7809206594175L88.21826655069987,128.34897379275571L90.53979988098145,179.8052033086442L92.86133321126302,131.91415450513045L95.1828665415446,-47.85274505653483L97.50439987182617,121.69916275004152L99.82593320210775,203.68473905088376L102.14746653238932,106.12146183423602L104.4689998626709,146.73888592142885L106.79053319295248,164.46498245981684L109.11206652323405,143.33081227534944L111.43359985351563,159.7274317965373L113.7551331837972,159.76819841696238L116.07666651407878,180.00748063418155L118.39819984436035,157.89293387740895L120.71973317464193,175.9623823980446L123.0412665049235,167.89676192204251L125.36279983520508,155.4404762237L127.68433316548665,176.91749737761552L130.00586649576823,181.5573241758916L132.3273998260498,141.71130158540973L134.6489331563314,145.2642206687433L136.97046648661293,67.7745222781432L139.29199981689453,126.88295760313576L141.6135331471761,129.7090125907273L143.9350664774577,160.84113051170743L146.25659980773926,78.8101993679602L148.57813313802083,210.8241582596669L150.8996664683024,99.87768211190041L153.221199798584,-13.257494819716158L155.54273312886556,-21.24965099785004L157.86426645914713,104.76102749984375L160.1857997894287,169.43787729340283L162.5073331197103,-12.433882515475034L164.82886644999186,176.54117084243023L167.15039978027343,172.02054553680068L169.471933110555,132.87512342372747L171.7934664408366,150.17723128823786L174.11499977111816,154.1096016444801L176.43653310139973,122.48372242501387L178.75806643168133,95.85634243009918L181.0795997619629,164.2394871463854L183.40113309224446,78.69794613177032L185.72266642252603,181.26367793717645L188.04419975280763,107.83365989208914L190.3657330830892,155.39477858256373L192.68726641337076,179.03625413774148L195.00879974365233,13.474886910342548L197.33033307393393,-63.00316116162371L199.6518664042155,174.44092518679224L201.97339973449706,182.8847444037042L204.29493306477863,131.422898270642L206.61646639506023,179.62287420325663L211.25953305562336,186.01881678662903L213.58106638590496,158.86024456328425L215.90259971618653,167.29029911275643L218.2241330464681,196.3097251653944L220.54566637674967,114.82953893380636L222.86719970703126,182.03391919372007L225.18873303731283,165.9582642933692L227.5102663675944,103.71723325475568L229.83179969787597,181.81375043742048L232.15333302815756,158.91180932799398L234.47486635843913,114.05576421857131L236.7963996887207,176.76463573556885L239.11793301900227,58.20770924017506L241.43946634928386,-80.87745201229431L243.76099967956543,-152.04732221140878L246.082533009847,168.47423191169253L248.4040663401286,173.16625633295143L250.72559967041016,193.4598457007304L253.04713300069173,182.60362348497733L255.3686663309733,134.91018467723688" fill="none"></path></g></g></g></g></g></g><g transform="translate(51, 176)" clip-path="url(#clip_1)"><clipPath id="clip_1"><rect width="278" height="23"></rect></clipPath><g><g><line x1="0" y1="0" x2="0" y2="5" style="visibility: inherit;" fill="rgb(0, 0, 0)" stroke="rgb(204, 204, 204)" stroke-width="1px"></line><line x1="23.215333302815754" y1="0" x2="23.215333302815754" y2="5" style="visibility: inherit;" fill="rgb(0, 0, 0)" stroke="rgb(204, 204, 204)" stroke-width="1px"></line><line x1="46.43066660563151" y1="0" x2="46.43066660563151" y2="5" style="visibility: inherit;" fill="rgb(0, 0, 0)" stroke="rgb(204, 204, 204)" stroke-width="1px"></line><line x1="69.64599990844727" y1="0" x2="69.64599990844727" y2="5" style="visibility: inherit;" fill="rgb(0, 0, 0)" stroke="rgb(204, 204, 204)" stroke-width="1px"></line><line x1="92.86133321126302" y1="0" x2="92.86133321126302" y2="5" style="visibility: inherit;" fill="rgb(0, 0, 0)" stroke="rgb(204, 204, 204)" stroke-width="1px"></line><line x1="116.07666651407878" y1="0" x2="116.07666651407878" y2="5" style="visibility: inherit;" fill="rgb(0, 0, 0)" stroke="rgb(204, 204, 204)" stroke-width="1px"></line><line x1="139.29199981689453" y1="0" x2="139.29199981689453" y2="5" style="visibility: inherit;" fill="rgb(0, 0, 0)" stroke="rgb(204, 204, 204)" stroke-width="1px"></line><line x1="162.5073331197103" y1="0" x2="162.5073331197103" y2="5" style="visibility: inherit;" fill="rgb(0, 0, 0)" stroke="rgb(204, 204, 204)" stroke-width="1px"></line><line x1="185.72266642252603" y1="0" x2="185.72266642252603" y2="5" style="visibility: inherit;" fill="rgb(0, 0, 0)" stroke="rgb(204, 204, 204)" stroke-width="1px"></line><line x1="208.9379997253418" y1="0" x2="208.9379997253418" y2="5" style="visibility: inherit;" fill="rgb(0, 0, 0)" stroke="rgb(204, 204, 204)" stroke-width="1px"></line><line x1="232.15333302815756" y1="0" x2="232.15333302815756" y2="5" style="visibility: inherit;" fill="rgb(0, 0, 0)" stroke="rgb(204, 204, 204)" stroke-width="1px"></line><line x1="255.3686663309733" y1="0" x2="255.3686663309733" y2="5" style="visibility: inherit;" fill="rgb(0, 0, 0)" stroke="rgb(204, 204, 204)" stroke-width="1px"></line><line x1="278.58399963378906" y1="0" x2="278.58399963378906" y2="5" style="visibility: inherit;" fill="rgb(0, 0, 0)" stroke="rgb(204, 204, 204)" stroke-width="1px"></line></g><g transform="translate(0, 8)"><text style="text-anchor: middle; visibility: hidden; font-family: Roboto, sans-serif; font-size: 12px; font-weight: 200;" x="0" y="0" dx="0em" dy="0.95em" fill="rgb(33, 33, 33)" stroke="none" stroke-width="1px">-1k</text><text style="text-anchor: middle; visibility: inherit; font-family: Roboto, sans-serif; font-size: 12px; font-weight: 200;" x="23.215333302815754" y="0" dx="0em" dy="0.95em" fill="rgb(33, 33, 33)" stroke="none" stroke-width="1px">0</text><text style="text-anchor: middle; visibility: hidden; font-family: Roboto, sans-serif; font-size: 12px; font-weight: 200;" x="46.43066660563151" y="0" dx="0em" dy="0.95em" fill="rgb(33, 33, 33)" stroke="none" stroke-width="1px">1k</text><text style="text-anchor: middle; visibility: inherit; font-family: Roboto, sans-serif; font-size: 12px; font-weight: 200;" x="69.64599990844727" y="0" dx="0em" dy="0.95em" fill="rgb(33, 33, 33)" stroke="none" stroke-width="1px">2k</text><text style="text-anchor: middle; visibility: hidden; font-family: Roboto, sans-serif; font-size: 12px; font-weight: 200;" x="92.86133321126302" y="0" dx="0em" dy="0.95em" fill="rgb(33, 33, 33)" stroke="none" stroke-width="1px">3k</text><text style="text-anchor: middle; visibility: inherit; font-family: Roboto, sans-serif; font-size: 12px; font-weight: 200;" x="116.07666651407878" y="0" dx="0em" dy="0.95em" fill="rgb(33, 33, 33)" stroke="none" stroke-width="1px">4k</text><text style="text-anchor: middle; visibility: hidden; font-family: Roboto, sans-serif; font-size: 12px; font-weight: 200;" x="139.29199981689453" y="0" dx="0em" dy="0.95em" fill="rgb(33, 33, 33)" stroke="none" stroke-width="1px">5k</text><text style="text-anchor: middle; visibility: inherit; font-family: Roboto, sans-serif; font-size: 12px; font-weight: 200;" x="162.5073331197103" y="0" dx="0em" dy="0.95em" fill="rgb(33, 33, 33)" stroke="none" stroke-width="1px">6k</text><text style="text-anchor: middle; visibility: hidden; font-family: Roboto, sans-serif; font-size: 12px; font-weight: 200;" x="185.72266642252603" y="0" dx="0em" dy="0.95em" fill="rgb(33, 33, 33)" stroke="none" stroke-width="1px">7k</text><text style="text-anchor: middle; visibility: inherit; font-family: Roboto, sans-serif; font-size: 12px; font-weight: 200;" x="208.9379997253418" y="0" dx="0em" dy="0.95em" fill="rgb(33, 33, 33)" stroke="none" stroke-width="1px">8k</text><text style="text-anchor: middle; visibility: hidden; font-family: Roboto, sans-serif; font-size: 12px; font-weight: 200;" x="232.15333302815756" y="0" dx="0em" dy="0.95em" fill="rgb(33, 33, 33)" stroke="none" stroke-width="1px">9k</text><text style="text-anchor: middle; visibility: inherit; font-family: Roboto, sans-serif; font-size: 12px; font-weight: 200;" x="255.3686663309733" y="0" dx="0em" dy="0.95em" fill="rgb(33, 33, 33)" stroke="none" stroke-width="1px">10k</text><text style="text-anchor: middle; visibility: hidden; font-family: Roboto, sans-serif; font-size: 12px; font-weight: 200;" x="278.58399963378906" y="0" dx="0em" dy="0.95em" fill="rgb(33, 33, 33)" stroke="none" stroke-width="1px">11k</text></g><line x1="0" y1="0" x2="278.58399963378906" y2="0" fill="rgb(0, 0, 0)" stroke="rgb(204, 204, 204)" stroke-width="1px"></line></g></g></g></g></svg>