<svg viewBox="0 0 330 200" xmlns="http://www.w3.org/2000/svg"><g><g><g><g><g><line x1="61.77000045776367" y1="176.95999908447266" x2="56.77000045776367" y2="176.95999908447266" style="visibility: inherit;" fill="rgb(0, 0, 0)" stroke="rgb(204, 204, 204)" stroke-width="1px"></line><line x1="61.77000045776367" y1="163.34769146259015" x2="56.77000045776367" y2="163.34769146259015" style="visibility: inherit;" fill="rgb(0, 0, 0)" stroke="rgb(204, 204, 204)" stroke-width="1px"></line><line x1="61.77000045776367" y1="149.73538384070764" x2="56.77000045776367" y2="149.73538384070764" style="visibility: inherit;" fill="rgb(0, 0, 0)" stroke="rgb(204, 204, 204)" stroke-width="1px"></line><line x1="61.77000045776367" y1="136.1230762188251" x2="56.77000045776367" y2="136.1230762188251" style="visibility: inherit;" fill="rgb(0, 0, 0)" stroke="rgb(204, 204, 204)" stroke-width="1px"></line><line x1="61.77000045776367" y1="122.51076859694261" x2="56.77000045776367" y2="122.51076859694261" style="visibility: inherit;" fill="rgb(0, 0, 0)" stroke="rgb(204, 204, 204)" stroke-width="1px"></line><line x1="61.77000045776367" y1="108.8984609750601" x2="56.77000045776367" y2="108.8984609750601" style="visibility: inherit;" fill="rgb(0, 0, 0)" stroke="rgb(204, 204, 204)" stroke-width="1px"></line><line x1="61.77000045776367" y1="95.28615335317758" x2="56.77000045776367" y2="95.28615335317758" style="visibility: inherit;" fill="rgb(0, 0, 0)" stroke="rgb(204, 204, 204)" stroke-width="1px"></line><line x1="61.77000045776367" y1="81.67384573129507" x2="56.77000045776367" y2="81.67384573129507" style="visibility: inherit;" fill="rgb(0, 0, 0)" stroke="rgb(204, 204, 204)" stroke-width="1px"></line><line x1="61.77000045776367" y1="68.06153810941255" x2="56.77000045776367" y2="68.06153810941255" style="visibility: inherit;" fill="rgb(0, 0, 0)" stroke="rgb(204, 204, 204)" stroke-width="1px"></line><line x1="61.77000045776367" y1="54.44923048753005" x2="56.77000045776367" y2="54.44923048753005" style="visibility: inherit;" fill="rgb(0, 0, 0)" stroke="rgb(204, 204, 204)" stroke-width="1px"></line><line x1="61.77000045776367" y1="40.83692286564753" x2="56.77000045776367" y2="40.83692286564753" style="visibility: inherit;" fill="rgb(0, 0, 0)" stroke="rgb(204, 204, 204)" stroke-width="1px"></line><line x1="61.77000045776367" y1="27.224615243765026" x2="56.77000045776367" y2="27.224615243765026" style="visibility: inherit;" fill="rgb(0, 0, 0)" stroke="rgb(204, 204, 204)" stroke-width="1px"></line><line x1="61.77000045776367" y1="13.612307621882502" x2="56.77000045776367" y2="13.612307621882502" style="visibility: inherit;" fill="rgb(0, 0, 0)" stroke="rgb(204, 204, 204)" stroke-width="1px"></line><line x1="61.77000045776367" y1="0" x2="56.77000045776367" y2="0" style="visibility: inherit;" fill="rgb(0, 0, 0)" stroke="rgb(204, 204, 204)" stroke-width="1px"></line></g><g transform="translate(51.77000045776367, 0)"><text style="text-anchor: end; visibility: hidden; font-family: Roboto, sans-serif; font-size: 12px; font-weight: 200;" x="0" y="176.95999908447266" dx="0em" dy="0.3em" fill="rgb(33, 33, 33)" stroke="none" stroke-width="1px">0.126</text><text style="text-anchor: end; visibility: inherit; font-family: Roboto, sans-serif; font-size: 12px; font-weight: 200;" x="0" y="163.34769146259015" dx="0em" dy="0.3em" fill="rgb(33, 33, 33)" stroke="none" stroke-width="1px">0.127</text><text style="text-anchor: end; visibility: hidden; font-family: Roboto, sans-serif; font-size: 12px; font-weight: 200;" x="0" y="149.73538384070764" dx="0em" dy="0.3em" fill="rgb(33, 33, 33)" stroke="none" stroke-width="1px">0.128</text><text style="text-anchor: end; visibility: inherit; font-family: Roboto, sans-serif; font-size: 12px; font-weight: 200;" x="0" y="136.1230762188251" dx="0em" dy="0.3em" fill="rgb(33, 33, 33)" stroke="none" stroke-width="1px">0.129</text><text style="text-anchor: end; visibility: hidden; font-family: Roboto, sans-serif; font-size: 12px; font-weight: 200;" x="0" y="122.51076859694261" dx="0em" dy="0.3em" fill="rgb(33, 33, 33)" stroke="none" stroke-width="1px">0.13</text><text style="text-anchor: end; visibility: inherit; font-family: Roboto, sans-serif; font-size: 12px; font-weight: 200;" x="0" y="108.8984609750601" dx="0em" dy="0.3em" fill="rgb(33, 33, 33)" stroke="none" stroke-width="1px">0.131</text><text style="text-anchor: end; visibility: hidden; font-family: Roboto, sans-serif; font-size: 12px; font-weight: 200;" x="0" y="95.28615335317758" dx="0em" dy="0.3em" fill="rgb(33, 33, 33)" stroke="none" stroke-width="1px">0.132</text><text style="text-anchor: end; visibility: inherit; font-family: Roboto, sans-serif; font-size: 12px; font-weight: 200;" x="0" y="81.67384573129507" dx="0em" dy="0.3em" fill="rgb(33, 33, 33)" stroke="none" stroke-width="1px">0.133</text><text style="text-anchor: end; visibility: hidden; font-family: Roboto, sans-serif; font-size: 12px; font-weight: 200;" x="0" y="68.06153810941255" dx="0em" dy="0.3em" fill="rgb(33, 33, 33)" stroke="none" stroke-width="1px">0.134</text><text style="text-anchor: end; visibility: inherit; font-family: Roboto, sans-serif; font-size: 12px; font-weight: 200;" x="0" y="54.44923048753005" dx="0em" dy="0.3em" fill="rgb(33, 33, 33)" stroke="none" stroke-width="1px">0.135</text><text style="text-anchor: end; visibility: hidden; font-family: Roboto, sans-serif; font-size: 12px; font-weight: 200;" x="0" y="40.83692286564753" dx="0em" dy="0.3em" fill="rgb(33, 33, 33)" stroke="none" stroke-width="1px">0.136</text><text style="text-anchor: end; visibility: inherit; font-family: Roboto, sans-serif; font-size: 12px; font-weight: 200;" x="0" y="27.224615243765026" dx="0em" dy="0.3em" fill="rgb(33, 33, 33)" stroke="none" stroke-width="1px">0.137</text><text style="text-anchor: end; visibility: hidden; font-family: Roboto, sans-serif; font-size: 12px; font-weight: 200;" x="0" y="13.612307621882502" dx="0em" dy="0.3em" fill="rgb(33, 33, 33)" stroke="none" stroke-width="1px">0.138</text><text style="text-anchor: end; visibility: hidden; font-family: Roboto, sans-serif; font-size: 12px; font-weight: 200;" x="0" y="0" dx="0em" dy="0.3em" fill="rgb(33, 33, 33)" stroke="none" stroke-width="1px">0.139</text></g><line x1="61.77000045776367" y1="0" x2="61.77000045776367" y2="176.95999908447266" fill="rgb(0, 0, 0)" stroke="rgb(204, 204, 204)" stroke-width="1px"></line></g></g><g transform="translate(61, 0)" clip-path="url(#clip_0)"><clipPath id="clip_0"><rect width="268" height="176"></rect></clipPath><g><g><g><line x1="0" y1="0" x2="0" y2="176.95999908447266" fill="rgb(0, 0, 0)" stroke="rgb(66, 66, 66)" stroke-width="1px" opacity="0.25"></line><line x1="22.352499961853027" y1="0" x2="22.352499961853027" y2="176.95999908447266" fill="rgb(0, 0, 0)" stroke="rgb(66, 66, 66)" stroke-width="1px" opacity="0.25"></line><line x1="44.704999923706055" y1="0" x2="44.704999923706055" y2="176.95999908447266" fill="rgb(0, 0, 0)" stroke="rgb(66, 66, 66)" stroke-width="1px" opacity="0.25"></line><line x1="67.05749988555908" y1="0" x2="67.05749988555908" y2="176.95999908447266" fill="rgb(0, 0, 0)" stroke="rgb(66, 66, 66)" stroke-width="1px" opacity="0.25"></line><line x1="89.40999984741211" y1="0" x2="89.40999984741211" y2="176.95999908447266" fill="rgb(0, 0, 0)" stroke="rgb(66, 66, 66)" stroke-width="1px" opacity="0.25"></line><line x1="111.76249980926514" y1="0" x2="111.76249980926514" y2="176.95999908447266" fill="rgb(0, 0, 0)" stroke="rgb(66, 66, 66)" stroke-width="1px" opacity="0.25"></line><line x1="134.11499977111816" y1="0" x2="134.11499977111816" y2="176.95999908447266" fill="rgb(0, 0, 0)" stroke="rgb(66, 66, 66)" stroke-width="1px" opacity="0.25"></line><line x1="156.4674997329712" y1="0" x2="156.4674997329712" y2="176.95999908447266" fill="rgb(0, 0, 0)" stroke="rgb(66, 66, 66)" stroke-width="1px" opacity="0.25"></line><line x1="178.81999969482422" y1="0" x2="178.81999969482422" y2="176.95999908447266" fill="rgb(0, 0, 0)" stroke="rgb(66, 66, 66)" stroke-width="1px" opacity="0.25"></line><line x1="201.17249965667725" y1="0" x2="201.17249965667725" y2="176.95999908447266" fill="rgb(0, 0, 0)" stroke="rgb(66, 66, 66)" stroke-width="1px" opacity="0.25"></line><line x1="223.52499961853027" y1="0" x2="223.52499961853027" y2="176.95999908447266" fill="rgb(0, 0, 0)" stroke="rgb(66, 66, 66)" stroke-width="1px" opacity="0.25"></line><line x1="245.8774995803833" y1="0" x2="245.8774995803833" y2="176.95999908447266" fill="rgb(0, 0, 0)" stroke="rgb(66, 66, 66)" stroke-width="1px" opacity="0.25"></line><line x1="268.2299995422363" y1="0" x2="268.2299995422363" y2="176.95999908447266" fill="rgb(0, 0, 0)" stroke="rgb(66, 66, 66)" stroke-width="1px" opacity="0.25"></line></g><g><line x1="0" y1="176.95999908447266" x2="268.2299995422363" y2="176.95999908447266" fill="rgb(0, 0, 0)" stroke="rgb(66, 66, 66)" stroke-width="1px" opacity="0.25"></line><line x1="0" y1="163.34769146259015" x2="268.2299995422363" y2="163.34769146259015" fill="rgb(0, 0, 0)" stroke="rgb(66, 66, 66)" stroke-width="1px" opacity="0.25"></line><line x1="0" y1="149.73538384070764" x2="268.2299995422363" y2="149.73538384070764" fill="rgb(0, 0, 0)" stroke="rgb(66, 66, 66)" stroke-width="1px" opacity="0.25"></line><line x1="0" y1="136.1230762188251" x2="268.2299995422363" y2="136.1230762188251" fill="rgb(0, 0, 0)" stroke="rgb(66, 66, 66)" stroke-width="1px" opacity="0.25"></line><line x1="0" y1="122.51076859694261" x2="268.2299995422363" y2="122.51076859694261" fill="rgb(0, 0, 0)" stroke="rgb(66, 66, 66)" stroke-width="1px" opacity="0.25"></line><line x1="0" y1="108.8984609750601" x2="268.2299995422363" y2="108.8984609750601" fill="rgb(0, 0, 0)" stroke="rgb(66, 66, 66)" stroke-width="1px" opacity="0.25"></line><line x1="0" y1="95.28615335317758" x2="268.2299995422363" y2="95.28615335317758" fill="rgb(0, 0, 0)" stroke="rgb(66, 66, 66)" stroke-width="1px" opacity="0.25"></line><line x1="0" y1="81.67384573129507" x2="268.2299995422363" y2="81.67384573129507" fill="rgb(0, 0, 0)" stroke="rgb(66, 66, 66)" stroke-width="1px" opacity="0.25"></line><line x1="0" y1="68.06153810941255" x2="268.2299995422363" y2="68.06153810941255" fill="rgb(0, 0, 0)" stroke="rgb(66, 66, 66)" stroke-width="1px" opacity="0.25"></line><line x1="0" y1="54.44923048753005" x2="268.2299995422363" y2="54.44923048753005" fill="rgb(0, 0, 0)" stroke="rgb(66, 66, 66)" stroke-width="1px" opacity="0.25"></line><line x1="0" y1="40.83692286564753" x2="268.2299995422363" y2="40.83692286564753" fill="rgb(0, 0, 0)" stroke="rgb(66, 66, 66)" stroke-width="1px" opacity="0.25"></line><line x1="0" y1="27.224615243765026" x2="268.2299995422363" y2="27.224615243765026" fill="rgb(0, 0, 0)" stroke="rgb(66, 66, 66)" stroke-width="1px" opacity="0.25"></line><line x1="0" y1="13.612307621882502" x2="268.2299995422363" y2="13.612307621882502" fill="rgb(0, 0, 0)" stroke="rgb(66, 66, 66)" stroke-width="1px" opacity="0.25"></line><line x1="0" y1="0" x2="268.2299995422363" y2="0" fill="rgb(0, 0, 0)" stroke="rgb(66, 66, 66)" stroke-width="1px" opacity="0.25"></line></g></g></g><g><g><line x1="0" y1="1892.1107594416678" x2="268.2299995422363" y2="1892.1107594416678" fill="rgb(0, 0, 0)" stroke="rgb(153, 153, 153)" stroke-width="1.5px"></line></g></g><g><g><line x1="22.352499961853027" y1="0" x2="22.352499961853027" y2="176.95999908447266" fill="rgb(0, 0, 0)" stroke="rgb(153, 153, 153)" stroke-width="1.5px"></line></g></g><g><g><g><g><g><path style="fill: none;" stroke="rgb(255, 112, 67)" stroke-width="2px" d="M24.58774995803833,154.01804774196097L26.822999954223633,154.48724014354696L29.058249950408936,156.10114413059597L31.29349994659424,157.02392319142757L33.52874994277954,157.6369445243165L35.763999938964844,159.05411834679964L37.99924993515015,160.07933453448987L40.23449993133545,160.04292369338776L42.46974992752075,159.03801460597325L44.704999923706055,157.74276190145835L46.94024991989136,155.65618003637323L49.17549991607666,152.64736588437108L51.41074991226196,151.4282094712384L53.645999908447266,149.10915225044116L55.88124990463257,147.74225961007238L58.11649990081787,145.53983687793504L60.351749897003174,144.21740141567173L62.58699989318848,142.10573819345345L64.82224988937378,137.04279473741573L67.05749988555908,130.47293645413586L69.29274988174438,125.36441860187259L71.52799987792969,119.77286254267086L73.76324987411499,115.62227215079707L75.9984998703003,113.39684813149404L78.2337498664856,112.8591664316242L80.4689998626709,113.26312960835081L82.7042498588562,114.06169270185825L84.9394998550415,114.10326506530012L87.1747498512268,114.71725369209679L89.40999984741211,115.49643674198184L91.64524984359741,114.9723872332884L93.88049983978271,114.24505808434398L96.11574983596802,112.79284191952614L98.35099983215332,108.41142054771194L100.58624982833862,105.05989232607496L102.82149982452393,103.07015184163028L105.05674982070923,103.51857479293784L107.29199981689453,105.0647852431961L109.52724981307983,106.59153620719657L111.76249980926514,107.62547692086007L113.99774980545044,109.51642603594101L116.23299980163574,110.07079428439498L118.46824979782104,106.62460225643167L120.70349979400635,103.23405097794492L122.93874979019165,101.9452759384157L125.17399978637695,102.03286043759626L127.40924978256226,102.78471952889508L129.64449977874756,103.6102761285777L131.87974977493286,104.50844871990782L134.11499977111816,105.374734727512L136.35024976730347,107.01101437002828L138.58549976348877,107.88535852045963L140.82074975967407,108.68923400763802L143.05599975585938,109.38965199713368L145.29124975204468,110.5126188809921L147.52649974822998,76.40694239238334L149.76174974441528,51.5670781337591L151.9969997406006,36.03216742604364L154.2322497367859,27.257264101148632L156.4674997329712,22.303234016788263L158.7027497291565,19.90525655251821L160.9379997253418,19.711578158428647L163.1732497215271,19.493545848547924L165.4084997177124,17.358188450435268L167.6437497138977,17.559403948449937L169.878999710083,18.675100042507104L172.1142497062683,19.702650572971667L174.3494997024536,19.937031857113247L176.58474969863892,19.353362447610763L178.81999969482422,20.28080429247252L181.05524969100952,21.75101938292515L183.29049968719482,23.00913115995466L185.52574968338013,25.153933492371895L187.76099967956543,26.594566997913866L189.99624967575073,29.30965187165552L192.23149967193604,31.60953256537911L194.46674966812134,33.52365827264458L196.70199966430664,34.99059122545162L198.93724966049194,37.09557516259875L201.17249965667725,38.89698187107233L203.40774965286255,41.90325662420391L205.64299964904785,45.35164162936401L207.87824964523315,48.20533575541944L210.11349964141846,49.8736578303166L212.34874963760376,52.12462730028924L214.58399963378906,54.56315726226084L216.81924962997437,57.40842148074378L219.05449962615967,58.96239585547471L221.28974962234497,59.36747972174504L223.52499961853027,60.636571800678155L225.76024961471558,61.98082460901568L227.99549961090088,63.479463610618794L230.23074960708618,65.68955612931973L232.46599960327148,68.76992722782454L234.7012495994568,70.85100927715499L236.9364995956421,71.28213543499899L239.1717495918274,72.7065685230129L241.4069995880127,74.74929808003931L243.642249584198,76.13663921659817L245.8774995803833,77.44068558334007" fill="none"></path></g></g></g></g><g opacity="0.2"><g><g><g><path style="fill: none;" stroke="rgb(255, 112, 67)" stroke-width="2px" d="M24.58774995803833,154.01804774196097L26.822999954223633,154.76875558449854L29.058249950408936,157.65049195816275L31.29349994659424,158.10911136696507L33.52874994277954,158.43730517653705L35.763999938964844,161.0145799258703L37.99924993515015,161.54541008634604L40.23449993133545,159.98983633751584L42.46974992752075,157.55596889557899L44.704999923706055,155.819462589185L46.94024991989136,152.54523238268908L49.17549991607666,148.15051849011437L51.41074991226196,149.60345560875706L53.645999908447266,145.63510969375977L55.88124990463257,145.69352738050682L58.11649990081787,142.23775609887684L60.351749897003174,142.23430783264524L62.58699989318848,138.93877951118947L64.82224988937378,129.44915084183586L67.05749988555908,120.61874954028748L69.29274988174438,117.70192198673703L71.52799987792969,111.38571244640268L73.76324987411499,109.3964685091517L75.9984998703003,110.05873846480831L78.2337498664856,112.05264770343148L80.4689998626709,113.86907265072246L82.7042498588562,115.25953529881623L84.9394998550415,114.16562354663975L87.1747498512268,115.63823606672156L89.40999984741211,116.66521088616705L91.64524984359741,114.18631314402934L93.88049983978271,113.15406450564143L96.11574983596802,110.61451784566563L98.35099983215332,101.83928880382283L100.58624982833862,100.03260013765635L102.82149982452393,100.08554116627084L105.05674982070923,104.19120921296172L107.29199981689453,107.38410090423L109.52724981307983,108.88166264469336L111.76249980926514,109.17638798789982L113.99774980545044,112.35284970477046L116.23299980163574,110.9023466564089L118.46824979782104,101.45531421697503L120.70349979400635,98.14822406168389L122.93874979019165,100.01211337945685L125.17399978637695,102.16423718635326L127.40924978256226,103.91250816577269L129.64449977874756,104.8486110280561L131.87974977493286,105.85570760687237L134.11499977111816,106.6741637389013L136.35024976730347,109.46543383378362L138.58549976348877,109.1968747460993L140.82074975967407,109.89504723840253L143.05599975585938,110.44027898137497L145.29124975204468,112.19706920677834L147.52649974822998,25.248427659502145L149.76174974441528,14.307281745836516L151.9969997406006,12.729801364476163L154.2322497367859,14.094909113808184L156.4674997329712,14.87218889024806L158.7027497291565,16.308290356112956L160.9379997253418,19.42106056729413L163.1732497215271,19.166497383726284L165.4084997177124,14.155152353266072L167.6437497138977,17.861227195471958L169.878999710083,20.348644183593596L172.1142497062683,21.24397636866813L174.3494997024536,20.288603783325794L176.58474969863892,18.477858333357446L178.81999969482422,21.671967059766274L181.05524969100952,23.956342018603923L183.29049968719482,24.89629882549911L185.52574968338013,28.371136990997925L187.76099967956543,28.755517256225872L189.99624967575073,33.38227918226801L192.23149967193604,35.059353605964475L194.46674966812134,36.39484683354279L196.70199966430664,37.190990654661405L198.93724966049194,40.2530510683191L201.17249965667725,41.5990919337823L203.40774965286255,46.412668753900924L205.64299964904785,50.52421913710453L207.87824964523315,52.48587694450276L210.11349964141846,52.376140942661955L212.34874963760376,55.50108150524876L214.58399963378906,58.220952205218026L216.81924962997437,61.67631780846783L219.05449962615967,61.293357417570526L221.28974962234497,59.97510552115018L223.52499961853027,62.540209919077796L225.76024961471558,63.997203821522376L227.99549961090088,65.72742211302344L230.23074960708618,69.00469490737078L232.46599960327148,73.39048387558134L234.7012495994568,73.97263235115088L236.9364995956421,71.92882467176462L239.1717495918274,74.84321815503395L241.4069995880127,77.81339241557912L243.642249584198,78.21765092143626L245.8774995803833,79.39675513345219" fill="none"></path></g></g></g></g></g></g><g transform="translate(61, 176)" clip-path="url(#clip_1)"><clipPath id="clip_1"><rect width="268" height="23"></rect></clipPath><g><g><line x1="0" y1="0" x2="0" y2="5" style="visibility: inherit;" fill="rgb(0, 0, 0)" stroke="rgb(204, 204, 204)" stroke-width="1px"></line><line x1="22.352499961853027" y1="0" x2="22.352499961853027" y2="5" style="visibility: inherit;" fill="rgb(0, 0, 0)" stroke="rgb(204, 204, 204)" stroke-width="1px"></line><line x1="44.704999923706055" y1="0" x2="44.704999923706055" y2="5" style="visibility: inherit;" fill="rgb(0, 0, 0)" stroke="rgb(204, 204, 204)" stroke-width="1px"></line><line x1="67.05749988555908" y1="0" x2="67.05749988555908" y2="5" style="visibility: inherit;" fill="rgb(0, 0, 0)" stroke="rgb(204, 204, 204)" stroke-width="1px"></line><line x1="89.40999984741211" y1="0" x2="89.40999984741211" y2="5" style="visibility: inherit;" fill="rgb(0, 0, 0)" stroke="rgb(204, 204, 204)" stroke-width="1px"></line><line x1="111.76249980926514" y1="0" x2="111.76249980926514" y2="5" style="visibility: inherit;" fill="rgb(0, 0, 0)" stroke="rgb(204, 204, 204)" stroke-width="1px"></line><line x1="134.11499977111816" y1="0" x2="134.11499977111816" y2="5" style="visibility: inherit;" fill="rgb(0, 0, 0)" stroke="rgb(204, 204, 204)" stroke-width="1px"></line><line x1="156.4674997329712" y1="0" x2="156.4674997329712" y2="5" style="visibility: inherit;" fill="rgb(0, 0, 0)" stroke="rgb(204, 204, 204)" stroke-width="1px"></line><line x1="178.81999969482422" y1="0" x2="178.81999969482422" y2="5" style="visibility: inherit;" fill="rgb(0, 0, 0)" stroke="rgb(204, 204, 204)" stroke-width="1px"></line><line x1="201.17249965667725" y1="0" x2="201.17249965667725" y2="5" style="visibility: inherit;" fill="rgb(0, 0, 0)" stroke="rgb(204, 204, 204)" stroke-width="1px"></line><line x1="223.52499961853027" y1="0" x2="223.52499961853027" y2="5" style="visibility: inherit;" fill="rgb(0, 0, 0)" stroke="rgb(204, 204, 204)" stroke-width="1px"></line><line x1="245.8774995803833" y1="0" x2="245.8774995803833" y2="5" style="visibility: inherit;" fill="rgb(0, 0, 0)" stroke="rgb(204, 204, 204)" stroke-width="1px"></line><line x1="268.2299995422363" y1="0" x2="268.2299995422363" y2="5" style="visibility: inherit;" fill="rgb(0, 0, 0)" stroke="rgb(204, 204, 204)" stroke-width="1px"></line></g><g transform="translate(0, 8)"><text style="text-anchor: middle; visibility: hidden; font-family: Roboto, sans-serif; font-size: 12px; font-weight: 200;" x="0" y="0" dx="0em" dy="0.95em" fill="rgb(33, 33, 33)" stroke="none" stroke-width="1px">-1k</text><text style="text-anchor: middle; visibility: inherit; font-family: Roboto, sans-serif; font-size: 12px; font-weight: 200;" x="22.352499961853027" y="0" dx="0em" dy="0.95em" fill="rgb(33, 33, 33)" stroke="none" stroke-width="1px">0</text><text style="text-anchor: middle; visibility: hidden; font-family: Roboto, sans-serif; font-size: 12px; font-weight: 200;" x="44.704999923706055" y="0" dx="0em" dy="0.95em" fill="rgb(33, 33, 33)" stroke="none" stroke-width="1px">1k</text><text style="text-anchor: middle; visibility: inherit; font-family: Roboto, sans-serif; font-size: 12px; font-weight: 200;" x="67.05749988555908" y="0" dx="0em" dy="0.95em" fill="rgb(33, 33, 33)" stroke="none" stroke-width="1px">2k</text><text style="text-anchor: middle; visibility: hidden; font-family: Roboto, sans-serif; font-size: 12px; font-weight: 200;" x="89.40999984741211" y="0" dx="0em" dy="0.95em" fill="rgb(33, 33, 33)" stroke="none" stroke-width="1px">3k</text><text style="text-anchor: middle; visibility: inherit; font-family: Roboto, sans-serif; font-size: 12px; font-weight: 200;" x="111.76249980926514" y="0" dx="0em" dy="0.95em" fill="rgb(33, 33, 33)" stroke="none" stroke-width="1px">4k</text><text style="text-anchor: middle; visibility: hidden; font-family: Roboto, sans-serif; font-size: 12px; font-weight: 200;" x="134.11499977111816" y="0" dx="0em" dy="0.95em" fill="rgb(33, 33, 33)" stroke="none" stroke-width="1px">5k</text><text style="text-anchor: middle; visibility: inherit; font-family: Roboto, sans-serif; font-size: 12px; font-weight: 200;" x="156.4674997329712" y="0" dx="0em" dy="0.95em" fill="rgb(33, 33, 33)" stroke="none" stroke-width="1px">6k</text><text style="text-anchor: middle; visibility: hidden; font-family: Roboto, sans-serif; font-size: 12px; font-weight: 200;" x="178.81999969482422" y="0" dx="0em" dy="0.95em" fill="rgb(33, 33, 33)" stroke="none" stroke-width="1px">7k</text><text style="text-anchor: middle; visibility: inherit; font-family: Roboto, sans-serif; font-size: 12px; font-weight: 200;" x="201.17249965667725" y="0" dx="0em" dy="0.95em" fill="rgb(33, 33, 33)" stroke="none" stroke-width="1px">8k</text><text style="text-anchor: middle; visibility: hidden; font-family: Roboto, sans-serif; font-size: 12px; font-weight: 200;" x="223.52499961853027" y="0" dx="0em" dy="0.95em" fill="rgb(33, 33, 33)" stroke="none" stroke-width="1px">9k</text><text style="text-anchor: middle; visibility: inherit; font-family: Roboto, sans-serif; font-size: 12px; font-weight: 200;" x="245.8774995803833" y="0" dx="0em" dy="0.95em" fill="rgb(33, 33, 33)" stroke="none" stroke-width="1px">10k</text><text style="text-anchor: middle; visibility: hidden; font-family: Roboto, sans-serif; font-size: 12px; font-weight: 200;" x="268.2299995422363" y="0" dx="0em" dy="0.95em" fill="rgb(33, 33, 33)" stroke="none" stroke-width="1px">11k</text></g><line x1="0" y1="0" x2="268.2299995422363" y2="0" fill="rgb(0, 0, 0)" stroke="rgb(204, 204, 204)" stroke-width="1px"></line></g></g></g></g></svg>