<svg viewBox="0 0 330 200" xmlns="http://www.w3.org/2000/svg"><g><g><g><g><g><line x1="51.41600036621094" y1="163.34769146259015" x2="46.41600036621094" y2="163.34769146259015" style="visibility: inherit;" fill="rgb(0, 0, 0)" stroke="rgb(204, 204, 204)" stroke-width="1px"></line><line x1="51.41600036621094" y1="149.73538384070764" x2="46.41600036621094" y2="149.73538384070764" style="visibility: inherit;" fill="rgb(0, 0, 0)" stroke="rgb(204, 204, 204)" stroke-width="1px"></line><line x1="51.41600036621094" y1="136.12307621882513" x2="46.41600036621094" y2="136.12307621882513" style="visibility: inherit;" fill="rgb(0, 0, 0)" stroke="rgb(204, 204, 204)" stroke-width="1px"></line><line x1="51.41600036621094" y1="122.51076859694261" x2="46.41600036621094" y2="122.51076859694261" style="visibility: inherit;" fill="rgb(0, 0, 0)" stroke="rgb(204, 204, 204)" stroke-width="1px"></line><line x1="51.41600036621094" y1="108.8984609750601" x2="46.41600036621094" y2="108.8984609750601" style="visibility: inherit;" fill="rgb(0, 0, 0)" stroke="rgb(204, 204, 204)" stroke-width="1px"></line><line x1="51.41600036621094" y1="95.2861533531776" x2="46.41600036621094" y2="95.2861533531776" style="visibility: inherit;" fill="rgb(0, 0, 0)" stroke="rgb(204, 204, 204)" stroke-width="1px"></line><line x1="51.41600036621094" y1="81.67384573129506" x2="46.41600036621094" y2="81.67384573129506" style="visibility: inherit;" fill="rgb(0, 0, 0)" stroke="rgb(204, 204, 204)" stroke-width="1px"></line><line x1="51.41600036621094" y1="68.06153810941257" x2="46.41600036621094" y2="68.06153810941257" style="visibility: inherit;" fill="rgb(0, 0, 0)" stroke="rgb(204, 204, 204)" stroke-width="1px"></line><line x1="51.41600036621094" y1="54.44923048753005" x2="46.41600036621094" y2="54.44923048753005" style="visibility: inherit;" fill="rgb(0, 0, 0)" stroke="rgb(204, 204, 204)" stroke-width="1px"></line><line x1="51.41600036621094" y1="40.83692286564753" x2="46.41600036621094" y2="40.83692286564753" style="visibility: inherit;" fill="rgb(0, 0, 0)" stroke="rgb(204, 204, 204)" stroke-width="1px"></line><line x1="51.41600036621094" y1="27.224615243765044" x2="46.41600036621094" y2="27.224615243765044" style="visibility: inherit;" fill="rgb(0, 0, 0)" stroke="rgb(204, 204, 204)" stroke-width="1px"></line><line x1="51.41600036621094" y1="13.612307621882522" x2="46.41600036621094" y2="13.612307621882522" style="visibility: inherit;" fill="rgb(0, 0, 0)" stroke="rgb(204, 204, 204)" stroke-width="1px"></line><line x1="51.41600036621094" y1="0" x2="46.41600036621094" y2="0" style="visibility: inherit;" fill="rgb(0, 0, 0)" stroke="rgb(204, 204, 204)" stroke-width="1px"></line></g><g transform="translate(41.41600036621094, 0)"><text style="text-anchor: end; visibility: inherit; font-family: Roboto, sans-serif; font-size: 12px; font-weight: 200;" x="0" y="163.34769146259015" dx="0em" dy="0.3em" fill="rgb(33, 33, 33)" stroke="none" stroke-width="1px">0.16</text><text style="text-anchor: end; visibility: hidden; font-family: Roboto, sans-serif; font-size: 12px; font-weight: 200;" x="0" y="149.73538384070764" dx="0em" dy="0.3em" fill="rgb(33, 33, 33)" stroke="none" stroke-width="1px">0.18</text><text style="text-anchor: end; visibility: inherit; font-family: Roboto, sans-serif; font-size: 12px; font-weight: 200;" x="0" y="136.12307621882513" dx="0em" dy="0.3em" fill="rgb(33, 33, 33)" stroke="none" stroke-width="1px">0.2</text><text style="text-anchor: end; visibility: hidden; font-family: Roboto, sans-serif; font-size: 12px; font-weight: 200;" x="0" y="122.51076859694261" dx="0em" dy="0.3em" fill="rgb(33, 33, 33)" stroke="none" stroke-width="1px">0.22</text><text style="text-anchor: end; visibility: inherit; font-family: Roboto, sans-serif; font-size: 12px; font-weight: 200;" x="0" y="108.8984609750601" dx="0em" dy="0.3em" fill="rgb(33, 33, 33)" stroke="none" stroke-width="1px">0.24</text><text style="text-anchor: end; visibility: hidden; font-family: Roboto, sans-serif; font-size: 12px; font-weight: 200;" x="0" y="95.2861533531776" dx="0em" dy="0.3em" fill="rgb(33, 33, 33)" stroke="none" stroke-width="1px">0.26</text><text style="text-anchor: end; visibility: inherit; font-family: Roboto, sans-serif; font-size: 12px; font-weight: 200;" x="0" y="81.67384573129506" dx="0em" dy="0.3em" fill="rgb(33, 33, 33)" stroke="none" stroke-width="1px">0.28</text><text style="text-anchor: end; visibility: hidden; font-family: Roboto, sans-serif; font-size: 12px; font-weight: 200;" x="0" y="68.06153810941257" dx="0em" dy="0.3em" fill="rgb(33, 33, 33)" stroke="none" stroke-width="1px">0.3</text><text style="text-anchor: end; visibility: inherit; font-family: Roboto, sans-serif; font-size: 12px; font-weight: 200;" x="0" y="54.44923048753005" dx="0em" dy="0.3em" fill="rgb(33, 33, 33)" stroke="none" stroke-width="1px">0.32</text><text style="text-anchor: end; visibility: hidden; font-family: Roboto, sans-serif; font-size: 12px; font-weight: 200;" x="0" y="40.83692286564753" dx="0em" dy="0.3em" fill="rgb(33, 33, 33)" stroke="none" stroke-width="1px">0.34</text><text style="text-anchor: end; visibility: inherit; font-family: Roboto, sans-serif; font-size: 12px; font-weight: 200;" x="0" y="27.224615243765044" dx="0em" dy="0.3em" fill="rgb(33, 33, 33)" stroke="none" stroke-width="1px">0.36</text><text style="text-anchor: end; visibility: hidden; font-family: Roboto, sans-serif; font-size: 12px; font-weight: 200;" x="0" y="13.612307621882522" dx="0em" dy="0.3em" fill="rgb(33, 33, 33)" stroke="none" stroke-width="1px">0.38</text><text style="text-anchor: end; visibility: hidden; font-family: Roboto, sans-serif; font-size: 12px; font-weight: 200;" x="0" y="0" dx="0em" dy="0.3em" fill="rgb(33, 33, 33)" stroke="none" stroke-width="1px">0.4</text></g><line x1="51.41600036621094" y1="0" x2="51.41600036621094" y2="176.95999908447266" fill="rgb(0, 0, 0)" stroke="rgb(204, 204, 204)" stroke-width="1px"></line></g></g><g transform="translate(51, 0)" clip-path="url(#clip_0)"><clipPath id="clip_0"><rect width="278" height="176"></rect></clipPath><g><g><g><line x1="0" y1="0" x2="0" y2="176.95999908447266" fill="rgb(0, 0, 0)" stroke="rgb(66, 66, 66)" stroke-width="1px" opacity="0.25"></line><line x1="23.215333302815754" y1="0" x2="23.215333302815754" y2="176.95999908447266" fill="rgb(0, 0, 0)" stroke="rgb(66, 66, 66)" stroke-width="1px" opacity="0.25"></line><line x1="46.43066660563151" y1="0" x2="46.43066660563151" y2="176.95999908447266" fill="rgb(0, 0, 0)" stroke="rgb(66, 66, 66)" stroke-width="1px" opacity="0.25"></line><line x1="69.64599990844727" y1="0" x2="69.64599990844727" y2="176.95999908447266" fill="rgb(0, 0, 0)" stroke="rgb(66, 66, 66)" stroke-width="1px" opacity="0.25"></line><line x1="92.86133321126302" y1="0" x2="92.86133321126302" y2="176.95999908447266" fill="rgb(0, 0, 0)" stroke="rgb(66, 66, 66)" stroke-width="1px" opacity="0.25"></line><line x1="116.07666651407878" y1="0" x2="116.07666651407878" y2="176.95999908447266" fill="rgb(0, 0, 0)" stroke="rgb(66, 66, 66)" stroke-width="1px" opacity="0.25"></line><line x1="139.29199981689453" y1="0" x2="139.29199981689453" y2="176.95999908447266" fill="rgb(0, 0, 0)" stroke="rgb(66, 66, 66)" stroke-width="1px" opacity="0.25"></line><line x1="162.5073331197103" y1="0" x2="162.5073331197103" y2="176.95999908447266" fill="rgb(0, 0, 0)" stroke="rgb(66, 66, 66)" stroke-width="1px" opacity="0.25"></line><line x1="185.72266642252603" y1="0" x2="185.72266642252603" y2="176.95999908447266" fill="rgb(0, 0, 0)" stroke="rgb(66, 66, 66)" stroke-width="1px" opacity="0.25"></line><line x1="208.9379997253418" y1="0" x2="208.9379997253418" y2="176.95999908447266" fill="rgb(0, 0, 0)" stroke="rgb(66, 66, 66)" stroke-width="1px" opacity="0.25"></line><line x1="232.15333302815756" y1="0" x2="232.15333302815756" y2="176.95999908447266" fill="rgb(0, 0, 0)" stroke="rgb(66, 66, 66)" stroke-width="1px" opacity="0.25"></line><line x1="255.3686663309733" y1="0" x2="255.3686663309733" y2="176.95999908447266" fill="rgb(0, 0, 0)" stroke="rgb(66, 66, 66)" stroke-width="1px" opacity="0.25"></line><line x1="278.58399963378906" y1="0" x2="278.58399963378906" y2="176.95999908447266" fill="rgb(0, 0, 0)" stroke="rgb(66, 66, 66)" stroke-width="1px" opacity="0.25"></line></g><g><line x1="0" y1="163.34769146259015" x2="278.58399963378906" y2="163.34769146259015" fill="rgb(0, 0, 0)" stroke="rgb(66, 66, 66)" stroke-width="1px" opacity="0.25"></line><line x1="0" y1="149.73538384070764" x2="278.58399963378906" y2="149.73538384070764" fill="rgb(0, 0, 0)" stroke="rgb(66, 66, 66)" stroke-width="1px" opacity="0.25"></line><line x1="0" y1="136.12307621882513" x2="278.58399963378906" y2="136.12307621882513" fill="rgb(0, 0, 0)" stroke="rgb(66, 66, 66)" stroke-width="1px" opacity="0.25"></line><line x1="0" y1="122.51076859694261" x2="278.58399963378906" y2="122.51076859694261" fill="rgb(0, 0, 0)" stroke="rgb(66, 66, 66)" stroke-width="1px" opacity="0.25"></line><line x1="0" y1="108.8984609750601" x2="278.58399963378906" y2="108.8984609750601" fill="rgb(0, 0, 0)" stroke="rgb(66, 66, 66)" stroke-width="1px" opacity="0.25"></line><line x1="0" y1="95.2861533531776" x2="278.58399963378906" y2="95.2861533531776" fill="rgb(0, 0, 0)" stroke="rgb(66, 66, 66)" stroke-width="1px" opacity="0.25"></line><line x1="0" y1="81.67384573129506" x2="278.58399963378906" y2="81.67384573129506" fill="rgb(0, 0, 0)" stroke="rgb(66, 66, 66)" stroke-width="1px" opacity="0.25"></line><line x1="0" y1="68.06153810941257" x2="278.58399963378906" y2="68.06153810941257" fill="rgb(0, 0, 0)" stroke="rgb(66, 66, 66)" stroke-width="1px" opacity="0.25"></line><line x1="0" y1="54.44923048753005" x2="278.58399963378906" y2="54.44923048753005" fill="rgb(0, 0, 0)" stroke="rgb(66, 66, 66)" stroke-width="1px" opacity="0.25"></line><line x1="0" y1="40.83692286564753" x2="278.58399963378906" y2="40.83692286564753" fill="rgb(0, 0, 0)" stroke="rgb(66, 66, 66)" stroke-width="1px" opacity="0.25"></line><line x1="0" y1="27.224615243765044" x2="278.58399963378906" y2="27.224615243765044" fill="rgb(0, 0, 0)" stroke="rgb(66, 66, 66)" stroke-width="1px" opacity="0.25"></line><line x1="0" y1="13.612307621882522" x2="278.58399963378906" y2="13.612307621882522" fill="rgb(0, 0, 0)" stroke="rgb(66, 66, 66)" stroke-width="1px" opacity="0.25"></line><line x1="0" y1="0" x2="278.58399963378906" y2="0" fill="rgb(0, 0, 0)" stroke="rgb(66, 66, 66)" stroke-width="1px" opacity="0.25"></line></g></g></g><g><g><line x1="0" y1="272.24615243765027" x2="278.58399963378906" y2="272.24615243765027" fill="rgb(0, 0, 0)" stroke="rgb(153, 153, 153)" stroke-width="1.5px"></line></g></g><g><g><line x1="23.215333302815754" y1="0" x2="23.215333302815754" y2="176.95999908447266" fill="rgb(0, 0, 0)" stroke="rgb(153, 153, 153)" stroke-width="1.5px"></line></g></g><g><g><g><g><g><path style="fill: none;" stroke="rgb(255, 112, 67)" stroke-width="2px" d="M25.53686663309733,-9.565555434989538L27.858399963378908,29.902906850933352L30.179933293660483,48.920875169410216L32.50146662394206,-19.614619437882137L34.82299995422363,-7.037171124031978L37.14453328450521,24.199229302120816L39.46606661478678,-30.803172619427556L41.78759994506836,13.15527881322531L44.10913327534993,30.80702353876336L46.43066660563151,63.49290691530045L48.75219993591308,80.53782367599801L51.07373326619466,93.47151959730897L53.39526659647624,118.99915854589582L55.716799926757815,81.44101093742823L58.03833325703939,86.96410961784291L60.359866587320965,113.26773438148314L62.68139991760254,93.16920715175006L65.00293324788412,108.22290540004586L67.3244665781657,117.7580250192922L69.64599990844727,139.52842308322022L71.96753323872885,148.9434498227183L74.28906656901042,155.7185238578719L76.610599899292,92.3475158654462L78.93213322957357,116.02798427172688L81.25366655985515,135.7745670058876L83.57519989013672,148.27460576843083L85.8967332204183,46.11806700684068L88.21826655069987,68.37202052263015L90.53979988098145,114.56231238758018L92.86133321126302,122.15728292015314L95.1828665415446,47.8243198699267L97.50439987182617,81.9372232204346L99.82593320210775,127.1824634279678L102.14746653238932,127.49337406224356L104.4689998626709,129.81485568773678L106.79053319295248,137.3921736765946L109.11206652323405,138.21033140148515L111.43359985351563,150.61964309540485L113.7551331837972,150.36080939168383L116.07666651407878,161.00728429041163L118.39819984436035,161.07653777520815L120.71973317464193,172.48877819609044L123.0412665049235,166.28728870214908L125.36279983520508,164.78822653027927L127.68433316548665,173.07207798240051L130.00586649576823,172.7545658926666L132.3273998260498,158.7609612855943L134.6489331563314,150.31343152518554L136.97046648661293,116.56638524408488L139.29199981689453,129.479500966974L141.6135331471761,121.41104134796439L143.9350664774577,137.8010097299098L146.25659980773926,122.63134050918183L148.57813313802083,153.71691355511936L150.8996664683024,131.49578938299408L153.221199798584,75.49790340822304L155.54273312886556,68.01702991473817L157.86426645914713,86.81419332083688L160.1857997894287,119.25751541816877L162.5073331197103,65.8893064116734L164.82886644999186,108.31539418416023L167.15039978027343,132.16860507555816L169.471933110555,140.918425440642L171.7934664408366,144.09911857049005L174.11499977111816,155.54438408120632L176.43653310139973,154.66902951431834L178.75806643168133,121.69259706057855L181.0795997619629,140.1375598216664L183.40113309224446,124.65073739961097L185.72266642252603,149.06390072560507L188.04419975280763,132.64052241529006L190.3657330830892,145.64849648780213L192.68726641337076,157.18720559431512L195.00879974365233,121.22323237709543L197.33033307393393,48.62474753027987L199.6518664042155,97.72474063893709L201.97339973449706,126.34724188572024L204.29493306477863,123.53316762434231L206.61646639506023,142.37914036310517L208.9379997253418,150.04006076293552L211.25953305562336,158.8910838793775L213.58106638590496,157.92915948653555L215.90259971618653,159.0731521737505L218.2241330464681,172.70008973846026L220.54566637674967,149.18918255934426L222.86719970703126,153.44535775872376L225.18873303731283,156.21171137167838L227.5102663675944,130.8955542544005L229.83179969787597,149.5851649587132L232.15333302815756,150.56474089686947L234.47486635843913,129.88948296370768L236.7963996887207,141.75280403627144L239.11793301900227,112.24257443313962L241.43946634928386,35.92272613090701L243.76099967956543,-23.241964974944022L246.082533009847,50.237228376106266L248.4040663401286,94.41805041417962L250.72559967041016,137.75182727542077L253.04713300069173,151.69424471492437L255.3686663309733,140.25960037579873" fill="none"></path></g></g></g></g><g opacity="0.2"><g><g><g><path style="fill: none;" stroke="rgb(255, 112, 67)" stroke-width="2px" d="M25.53686663309733,-9.565555434989538L27.858399963378908,53.58398422248702L30.179933293660483,67.17812475514796L32.50146662394206,-100.21236109605802L34.82299995422363,9.383945394530883L37.14453328450521,67.41041619564352L39.46606661478678,-109.45748740567242L41.78759994506836,77.24712300316679L44.10913327534993,56.83991833403648L46.43066660563151,112.02763438586581L48.75219993591308,105.95060267653069L51.07373326619466,112.80167887722368L53.39526659647624,157.20726479846147L55.716799926757815,25.177369845785073L58.03833325703939,95.24226544329535L60.359866587320965,152.70462017283782L62.68139991760254,63.029921330294385L65.00293324788412,130.79963064013504L67.3244665781657,132.05925186865872L69.64599990844727,172.18203027849665L71.96753323872885,163.06547358952326L74.28906656901042,165.88091197390528L76.610599899292,-2.7077449731854446L78.93213322957357,151.548406363424L81.25366655985515,165.39430075687L83.57519989013672,167.0246106052903L85.8967332204183,-107.11647974496054L88.21826655069987,101.75291663125373L90.53979988098145,183.8477076372182L92.86133321126302,133.5497345213878L95.1828665415446,-63.67510005579367L97.50439987182617,133.1065714588706L99.82593320210775,195.05031833789468L102.14746653238932,127.9597399913872L104.4689998626709,133.29707802620683L106.79053319295248,148.75815046449213L109.11206652323405,139.4375679761628L111.43359985351563,169.23361052108905L113.7551331837972,149.9725588375439L116.07666651407878,176.97699660292415L118.39819984436035,161.180418002264L120.71973317464193,189.60713881368403L123.0412665049235,156.9850544657136L125.36279983520508,162.53963327312383L127.68433316548665,185.4978551584297L130.00586649576823,172.2782977581152L132.3273998260498,137.770554376295L134.6489331563314,137.64213688504654L136.97046648661293,65.94581582357041L139.29199981689453,148.8491745510468L141.6135331471761,109.3083519195478L143.9350664774577,162.38596230270866L146.25659980773926,99.87683667815612L148.57813313802083,200.34527312394417L150.8996664683024,98.16410312484113L153.221199798584,-8.4989255538807L155.54273312886556,56.79571967451503L157.86426645914713,115.00993842997856L160.1857997894287,167.92249856416004L162.5073331197103,-14.163007098063108L164.82886644999186,171.9545258428873L167.15039978027343,167.94842141265403L169.471933110555,154.04315598826753L171.7934664408366,148.870158265262L174.11499977111816,172.71228234728062L176.43653310139973,153.3559976639864L178.75806643168133,72.22794837996898L181.0795997619629,167.8050039632981L183.40113309224446,101.42050376652782L185.72266642252603,185.68364571459622L188.04419975280763,108.00545494981758L190.3657330830892,165.16045759657024L192.68726641337076,174.49526925408463L195.00879974365233,67.27727255126587L197.33033307393393,-60.27297973994353L199.6518664042155,171.37473030192288L201.97339973449706,169.280993755895L204.29493306477863,119.3120562322754L206.61646639506023,170.64809947124945L208.9379997253418,161.53144136268102L211.25953305562336,172.16761855404047L213.58106638590496,156.48627289727267L215.90259971618653,160.78914120457284L218.2241330464681,193.14049608552492L220.54566637674967,113.92282179067024L222.86719970703126,159.8296205577931L225.18873303731283,160.36124179111025L227.5102663675944,92.92131857848378L229.83179969787597,177.61958101518215L232.15333302815756,152.03410480410386L234.47486635843913,98.87659606396501L236.7963996887207,159.5477856451171L239.11793301900227,67.97723002844192L241.43946634928386,-78.55704632244186L243.76099967956543,-111.98900163372049L246.082533009847,160.45601840268162L248.4040663401286,160.68928347128963L250.72559967041016,202.75249256728242L253.04713300069173,172.60787087417978L255.3686663309733,123.10763386711022" fill="none"></path></g></g></g></g></g></g><g transform="translate(51, 176)" clip-path="url(#clip_1)"><clipPath id="clip_1"><rect width="278" height="23"></rect></clipPath><g><g><line x1="0" y1="0" x2="0" y2="5" style="visibility: inherit;" fill="rgb(0, 0, 0)" stroke="rgb(204, 204, 204)" stroke-width="1px"></line><line x1="23.215333302815754" y1="0" x2="23.215333302815754" y2="5" style="visibility: inherit;" fill="rgb(0, 0, 0)" stroke="rgb(204, 204, 204)" stroke-width="1px"></line><line x1="46.43066660563151" y1="0" x2="46.43066660563151" y2="5" style="visibility: inherit;" fill="rgb(0, 0, 0)" stroke="rgb(204, 204, 204)" stroke-width="1px"></line><line x1="69.64599990844727" y1="0" x2="69.64599990844727" y2="5" style="visibility: inherit;" fill="rgb(0, 0, 0)" stroke="rgb(204, 204, 204)" stroke-width="1px"></line><line x1="92.86133321126302" y1="0" x2="92.86133321126302" y2="5" style="visibility: inherit;" fill="rgb(0, 0, 0)" stroke="rgb(204, 204, 204)" stroke-width="1px"></line><line x1="116.07666651407878" y1="0" x2="116.07666651407878" y2="5" style="visibility: inherit;" fill="rgb(0, 0, 0)" stroke="rgb(204, 204, 204)" stroke-width="1px"></line><line x1="139.29199981689453" y1="0" x2="139.29199981689453" y2="5" style="visibility: inherit;" fill="rgb(0, 0, 0)" stroke="rgb(204, 204, 204)" stroke-width="1px"></line><line x1="162.5073331197103" y1="0" x2="162.5073331197103" y2="5" style="visibility: inherit;" fill="rgb(0, 0, 0)" stroke="rgb(204, 204, 204)" stroke-width="1px"></line><line x1="185.72266642252603" y1="0" x2="185.72266642252603" y2="5" style="visibility: inherit;" fill="rgb(0, 0, 0)" stroke="rgb(204, 204, 204)" stroke-width="1px"></line><line x1="208.9379997253418" y1="0" x2="208.9379997253418" y2="5" style="visibility: inherit;" fill="rgb(0, 0, 0)" stroke="rgb(204, 204, 204)" stroke-width="1px"></line><line x1="232.15333302815756" y1="0" x2="232.15333302815756" y2="5" style="visibility: inherit;" fill="rgb(0, 0, 0)" stroke="rgb(204, 204, 204)" stroke-width="1px"></line><line x1="255.3686663309733" y1="0" x2="255.3686663309733" y2="5" style="visibility: inherit;" fill="rgb(0, 0, 0)" stroke="rgb(204, 204, 204)" stroke-width="1px"></line><line x1="278.58399963378906" y1="0" x2="278.58399963378906" y2="5" style="visibility: inherit;" fill="rgb(0, 0, 0)" stroke="rgb(204, 204, 204)" stroke-width="1px"></line></g><g transform="translate(0, 8)"><text style="text-anchor: middle; visibility: hidden; font-family: Roboto, sans-serif; font-size: 12px; font-weight: 200;" x="0" y="0" dx="0em" dy="0.95em" fill="rgb(33, 33, 33)" stroke="none" stroke-width="1px">-1k</text><text style="text-anchor: middle; visibility: inherit; font-family: Roboto, sans-serif; font-size: 12px; font-weight: 200;" x="23.215333302815754" y="0" dx="0em" dy="0.95em" fill="rgb(33, 33, 33)" stroke="none" stroke-width="1px">0</text><text style="text-anchor: middle; visibility: hidden; font-family: Roboto, sans-serif; font-size: 12px; font-weight: 200;" x="46.43066660563151" y="0" dx="0em" dy="0.95em" fill="rgb(33, 33, 33)" stroke="none" stroke-width="1px">1k</text><text style="text-anchor: middle; visibility: inherit; font-family: Roboto, sans-serif; font-size: 12px; font-weight: 200;" x="69.64599990844727" y="0" dx="0em" dy="0.95em" fill="rgb(33, 33, 33)" stroke="none" stroke-width="1px">2k</text><text style="text-anchor: middle; visibility: hidden; font-family: Roboto, sans-serif; font-size: 12px; font-weight: 200;" x="92.86133321126302" y="0" dx="0em" dy="0.95em" fill="rgb(33, 33, 33)" stroke="none" stroke-width="1px">3k</text><text style="text-anchor: middle; visibility: inherit; font-family: Roboto, sans-serif; font-size: 12px; font-weight: 200;" x="116.07666651407878" y="0" dx="0em" dy="0.95em" fill="rgb(33, 33, 33)" stroke="none" stroke-width="1px">4k</text><text style="text-anchor: middle; visibility: hidden; font-family: Roboto, sans-serif; font-size: 12px; font-weight: 200;" x="139.29199981689453" y="0" dx="0em" dy="0.95em" fill="rgb(33, 33, 33)" stroke="none" stroke-width="1px">5k</text><text style="text-anchor: middle; visibility: inherit; font-family: Roboto, sans-serif; font-size: 12px; font-weight: 200;" x="162.5073331197103" y="0" dx="0em" dy="0.95em" fill="rgb(33, 33, 33)" stroke="none" stroke-width="1px">6k</text><text style="text-anchor: middle; visibility: hidden; font-family: Roboto, sans-serif; font-size: 12px; font-weight: 200;" x="185.72266642252603" y="0" dx="0em" dy="0.95em" fill="rgb(33, 33, 33)" stroke="none" stroke-width="1px">7k</text><text style="text-anchor: middle; visibility: inherit; font-family: Roboto, sans-serif; font-size: 12px; font-weight: 200;" x="208.9379997253418" y="0" dx="0em" dy="0.95em" fill="rgb(33, 33, 33)" stroke="none" stroke-width="1px">8k</text><text style="text-anchor: middle; visibility: hidden; font-family: Roboto, sans-serif; font-size: 12px; font-weight: 200;" x="232.15333302815756" y="0" dx="0em" dy="0.95em" fill="rgb(33, 33, 33)" stroke="none" stroke-width="1px">9k</text><text style="text-anchor: middle; visibility: inherit; font-family: Roboto, sans-serif; font-size: 12px; font-weight: 200;" x="255.3686663309733" y="0" dx="0em" dy="0.95em" fill="rgb(33, 33, 33)" stroke="none" stroke-width="1px">10k</text><text style="text-anchor: middle; visibility: hidden; font-family: Roboto, sans-serif; font-size: 12px; font-weight: 200;" x="278.58399963378906" y="0" dx="0em" dy="0.95em" fill="rgb(33, 33, 33)" stroke="none" stroke-width="1px">11k</text></g><line x1="0" y1="0" x2="278.58399963378906" y2="0" fill="rgb(0, 0, 0)" stroke="rgb(204, 204, 204)" stroke-width="1px"></line></g></g></g></g></svg>