<svg viewBox="0 0 330 200" xmlns="http://www.w3.org/2000/svg"><g><g><g><g><g><line x1="51.41600036621094" y1="176.95999908447266" x2="46.41600036621094" y2="176.95999908447266" style="visibility: inherit;" fill="rgb(0, 0, 0)" stroke="rgb(204, 204, 204)" stroke-width="1px"></line><line x1="51.41600036621094" y1="159.2639991760254" x2="46.41600036621094" y2="159.2639991760254" style="visibility: inherit;" fill="rgb(0, 0, 0)" stroke="rgb(204, 204, 204)" stroke-width="1px"></line><line x1="51.41600036621094" y1="141.5679992675781" x2="46.41600036621094" y2="141.5679992675781" style="visibility: inherit;" fill="rgb(0, 0, 0)" stroke="rgb(204, 204, 204)" stroke-width="1px"></line><line x1="51.41600036621094" y1="123.87199935913085" x2="46.41600036621094" y2="123.87199935913085" style="visibility: inherit;" fill="rgb(0, 0, 0)" stroke="rgb(204, 204, 204)" stroke-width="1px"></line><line x1="51.41600036621094" y1="106.1759994506836" x2="46.41600036621094" y2="106.1759994506836" style="visibility: inherit;" fill="rgb(0, 0, 0)" stroke="rgb(204, 204, 204)" stroke-width="1px"></line><line x1="51.41600036621094" y1="88.47999954223631" x2="46.41600036621094" y2="88.47999954223631" style="visibility: inherit;" fill="rgb(0, 0, 0)" stroke="rgb(204, 204, 204)" stroke-width="1px"></line><line x1="51.41600036621094" y1="70.78399963378902" x2="46.41600036621094" y2="70.78399963378902" style="visibility: inherit;" fill="rgb(0, 0, 0)" stroke="rgb(204, 204, 204)" stroke-width="1px"></line><line x1="51.41600036621094" y1="53.0879997253418" x2="46.41600036621094" y2="53.0879997253418" style="visibility: inherit;" fill="rgb(0, 0, 0)" stroke="rgb(204, 204, 204)" stroke-width="1px"></line><line x1="51.41600036621094" y1="35.391999816894526" x2="46.41600036621094" y2="35.391999816894526" style="visibility: inherit;" fill="rgb(0, 0, 0)" stroke="rgb(204, 204, 204)" stroke-width="1px"></line><line x1="51.41600036621094" y1="17.69599990844724" x2="46.41600036621094" y2="17.69599990844724" style="visibility: inherit;" fill="rgb(0, 0, 0)" stroke="rgb(204, 204, 204)" stroke-width="1px"></line><line x1="51.41600036621094" y1="0" x2="46.41600036621094" y2="0" style="visibility: inherit;" fill="rgb(0, 0, 0)" stroke="rgb(204, 204, 204)" stroke-width="1px"></line></g><g transform="translate(41.41600036621094, 0)"><text style="text-anchor: end; visibility: hidden; font-family: Roboto, sans-serif; font-size: 12px; font-weight: 200;" x="0" y="176.95999908447266" dx="0em" dy="0.3em" fill="rgb(33, 33, 33)" stroke="none" stroke-width="1px">0.16</text><text style="text-anchor: end; visibility: inherit; font-family: Roboto, sans-serif; font-size: 12px; font-weight: 200;" x="0" y="159.2639991760254" dx="0em" dy="0.3em" fill="rgb(33, 33, 33)" stroke="none" stroke-width="1px">0.18</text><text style="text-anchor: end; visibility: hidden; font-family: Roboto, sans-serif; font-size: 12px; font-weight: 200;" x="0" y="141.5679992675781" dx="0em" dy="0.3em" fill="rgb(33, 33, 33)" stroke="none" stroke-width="1px">0.2</text><text style="text-anchor: end; visibility: inherit; font-family: Roboto, sans-serif; font-size: 12px; font-weight: 200;" x="0" y="123.87199935913085" dx="0em" dy="0.3em" fill="rgb(33, 33, 33)" stroke="none" stroke-width="1px">0.22</text><text style="text-anchor: end; visibility: hidden; font-family: Roboto, sans-serif; font-size: 12px; font-weight: 200;" x="0" y="106.1759994506836" dx="0em" dy="0.3em" fill="rgb(33, 33, 33)" stroke="none" stroke-width="1px">0.24</text><text style="text-anchor: end; visibility: inherit; font-family: Roboto, sans-serif; font-size: 12px; font-weight: 200;" x="0" y="88.47999954223631" dx="0em" dy="0.3em" fill="rgb(33, 33, 33)" stroke="none" stroke-width="1px">0.26</text><text style="text-anchor: end; visibility: hidden; font-family: Roboto, sans-serif; font-size: 12px; font-weight: 200;" x="0" y="70.78399963378902" dx="0em" dy="0.3em" fill="rgb(33, 33, 33)" stroke="none" stroke-width="1px">0.28</text><text style="text-anchor: end; visibility: inherit; font-family: Roboto, sans-serif; font-size: 12px; font-weight: 200;" x="0" y="53.0879997253418" dx="0em" dy="0.3em" fill="rgb(33, 33, 33)" stroke="none" stroke-width="1px">0.3</text><text style="text-anchor: end; visibility: hidden; font-family: Roboto, sans-serif; font-size: 12px; font-weight: 200;" x="0" y="35.391999816894526" dx="0em" dy="0.3em" fill="rgb(33, 33, 33)" stroke="none" stroke-width="1px">0.32</text><text style="text-anchor: end; visibility: inherit; font-family: Roboto, sans-serif; font-size: 12px; font-weight: 200;" x="0" y="17.69599990844724" dx="0em" dy="0.3em" fill="rgb(33, 33, 33)" stroke="none" stroke-width="1px">0.34</text><text style="text-anchor: end; visibility: hidden; font-family: Roboto, sans-serif; font-size: 12px; font-weight: 200;" x="0" y="0" dx="0em" dy="0.3em" fill="rgb(33, 33, 33)" stroke="none" stroke-width="1px">0.36</text></g><line x1="51.41600036621094" y1="0" x2="51.41600036621094" y2="176.95999908447266" fill="rgb(0, 0, 0)" stroke="rgb(204, 204, 204)" stroke-width="1px"></line></g></g><g transform="translate(51, 0)" clip-path="url(#clip_0)"><clipPath id="clip_0"><rect width="278" height="176"></rect></clipPath><g><g><g><line x1="0" y1="0" x2="0" y2="176.95999908447266" fill="rgb(0, 0, 0)" stroke="rgb(66, 66, 66)" stroke-width="1px" opacity="0.25"></line><line x1="23.215333302815754" y1="0" x2="23.215333302815754" y2="176.95999908447266" fill="rgb(0, 0, 0)" stroke="rgb(66, 66, 66)" stroke-width="1px" opacity="0.25"></line><line x1="46.43066660563151" y1="0" x2="46.43066660563151" y2="176.95999908447266" fill="rgb(0, 0, 0)" stroke="rgb(66, 66, 66)" stroke-width="1px" opacity="0.25"></line><line x1="69.64599990844727" y1="0" x2="69.64599990844727" y2="176.95999908447266" fill="rgb(0, 0, 0)" stroke="rgb(66, 66, 66)" stroke-width="1px" opacity="0.25"></line><line x1="92.86133321126302" y1="0" x2="92.86133321126302" y2="176.95999908447266" fill="rgb(0, 0, 0)" stroke="rgb(66, 66, 66)" stroke-width="1px" opacity="0.25"></line><line x1="116.07666651407878" y1="0" x2="116.07666651407878" y2="176.95999908447266" fill="rgb(0, 0, 0)" stroke="rgb(66, 66, 66)" stroke-width="1px" opacity="0.25"></line><line x1="139.29199981689453" y1="0" x2="139.29199981689453" y2="176.95999908447266" fill="rgb(0, 0, 0)" stroke="rgb(66, 66, 66)" stroke-width="1px" opacity="0.25"></line><line x1="162.5073331197103" y1="0" x2="162.5073331197103" y2="176.95999908447266" fill="rgb(0, 0, 0)" stroke="rgb(66, 66, 66)" stroke-width="1px" opacity="0.25"></line><line x1="185.72266642252603" y1="0" x2="185.72266642252603" y2="176.95999908447266" fill="rgb(0, 0, 0)" stroke="rgb(66, 66, 66)" stroke-width="1px" opacity="0.25"></line><line x1="208.9379997253418" y1="0" x2="208.9379997253418" y2="176.95999908447266" fill="rgb(0, 0, 0)" stroke="rgb(66, 66, 66)" stroke-width="1px" opacity="0.25"></line><line x1="232.15333302815756" y1="0" x2="232.15333302815756" y2="176.95999908447266" fill="rgb(0, 0, 0)" stroke="rgb(66, 66, 66)" stroke-width="1px" opacity="0.25"></line><line x1="255.3686663309733" y1="0" x2="255.3686663309733" y2="176.95999908447266" fill="rgb(0, 0, 0)" stroke="rgb(66, 66, 66)" stroke-width="1px" opacity="0.25"></line><line x1="278.58399963378906" y1="0" x2="278.58399963378906" y2="176.95999908447266" fill="rgb(0, 0, 0)" stroke="rgb(66, 66, 66)" stroke-width="1px" opacity="0.25"></line></g><g><line x1="0" y1="176.95999908447266" x2="278.58399963378906" y2="176.95999908447266" fill="rgb(0, 0, 0)" stroke="rgb(66, 66, 66)" stroke-width="1px" opacity="0.25"></line><line x1="0" y1="159.2639991760254" x2="278.58399963378906" y2="159.2639991760254" fill="rgb(0, 0, 0)" stroke="rgb(66, 66, 66)" stroke-width="1px" opacity="0.25"></line><line x1="0" y1="141.5679992675781" x2="278.58399963378906" y2="141.5679992675781" fill="rgb(0, 0, 0)" stroke="rgb(66, 66, 66)" stroke-width="1px" opacity="0.25"></line><line x1="0" y1="123.87199935913085" x2="278.58399963378906" y2="123.87199935913085" fill="rgb(0, 0, 0)" stroke="rgb(66, 66, 66)" stroke-width="1px" opacity="0.25"></line><line x1="0" y1="106.1759994506836" x2="278.58399963378906" y2="106.1759994506836" fill="rgb(0, 0, 0)" stroke="rgb(66, 66, 66)" stroke-width="1px" opacity="0.25"></line><line x1="0" y1="88.47999954223631" x2="278.58399963378906" y2="88.47999954223631" fill="rgb(0, 0, 0)" stroke="rgb(66, 66, 66)" stroke-width="1px" opacity="0.25"></line><line x1="0" y1="70.78399963378902" x2="278.58399963378906" y2="70.78399963378902" fill="rgb(0, 0, 0)" stroke="rgb(66, 66, 66)" stroke-width="1px" opacity="0.25"></line><line x1="0" y1="53.0879997253418" x2="278.58399963378906" y2="53.0879997253418" fill="rgb(0, 0, 0)" stroke="rgb(66, 66, 66)" stroke-width="1px" opacity="0.25"></line><line x1="0" y1="35.391999816894526" x2="278.58399963378906" y2="35.391999816894526" fill="rgb(0, 0, 0)" stroke="rgb(66, 66, 66)" stroke-width="1px" opacity="0.25"></line><line x1="0" y1="17.69599990844724" x2="278.58399963378906" y2="17.69599990844724" fill="rgb(0, 0, 0)" stroke="rgb(66, 66, 66)" stroke-width="1px" opacity="0.25"></line><line x1="0" y1="0" x2="278.58399963378906" y2="0" fill="rgb(0, 0, 0)" stroke="rgb(66, 66, 66)" stroke-width="1px" opacity="0.25"></line></g></g></g><g><g><line x1="0" y1="318.5279983520508" x2="278.58399963378906" y2="318.5279983520508" fill="rgb(0, 0, 0)" stroke="rgb(153, 153, 153)" stroke-width="1.5px"></line></g></g><g><g><line x1="23.215333302815754" y1="0" x2="23.215333302815754" y2="176.95999908447266" fill="rgb(0, 0, 0)" stroke="rgb(153, 153, 153)" stroke-width="1.5px"></line></g></g><g><g><g><g><g><path style="fill: none;" stroke="rgb(255, 112, 67)" stroke-width="2px" d="M25.53686663309733,17.427480252701468L27.858399963378908,75.46381410943242L30.179933293660483,12.375802098142456L32.50146662394206,-56.05156588896223L34.82299995422363,-20.472956180412087L37.14453328450521,43.742898845763456L39.46606661478678,-3.176759508861064L41.78759994506836,32.30065215997744L44.10913327534993,30.84968387282759L46.43066660563151,51.8674144542835L48.75219993591308,62.387137460135385L51.07373326619466,88.92494135423425L53.39526659647624,111.23807007896647L55.716799926757815,96.91791052156519L58.03833325703939,86.21534669546435L60.359866587320965,124.84640169037293L62.68139991760254,97.29799151643469L65.00293324788412,110.13488978950396L67.3244665781657,104.501875413162L69.64599990844727,121.52817109806112L71.96753323872885,134.28961060183235L74.28906656901042,143.19162366753702L76.610599899292,133.5640476558593L78.93213322957357,87.25188969523786L81.25366655985515,125.07135082715801L83.57519989013672,151.216319238551L85.8967332204183,57.750876635961696L88.21826655069987,98.7919978163486L90.53979988098145,121.85404763527754L92.86133321126302,123.50666447909983L95.1828665415446,83.30607455975924L97.50439987182617,92.52763801813964L99.82593320210775,131.50431018647987L102.14746653238932,111.95494335120294L104.4689998626709,129.99082151716715L106.79053319295248,146.95210192533793L109.11206652323405,144.9614893601187L111.43359985351563,141.30746012935393L113.7551331837972,149.12446091459137L116.07666651407878,155.95612192812362L118.39819984436035,150.4951034373794L120.71973317464193,146.92987733015312L123.0412665049235,155.54735463049894L125.36279983520508,147.9504105385934L127.68433316548665,148.5871245053436L130.00586649576823,159.4992289538133L132.3273998260498,152.06823451499463L134.6489331563314,150.49441681346178L136.97046648661293,124.81428574212663L139.29199981689453,113.56191314039725L141.6135331471761,129.5599935893329L143.9350664774577,136.47115078481917L146.25659980773926,107.47969302700983L148.57813313802083,143.43823569319818L150.8996664683024,129.344714865234L153.221199798584,88.10591096395797L155.54273312886556,23.3001474080378L157.86426645914713,54.99483698827714L160.1857997894287,98.20312232146712L162.5073331197103,73.29493407062373L164.82886644999186,112.71161331285651L167.15039978027343,134.74734707046557L169.471933110555,123.88980102420669L171.7934664408366,134.03722929627153L174.11499977111816,130.77731480213816L176.43653310139973,113.52126847134487L178.75806643168133,124.02904894163325L181.0795997619629,135.36499850690404L183.40113309224446,108.30034964457523L185.72266642252603,130.2142598578017L188.04419975280763,124.95187809369864L190.3657330830892,130.098287912869L192.68726641337076,147.15486639430296L195.00879974365233,80.68308937363297L197.33033307393393,45.823430632647664L199.6518664042155,94.36247548854574L201.97339973449706,131.29497268181268L204.29493306477863,138.24815241189407L206.61646639506023,154.2056796671941L208.9379997253418,166.81374941425597L211.25953305562336,175.51149195243266L213.58106638590496,167.05067912821883L215.90259971618653,166.42974572429875L218.2241330464681,172.45287775891933L220.54566637674967,151.99453171475216L222.86719970703126,169.5407762990797L225.18873303731283,166.8417376776619L227.5102663675944,150.5081803455548L229.83179969787597,159.1764588699219L232.15333302815756,159.29362801241555L234.47486635843913,151.08312138760118L236.7963996887207,164.72989982089462L239.11793301900227,125.60390551257372L241.43946634928386,66.94398366252969L243.76099967956543,-7.818384705288304L246.082533009847,62.12315033178011L248.4040663401286,107.64462409860606L250.72559967041016,129.2422918660533L253.04713300069173,149.18060203936133L255.3686663309733,148.6983089051365" fill="none"></path></g></g></g></g><g opacity="0.2"><g><g><g><path style="fill: none;" stroke="rgb(255, 112, 67)" stroke-width="2px" d="M25.53686663309733,17.427480252701468L27.858399963378908,110.285614423471L30.179933293660483,-48.188689432695895L32.50146662394206,-136.52215064179754L34.82299995422363,25.978476655071187L37.14453328450521,132.57654405477356L39.46606661478678,-70.27262167050762L41.78759994506836,84.02705895629596L44.10913327534993,28.709787485361755L46.43066660563151,83.07629487735257L48.75219993591308,78.07130885550181L51.07373326619466,128.5872296385003L53.39526659647624,144.6349069293615L55.716799926757815,75.46572586879905L58.03833325703939,70.17408141833188L60.359866587320965,182.76573856974042L62.68139991760254,55.98703381945883L65.00293324788412,129.38697791202688L67.3244665781657,96.05321198169295L69.64599990844727,147.066058354543L71.96753323872885,153.43106998981798L74.28906656901042,156.54435034156225L76.610599899292,119.12287371803646L78.93213322957357,17.784201365968226L81.25366655985515,181.80027372049497L85.8967332204183,-82.44704811547135L88.21826655069987,160.35361657914055L90.53979988098145,156.44710112026362L92.86133321126302,125.98558883145702L95.1828665415446,23.005203011701393L97.50439987182617,106.35998137092773L99.82593320210775,189.96931378595835L102.14746653238932,82.63089449856865L104.4689998626709,157.04463799098963L106.79053319295248,172.39402210022948L109.11206652323405,141.9755705430879L111.43359985351563,135.82641631712707L113.7551331837972,160.84996204890845L116.07666651407878,166.20361342559139L118.39819984436035,142.30357571221307L120.71973317464193,141.5820381736029L123.0412665049235,168.47357057479715L125.36279983520508,136.5549944040254L127.68433316548665,149.54219545530353L130.00586649576823,175.8673856248163L132.3273998260498,140.92174285746185L134.6489331563314,148.1336902612509L136.97046648661293,86.29408913598867L139.29199981689453,96.6833542380306L141.6135331471761,153.55711426254234L143.9350664774577,146.83788657799826L146.25659980773926,63.99250639042238L148.57813313802083,197.3760496923865L150.8996664683024,108.20443362330994L153.221199798584,26.247705112082837L155.54273312886556,-73.90849792580579L157.86426645914713,102.53687135862552L160.1857997894287,163.0155503212433L162.5073331197103,35.93265169436167L164.82886644999186,171.8366321762028L167.15039978027343,167.80094770687813L169.471933110555,107.6034819548187L171.7934664408366,149.25837170436867L174.11499977111816,125.88744306093818L176.43653310139973,87.63719897515502L178.75806643168133,139.7907196470658L181.0795997619629,152.36892285481022L183.40113309224446,67.70337635108207L185.72266642252603,163.08512517764146L188.04419975280763,117.05830544754409L190.3657330830892,137.81790264162456L192.68726641337076,172.7397341164539L195.00879974365233,-19.02457615737206L197.33033307393393,-6.466057478830303L199.6518664042155,167.1710427723929L201.97339973449706,186.69371847171308L204.29493306477863,148.67792200701618L206.61646639506023,178.14197055014407L211.25953305562336,188.55810575969772L213.58106638590496,154.35945989189807L215.90259971618653,165.49834561841865L218.2241330464681,181.48757581085025L220.54566637674967,121.30701264850134L222.86719970703126,195.86014317557104L225.18873303731283,162.79317974553524L227.5102663675944,126.00784434739413L229.83179969787597,172.17887665647257L232.15333302815756,159.46938172615606L234.47486635843913,138.7673614503797L236.7963996887207,185.20006747083474L239.11793301900227,66.91491405009232L241.43946634928386,-21.04589911253641L243.76099967956543,-119.96193725701514L246.082533009847,167.03545288738272L248.4040663401286,175.92683474884498L250.72559967041016,161.63879351722417L253.04713300069173,179.0880672993234L255.3686663309733,147.97486920379927" fill="none"></path></g></g></g></g></g></g><g transform="translate(51, 176)" clip-path="url(#clip_1)"><clipPath id="clip_1"><rect width="278" height="23"></rect></clipPath><g><g><line x1="0" y1="0" x2="0" y2="5" style="visibility: inherit;" fill="rgb(0, 0, 0)" stroke="rgb(204, 204, 204)" stroke-width="1px"></line><line x1="23.215333302815754" y1="0" x2="23.215333302815754" y2="5" style="visibility: inherit;" fill="rgb(0, 0, 0)" stroke="rgb(204, 204, 204)" stroke-width="1px"></line><line x1="46.43066660563151" y1="0" x2="46.43066660563151" y2="5" style="visibility: inherit;" fill="rgb(0, 0, 0)" stroke="rgb(204, 204, 204)" stroke-width="1px"></line><line x1="69.64599990844727" y1="0" x2="69.64599990844727" y2="5" style="visibility: inherit;" fill="rgb(0, 0, 0)" stroke="rgb(204, 204, 204)" stroke-width="1px"></line><line x1="92.86133321126302" y1="0" x2="92.86133321126302" y2="5" style="visibility: inherit;" fill="rgb(0, 0, 0)" stroke="rgb(204, 204, 204)" stroke-width="1px"></line><line x1="116.07666651407878" y1="0" x2="116.07666651407878" y2="5" style="visibility: inherit;" fill="rgb(0, 0, 0)" stroke="rgb(204, 204, 204)" stroke-width="1px"></line><line x1="139.29199981689453" y1="0" x2="139.29199981689453" y2="5" style="visibility: inherit;" fill="rgb(0, 0, 0)" stroke="rgb(204, 204, 204)" stroke-width="1px"></line><line x1="162.5073331197103" y1="0" x2="162.5073331197103" y2="5" style="visibility: inherit;" fill="rgb(0, 0, 0)" stroke="rgb(204, 204, 204)" stroke-width="1px"></line><line x1="185.72266642252603" y1="0" x2="185.72266642252603" y2="5" style="visibility: inherit;" fill="rgb(0, 0, 0)" stroke="rgb(204, 204, 204)" stroke-width="1px"></line><line x1="208.9379997253418" y1="0" x2="208.9379997253418" y2="5" style="visibility: inherit;" fill="rgb(0, 0, 0)" stroke="rgb(204, 204, 204)" stroke-width="1px"></line><line x1="232.15333302815756" y1="0" x2="232.15333302815756" y2="5" style="visibility: inherit;" fill="rgb(0, 0, 0)" stroke="rgb(204, 204, 204)" stroke-width="1px"></line><line x1="255.3686663309733" y1="0" x2="255.3686663309733" y2="5" style="visibility: inherit;" fill="rgb(0, 0, 0)" stroke="rgb(204, 204, 204)" stroke-width="1px"></line><line x1="278.58399963378906" y1="0" x2="278.58399963378906" y2="5" style="visibility: inherit;" fill="rgb(0, 0, 0)" stroke="rgb(204, 204, 204)" stroke-width="1px"></line></g><g transform="translate(0, 8)"><text style="text-anchor: middle; visibility: hidden; font-family: Roboto, sans-serif; font-size: 12px; font-weight: 200;" x="0" y="0" dx="0em" dy="0.95em" fill="rgb(33, 33, 33)" stroke="none" stroke-width="1px">-1k</text><text style="text-anchor: middle; visibility: inherit; font-family: Roboto, sans-serif; font-size: 12px; font-weight: 200;" x="23.215333302815754" y="0" dx="0em" dy="0.95em" fill="rgb(33, 33, 33)" stroke="none" stroke-width="1px">0</text><text style="text-anchor: middle; visibility: hidden; font-family: Roboto, sans-serif; font-size: 12px; font-weight: 200;" x="46.43066660563151" y="0" dx="0em" dy="0.95em" fill="rgb(33, 33, 33)" stroke="none" stroke-width="1px">1k</text><text style="text-anchor: middle; visibility: inherit; font-family: Roboto, sans-serif; font-size: 12px; font-weight: 200;" x="69.64599990844727" y="0" dx="0em" dy="0.95em" fill="rgb(33, 33, 33)" stroke="none" stroke-width="1px">2k</text><text style="text-anchor: middle; visibility: hidden; font-family: Roboto, sans-serif; font-size: 12px; font-weight: 200;" x="92.86133321126302" y="0" dx="0em" dy="0.95em" fill="rgb(33, 33, 33)" stroke="none" stroke-width="1px">3k</text><text style="text-anchor: middle; visibility: inherit; font-family: Roboto, sans-serif; font-size: 12px; font-weight: 200;" x="116.07666651407878" y="0" dx="0em" dy="0.95em" fill="rgb(33, 33, 33)" stroke="none" stroke-width="1px">4k</text><text style="text-anchor: middle; visibility: hidden; font-family: Roboto, sans-serif; font-size: 12px; font-weight: 200;" x="139.29199981689453" y="0" dx="0em" dy="0.95em" fill="rgb(33, 33, 33)" stroke="none" stroke-width="1px">5k</text><text style="text-anchor: middle; visibility: inherit; font-family: Roboto, sans-serif; font-size: 12px; font-weight: 200;" x="162.5073331197103" y="0" dx="0em" dy="0.95em" fill="rgb(33, 33, 33)" stroke="none" stroke-width="1px">6k</text><text style="text-anchor: middle; visibility: hidden; font-family: Roboto, sans-serif; font-size: 12px; font-weight: 200;" x="185.72266642252603" y="0" dx="0em" dy="0.95em" fill="rgb(33, 33, 33)" stroke="none" stroke-width="1px">7k</text><text style="text-anchor: middle; visibility: inherit; font-family: Roboto, sans-serif; font-size: 12px; font-weight: 200;" x="208.9379997253418" y="0" dx="0em" dy="0.95em" fill="rgb(33, 33, 33)" stroke="none" stroke-width="1px">8k</text><text style="text-anchor: middle; visibility: hidden; font-family: Roboto, sans-serif; font-size: 12px; font-weight: 200;" x="232.15333302815756" y="0" dx="0em" dy="0.95em" fill="rgb(33, 33, 33)" stroke="none" stroke-width="1px">9k</text><text style="text-anchor: middle; visibility: inherit; font-family: Roboto, sans-serif; font-size: 12px; font-weight: 200;" x="255.3686663309733" y="0" dx="0em" dy="0.95em" fill="rgb(33, 33, 33)" stroke="none" stroke-width="1px">10k</text><text style="text-anchor: middle; visibility: hidden; font-family: Roboto, sans-serif; font-size: 12px; font-weight: 200;" x="278.58399963378906" y="0" dx="0em" dy="0.95em" fill="rgb(33, 33, 33)" stroke="none" stroke-width="1px">11k</text></g><line x1="0" y1="0" x2="278.58399963378906" y2="0" fill="rgb(0, 0, 0)" stroke="rgb(204, 204, 204)" stroke-width="1px"></line></g></g></g></g></svg>