<svg viewBox="0 0 330 200" xmlns="http://www.w3.org/2000/svg"><g><g><g><g><g><line x1="61.91500186920166" y1="176.89999961853027" x2="56.91500186920166" y2="176.89999961853027" style="visibility: inherit;" fill="rgb(0, 0, 0)" stroke="rgb(204, 204, 204)" stroke-width="1px"></line><line x1="61.91500186920166" y1="160.81818147139114" x2="56.91500186920166" y2="160.81818147139114" style="visibility: inherit;" fill="rgb(0, 0, 0)" stroke="rgb(204, 204, 204)" stroke-width="1px"></line><line x1="61.91500186920166" y1="144.73636332425204" x2="56.91500186920166" y2="144.73636332425204" style="visibility: inherit;" fill="rgb(0, 0, 0)" stroke="rgb(204, 204, 204)" stroke-width="1px"></line><line x1="61.91500186920166" y1="128.65454517711288" x2="56.91500186920166" y2="128.65454517711288" style="visibility: inherit;" fill="rgb(0, 0, 0)" stroke="rgb(204, 204, 204)" stroke-width="1px"></line><line x1="61.91500186920166" y1="112.57272702997376" x2="56.91500186920166" y2="112.57272702997376" style="visibility: inherit;" fill="rgb(0, 0, 0)" stroke="rgb(204, 204, 204)" stroke-width="1px"></line><line x1="61.91500186920166" y1="96.49090888283465" x2="56.91500186920166" y2="96.49090888283465" style="visibility: inherit;" fill="rgb(0, 0, 0)" stroke="rgb(204, 204, 204)" stroke-width="1px"></line><line x1="61.91500186920166" y1="80.40909073569563" x2="56.91500186920166" y2="80.40909073569563" style="visibility: inherit;" fill="rgb(0, 0, 0)" stroke="rgb(204, 204, 204)" stroke-width="1px"></line><line x1="61.91500186920166" y1="64.32727258855651" x2="56.91500186920166" y2="64.32727258855651" style="visibility: inherit;" fill="rgb(0, 0, 0)" stroke="rgb(204, 204, 204)" stroke-width="1px"></line><line x1="61.91500186920166" y1="48.24545444141738" x2="56.91500186920166" y2="48.24545444141738" style="visibility: inherit;" fill="rgb(0, 0, 0)" stroke="rgb(204, 204, 204)" stroke-width="1px"></line><line x1="61.91500186920166" y1="32.16363629427824" x2="56.91500186920166" y2="32.16363629427824" style="visibility: inherit;" fill="rgb(0, 0, 0)" stroke="rgb(204, 204, 204)" stroke-width="1px"></line><line x1="61.91500186920166" y1="16.08181814713912" x2="56.91500186920166" y2="16.08181814713912" style="visibility: inherit;" fill="rgb(0, 0, 0)" stroke="rgb(204, 204, 204)" stroke-width="1px"></line><line x1="61.91500186920166" y1="0" x2="56.91500186920166" y2="0" style="visibility: inherit;" fill="rgb(0, 0, 0)" stroke="rgb(204, 204, 204)" stroke-width="1px"></line></g><g transform="translate(51.91500186920166, 0)"><text style="text-anchor: end; visibility: hidden; font-family: Roboto, sans-serif; font-size: 12px; font-weight: 200;" x="0" y="176.89999961853027" dx="0em" dy="0.3em" fill="rgb(33, 33, 33)" stroke="none" stroke-width="1px">0.06</text><text style="text-anchor: end; visibility: inherit; font-family: Roboto, sans-serif; font-size: 12px; font-weight: 200;" x="0" y="160.81818147139114" dx="0em" dy="0.3em" fill="rgb(33, 33, 33)" stroke="none" stroke-width="1px">0.062</text><text style="text-anchor: end; visibility: hidden; font-family: Roboto, sans-serif; font-size: 12px; font-weight: 200;" x="0" y="144.73636332425204" dx="0em" dy="0.3em" fill="rgb(33, 33, 33)" stroke="none" stroke-width="1px">0.064</text><text style="text-anchor: end; visibility: inherit; font-family: Roboto, sans-serif; font-size: 12px; font-weight: 200;" x="0" y="128.65454517711288" dx="0em" dy="0.3em" fill="rgb(33, 33, 33)" stroke="none" stroke-width="1px">0.066</text><text style="text-anchor: end; visibility: hidden; font-family: Roboto, sans-serif; font-size: 12px; font-weight: 200;" x="0" y="112.57272702997376" dx="0em" dy="0.3em" fill="rgb(33, 33, 33)" stroke="none" stroke-width="1px">0.068</text><text style="text-anchor: end; visibility: inherit; font-family: Roboto, sans-serif; font-size: 12px; font-weight: 200;" x="0" y="96.49090888283465" dx="0em" dy="0.3em" fill="rgb(33, 33, 33)" stroke="none" stroke-width="1px">0.07</text><text style="text-anchor: end; visibility: hidden; font-family: Roboto, sans-serif; font-size: 12px; font-weight: 200;" x="0" y="80.40909073569563" dx="0em" dy="0.3em" fill="rgb(33, 33, 33)" stroke="none" stroke-width="1px">0.072</text><text style="text-anchor: end; visibility: inherit; font-family: Roboto, sans-serif; font-size: 12px; font-weight: 200;" x="0" y="64.32727258855651" dx="0em" dy="0.3em" fill="rgb(33, 33, 33)" stroke="none" stroke-width="1px">0.074</text><text style="text-anchor: end; visibility: hidden; font-family: Roboto, sans-serif; font-size: 12px; font-weight: 200;" x="0" y="48.24545444141738" dx="0em" dy="0.3em" fill="rgb(33, 33, 33)" stroke="none" stroke-width="1px">0.076</text><text style="text-anchor: end; visibility: inherit; font-family: Roboto, sans-serif; font-size: 12px; font-weight: 200;" x="0" y="32.16363629427824" dx="0em" dy="0.3em" fill="rgb(33, 33, 33)" stroke="none" stroke-width="1px">0.078</text><text style="text-anchor: end; visibility: hidden; font-family: Roboto, sans-serif; font-size: 12px; font-weight: 200;" x="0" y="16.08181814713912" dx="0em" dy="0.3em" fill="rgb(33, 33, 33)" stroke="none" stroke-width="1px">0.08</text><text style="text-anchor: end; visibility: hidden; font-family: Roboto, sans-serif; font-size: 12px; font-weight: 200;" x="0" y="0" dx="0em" dy="0.3em" fill="rgb(33, 33, 33)" stroke="none" stroke-width="1px">0.082</text></g><line x1="61.91500186920166" y1="0" x2="61.91500186920166" y2="176.89999961853027" fill="rgb(0, 0, 0)" stroke="rgb(204, 204, 204)" stroke-width="1px"></line></g></g><g transform="translate(61, 0)" clip-path="url(#clip_0)"><clipPath id="clip_0"><rect width="268" height="176"></rect></clipPath><g><g><g><line x1="0" y1="0" x2="0" y2="176.89999961853027" fill="rgb(0, 0, 0)" stroke="rgb(66, 66, 66)" stroke-width="1px" opacity="0.25"></line><line x1="33.51062476634979" y1="0" x2="33.51062476634979" y2="176.89999961853027" fill="rgb(0, 0, 0)" stroke="rgb(66, 66, 66)" stroke-width="1px" opacity="0.25"></line><line x1="67.02124953269958" y1="0" x2="67.02124953269958" y2="176.89999961853027" fill="rgb(0, 0, 0)" stroke="rgb(66, 66, 66)" stroke-width="1px" opacity="0.25"></line><line x1="100.53187429904938" y1="0" x2="100.53187429904938" y2="176.89999961853027" fill="rgb(0, 0, 0)" stroke="rgb(66, 66, 66)" stroke-width="1px" opacity="0.25"></line><line x1="134.04249906539917" y1="0" x2="134.04249906539917" y2="176.89999961853027" fill="rgb(0, 0, 0)" stroke="rgb(66, 66, 66)" stroke-width="1px" opacity="0.25"></line><line x1="167.55312383174896" y1="0" x2="167.55312383174896" y2="176.89999961853027" fill="rgb(0, 0, 0)" stroke="rgb(66, 66, 66)" stroke-width="1px" opacity="0.25"></line><line x1="201.06374859809875" y1="0" x2="201.06374859809875" y2="176.89999961853027" fill="rgb(0, 0, 0)" stroke="rgb(66, 66, 66)" stroke-width="1px" opacity="0.25"></line><line x1="234.57437336444855" y1="0" x2="234.57437336444855" y2="176.89999961853027" fill="rgb(0, 0, 0)" stroke="rgb(66, 66, 66)" stroke-width="1px" opacity="0.25"></line><line x1="268.08499813079834" y1="0" x2="268.08499813079834" y2="176.89999961853027" fill="rgb(0, 0, 0)" stroke="rgb(66, 66, 66)" stroke-width="1px" opacity="0.25"></line></g><g><line x1="0" y1="176.89999961853027" x2="268.08499813079834" y2="176.89999961853027" fill="rgb(0, 0, 0)" stroke="rgb(66, 66, 66)" stroke-width="1px" opacity="0.25"></line><line x1="0" y1="160.81818147139114" x2="268.08499813079834" y2="160.81818147139114" fill="rgb(0, 0, 0)" stroke="rgb(66, 66, 66)" stroke-width="1px" opacity="0.25"></line><line x1="0" y1="144.73636332425204" x2="268.08499813079834" y2="144.73636332425204" fill="rgb(0, 0, 0)" stroke="rgb(66, 66, 66)" stroke-width="1px" opacity="0.25"></line><line x1="0" y1="128.65454517711288" x2="268.08499813079834" y2="128.65454517711288" fill="rgb(0, 0, 0)" stroke="rgb(66, 66, 66)" stroke-width="1px" opacity="0.25"></line><line x1="0" y1="112.57272702997376" x2="268.08499813079834" y2="112.57272702997376" fill="rgb(0, 0, 0)" stroke="rgb(66, 66, 66)" stroke-width="1px" opacity="0.25"></line><line x1="0" y1="96.49090888283465" x2="268.08499813079834" y2="96.49090888283465" fill="rgb(0, 0, 0)" stroke="rgb(66, 66, 66)" stroke-width="1px" opacity="0.25"></line><line x1="0" y1="80.40909073569563" x2="268.08499813079834" y2="80.40909073569563" fill="rgb(0, 0, 0)" stroke="rgb(66, 66, 66)" stroke-width="1px" opacity="0.25"></line><line x1="0" y1="64.32727258855651" x2="268.08499813079834" y2="64.32727258855651" fill="rgb(0, 0, 0)" stroke="rgb(66, 66, 66)" stroke-width="1px" opacity="0.25"></line><line x1="0" y1="48.24545444141738" x2="268.08499813079834" y2="48.24545444141738" fill="rgb(0, 0, 0)" stroke="rgb(66, 66, 66)" stroke-width="1px" opacity="0.25"></line><line x1="0" y1="32.16363629427824" x2="268.08499813079834" y2="32.16363629427824" fill="rgb(0, 0, 0)" stroke="rgb(66, 66, 66)" stroke-width="1px" opacity="0.25"></line><line x1="0" y1="16.08181814713912" x2="268.08499813079834" y2="16.08181814713912" fill="rgb(0, 0, 0)" stroke="rgb(66, 66, 66)" stroke-width="1px" opacity="0.25"></line><line x1="0" y1="0" x2="268.08499813079834" y2="0" fill="rgb(0, 0, 0)" stroke="rgb(66, 66, 66)" stroke-width="1px" opacity="0.25"></line></g></g></g><g><g><line x1="0" y1="659.3545440327036" x2="268.08499813079834" y2="659.3545440327036" fill="rgb(0, 0, 0)" stroke="rgb(153, 153, 153)" stroke-width="1.5px"></line></g></g><g><g><line x1="33.51062476634979" y1="0" x2="33.51062476634979" y2="176.89999961853027" fill="rgb(0, 0, 0)" stroke="rgb(153, 153, 153)" stroke-width="1.5px"></line></g></g><g><g><g><g><g><path style="fill: none;" stroke="rgb(255, 112, 67)" stroke-width="2px" d="M45.23934343457222,200.42040601311248L46.91487467288971,160.31975535890987L48.5904059112072,119.3660006140403L50.26593714952469,77.8010057490919L51.94146838784218,53.026089809370866L53.61699962615967,38.226763973912135L55.29253086447716,29.381034287646006L56.96806210279465,24.099510826472198L58.64359334111214,20.957054065510942L60.31912457942963,19.10162613291594L61.994655817747116,18.023074302605345L63.670187056064606,17.415700168571924L65.3457182943821,17.096273953115414L67.02124953269958,16.954836628879285L68.69678077101707,16.92545490344683L70.37231200933456,16.968599217682915L72.04784324765205,17.06050616828868L73.72337448596954,17.186966410767315L75.39890572428703,17.33940665618752L77.07443696260452,17.512706962243506L78.74996820092201,17.703795373231426L80.4254994392395,17.910804745808758L82.10103067755699,18.132614785440595L83.77656191587448,18.368553308175727L85.45209315419197,18.618216998339758L87.12762439250946,18.88136386287344L88.80315563082695,19.157824739727236L90.47868686914444,19.447522093855607L92.15421810746193,19.750361475645512L93.82974934577942,20.066334142222427L95.50528058409691,20.395386919885134L97.1808118224144,20.73748790414577L98.85634306073189,21.092641915918307L100.53187429904938,21.460827883867466L102.20740553736687,21.842009201348645L103.88293677568436,22.236163904332468L105.55846801400185,22.643302778151664L107.23399925231934,23.063384366436L108.90953049063683,23.496407759129863L110.58506172895432,23.9423484464166L112.2605929672718,24.40116775862601L113.9361242055893,24.87289042150621L115.61165544390678,25.357459379175427L117.28718668222427,25.854864361879585L118.96271792054176,26.365099207766434L120.63824915885925,26.888136255947206L122.31378039717674,27.423958909888324L123.98931163549423,27.972509284117024L125.66484287381172,28.533800574902365L127.34037411212921,29.107816736229072L129.0159053504467,29.694500212935157L130.6914365887642,30.293864399476323L132.36696782708168,30.905869404973078L134.04249906539917,31.530467331121326L135.71803030371666,32.1676534027149L137.39356154203415,32.81740079085386L139.06909278035164,33.47966943442151L140.74462401866913,34.15445926052458L142.42015525698662,34.84172229787399L144.0956864953041,35.541453727472714L145.7712177336216,36.25357876659353L147.4467489719391,36.978100473152665L149.12228021025658,37.71499671812342L150.79781144857407,38.46420629653689L152.47334268689156,39.225740412964974L154.14887392520905,39.99953389882093L155.82440516352654,40.78557161672952L157.49993640184402,41.583796556712805L159.17546764016151,42.39422244033655L160.850998878479,43.216785609211044L162.5265301167965,44.051447868302375L164.20206135511398,44.89816233681385L165.87759259343147,45.75694881382042L167.55312383174896,46.62772332366106L169.22865507006645,47.5104354809393L170.90418630838394,48.40507901819367L172.57971754670143,49.311650174947275L174.25524878501892,50.230050839808065L175.9307800233364,51.160270073494075L177.6063112616539,52.10230131243576L179.2818424999714,53.05604476338561L180.95737373828888,54.02148847794828L182.63290497660637,54.99860132330981L184.30843621492386,55.98731669222918L185.98396745324135,56.98761858413809L187.65949869155884,57.99947343491916L189.33502992987633,59.02281317854894L191.01056116819382,60.05764490296651L192.6860924065113,61.10387700582927L194.3616236448288,62.16145452573171L196.0371548831463,63.23036844960707L197.71268612146378,64.3105654420624L199.38821735978127,65.40201350186184L201.06374859809875,66.50464550071095L202.73927983641624,67.61842116163321L204.41481107473373,68.74329235466615L206.09034231305122,69.8792302018323L207.7658735513687,71.02619341256863L209.4414047896862,72.18410928498461L211.1169360280037,73.35293419794597L212.79246726632118,74.53261801499542L214.46799850463867,75.72313065425884L216.14352974295616,76.92443010283505L217.81906098127365,78.13644322543067L219.49459221959114,79.35912614086969L221.17012345790863,80.59240459289337L222.84565469622612,81.83625799152307L224.5211859345436,83.0906260552188L226.1967171728611,84.3554726150565L227.8722484111786,85.63075200590511L229.54777964949608,86.91638890113327L231.22331088781357,88.21231414098564L232.89884212613106,89.51851019338557L234.57437336444855,90.83489464775751L236.24990460276604,92.16144202153282L237.92543584108353,93.49808909761741L239.60096707940102,94.84475001820174L241.2764983177185,96.20142119615306L242.952029556036,97.56800462408579L244.62756079435349,98.94446546134539L246.30309203267097,100.33073487598601L247.97862327098846,101.72674760506355L249.65415450930595,103.13248845458828L251.32968574762344,104.54785245306037L253.00521698594093,105.97280058135652L254.68074822425842,107.4072854642262L256.3562794625759,108.85125471274262L258.0318107008934,110.30462896599676L259.7073419392109,111.76733664366698L261.3828731775284,113.23933479756013" fill="none"></path></g></g></g></g><g opacity="0.2"><g><g><g><path style="fill: none;" stroke="rgb(255, 112, 67)" stroke-width="2px" d="M43.56381219625473,187.62335104282596L45.23934343457222,144.7379564361104L46.91487467288971,101.85262173883604L48.5904059112072,58.96716722267941L50.26593714952469,16.08183252540501L51.94146838784218,16.088422563928777L53.61699962615967,16.108312498382325L55.29253086447716,16.14132260044229L56.96806210279465,16.187572688990937L58.64359334111214,16.24706276402822L60.31912457942963,16.319792825554167L61.994655817747116,16.405702964127666L63.670187056064606,16.504793179748685L65.3457182943821,16.617183291299483L67.02124953269958,16.74269357045672L68.69678077101707,16.881383926661467L70.37231200933456,17.0333142693549L72.04784324765205,17.19836477965472L73.72337448596954,17.376655276443227L75.39890572428703,17.56806594083812L77.07443696260452,17.772656682280576L78.74996820092201,17.990427500770544L80.4254994392395,18.22131848686695L82.10103067755699,18.465329640569745L83.77656191587448,18.722460961878955L85.45209315419197,18.992712450794578L87.12762439250946,19.276084107316613L88.80315563082695,19.57251602200394L90.47868686914444,19.882068104297677L92.15421810746193,20.204620535315563L93.82974934577942,20.54029313393988L95.50528058409691,20.888966081288345L97.1808118224144,21.250639377360955L98.85634306073189,21.62537293159888L100.53187429904938,22.013106834560944L102.20740553736687,22.413781176806054L103.88293677568436,22.82739595833421L105.55846801400185,23.25401108858651L107.23399925231934,23.69350674868073L108.90953049063683,24.145942848057995L110.58506172895432,24.61125947727716L112.2605929672718,25.089396726897096L113.9361242055893,25.5804744158001L115.61165544390678,26.084312815662734L117.28718668222427,26.600971835926167L118.96271792054176,27.130451476590398L120.63824915885925,27.67269182821426L122.31378039717674,28.227692890797815L123.98931163549423,28.795334845458758L125.66484287381172,29.37573751107937L127.34037411212921,29.968840978218516L129.0159053504467,30.574525427993944L130.6914365887642,31.1929106792879L132.36696782708168,31.82387691321816L134.04249906539917,32.46736422034356L135.71803030371666,33.12343251010526L137.39356154203415,33.792021873062104L139.06909278035164,34.473072399773L140.74462401866913,35.166643999679046L142.42015525698662,35.872616853897995L144.0956864953041,36.59105087187098L145.7712177336216,37.32176632527464L147.4467489719391,38.064883032991204L149.12228021025658,38.82034108557954L150.79781144857407,39.588020664157426L152.47334268689156,40.368041587607095L154.14887392520905,41.16022412760516L155.82440516352654,41.96462819359276L157.49993640184402,42.78113396668765L159.17546764016151,43.609861265772075L160.850998878479,44.45063036252266L162.5265301167965,45.3034412569394L164.20206135511398,46.168234039581165L165.87759259343147,47.04512852933023L167.55312383174896,47.93388508842206L169.22865507006645,48.83450371685669L170.90418630838394,49.74704432407522L172.57971754670143,50.671506910077646L174.25524878501892,51.607651837099496L175.9307800233364,52.555598924022995L177.6063112616539,53.51534817084816L179.2818424999714,54.48665993981049L180.95737373828888,55.4696540497922L182.63290497660637,56.46427059135222L184.30843621492386,57.470389745608244L185.98396745324135,58.488071422001454L187.65949869155884,59.51725571109067L189.33502992987633,60.55782279399368L191.01056116819382,61.60989248959273L192.6860924065113,62.673225160123295L194.3616236448288,63.747820805585405L196.0371548831463,64.83373933542018L197.71268612146378,65.93086093074533L199.38821735978127,67.0391855915609L201.06374859809875,68.15859349898463L202.73927983641624,69.28908465301652L204.41481107473373,70.43059914421542L206.09034231305122,71.58313697258137L207.7658735513687,72.74663822867323L209.4414047896862,73.92098309360874L211.1169360280037,75.10617156738789L212.79246726632118,76.30214374056958L214.46799850463867,77.5088996131538L216.14352974295616,78.72637927569943L217.81906098127365,79.9544629093242L219.49459221959114,81.19315051402815L221.17012345790863,82.44232227092897L222.84565469622612,83.70203808946785L224.5211859345436,84.97217815076249L226.1967171728611,86.2527424548129L227.8722484111786,87.54367109217799L229.54777964949608,88.84484424397549L231.22331088781357,90.15620200076425L232.89884212613106,91.4778042719854L234.57437336444855,92.8094713293156L236.24990460276604,94.15126308219594L237.92543584108353,95.50305971174419L239.60096707940102,96.8647413990781L241.2764983177185,98.23642796307989L242.952029556036,99.6178797659851L244.62756079435349,101.00915671723482L246.30309203267097,102.41013899794683L247.97862327098846,103.82076669868L249.65415450930595,105.24109972887544L251.32968574762344,106.67089845076863L253.00521698594093,108.11022277380077L254.68074822425842,109.55901278853065L256.3562794625759,111.01720858551721L258.0318107008934,112.48469034587815L259.7073419392109,113.96139816017238L261.3828731775284,115.44733202839986" fill="none"></path></g></g></g></g></g></g><g transform="translate(61, 176)" clip-path="url(#clip_1)"><clipPath id="clip_1"><rect width="268" height="23"></rect></clipPath><g><g><line x1="0" y1="0" x2="0" y2="5" style="visibility: inherit;" fill="rgb(0, 0, 0)" stroke="rgb(204, 204, 204)" stroke-width="1px"></line><line x1="33.51062476634979" y1="0" x2="33.51062476634979" y2="5" style="visibility: inherit;" fill="rgb(0, 0, 0)" stroke="rgb(204, 204, 204)" stroke-width="1px"></line><line x1="67.02124953269958" y1="0" x2="67.02124953269958" y2="5" style="visibility: inherit;" fill="rgb(0, 0, 0)" stroke="rgb(204, 204, 204)" stroke-width="1px"></line><line x1="100.53187429904938" y1="0" x2="100.53187429904938" y2="5" style="visibility: inherit;" fill="rgb(0, 0, 0)" stroke="rgb(204, 204, 204)" stroke-width="1px"></line><line x1="134.04249906539917" y1="0" x2="134.04249906539917" y2="5" style="visibility: inherit;" fill="rgb(0, 0, 0)" stroke="rgb(204, 204, 204)" stroke-width="1px"></line><line x1="167.55312383174896" y1="0" x2="167.55312383174896" y2="5" style="visibility: inherit;" fill="rgb(0, 0, 0)" stroke="rgb(204, 204, 204)" stroke-width="1px"></line><line x1="201.06374859809875" y1="0" x2="201.06374859809875" y2="5" style="visibility: inherit;" fill="rgb(0, 0, 0)" stroke="rgb(204, 204, 204)" stroke-width="1px"></line><line x1="234.57437336444855" y1="0" x2="234.57437336444855" y2="5" style="visibility: inherit;" fill="rgb(0, 0, 0)" stroke="rgb(204, 204, 204)" stroke-width="1px"></line><line x1="268.08499813079834" y1="0" x2="268.08499813079834" y2="5" style="visibility: inherit;" fill="rgb(0, 0, 0)" stroke="rgb(204, 204, 204)" stroke-width="1px"></line></g><g transform="translate(0, 8)"><text style="text-anchor: middle; visibility: hidden; font-family: Roboto, sans-serif; font-size: 12px; font-weight: 200;" x="0" y="0" dx="0em" dy="0.95em" fill="rgb(33, 33, 33)" stroke="none" stroke-width="1px">-2k</text><text style="text-anchor: middle; visibility: inherit; font-family: Roboto, sans-serif; font-size: 12px; font-weight: 200;" x="33.51062476634979" y="0" dx="0em" dy="0.95em" fill="rgb(33, 33, 33)" stroke="none" stroke-width="1px">0</text><text style="text-anchor: middle; visibility: inherit; font-family: Roboto, sans-serif; font-size: 12px; font-weight: 200;" x="67.02124953269958" y="0" dx="0em" dy="0.95em" fill="rgb(33, 33, 33)" stroke="none" stroke-width="1px">2k</text><text style="text-anchor: middle; visibility: inherit; font-family: Roboto, sans-serif; font-size: 12px; font-weight: 200;" x="100.53187429904938" y="0" dx="0em" dy="0.95em" fill="rgb(33, 33, 33)" stroke="none" stroke-width="1px">4k</text><text style="text-anchor: middle; visibility: inherit; font-family: Roboto, sans-serif; font-size: 12px; font-weight: 200;" x="134.04249906539917" y="0" dx="0em" dy="0.95em" fill="rgb(33, 33, 33)" stroke="none" stroke-width="1px">6k</text><text style="text-anchor: middle; visibility: inherit; font-family: Roboto, sans-serif; font-size: 12px; font-weight: 200;" x="167.55312383174896" y="0" dx="0em" dy="0.95em" fill="rgb(33, 33, 33)" stroke="none" stroke-width="1px">8k</text><text style="text-anchor: middle; visibility: inherit; font-family: Roboto, sans-serif; font-size: 12px; font-weight: 200;" x="201.06374859809875" y="0" dx="0em" dy="0.95em" fill="rgb(33, 33, 33)" stroke="none" stroke-width="1px">10k</text><text style="text-anchor: middle; visibility: inherit; font-family: Roboto, sans-serif; font-size: 12px; font-weight: 200;" x="234.57437336444855" y="0" dx="0em" dy="0.95em" fill="rgb(33, 33, 33)" stroke="none" stroke-width="1px">12k</text><text style="text-anchor: middle; visibility: hidden; font-family: Roboto, sans-serif; font-size: 12px; font-weight: 200;" x="268.08499813079834" y="0" dx="0em" dy="0.95em" fill="rgb(33, 33, 33)" stroke="none" stroke-width="1px">14k</text></g><line x1="0" y1="0" x2="268.08499813079834" y2="0" fill="rgb(0, 0, 0)" stroke="rgb(204, 204, 204)" stroke-width="1px"></line></g></g></g></g></svg>