<svg viewBox="0 0 330 200" xmlns="http://www.w3.org/2000/svg"><g><g><g><g><g><line x1="51.41600036621094" y1="176.95999908447266" x2="46.41600036621094" y2="176.95999908447266" style="visibility: inherit;" fill="rgb(0, 0, 0)" stroke="rgb(204, 204, 204)" stroke-width="1px"></line><line x1="51.41600036621094" y1="162.21333249409992" x2="46.41600036621094" y2="162.21333249409992" style="visibility: inherit;" fill="rgb(0, 0, 0)" stroke="rgb(204, 204, 204)" stroke-width="1px"></line><line x1="51.41600036621094" y1="147.4666659037272" x2="46.41600036621094" y2="147.4666659037272" style="visibility: inherit;" fill="rgb(0, 0, 0)" stroke="rgb(204, 204, 204)" stroke-width="1px"></line><line x1="51.41600036621094" y1="132.7199993133545" x2="46.41600036621094" y2="132.7199993133545" style="visibility: inherit;" fill="rgb(0, 0, 0)" stroke="rgb(204, 204, 204)" stroke-width="1px"></line><line x1="51.41600036621094" y1="117.97333272298174" x2="46.41600036621094" y2="117.97333272298174" style="visibility: inherit;" fill="rgb(0, 0, 0)" stroke="rgb(204, 204, 204)" stroke-width="1px"></line><line x1="51.41600036621094" y1="103.22666613260904" x2="46.41600036621094" y2="103.22666613260904" style="visibility: inherit;" fill="rgb(0, 0, 0)" stroke="rgb(204, 204, 204)" stroke-width="1px"></line><line x1="51.41600036621094" y1="88.47999954223633" x2="46.41600036621094" y2="88.47999954223633" style="visibility: inherit;" fill="rgb(0, 0, 0)" stroke="rgb(204, 204, 204)" stroke-width="1px"></line><line x1="51.41600036621094" y1="73.7333329518636" x2="46.41600036621094" y2="73.7333329518636" style="visibility: inherit;" fill="rgb(0, 0, 0)" stroke="rgb(204, 204, 204)" stroke-width="1px"></line><line x1="51.41600036621094" y1="58.986666361490855" x2="46.41600036621094" y2="58.986666361490855" style="visibility: inherit;" fill="rgb(0, 0, 0)" stroke="rgb(204, 204, 204)" stroke-width="1px"></line><line x1="51.41600036621094" y1="44.239999771118164" x2="46.41600036621094" y2="44.239999771118164" style="visibility: inherit;" fill="rgb(0, 0, 0)" stroke="rgb(204, 204, 204)" stroke-width="1px"></line><line x1="51.41600036621094" y1="29.493333180745434" x2="46.41600036621094" y2="29.493333180745434" style="visibility: inherit;" fill="rgb(0, 0, 0)" stroke="rgb(204, 204, 204)" stroke-width="1px"></line><line x1="51.41600036621094" y1="14.746666590372689" x2="46.41600036621094" y2="14.746666590372689" style="visibility: inherit;" fill="rgb(0, 0, 0)" stroke="rgb(204, 204, 204)" stroke-width="1px"></line><line x1="51.41600036621094" y1="0" x2="46.41600036621094" y2="0" style="visibility: inherit;" fill="rgb(0, 0, 0)" stroke="rgb(204, 204, 204)" stroke-width="1px"></line></g><g transform="translate(41.41600036621094, 0)"><text style="text-anchor: end; visibility: hidden; font-family: Roboto, sans-serif; font-size: 12px; font-weight: 200;" x="0" y="176.95999908447266" dx="0em" dy="0.3em" fill="rgb(33, 33, 33)" stroke="none" stroke-width="1px">0.06</text><text style="text-anchor: end; visibility: inherit; font-family: Roboto, sans-serif; font-size: 12px; font-weight: 200;" x="0" y="162.21333249409992" dx="0em" dy="0.3em" fill="rgb(33, 33, 33)" stroke="none" stroke-width="1px">0.07</text><text style="text-anchor: end; visibility: hidden; font-family: Roboto, sans-serif; font-size: 12px; font-weight: 200;" x="0" y="147.4666659037272" dx="0em" dy="0.3em" fill="rgb(33, 33, 33)" stroke="none" stroke-width="1px">0.08</text><text style="text-anchor: end; visibility: inherit; font-family: Roboto, sans-serif; font-size: 12px; font-weight: 200;" x="0" y="132.7199993133545" dx="0em" dy="0.3em" fill="rgb(33, 33, 33)" stroke="none" stroke-width="1px">0.09</text><text style="text-anchor: end; visibility: hidden; font-family: Roboto, sans-serif; font-size: 12px; font-weight: 200;" x="0" y="117.97333272298174" dx="0em" dy="0.3em" fill="rgb(33, 33, 33)" stroke="none" stroke-width="1px">0.1</text><text style="text-anchor: end; visibility: inherit; font-family: Roboto, sans-serif; font-size: 12px; font-weight: 200;" x="0" y="103.22666613260904" dx="0em" dy="0.3em" fill="rgb(33, 33, 33)" stroke="none" stroke-width="1px">0.11</text><text style="text-anchor: end; visibility: hidden; font-family: Roboto, sans-serif; font-size: 12px; font-weight: 200;" x="0" y="88.47999954223633" dx="0em" dy="0.3em" fill="rgb(33, 33, 33)" stroke="none" stroke-width="1px">0.12</text><text style="text-anchor: end; visibility: inherit; font-family: Roboto, sans-serif; font-size: 12px; font-weight: 200;" x="0" y="73.7333329518636" dx="0em" dy="0.3em" fill="rgb(33, 33, 33)" stroke="none" stroke-width="1px">0.13</text><text style="text-anchor: end; visibility: hidden; font-family: Roboto, sans-serif; font-size: 12px; font-weight: 200;" x="0" y="58.986666361490855" dx="0em" dy="0.3em" fill="rgb(33, 33, 33)" stroke="none" stroke-width="1px">0.14</text><text style="text-anchor: end; visibility: inherit; font-family: Roboto, sans-serif; font-size: 12px; font-weight: 200;" x="0" y="44.239999771118164" dx="0em" dy="0.3em" fill="rgb(33, 33, 33)" stroke="none" stroke-width="1px">0.15</text><text style="text-anchor: end; visibility: hidden; font-family: Roboto, sans-serif; font-size: 12px; font-weight: 200;" x="0" y="29.493333180745434" dx="0em" dy="0.3em" fill="rgb(33, 33, 33)" stroke="none" stroke-width="1px">0.16</text><text style="text-anchor: end; visibility: inherit; font-family: Roboto, sans-serif; font-size: 12px; font-weight: 200;" x="0" y="14.746666590372689" dx="0em" dy="0.3em" fill="rgb(33, 33, 33)" stroke="none" stroke-width="1px">0.17</text><text style="text-anchor: end; visibility: hidden; font-family: Roboto, sans-serif; font-size: 12px; font-weight: 200;" x="0" y="0" dx="0em" dy="0.3em" fill="rgb(33, 33, 33)" stroke="none" stroke-width="1px">0.18</text></g><line x1="51.41600036621094" y1="0" x2="51.41600036621094" y2="176.95999908447266" fill="rgb(0, 0, 0)" stroke="rgb(204, 204, 204)" stroke-width="1px"></line></g></g><g transform="translate(51, 0)" clip-path="url(#clip_0)"><clipPath id="clip_0"><rect width="278" height="176"></rect></clipPath><g><g><g><line x1="0" y1="0" x2="0" y2="176.95999908447266" fill="rgb(0, 0, 0)" stroke="rgb(66, 66, 66)" stroke-width="1px" opacity="0.25"></line><line x1="34.82299995422363" y1="0" x2="34.82299995422363" y2="176.95999908447266" fill="rgb(0, 0, 0)" stroke="rgb(66, 66, 66)" stroke-width="1px" opacity="0.25"></line><line x1="69.64599990844727" y1="0" x2="69.64599990844727" y2="176.95999908447266" fill="rgb(0, 0, 0)" stroke="rgb(66, 66, 66)" stroke-width="1px" opacity="0.25"></line><line x1="104.4689998626709" y1="0" x2="104.4689998626709" y2="176.95999908447266" fill="rgb(0, 0, 0)" stroke="rgb(66, 66, 66)" stroke-width="1px" opacity="0.25"></line><line x1="139.29199981689453" y1="0" x2="139.29199981689453" y2="176.95999908447266" fill="rgb(0, 0, 0)" stroke="rgb(66, 66, 66)" stroke-width="1px" opacity="0.25"></line><line x1="174.11499977111816" y1="0" x2="174.11499977111816" y2="176.95999908447266" fill="rgb(0, 0, 0)" stroke="rgb(66, 66, 66)" stroke-width="1px" opacity="0.25"></line><line x1="208.9379997253418" y1="0" x2="208.9379997253418" y2="176.95999908447266" fill="rgb(0, 0, 0)" stroke="rgb(66, 66, 66)" stroke-width="1px" opacity="0.25"></line><line x1="243.76099967956543" y1="0" x2="243.76099967956543" y2="176.95999908447266" fill="rgb(0, 0, 0)" stroke="rgb(66, 66, 66)" stroke-width="1px" opacity="0.25"></line><line x1="278.58399963378906" y1="0" x2="278.58399963378906" y2="176.95999908447266" fill="rgb(0, 0, 0)" stroke="rgb(66, 66, 66)" stroke-width="1px" opacity="0.25"></line></g><g><line x1="0" y1="176.95999908447266" x2="278.58399963378906" y2="176.95999908447266" fill="rgb(0, 0, 0)" stroke="rgb(66, 66, 66)" stroke-width="1px" opacity="0.25"></line><line x1="0" y1="162.21333249409992" x2="278.58399963378906" y2="162.21333249409992" fill="rgb(0, 0, 0)" stroke="rgb(66, 66, 66)" stroke-width="1px" opacity="0.25"></line><line x1="0" y1="147.4666659037272" x2="278.58399963378906" y2="147.4666659037272" fill="rgb(0, 0, 0)" stroke="rgb(66, 66, 66)" stroke-width="1px" opacity="0.25"></line><line x1="0" y1="132.7199993133545" x2="278.58399963378906" y2="132.7199993133545" fill="rgb(0, 0, 0)" stroke="rgb(66, 66, 66)" stroke-width="1px" opacity="0.25"></line><line x1="0" y1="117.97333272298174" x2="278.58399963378906" y2="117.97333272298174" fill="rgb(0, 0, 0)" stroke="rgb(66, 66, 66)" stroke-width="1px" opacity="0.25"></line><line x1="0" y1="103.22666613260904" x2="278.58399963378906" y2="103.22666613260904" fill="rgb(0, 0, 0)" stroke="rgb(66, 66, 66)" stroke-width="1px" opacity="0.25"></line><line x1="0" y1="88.47999954223633" x2="278.58399963378906" y2="88.47999954223633" fill="rgb(0, 0, 0)" stroke="rgb(66, 66, 66)" stroke-width="1px" opacity="0.25"></line><line x1="0" y1="73.7333329518636" x2="278.58399963378906" y2="73.7333329518636" fill="rgb(0, 0, 0)" stroke="rgb(66, 66, 66)" stroke-width="1px" opacity="0.25"></line><line x1="0" y1="58.986666361490855" x2="278.58399963378906" y2="58.986666361490855" fill="rgb(0, 0, 0)" stroke="rgb(66, 66, 66)" stroke-width="1px" opacity="0.25"></line><line x1="0" y1="44.239999771118164" x2="278.58399963378906" y2="44.239999771118164" fill="rgb(0, 0, 0)" stroke="rgb(66, 66, 66)" stroke-width="1px" opacity="0.25"></line><line x1="0" y1="29.493333180745434" x2="278.58399963378906" y2="29.493333180745434" fill="rgb(0, 0, 0)" stroke="rgb(66, 66, 66)" stroke-width="1px" opacity="0.25"></line><line x1="0" y1="14.746666590372689" x2="278.58399963378906" y2="14.746666590372689" fill="rgb(0, 0, 0)" stroke="rgb(66, 66, 66)" stroke-width="1px" opacity="0.25"></line><line x1="0" y1="0" x2="278.58399963378906" y2="0" fill="rgb(0, 0, 0)" stroke="rgb(66, 66, 66)" stroke-width="1px" opacity="0.25"></line></g></g></g><g><g><line x1="0" y1="265.439998626709" x2="278.58399963378906" y2="265.439998626709" fill="rgb(0, 0, 0)" stroke="rgb(153, 153, 153)" stroke-width="1.5px"></line></g></g><g><g><line x1="34.82299995422363" y1="0" x2="34.82299995422363" y2="176.95999908447266" fill="rgb(0, 0, 0)" stroke="rgb(153, 153, 153)" stroke-width="1.5px"></line></g></g><g><g><g><g><g><path style="fill: none;" stroke="rgb(255, 112, 67)" stroke-width="2px" d="M41.78759994506836,-24.6931350419911L43.52874994277954,53.996439710878605L45.269899940490724,-0.243883485291925L47.01104993820191,59.51685083017179L48.75219993591308,24.949713303054033L50.493349933624266,77.3339488605094L52.23449993133545,89.84481974272676L53.97564992904663,3.0972522063471213L55.716799926757815,3.9096710295998482L57.45794992446899,47.8685323445421L59.199099922180174,69.41594179452727L60.94024991989136,78.20597034647669L62.68139991760254,17.213056580396643L64.42254991531372,56.047452572407515L66.1636999130249,90.84519757805893L67.90484991073608,52.127581143806175L69.64599990844727,77.17270249887935L71.38714990615844,77.60782066881205L73.12829990386963,71.85248636156696L74.86944990158081,67.0568818354721L76.610599899292,113.91046989585631L78.35174989700317,82.56617999360645L80.09289989471435,81.12317024106854L81.83404989242554,30.927428230014566L83.57519989013672,53.96218880666179L85.3163498878479,71.78507507856756L87.05749988555908,95.31037173501925L88.79864988327026,94.4178422400144L90.53979988098145,98.29848910717514L92.28094987869262,95.85167986095377L94.02209987640381,49.46434127156112L95.76324987411499,38.79919557778826L97.50439987182617,92.24682613489247L99.24554986953736,84.72160167174282L100.98669986724853,80.95414512760297L102.72784986495972,74.23803252843412L104.4689998626709,67.77884843395202L106.21014986038207,51.261536903308304L107.95129985809326,42.27136108171355L109.69244985580444,101.93225580143807L111.43359985351563,110.04701360652606L113.1747498512268,102.55052520186457L114.91589984893798,107.70432291916595L116.65704984664917,98.12306527403948L118.39819984436035,107.99341987174567L120.13934984207154,104.8171303193766L121.88049983978271,71.74053323056198L123.62164983749389,62.20047858145277L125.36279983520508,48.282179292588275L127.10394983291626,64.83596586398919L128.84509983062745,70.1081155953001L130.58624982833862,75.10879955878184L132.3273998260498,99.79466559994525L134.068549823761,97.79333833311168L135.80969982147215,116.63413508717629L137.55084981918336,106.00210611548675L139.29199981689453,73.99944609598822L141.0331498146057,88.56320338262886L142.77429981231688,79.22281520962066L144.5154498100281,56.24921567039264L146.25659980773926,71.7190219124119L147.99774980545044,90.61636967533562L149.73889980316162,121.31942844264886L151.4800498008728,100.62291386053471L153.221199798584,107.72805876761068L154.96234979629517,104.26005236107146L156.70349979400635,118.03633438627836L158.44464979171752,119.30953827592081L160.1857997894287,98.1485208284618L161.9269497871399,94.68090892559644L163.66809978485108,90.76356293805628L165.40924978256226,99.77634538137303L167.15039978027343,80.73702937146415L168.8915497779846,93.22518535694934L170.6326997756958,100.35102114984652L172.373849773407,123.10296493855607L174.11499977111816,129.00698347716641L175.85614976882934,145.09789302288374L177.59729976654052,128.97230216335183L179.33844976425172,148.2624708758298L181.0795997619629,164.19163025809723L182.82074975967407,116.04756526749475L184.56189975738525,93.80019630460134L186.30304975509642,109.64191449867013L188.04419975280763,111.60571394110363L189.7853497505188,65.723364728576L191.52649974822998,116.0086724608085L193.26764974594116,104.17666457081815L195.00879974365233,125.0733782679058L196.74994974136354,123.2360220231525L198.4910997390747,148.91546721773759L200.2322497367859,151.20851781756107L201.97339973449706,149.15811940966643L203.71454973220824,132.07558048648943L205.45569972991944,139.64311825803009L207.19684972763062,155.58160520044711L208.9379997253418,141.56580665959441L210.67914972305297,126.60209127615303L212.42029972076415,140.70549535143104L214.16144971847535,114.46481152458136L215.90259971618653,122.90525592868555L217.6437497138977,129.6115260988773L219.38489971160888,120.6171562016168L221.12604970932006,155.7841170539001L222.86719970703126,131.61546664722252L224.60834970474244,127.7695177739217L226.3494997024536,104.28793016851454L228.0906497001648,115.88367125392173L229.83179969787597,145.04668438203603L231.57294969558717,172.68170836913993L233.31409969329835,180.3062641716148L235.05524969100952,152.26323394891097L236.7963996887207,154.12101373631904L238.53754968643187,151.00155212233332L240.27869968414308,120.96210933262061L242.01984968185425,119.85471453462524L243.76099967956543,130.30807250142792L245.5021496772766,135.0563623281119L247.24329967498778,83.96318227848595L248.984449672699,70.75110720760065L250.72559967041016,76.42652228177968L252.46674966812134,84.91808842592854L254.2078996658325,121.11049264809704L255.9490496635437,146.48857826525378L257.6901996612549,117.9464394685131L259.4313496589661,144.74491096921847L261.17249965667725,153.6710846714887L262.9136496543884,133.56167069586792L264.6547996520996,166.90485373949295L266.3959496498108,160.69233966322037L268.137099647522,155.98159359837533L269.87824964523315,153.48508925705485L271.6193996429443,154.44635524057577" fill="none"></path></g></g></g></g><g opacity="0.2"><g><g><g><path style="fill: none;" stroke="rgb(255, 112, 67)" stroke-width="2px" d="M41.78759994506836,-10.03595614963092L43.52874994277954,156.73354850822534L45.269899940490724,-75.27777698194643L47.01104993820191,144.97565707303391L48.75219993591308,-25.449505056003837L50.493349933624266,154.59052119384137L52.23449993133545,108.42200493588338L53.97564992904663,-126.2373050452884L55.716799926757815,5.123878117119331L57.45794992446899,113.66329100772391L59.199099922180174,101.69484235125549L60.94024991989136,91.38068082580305L62.68139991760254,-74.23329714039585L64.42254991531372,114.28261314553131L66.1636999130249,143.03297994284873L67.90484991073608,-5.9429452684019L69.64599990844727,114.73809530819354L71.38714990615844,78.26047406079654L73.12829990386963,63.21967428242631L74.86944990158081,59.86356972717556L76.610599899292,184.19029696101438L78.35174989700317,35.54996792202919L80.09289989471435,78.95866176603904L81.83404989242554,-44.36605634942007L83.57519989013672,88.5142943078492L85.3163498878479,98.51938806902895L87.05749988555908,130.59830371762285L88.79864988327026,93.07904829347963L90.53979988098145,104.11945863579747L92.28094987869262,92.18146628372165L94.02209987640381,-20.11666328989793L95.76324987411499,22.80147749548246L97.50439987182617,172.41827059234492L99.24554986953736,73.43376509344591L100.98669986724853,75.3029603463664L102.72784986495972,64.16386366708812L104.4689998626709,58.090072313814765L106.21014986038207,26.485569640461904L107.95129985809326,28.786097360137344L109.69244985580444,191.42359783795894L111.43359985351563,122.21915031064347L113.1747498512268,91.30579259682038L114.91589984893798,115.43501949431442L116.65704984664917,83.75117880724618L118.39819984436035,122.79895176775096L120.13934984207154,100.05269599092989L121.88049983978271,22.125637598008552L123.62164983749389,47.89039660790452L125.36279983520508,27.404730359392715L127.10394983291626,89.66664572101831L128.84509983062745,78.01634019225267L130.58624982833862,82.60982550399662L132.3273998260498,136.82346466166706L134.068549823761,94.7913474328625L135.80969982147215,144.89533021826685L137.55084981918336,90.05406265795463L139.29199981689453,25.995456066744307L141.0331498146057,110.40883931258873L142.77429981231688,65.21223295010876L144.5154498100281,21.788816361551266L146.25659980773926,94.92373127544057L147.99774980545044,118.96239131972096L149.73889980316162,167.37401659361856L151.4800498008728,69.57814198736355L153.221199798584,118.38577612822453L154.96234979629517,99.05804275126259L156.70349979400635,138.70075742408878L158.44464979171752,121.2193441103845L160.1857997894287,66.40699465727334L161.9269497871399,89.47949107129841L163.66809978485108,84.88754395674601L165.40924978256226,113.29551904634818L167.15039978027343,52.178055356600815L168.8915497779846,111.95741933517715L170.6326997756958,111.03977483919229L172.373849773407,157.2308806216204L174.11499977111816,137.8630112850819L175.85614976882934,169.2342573414597L177.59729976654052,104.78391587405395L179.33844976425172,177.1977239445467L181.0795997619629,188.0853693314985L182.82074975967407,43.83146778159103L184.56189975738525,60.42914286026123L186.30304975509642,133.4044917897733L188.04419975280763,114.55141310475389L189.7853497505188,-3.1001590902154703L191.52649974822998,191.43663405915729L193.26764974594116,86.42865273583266L195.00879974365233,156.41844881353725L196.74994974136354,120.47998765602256L198.4910997390747,187.43463500961516L200.2322497367859,154.64809371729635L201.97339973449706,146.08252179782446L203.71454973220824,106.45177210172393L205.45569972991944,150.9944249153411L207.19684972763062,179.48933561407262L208.9379997253418,120.5421088483154L210.67914972305297,104.15651820099092L212.42029972076415,161.86060146434804L214.16144971847535,75.10378578430687L215.90259971618653,135.56592253484183L217.6437497138977,139.6709313541649L219.38489971160888,107.12560135572603L221.12604970932006,208.53455833232508L222.86719970703126,95.36249103720613L224.60834970474244,122.00059446397046L226.3494997024536,69.0655487604038L228.0906497001648,133.27728288203247L229.83179969787597,188.79120407420754L233.31409969329835,191.74309787532712L235.05524969100952,110.19868861485521L236.7963996887207,156.9076834174311L238.53754968643187,146.3223597013548L240.27869968414308,75.90294514805153L242.01984968185425,118.19362233763212L243.76099967956543,145.98810945163194L245.5021496772766,142.1787970681379L247.24329967498778,7.323412204047031L248.984449672699,50.93299460127271L250.72559967041016,84.93964489304821L252.46674966812134,97.65543764215182L254.2078996658325,175.39909898134977L255.9490496635437,184.5557066909888L257.6901996612549,75.13323127340216L259.4313496589661,184.9426182202765L261.17249965667725,167.06034522489404L262.9136496543884,103.39754973243677L264.6547996520996,216.9196283049305L266.3959496498108,151.37356854881148L268.137099647522,148.91547450110778L269.87824964523315,149.74033274507406L271.6193996429443,155.8882542158571" fill="none"></path></g></g></g></g></g></g><g transform="translate(51, 176)" clip-path="url(#clip_1)"><clipPath id="clip_1"><rect width="278" height="23"></rect></clipPath><g><g><line x1="0" y1="0" x2="0" y2="5" style="visibility: inherit;" fill="rgb(0, 0, 0)" stroke="rgb(204, 204, 204)" stroke-width="1px"></line><line x1="34.82299995422363" y1="0" x2="34.82299995422363" y2="5" style="visibility: inherit;" fill="rgb(0, 0, 0)" stroke="rgb(204, 204, 204)" stroke-width="1px"></line><line x1="69.64599990844727" y1="0" x2="69.64599990844727" y2="5" style="visibility: inherit;" fill="rgb(0, 0, 0)" stroke="rgb(204, 204, 204)" stroke-width="1px"></line><line x1="104.4689998626709" y1="0" x2="104.4689998626709" y2="5" style="visibility: inherit;" fill="rgb(0, 0, 0)" stroke="rgb(204, 204, 204)" stroke-width="1px"></line><line x1="139.29199981689453" y1="0" x2="139.29199981689453" y2="5" style="visibility: inherit;" fill="rgb(0, 0, 0)" stroke="rgb(204, 204, 204)" stroke-width="1px"></line><line x1="174.11499977111816" y1="0" x2="174.11499977111816" y2="5" style="visibility: inherit;" fill="rgb(0, 0, 0)" stroke="rgb(204, 204, 204)" stroke-width="1px"></line><line x1="208.9379997253418" y1="0" x2="208.9379997253418" y2="5" style="visibility: inherit;" fill="rgb(0, 0, 0)" stroke="rgb(204, 204, 204)" stroke-width="1px"></line><line x1="243.76099967956543" y1="0" x2="243.76099967956543" y2="5" style="visibility: inherit;" fill="rgb(0, 0, 0)" stroke="rgb(204, 204, 204)" stroke-width="1px"></line><line x1="278.58399963378906" y1="0" x2="278.58399963378906" y2="5" style="visibility: inherit;" fill="rgb(0, 0, 0)" stroke="rgb(204, 204, 204)" stroke-width="1px"></line></g><g transform="translate(0, 8)"><text style="text-anchor: middle; visibility: hidden; font-family: Roboto, sans-serif; font-size: 12px; font-weight: 200;" x="0" y="0" dx="0em" dy="0.95em" fill="rgb(33, 33, 33)" stroke="none" stroke-width="1px">-2k</text><text style="text-anchor: middle; visibility: inherit; font-family: Roboto, sans-serif; font-size: 12px; font-weight: 200;" x="34.82299995422363" y="0" dx="0em" dy="0.95em" fill="rgb(33, 33, 33)" stroke="none" stroke-width="1px">0</text><text style="text-anchor: middle; visibility: inherit; font-family: Roboto, sans-serif; font-size: 12px; font-weight: 200;" x="69.64599990844727" y="0" dx="0em" dy="0.95em" fill="rgb(33, 33, 33)" stroke="none" stroke-width="1px">2k</text><text style="text-anchor: middle; visibility: inherit; font-family: Roboto, sans-serif; font-size: 12px; font-weight: 200;" x="104.4689998626709" y="0" dx="0em" dy="0.95em" fill="rgb(33, 33, 33)" stroke="none" stroke-width="1px">4k</text><text style="text-anchor: middle; visibility: inherit; font-family: Roboto, sans-serif; font-size: 12px; font-weight: 200;" x="139.29199981689453" y="0" dx="0em" dy="0.95em" fill="rgb(33, 33, 33)" stroke="none" stroke-width="1px">6k</text><text style="text-anchor: middle; visibility: inherit; font-family: Roboto, sans-serif; font-size: 12px; font-weight: 200;" x="174.11499977111816" y="0" dx="0em" dy="0.95em" fill="rgb(33, 33, 33)" stroke="none" stroke-width="1px">8k</text><text style="text-anchor: middle; visibility: inherit; font-family: Roboto, sans-serif; font-size: 12px; font-weight: 200;" x="208.9379997253418" y="0" dx="0em" dy="0.95em" fill="rgb(33, 33, 33)" stroke="none" stroke-width="1px">10k</text><text style="text-anchor: middle; visibility: inherit; font-family: Roboto, sans-serif; font-size: 12px; font-weight: 200;" x="243.76099967956543" y="0" dx="0em" dy="0.95em" fill="rgb(33, 33, 33)" stroke="none" stroke-width="1px">12k</text><text style="text-anchor: middle; visibility: hidden; font-family: Roboto, sans-serif; font-size: 12px; font-weight: 200;" x="278.58399963378906" y="0" dx="0em" dy="0.95em" fill="rgb(33, 33, 33)" stroke="none" stroke-width="1px">14k</text></g><line x1="0" y1="0" x2="278.58399963378906" y2="0" fill="rgb(0, 0, 0)" stroke="rgb(204, 204, 204)" stroke-width="1px"></line></g></g></g></g></svg>