<svg viewBox="0 0 330 200" xmlns="http://www.w3.org/2000/svg"><g><g><g><g><g><line x1="51.53200149536133" y1="176.89999961853027" x2="46.53200149536133" y2="176.89999961853027" style="visibility: inherit;" fill="rgb(0, 0, 0)" stroke="rgb(204, 204, 204)" stroke-width="1px"></line><line x1="51.53200149536133" y1="162.15833298365274" x2="46.53200149536133" y2="162.15833298365274" style="visibility: inherit;" fill="rgb(0, 0, 0)" stroke="rgb(204, 204, 204)" stroke-width="1px"></line><line x1="51.53200149536133" y1="147.4166663487752" x2="46.53200149536133" y2="147.4166663487752" style="visibility: inherit;" fill="rgb(0, 0, 0)" stroke="rgb(204, 204, 204)" stroke-width="1px"></line><line x1="51.53200149536133" y1="132.6749997138977" x2="46.53200149536133" y2="132.6749997138977" style="visibility: inherit;" fill="rgb(0, 0, 0)" stroke="rgb(204, 204, 204)" stroke-width="1px"></line><line x1="51.53200149536133" y1="117.93333307902016" x2="46.53200149536133" y2="117.93333307902016" style="visibility: inherit;" fill="rgb(0, 0, 0)" stroke="rgb(204, 204, 204)" stroke-width="1px"></line><line x1="51.53200149536133" y1="103.19166644414264" x2="46.53200149536133" y2="103.19166644414264" style="visibility: inherit;" fill="rgb(0, 0, 0)" stroke="rgb(204, 204, 204)" stroke-width="1px"></line><line x1="51.53200149536133" y1="88.44999980926514" x2="46.53200149536133" y2="88.44999980926514" style="visibility: inherit;" fill="rgb(0, 0, 0)" stroke="rgb(204, 204, 204)" stroke-width="1px"></line><line x1="51.53200149536133" y1="73.7083331743876" x2="46.53200149536133" y2="73.7083331743876" style="visibility: inherit;" fill="rgb(0, 0, 0)" stroke="rgb(204, 204, 204)" stroke-width="1px"></line><line x1="51.53200149536133" y1="58.96666653951006" x2="46.53200149536133" y2="58.96666653951006" style="visibility: inherit;" fill="rgb(0, 0, 0)" stroke="rgb(204, 204, 204)" stroke-width="1px"></line><line x1="51.53200149536133" y1="44.22499990463257" x2="46.53200149536133" y2="44.22499990463257" style="visibility: inherit;" fill="rgb(0, 0, 0)" stroke="rgb(204, 204, 204)" stroke-width="1px"></line><line x1="51.53200149536133" y1="29.48333326975504" x2="46.53200149536133" y2="29.48333326975504" style="visibility: inherit;" fill="rgb(0, 0, 0)" stroke="rgb(204, 204, 204)" stroke-width="1px"></line><line x1="51.53200149536133" y1="14.74166663487749" x2="46.53200149536133" y2="14.74166663487749" style="visibility: inherit;" fill="rgb(0, 0, 0)" stroke="rgb(204, 204, 204)" stroke-width="1px"></line><line x1="51.53200149536133" y1="0" x2="46.53200149536133" y2="0" style="visibility: inherit;" fill="rgb(0, 0, 0)" stroke="rgb(204, 204, 204)" stroke-width="1px"></line></g><g transform="translate(41.53200149536133, 0)"><text style="text-anchor: end; visibility: hidden; font-family: Roboto, sans-serif; font-size: 12px; font-weight: 200;" x="0" y="176.89999961853027" dx="0em" dy="0.3em" fill="rgb(33, 33, 33)" stroke="none" stroke-width="1px">0.24</text><text style="text-anchor: end; visibility: inherit; font-family: Roboto, sans-serif; font-size: 12px; font-weight: 200;" x="0" y="162.15833298365274" dx="0em" dy="0.3em" fill="rgb(33, 33, 33)" stroke="none" stroke-width="1px">0.26</text><text style="text-anchor: end; visibility: hidden; font-family: Roboto, sans-serif; font-size: 12px; font-weight: 200;" x="0" y="147.4166663487752" dx="0em" dy="0.3em" fill="rgb(33, 33, 33)" stroke="none" stroke-width="1px">0.28</text><text style="text-anchor: end; visibility: inherit; font-family: Roboto, sans-serif; font-size: 12px; font-weight: 200;" x="0" y="132.6749997138977" dx="0em" dy="0.3em" fill="rgb(33, 33, 33)" stroke="none" stroke-width="1px">0.3</text><text style="text-anchor: end; visibility: hidden; font-family: Roboto, sans-serif; font-size: 12px; font-weight: 200;" x="0" y="117.93333307902016" dx="0em" dy="0.3em" fill="rgb(33, 33, 33)" stroke="none" stroke-width="1px">0.32</text><text style="text-anchor: end; visibility: inherit; font-family: Roboto, sans-serif; font-size: 12px; font-weight: 200;" x="0" y="103.19166644414264" dx="0em" dy="0.3em" fill="rgb(33, 33, 33)" stroke="none" stroke-width="1px">0.34</text><text style="text-anchor: end; visibility: hidden; font-family: Roboto, sans-serif; font-size: 12px; font-weight: 200;" x="0" y="88.44999980926514" dx="0em" dy="0.3em" fill="rgb(33, 33, 33)" stroke="none" stroke-width="1px">0.36</text><text style="text-anchor: end; visibility: inherit; font-family: Roboto, sans-serif; font-size: 12px; font-weight: 200;" x="0" y="73.7083331743876" dx="0em" dy="0.3em" fill="rgb(33, 33, 33)" stroke="none" stroke-width="1px">0.38</text><text style="text-anchor: end; visibility: hidden; font-family: Roboto, sans-serif; font-size: 12px; font-weight: 200;" x="0" y="58.96666653951006" dx="0em" dy="0.3em" fill="rgb(33, 33, 33)" stroke="none" stroke-width="1px">0.4</text><text style="text-anchor: end; visibility: inherit; font-family: Roboto, sans-serif; font-size: 12px; font-weight: 200;" x="0" y="44.22499990463257" dx="0em" dy="0.3em" fill="rgb(33, 33, 33)" stroke="none" stroke-width="1px">0.42</text><text style="text-anchor: end; visibility: hidden; font-family: Roboto, sans-serif; font-size: 12px; font-weight: 200;" x="0" y="29.48333326975504" dx="0em" dy="0.3em" fill="rgb(33, 33, 33)" stroke="none" stroke-width="1px">0.44</text><text style="text-anchor: end; visibility: inherit; font-family: Roboto, sans-serif; font-size: 12px; font-weight: 200;" x="0" y="14.74166663487749" dx="0em" dy="0.3em" fill="rgb(33, 33, 33)" stroke="none" stroke-width="1px">0.46</text><text style="text-anchor: end; visibility: hidden; font-family: Roboto, sans-serif; font-size: 12px; font-weight: 200;" x="0" y="0" dx="0em" dy="0.3em" fill="rgb(33, 33, 33)" stroke="none" stroke-width="1px">0.48</text></g><line x1="51.53200149536133" y1="0" x2="51.53200149536133" y2="176.89999961853027" fill="rgb(0, 0, 0)" stroke="rgb(204, 204, 204)" stroke-width="1px"></line></g></g><g transform="translate(51, 0)" clip-path="url(#clip_0)"><clipPath id="clip_0"><rect width="278" height="176"></rect></clipPath><g><g><g><line x1="0" y1="0" x2="0" y2="176.89999961853027" fill="rgb(0, 0, 0)" stroke="rgb(66, 66, 66)" stroke-width="1px" opacity="0.25"></line><line x1="34.808499813079834" y1="0" x2="34.808499813079834" y2="176.89999961853027" fill="rgb(0, 0, 0)" stroke="rgb(66, 66, 66)" stroke-width="1px" opacity="0.25"></line><line x1="69.61699962615967" y1="0" x2="69.61699962615967" y2="176.89999961853027" fill="rgb(0, 0, 0)" stroke="rgb(66, 66, 66)" stroke-width="1px" opacity="0.25"></line><line x1="104.4254994392395" y1="0" x2="104.4254994392395" y2="176.89999961853027" fill="rgb(0, 0, 0)" stroke="rgb(66, 66, 66)" stroke-width="1px" opacity="0.25"></line><line x1="139.23399925231934" y1="0" x2="139.23399925231934" y2="176.89999961853027" fill="rgb(0, 0, 0)" stroke="rgb(66, 66, 66)" stroke-width="1px" opacity="0.25"></line><line x1="174.04249906539917" y1="0" x2="174.04249906539917" y2="176.89999961853027" fill="rgb(0, 0, 0)" stroke="rgb(66, 66, 66)" stroke-width="1px" opacity="0.25"></line><line x1="208.850998878479" y1="0" x2="208.850998878479" y2="176.89999961853027" fill="rgb(0, 0, 0)" stroke="rgb(66, 66, 66)" stroke-width="1px" opacity="0.25"></line><line x1="243.65949869155884" y1="0" x2="243.65949869155884" y2="176.89999961853027" fill="rgb(0, 0, 0)" stroke="rgb(66, 66, 66)" stroke-width="1px" opacity="0.25"></line><line x1="278.4679985046387" y1="0" x2="278.4679985046387" y2="176.89999961853027" fill="rgb(0, 0, 0)" stroke="rgb(66, 66, 66)" stroke-width="1px" opacity="0.25"></line></g><g><line x1="0" y1="176.89999961853027" x2="278.4679985046387" y2="176.89999961853027" fill="rgb(0, 0, 0)" stroke="rgb(66, 66, 66)" stroke-width="1px" opacity="0.25"></line><line x1="0" y1="162.15833298365274" x2="278.4679985046387" y2="162.15833298365274" fill="rgb(0, 0, 0)" stroke="rgb(66, 66, 66)" stroke-width="1px" opacity="0.25"></line><line x1="0" y1="147.4166663487752" x2="278.4679985046387" y2="147.4166663487752" fill="rgb(0, 0, 0)" stroke="rgb(66, 66, 66)" stroke-width="1px" opacity="0.25"></line><line x1="0" y1="132.6749997138977" x2="278.4679985046387" y2="132.6749997138977" fill="rgb(0, 0, 0)" stroke="rgb(66, 66, 66)" stroke-width="1px" opacity="0.25"></line><line x1="0" y1="117.93333307902016" x2="278.4679985046387" y2="117.93333307902016" fill="rgb(0, 0, 0)" stroke="rgb(66, 66, 66)" stroke-width="1px" opacity="0.25"></line><line x1="0" y1="103.19166644414264" x2="278.4679985046387" y2="103.19166644414264" fill="rgb(0, 0, 0)" stroke="rgb(66, 66, 66)" stroke-width="1px" opacity="0.25"></line><line x1="0" y1="88.44999980926514" x2="278.4679985046387" y2="88.44999980926514" fill="rgb(0, 0, 0)" stroke="rgb(66, 66, 66)" stroke-width="1px" opacity="0.25"></line><line x1="0" y1="73.7083331743876" x2="278.4679985046387" y2="73.7083331743876" fill="rgb(0, 0, 0)" stroke="rgb(66, 66, 66)" stroke-width="1px" opacity="0.25"></line><line x1="0" y1="58.96666653951006" x2="278.4679985046387" y2="58.96666653951006" fill="rgb(0, 0, 0)" stroke="rgb(66, 66, 66)" stroke-width="1px" opacity="0.25"></line><line x1="0" y1="44.22499990463257" x2="278.4679985046387" y2="44.22499990463257" fill="rgb(0, 0, 0)" stroke="rgb(66, 66, 66)" stroke-width="1px" opacity="0.25"></line><line x1="0" y1="29.48333326975504" x2="278.4679985046387" y2="29.48333326975504" fill="rgb(0, 0, 0)" stroke="rgb(66, 66, 66)" stroke-width="1px" opacity="0.25"></line><line x1="0" y1="14.74166663487749" x2="278.4679985046387" y2="14.74166663487749" fill="rgb(0, 0, 0)" stroke="rgb(66, 66, 66)" stroke-width="1px" opacity="0.25"></line><line x1="0" y1="0" x2="278.4679985046387" y2="0" fill="rgb(0, 0, 0)" stroke="rgb(66, 66, 66)" stroke-width="1px" opacity="0.25"></line></g></g></g><g><g><line x1="0" y1="353.79999923706055" x2="278.4679985046387" y2="353.79999923706055" fill="rgb(0, 0, 0)" stroke="rgb(153, 153, 153)" stroke-width="1.5px"></line></g></g><g><g><line x1="34.808499813079834" y1="0" x2="34.808499813079834" y2="176.89999961853027" fill="rgb(0, 0, 0)" stroke="rgb(153, 153, 153)" stroke-width="1.5px"></line></g></g><g><g><g><g><g><path style="fill: none;" stroke="rgb(255, 112, 67)" stroke-width="2px" d="M36.548924803733826,-14.936380306459796L38.28934979438782,1.2958044371253856L40.02977478504181,-20.588837910581738L41.7701997756958,-16.070610734690177L43.51062476634979,47.852189959830156L45.251049757003784,20.169950165208782L46.991474747657776,54.64544722051584L48.73189973831177,36.19516988534101L50.47232472896576,74.22613328338555L52.21274971961975,75.99197704534048L53.95317471027374,15.369515839626112L55.693599700927734,3.6666421736400046L57.434024691581726,50.60105706648492L59.17444968223572,67.68280596428164L60.91487467288971,49.707772145397115L62.6552996635437,17.175610360398284L64.39572465419769,48.32415431186334L66.13614964485168,82.55136636467633L67.87657463550568,40.782321297838L69.61699962615967,66.36346093933517L71.35742461681366,71.22756653542207L73.09784960746765,71.88551348891507L74.83827459812164,67.01820302848475L76.57869958877563,102.66675177070208L78.31912457942963,75.22859764779552L80.05954957008362,69.89217545413251L81.79997456073761,28.62223731823972L83.5403995513916,46.76631130290811L85.2808245420456,63.1118066864619L87.02124953269958,81.27899632686503L88.76167452335358,84.77727863504761L90.50209951400757,85.49764670096121L92.24252450466156,83.27141947622879L93.98294949531555,63.74212399969005L95.72337448596954,37.38146364689662L97.46379947662354,79.21049891437295L99.20422446727753,74.76940751428153L100.94464945793152,67.92366319465549L102.68507444858551,55.90947959399773L104.4254994392395,61.726373918170005L106.1659244298935,51.52297279427761L107.90634942054749,53.287890234220946L109.64677441120148,90.56416354579363L111.38719940185547,88.53400030894373L113.12762439250946,83.12760777620163L114.86804938316345,98.32177744217628L116.60847437381744,96.56626213890367L118.34889936447144,91.28406372915885L120.08932435512543,84.17312841493461L121.82974934577942,62.34101284901171L123.57017433643341,57.59853621472988L125.3105993270874,9.951349907494983L127.0510243177414,52.9365854316478L128.79144930839539,66.7855576817192L130.53187429904938,63.084797916692274L132.27229928970337,93.51209584188045L134.01272428035736,96.87611223317438L135.75314927101135,93.31768000041558L137.49357426166534,89.70849055001969L139.23399925231934,64.04293465089569L140.97442424297333,80.79656601653103L142.71484923362732,66.68176434826654L144.4552742242813,52.63003995135825L146.1956992149353,68.27701149406965L147.9361242055893,76.15039059118696L149.6765491962433,105.11065544862815L151.41697418689728,101.5848201350997L153.15739917755127,101.11050214094185L154.89782416820526,110.97334053052583L156.63824915885925,125.46608077186575L158.37867414951324,125.51766803894125L160.11909914016724,95.28294587338739L161.85952413082123,102.20095372863474L163.59994912147522,96.43803838191141L165.3403741121292,108.77147128530137L167.0807991027832,90.96109262655493L168.8212240934372,98.25502109894003L170.5616490840912,106.67132661226404L172.30207407474518,124.3828936179776L174.04249906539917,132.39760405761024L175.78292405605316,137.47292269257295L177.52334904670715,124.88400313366107L179.26377403736115,144.35183029091115L181.00419902801514,161.05372735798414L182.74462401866913,117.2842165311284L184.48504900932312,110.69978514359693L186.2254739999771,121.7001136575937L187.9658989906311,120.52440798994846L189.7063239812851,90.51634314655357L191.4467489719391,124.68005925858074L193.18717396259308,117.63824554671051L194.92759895324707,131.24547645633814L196.66802394390106,127.45993119932311L198.40844893455505,141.78269009011993L200.14887392520905,149.67625487870498L201.88929891586304,139.53264911514128L203.62972390651703,130.20229755893232L205.37014889717102,138.13945461635487L207.110573887825,154.7366979883865L208.850998878479,145.14334428377336L210.591423869133,147.7130022108557L212.331848859787,153.57328435860256L214.07227385044098,133.35677427175813L215.81269884109497,125.05901076809482L217.55312383174896,138.1053381689275L219.29354882240295,122.36666479222201L221.03397381305695,152.99174730235885L222.77439880371094,133.08600989490378L224.51482379436493,126.90091675234532L226.25524878501892,113.49135389168868L227.9956737756729,120.34474431198734L229.7360987663269,141.87813411185607L231.4765237569809,169.5488533140426L233.2169487476349,177.94190689865374L234.95737373828888,146.79066888191065L236.69779872894287,147.69280475375237L238.43822371959686,151.4151681660246L240.17864871025085,122.68058052859773L241.91907370090485,125.83295697276543L243.65949869155884,129.92918127465012L245.39992368221283,124.79614922866533L247.14034867286682,102.4004965387261L248.8807736635208,84.64858912981539L250.6211986541748,93.46928632547L252.3616236448288,97.35630424056595L254.1020486354828,110.58748095567074L255.84247362613678,144.55226566688282L257.58289861679077,128.1000306478904L259.32332360744476,148.74109081126497L261.06374859809875,143.6211743219171L262.80417358875275,136.40271068212712L264.54459857940674,165.0445739300786L266.28502357006073,164.88417449449145L268.0254485607147,163.2009569027174L269.7658735513687,156.17997982186492L271.5062985420227,155.6125196152103" fill="none"></path></g></g></g></g><g opacity="0.2"><g><g><g><path style="fill: none;" stroke="rgb(255, 112, 67)" stroke-width="2px" d="M36.548924803733826,-14.936380306459796L38.28934979438782,11.035115283276502L40.02977478504181,-41.59809456438052L41.7701997756958,-10.757175575841671L43.51062476634979,131.30979854659583L45.251049757003784,-18.12455307707858L46.991474747657776,103.94595961755775L48.73189973831177,9.294488407993589L50.47232472896576,130.31441716117078L52.21274971961975,78.61404923334823L53.95317471027374,-75.01433470762277L55.693599700927734,-13.823981803647712L57.434024691581726,120.84943039781845L59.17444968223572,93.27196438663489L60.91487467288971,22.766350394567503L62.6552996635437,-31.599688116119296L64.39572465419769,95.03378921916925L66.13614964485168,133.88349415846338L67.87657463550568,-21.864883208808806L69.61699962615967,104.73283218409077L71.35742461681366,78.5234581704415L73.09784960746765,72.87241226912988L74.83827459812164,59.71733343439351L76.57869958877563,156.13915259298278L78.31912457942963,34.07156148209197L80.05954957008362,61.88756492104088L81.79997456073761,-33.28256428713893L83.5403995513916,73.98239442448326L85.2808245420456,87.63003470528116L87.02124953269958,108.52977074674018L88.76167452335358,90.02470093725299L90.50209951400757,86.57819865650251L92.24252450466156,79.93207890489697L93.98294949531555,34.44818218372533L95.72337448596954,-2.159525749397568L97.46379947662354,141.95405073698143L99.20422446727753,68.10777048285527L100.94464945793152,57.65504677876547L102.68507444858551,37.888204259927456L104.4254994392395,70.45171538498917L106.1659244298935,36.21787112889806L107.90634942054749,55.93526639201273L109.64677441120148,146.478573486245L111.38719940185547,85.48875545454821L113.12762439250946,75.01801897849344L114.86804938316345,121.11303193876918L116.60847437381744,93.932989184159L118.34889936447144,83.3607661148382L120.08932435512543,73.50672544383767L121.82974934577942,29.59283950056858L123.57017433643341,50.48482126336464L125.3105993270874,-61.519429553010745L127.0510243177414,117.41443871768948L128.79144930839539,87.55901605679001L130.53187429904938,57.533658269157655L132.27229928970337,139.15304272963402L134.01272428035736,101.92213682011345L135.75314927101135,87.9800316512785L137.49357426166534,84.29470637442664L139.23399925231934,25.54460080221282L140.97442424297333,105.92701306498282L142.71484923362732,45.50956184587037L144.4552742242813,31.552453355996313L146.1956992149353,91.74746880813649L147.9361242055893,87.9604592368629L149.6765491962433,148.5510527347898L151.41697418689728,96.29606716480691L153.15739917755127,100.39902514970504L154.89782416820526,125.7675981149018L156.63824915885925,147.2051911338757L158.37867414951324,125.59504893955446L160.11909914016724,49.930862625056676L161.85952413082123,112.5779655115058L163.59994912147522,87.79366536182633L165.3403741121292,127.27162064038635L167.0807991027832,64.24552463843531L168.8212240934372,109.19591380751774L170.5616490840912,119.29578488224993L172.30207407474518,150.95024412654797L174.04249906539917,144.41966971705915L175.78292405605316,145.08590064501706L177.52334904670715,106.00062379529331L179.26377403736115,173.5535710267863L181.00419902801514,186.1065729585937L182.74462401866913,51.62995029084477L184.48504900932312,100.82313806229968L186.2254739999771,138.20060642858888L187.9658989906311,118.76084948848057L189.7063239812851,45.50424588146121L191.4467489719391,175.92563342662163L193.18717396259308,107.07552497890515L194.92759895324707,151.65632282077956L196.66802394390106,121.78161331380056L198.40844893455505,163.26682842631516L200.14887392520905,161.5166020615826L201.88929891586304,124.31724046979579L203.62972390651703,116.2067702246188L205.37014889717102,150.0451902024887L207.110573887825,179.63256304643392L208.850998878479,130.75331372685375L210.591423869133,151.56748910147917L212.331848859787,162.36370758022287L214.07227385044098,103.03200914149141L215.81269884109497,112.61236551259987L217.55312383174896,157.6748292701765L219.29354882240295,98.75865472716373L221.03397381305695,198.92937106756412L222.77439880371094,103.22740378372114L224.51482379436493,117.6232770385077L226.25524878501892,93.37700960070376L227.9956737756729,130.62482994243535L229.7360987663269,174.17821881165924L231.4765237569809,211.05493211732232L233.2169487476349,190.5314872755705L234.95737373828888,100.06381185679604L236.69779872894287,149.04600856151495L238.43822371959686,156.99871328443297L240.17864871025085,79.57869907245743L241.91907370090485,130.56152163901703L243.65949869155884,136.0735177274771L245.39992368221283,117.09660115968813L247.14034867286682,68.80701750381724L248.8807736635208,58.02072801644937L250.6211986541748,106.70033211895193L252.3616236448288,103.18683111320982L254.1020486354828,130.43424602832798L255.84247362613678,195.4994427337009L257.58289861679077,103.42167811940183L259.32332360744476,179.7026810563268L261.06374859809875,135.94129958789526L262.80417358875275,125.5750152224422L264.54459857940674,208.0073688020057L266.28502357006073,164.64357534111065L268.0254485607147,160.6761305150563L269.7658735513687,145.64851420058622L271.5062985420227,154.7613293052284" fill="none"></path></g></g></g></g></g></g><g transform="translate(51, 176)" clip-path="url(#clip_1)"><clipPath id="clip_1"><rect width="278" height="23"></rect></clipPath><g><g><line x1="0" y1="0" x2="0" y2="5" style="visibility: inherit;" fill="rgb(0, 0, 0)" stroke="rgb(204, 204, 204)" stroke-width="1px"></line><line x1="34.808499813079834" y1="0" x2="34.808499813079834" y2="5" style="visibility: inherit;" fill="rgb(0, 0, 0)" stroke="rgb(204, 204, 204)" stroke-width="1px"></line><line x1="69.61699962615967" y1="0" x2="69.61699962615967" y2="5" style="visibility: inherit;" fill="rgb(0, 0, 0)" stroke="rgb(204, 204, 204)" stroke-width="1px"></line><line x1="104.4254994392395" y1="0" x2="104.4254994392395" y2="5" style="visibility: inherit;" fill="rgb(0, 0, 0)" stroke="rgb(204, 204, 204)" stroke-width="1px"></line><line x1="139.23399925231934" y1="0" x2="139.23399925231934" y2="5" style="visibility: inherit;" fill="rgb(0, 0, 0)" stroke="rgb(204, 204, 204)" stroke-width="1px"></line><line x1="174.04249906539917" y1="0" x2="174.04249906539917" y2="5" style="visibility: inherit;" fill="rgb(0, 0, 0)" stroke="rgb(204, 204, 204)" stroke-width="1px"></line><line x1="208.850998878479" y1="0" x2="208.850998878479" y2="5" style="visibility: inherit;" fill="rgb(0, 0, 0)" stroke="rgb(204, 204, 204)" stroke-width="1px"></line><line x1="243.65949869155884" y1="0" x2="243.65949869155884" y2="5" style="visibility: inherit;" fill="rgb(0, 0, 0)" stroke="rgb(204, 204, 204)" stroke-width="1px"></line><line x1="278.4679985046387" y1="0" x2="278.4679985046387" y2="5" style="visibility: inherit;" fill="rgb(0, 0, 0)" stroke="rgb(204, 204, 204)" stroke-width="1px"></line></g><g transform="translate(0, 8)"><text style="text-anchor: middle; visibility: hidden; font-family: Roboto, sans-serif; font-size: 12px; font-weight: 200;" x="0" y="0" dx="0em" dy="0.95em" fill="rgb(33, 33, 33)" stroke="none" stroke-width="1px">-2k</text><text style="text-anchor: middle; visibility: inherit; font-family: Roboto, sans-serif; font-size: 12px; font-weight: 200;" x="34.808499813079834" y="0" dx="0em" dy="0.95em" fill="rgb(33, 33, 33)" stroke="none" stroke-width="1px">0</text><text style="text-anchor: middle; visibility: inherit; font-family: Roboto, sans-serif; font-size: 12px; font-weight: 200;" x="69.61699962615967" y="0" dx="0em" dy="0.95em" fill="rgb(33, 33, 33)" stroke="none" stroke-width="1px">2k</text><text style="text-anchor: middle; visibility: inherit; font-family: Roboto, sans-serif; font-size: 12px; font-weight: 200;" x="104.4254994392395" y="0" dx="0em" dy="0.95em" fill="rgb(33, 33, 33)" stroke="none" stroke-width="1px">4k</text><text style="text-anchor: middle; visibility: inherit; font-family: Roboto, sans-serif; font-size: 12px; font-weight: 200;" x="139.23399925231934" y="0" dx="0em" dy="0.95em" fill="rgb(33, 33, 33)" stroke="none" stroke-width="1px">6k</text><text style="text-anchor: middle; visibility: inherit; font-family: Roboto, sans-serif; font-size: 12px; font-weight: 200;" x="174.04249906539917" y="0" dx="0em" dy="0.95em" fill="rgb(33, 33, 33)" stroke="none" stroke-width="1px">8k</text><text style="text-anchor: middle; visibility: inherit; font-family: Roboto, sans-serif; font-size: 12px; font-weight: 200;" x="208.850998878479" y="0" dx="0em" dy="0.95em" fill="rgb(33, 33, 33)" stroke="none" stroke-width="1px">10k</text><text style="text-anchor: middle; visibility: inherit; font-family: Roboto, sans-serif; font-size: 12px; font-weight: 200;" x="243.65949869155884" y="0" dx="0em" dy="0.95em" fill="rgb(33, 33, 33)" stroke="none" stroke-width="1px">12k</text><text style="text-anchor: middle; visibility: hidden; font-family: Roboto, sans-serif; font-size: 12px; font-weight: 200;" x="278.4679985046387" y="0" dx="0em" dy="0.95em" fill="rgb(33, 33, 33)" stroke="none" stroke-width="1px">14k</text></g><line x1="0" y1="0" x2="278.4679985046387" y2="0" fill="rgb(0, 0, 0)" stroke="rgb(204, 204, 204)" stroke-width="1px"></line></g></g></g></g></svg>