<svg viewBox="0 0 330 200" xmlns="http://www.w3.org/2000/svg"><g><g><g><g><g><line x1="61.77000045776367" y1="176.95999908447266" x2="56.77000045776367" y2="176.95999908447266" style="visibility: inherit;" fill="rgb(0, 0, 0)" stroke="rgb(204, 204, 204)" stroke-width="1px"></line><line x1="61.77000045776367" y1="159.2639991760254" x2="56.77000045776367" y2="159.2639991760254" style="visibility: inherit;" fill="rgb(0, 0, 0)" stroke="rgb(204, 204, 204)" stroke-width="1px"></line><line x1="61.77000045776367" y1="141.56799926757813" x2="56.77000045776367" y2="141.56799926757813" style="visibility: inherit;" fill="rgb(0, 0, 0)" stroke="rgb(204, 204, 204)" stroke-width="1px"></line><line x1="61.77000045776367" y1="123.87199935913085" x2="56.77000045776367" y2="123.87199935913085" style="visibility: inherit;" fill="rgb(0, 0, 0)" stroke="rgb(204, 204, 204)" stroke-width="1px"></line><line x1="61.77000045776367" y1="106.17599945068363" x2="56.77000045776367" y2="106.17599945068363" style="visibility: inherit;" fill="rgb(0, 0, 0)" stroke="rgb(204, 204, 204)" stroke-width="1px"></line><line x1="61.77000045776367" y1="88.47999954223634" x2="56.77000045776367" y2="88.47999954223634" style="visibility: inherit;" fill="rgb(0, 0, 0)" stroke="rgb(204, 204, 204)" stroke-width="1px"></line><line x1="61.77000045776367" y1="70.78399963378907" x2="56.77000045776367" y2="70.78399963378907" style="visibility: inherit;" fill="rgb(0, 0, 0)" stroke="rgb(204, 204, 204)" stroke-width="1px"></line><line x1="61.77000045776367" y1="53.087999725341845" x2="56.77000045776367" y2="53.087999725341845" style="visibility: inherit;" fill="rgb(0, 0, 0)" stroke="rgb(204, 204, 204)" stroke-width="1px"></line><line x1="61.77000045776367" y1="35.39199981689456" x2="56.77000045776367" y2="35.39199981689456" style="visibility: inherit;" fill="rgb(0, 0, 0)" stroke="rgb(204, 204, 204)" stroke-width="1px"></line><line x1="61.77000045776367" y1="17.69599990844728" x2="56.77000045776367" y2="17.69599990844728" style="visibility: inherit;" fill="rgb(0, 0, 0)" stroke="rgb(204, 204, 204)" stroke-width="1px"></line><line x1="61.77000045776367" y1="0" x2="56.77000045776367" y2="0" style="visibility: inherit;" fill="rgb(0, 0, 0)" stroke="rgb(204, 204, 204)" stroke-width="1px"></line></g><g transform="translate(51.77000045776367, 0)"><text style="text-anchor: end; visibility: hidden; font-family: Roboto, sans-serif; font-size: 12px; font-weight: 200;" x="0" y="176.95999908447266" dx="0em" dy="0.3em" fill="rgb(33, 33, 33)" stroke="none" stroke-width="1px">0.085</text><text style="text-anchor: end; visibility: inherit; font-family: Roboto, sans-serif; font-size: 12px; font-weight: 200;" x="0" y="159.2639991760254" dx="0em" dy="0.3em" fill="rgb(33, 33, 33)" stroke="none" stroke-width="1px">0.09</text><text style="text-anchor: end; visibility: hidden; font-family: Roboto, sans-serif; font-size: 12px; font-weight: 200;" x="0" y="141.56799926757813" dx="0em" dy="0.3em" fill="rgb(33, 33, 33)" stroke="none" stroke-width="1px">0.095</text><text style="text-anchor: end; visibility: inherit; font-family: Roboto, sans-serif; font-size: 12px; font-weight: 200;" x="0" y="123.87199935913085" dx="0em" dy="0.3em" fill="rgb(33, 33, 33)" stroke="none" stroke-width="1px">0.1</text><text style="text-anchor: end; visibility: hidden; font-family: Roboto, sans-serif; font-size: 12px; font-weight: 200;" x="0" y="106.17599945068363" dx="0em" dy="0.3em" fill="rgb(33, 33, 33)" stroke="none" stroke-width="1px">0.105</text><text style="text-anchor: end; visibility: inherit; font-family: Roboto, sans-serif; font-size: 12px; font-weight: 200;" x="0" y="88.47999954223634" dx="0em" dy="0.3em" fill="rgb(33, 33, 33)" stroke="none" stroke-width="1px">0.11</text><text style="text-anchor: end; visibility: hidden; font-family: Roboto, sans-serif; font-size: 12px; font-weight: 200;" x="0" y="70.78399963378907" dx="0em" dy="0.3em" fill="rgb(33, 33, 33)" stroke="none" stroke-width="1px">0.115</text><text style="text-anchor: end; visibility: inherit; font-family: Roboto, sans-serif; font-size: 12px; font-weight: 200;" x="0" y="53.087999725341845" dx="0em" dy="0.3em" fill="rgb(33, 33, 33)" stroke="none" stroke-width="1px">0.12</text><text style="text-anchor: end; visibility: hidden; font-family: Roboto, sans-serif; font-size: 12px; font-weight: 200;" x="0" y="35.39199981689456" dx="0em" dy="0.3em" fill="rgb(33, 33, 33)" stroke="none" stroke-width="1px">0.125</text><text style="text-anchor: end; visibility: inherit; font-family: Roboto, sans-serif; font-size: 12px; font-weight: 200;" x="0" y="17.69599990844728" dx="0em" dy="0.3em" fill="rgb(33, 33, 33)" stroke="none" stroke-width="1px">0.13</text><text style="text-anchor: end; visibility: hidden; font-family: Roboto, sans-serif; font-size: 12px; font-weight: 200;" x="0" y="0" dx="0em" dy="0.3em" fill="rgb(33, 33, 33)" stroke="none" stroke-width="1px">0.135</text></g><line x1="61.77000045776367" y1="0" x2="61.77000045776367" y2="176.95999908447266" fill="rgb(0, 0, 0)" stroke="rgb(204, 204, 204)" stroke-width="1px"></line></g></g><g transform="translate(61, 0)" clip-path="url(#clip_0)"><clipPath id="clip_0"><rect width="268" height="176"></rect></clipPath><g><g><g><line x1="0" y1="0" x2="0" y2="176.95999908447266" fill="rgb(0, 0, 0)" stroke="rgb(66, 66, 66)" stroke-width="1px" opacity="0.25"></line><line x1="33.52874994277954" y1="0" x2="33.52874994277954" y2="176.95999908447266" fill="rgb(0, 0, 0)" stroke="rgb(66, 66, 66)" stroke-width="1px" opacity="0.25"></line><line x1="67.05749988555908" y1="0" x2="67.05749988555908" y2="176.95999908447266" fill="rgb(0, 0, 0)" stroke="rgb(66, 66, 66)" stroke-width="1px" opacity="0.25"></line><line x1="100.58624982833862" y1="0" x2="100.58624982833862" y2="176.95999908447266" fill="rgb(0, 0, 0)" stroke="rgb(66, 66, 66)" stroke-width="1px" opacity="0.25"></line><line x1="134.11499977111816" y1="0" x2="134.11499977111816" y2="176.95999908447266" fill="rgb(0, 0, 0)" stroke="rgb(66, 66, 66)" stroke-width="1px" opacity="0.25"></line><line x1="167.6437497138977" y1="0" x2="167.6437497138977" y2="176.95999908447266" fill="rgb(0, 0, 0)" stroke="rgb(66, 66, 66)" stroke-width="1px" opacity="0.25"></line><line x1="201.17249965667725" y1="0" x2="201.17249965667725" y2="176.95999908447266" fill="rgb(0, 0, 0)" stroke="rgb(66, 66, 66)" stroke-width="1px" opacity="0.25"></line><line x1="234.7012495994568" y1="0" x2="234.7012495994568" y2="176.95999908447266" fill="rgb(0, 0, 0)" stroke="rgb(66, 66, 66)" stroke-width="1px" opacity="0.25"></line><line x1="268.2299995422363" y1="0" x2="268.2299995422363" y2="176.95999908447266" fill="rgb(0, 0, 0)" stroke="rgb(66, 66, 66)" stroke-width="1px" opacity="0.25"></line></g><g><line x1="0" y1="176.95999908447266" x2="268.2299995422363" y2="176.95999908447266" fill="rgb(0, 0, 0)" stroke="rgb(66, 66, 66)" stroke-width="1px" opacity="0.25"></line><line x1="0" y1="159.2639991760254" x2="268.2299995422363" y2="159.2639991760254" fill="rgb(0, 0, 0)" stroke="rgb(66, 66, 66)" stroke-width="1px" opacity="0.25"></line><line x1="0" y1="141.56799926757813" x2="268.2299995422363" y2="141.56799926757813" fill="rgb(0, 0, 0)" stroke="rgb(66, 66, 66)" stroke-width="1px" opacity="0.25"></line><line x1="0" y1="123.87199935913085" x2="268.2299995422363" y2="123.87199935913085" fill="rgb(0, 0, 0)" stroke="rgb(66, 66, 66)" stroke-width="1px" opacity="0.25"></line><line x1="0" y1="106.17599945068363" x2="268.2299995422363" y2="106.17599945068363" fill="rgb(0, 0, 0)" stroke="rgb(66, 66, 66)" stroke-width="1px" opacity="0.25"></line><line x1="0" y1="88.47999954223634" x2="268.2299995422363" y2="88.47999954223634" fill="rgb(0, 0, 0)" stroke="rgb(66, 66, 66)" stroke-width="1px" opacity="0.25"></line><line x1="0" y1="70.78399963378907" x2="268.2299995422363" y2="70.78399963378907" fill="rgb(0, 0, 0)" stroke="rgb(66, 66, 66)" stroke-width="1px" opacity="0.25"></line><line x1="0" y1="53.087999725341845" x2="268.2299995422363" y2="53.087999725341845" fill="rgb(0, 0, 0)" stroke="rgb(66, 66, 66)" stroke-width="1px" opacity="0.25"></line><line x1="0" y1="35.39199981689456" x2="268.2299995422363" y2="35.39199981689456" fill="rgb(0, 0, 0)" stroke="rgb(66, 66, 66)" stroke-width="1px" opacity="0.25"></line><line x1="0" y1="17.69599990844728" x2="268.2299995422363" y2="17.69599990844728" fill="rgb(0, 0, 0)" stroke="rgb(66, 66, 66)" stroke-width="1px" opacity="0.25"></line><line x1="0" y1="0" x2="268.2299995422363" y2="0" fill="rgb(0, 0, 0)" stroke="rgb(66, 66, 66)" stroke-width="1px" opacity="0.25"></line></g></g></g><g><g><line x1="0" y1="477.7919975280762" x2="268.2299995422363" y2="477.7919975280762" fill="rgb(0, 0, 0)" stroke="rgb(153, 153, 153)" stroke-width="1.5px"></line></g></g><g><g><line x1="33.52874994277954" y1="0" x2="33.52874994277954" y2="176.95999908447266" fill="rgb(0, 0, 0)" stroke="rgb(153, 153, 153)" stroke-width="1.5px"></line></g></g><g><g><g><g><g><path style="fill: none;" stroke="rgb(255, 112, 67)" stroke-width="2px" d="M35.20518743991852,13.819970814730945L36.881624937057495,14.429459477635257L38.55806243419647,15.197260920236932L40.23449993133545,16.106180051347504L41.910937428474426,17.141954673332357L43.5873749256134,18.32361396311037L45.26381242275238,19.6093920436488L46.94024991989136,21.0525924953356L48.616687417030334,22.51953209751135L50.29312491416931,24.051716767994378L51.96956241130829,25.693121250523845L53.645999908447266,27.376352585832773L55.32243740558624,29.150555434344867L56.99887490272522,30.96342145821997L58.6753123998642,32.81658232212764L60.351749897003174,34.63420025734635L62.02818739414215,36.48424392245476L63.70462489128113,38.36470563621934L65.3810623884201,40.17134693834683L67.05749988555908,41.93898414549097L68.73393738269806,43.71590474460768L70.41037487983704,45.51815094567786L72.08681237697601,47.21433124768256L73.76324987411499,48.93112105981387L75.43968737125397,50.58851228750222L77.11612486839294,52.260272278237075L78.79256236553192,53.93049686955216L80.4689998626709,55.66416240502253L82.14543735980988,57.41944896646116L83.82187485694885,59.11283060763872L85.49831235408783,60.79185231522572L87.1747498512268,62.43066794655779L88.85118734836578,64.15089964081474L90.52762484550476,65.90379036503457L92.20406234264374,67.62558457085596L93.88049983978271,69.3642980571825L95.55693733692169,71.13684256356444L97.23337483406067,72.87354060796174L98.90981233119965,74.61961426085753L100.58624982833862,76.23691527775352L102.2626873254776,77.79763663176007L103.93912482261658,79.27359166907212L105.61556231975555,80.73691155631607L107.29199981689453,82.16998347981811L108.96843731403351,83.67727229011555L110.64487481117249,85.25518608865079L112.32131230831146,86.87514790337465L113.99774980545044,88.45140971424661L115.67418730258942,89.90516213656576L117.3506247997284,91.25706742276358L119.02706229686737,92.69027863401517L120.70349979400635,94.17291680621116L122.37993729114532,95.63760966520033L124.0563747882843,97.10391826314286L125.73281228542328,98.54777000071562L127.40924978256226,100.00299785692347L129.08568727970123,101.42639429146443L130.7621247768402,102.79544166719407L132.4385622739792,104.19736989126429L134.11499977111816,105.51924596994775L135.79143726825714,106.71881429541392L137.46787476539612,108.01794758734813L139.1443122625351,109.33506176077692L140.82074975967407,110.51124723976632L142.49718725681305,111.75617487111096L144.17362475395203,112.9250791558646L145.850062251091,114.04210413576006L147.52649974822998,115.23565072499373L149.20293724536896,116.4105798312506L150.87937474250793,117.32640567159928L152.5558122396469,117.98153576922556L154.2322497367859,118.83217035924763L155.90868723392487,119.72339467437034L157.58512473106384,120.78656592147668L159.26156222820282,121.90819389077907L160.9379997253418,123.06612996703173L162.61443722248077,124.18949487823555L164.29087471961975,125.25867053067708L165.96731221675873,126.36240505717129L167.6437497138977,127.5042152247798L169.32018721103668,128.66066471478243L170.99662470817566,129.82450551002074L172.67306220531464,130.98234947453236L174.3494997024536,132.016099125411L176.0259371995926,133.08890586702697L177.70237469673157,134.12099612946957L179.37881219387054,135.08928217218377L181.05524969100952,136.0775086441855L182.7316871881485,137.0192021740502L184.40812468528748,137.93872440127998L186.08456218242645,138.82069482743145L187.76099967956543,139.7607919598416L189.4374371767044,140.60967865273116L191.11387467384338,141.48703884954418L192.79031217098236,142.44529635791488L194.46674966812134,143.43846470507296L196.14318716526031,144.38014892614794L197.8196246623993,145.27634474074034L199.49606215953827,146.0151529457711L201.17249965667725,146.7437514735757L202.84893715381622,147.5337185298699L204.5253746509552,148.17382406033332L206.20181214809418,148.93624169718004L207.87824964523315,149.69018638023218L209.55468714237213,150.44133612842853L211.2311246395111,151.222093209678L212.90756213665009,151.9679397871622L214.58399963378906,152.76316116416584L216.26043713092804,153.48606450072364L217.93687462806702,154.05384588489943L219.613312125206,154.5740460598435L221.28974962234497,155.1315569602018L222.96618711948395,155.70017887090964L224.64262461662292,156.23987965760355L226.3190621137619,156.89219576390676L227.99549961090088,157.57953105146277L229.67193710803986,158.23864147412374L231.34837460517883,158.88939220744817L233.0248121023178,159.53499000787815L234.7012495994568,160.18953090339815L236.37768709659576,160.87365503255583L238.05412459373474,161.28870718489247L239.73056209087372,161.811375845942L241.4069995880127,162.2377523868369L243.08343708515167,162.63951542914901L244.75987458229065,163.1266285511149L246.43631207942963,163.6756997638777L248.1127495765686,164.31074975161198L249.78918707370758,164.96927754936596L251.46562457084656,165.64463441898178L253.14206206798553,166.23253362891748L254.8184995651245,166.8332270262767L256.4949370622635,167.43254706278486L258.17137455940247,167.8556042218431L259.84781205654144,168.35023054255208L261.5242495536804,168.86846454000846" fill="none"></path></g></g></g></g><g opacity="0.2"><g><g><g><path style="fill: none;" stroke="rgb(255, 112, 67)" stroke-width="2px" d="M35.20518743991852,13.819970814730945L36.881624937057495,14.795152675377844L38.55806243419647,15.93435030513468L40.23449993133545,17.175068949533518L41.910937428474426,18.49426201979589L43.5873749256134,19.958274158217712L45.26381242275238,21.448075271268074L46.94024991989136,23.15679260861919L48.616687417030334,24.6829830723724L50.29312491416931,26.326832436731486L51.96956241130829,28.14034055646892L53.645999908447266,29.89203951820094L55.32243740558624,31.806066626981313L56.99887490272522,33.67916890076834L58.6753123998642,35.59414529695835L60.351749897003174,37.35934523518302L62.02818739414215,39.25852654364042L63.70462489128113,41.18492075784082L65.3810623884201,42.8810336679195L67.05749988555908,44.590278387164865L68.73393738269806,46.38118819273394L70.41037487983704,48.221460943604264L72.08681237697601,49.75856821256833L73.76324987411499,51.5062854409988L75.43968737125397,53.07458734900741L77.11612486839294,54.7679051350466L78.79256236553192,56.43582948287793L80.4689998626709,58.264658046643156L82.14543735980988,60.05237719175205L83.82187485694885,61.652902133498976L85.49831235408783,63.31038431982427L87.1747498512268,64.88889106748651L88.85118734836578,66.7312469768391L90.52762484550476,68.53312632580845L92.20406234264374,70.20827580559093L93.88049983978271,71.97236824183769L95.55693733692169,73.79565929571335L97.23337483406067,75.47858765843593L98.90981233119965,77.23872473047585L100.58624982833862,78.66286679769281L102.2626873254776,80.13871865964042L103.93912482261658,81.4875242232646L105.61556231975555,82.93189138612583L107.29199981689453,84.31959136445052L108.96843731403351,85.93820550517002L110.64487481117249,87.62205678620752L112.32131230831146,89.30509062530895L113.99774980545044,90.81580243046609L115.67418730258942,92.08579076999548L117.3506247997284,93.28492535203317L119.02706229686737,94.8400954508751L120.70349979400635,96.39687406449447L122.37993729114532,97.83464895367764L124.0563747882843,99.30338116005295L125.73281228542328,100.71354760707244L127.40924978256226,102.1858396412339L129.08568727970123,103.56148894327511L130.7621247768402,104.84901273078812L132.4385622739792,106.30026222736923L134.11499977111816,107.50206008797285L135.79143726825714,108.5181667836131L137.46787476539612,109.96664752524943L139.1443122625351,111.31073302092013L140.82074975967407,112.27552545825041L142.49718725681305,113.62356631812794L144.17362475395203,114.67843558299514L145.850062251091,115.71764160560328L147.52649974822998,117.02597060884422L149.20293724536896,118.17297349063587L150.87937474250793,118.70014443212234L152.5558122396469,118.96423091566511L154.2322497367859,120.10812224428072L155.90868723392487,121.06023114705444L157.58512473106384,122.38132279213609L159.26156222820282,123.59063584473269L160.9379997253418,124.80303408141062L162.61443722248077,125.87454224504121L164.29087471961975,126.8624340093394L165.96731221675873,128.0180068469125L167.6437497138977,129.2169304761925L169.32018721103668,130.39533894978638L170.99662470817566,131.57026670287826L172.67306220531464,132.71911542129976L174.3494997024536,133.566723601729L176.0259371995926,134.69811597945102L177.70237469673157,135.6691315231334L179.37881219387054,136.54171123625508L181.05524969100952,137.55984835218817L182.7316871881485,138.43174246884735L184.40812468528748,139.31800774212468L186.08456218242645,140.14365046665864L187.76099967956543,141.17093765845686L189.4374371767044,141.88300869206535L191.11387467384338,142.80307914476373L192.79031217098236,143.88268262047097L194.46674966812134,144.92821722581004L196.14318716526031,145.79267525776038L197.8196246623993,146.62063846262902L199.49606215953827,147.12336525331727L201.17249965667725,147.83664926528252L202.84893715381622,148.71866911431118L204.5253746509552,149.13398235602847L206.20181214809418,150.0798681524501L207.87824964523315,150.8211034048103L209.55468714237213,151.56806075072302L211.2311246395111,152.39322883155216L212.90756213665009,153.08670965338854L214.58399963378906,153.9559932296712L216.26043713092804,154.57041950556038L217.93687462806702,154.90551796116313L219.613312125206,155.35434632225963L221.28974962234497,155.96782331073916L222.96618711948395,156.55311173697135L224.64262461662292,157.04943083764454L226.3190621137619,157.87066992336156L227.99549961090088,158.6105339827967L229.67193710803986,159.22730710811527L231.34837460517883,159.86551830743485L233.0248121023178,160.50338670852318L234.7012495994568,161.17134224667814L236.37768709659576,161.89984122629232L238.05412459373474,161.91128541339742L239.73056209087372,162.59537883751625L241.4069995880127,162.87731719817918L243.08343708515167,163.2421599926173L244.75987458229065,163.8572982340637L246.43631207942963,164.49930658302185L248.1127495765686,165.26332473321338L249.78918707370758,165.95706924599688L251.46562457084656,166.65766972340555L253.14206206798553,167.114382443821L254.8184995651245,167.7342671223156L256.4949370622635,168.33152711754713L258.17137455940247,168.49018996043048L259.84781205654144,169.0921700236155L261.5242495536804,169.64581553619303" fill="none"></path></g></g></g></g></g></g><g transform="translate(61, 176)" clip-path="url(#clip_1)"><clipPath id="clip_1"><rect width="268" height="23"></rect></clipPath><g><g><line x1="0" y1="0" x2="0" y2="5" style="visibility: inherit;" fill="rgb(0, 0, 0)" stroke="rgb(204, 204, 204)" stroke-width="1px"></line><line x1="33.52874994277954" y1="0" x2="33.52874994277954" y2="5" style="visibility: inherit;" fill="rgb(0, 0, 0)" stroke="rgb(204, 204, 204)" stroke-width="1px"></line><line x1="67.05749988555908" y1="0" x2="67.05749988555908" y2="5" style="visibility: inherit;" fill="rgb(0, 0, 0)" stroke="rgb(204, 204, 204)" stroke-width="1px"></line><line x1="100.58624982833862" y1="0" x2="100.58624982833862" y2="5" style="visibility: inherit;" fill="rgb(0, 0, 0)" stroke="rgb(204, 204, 204)" stroke-width="1px"></line><line x1="134.11499977111816" y1="0" x2="134.11499977111816" y2="5" style="visibility: inherit;" fill="rgb(0, 0, 0)" stroke="rgb(204, 204, 204)" stroke-width="1px"></line><line x1="167.6437497138977" y1="0" x2="167.6437497138977" y2="5" style="visibility: inherit;" fill="rgb(0, 0, 0)" stroke="rgb(204, 204, 204)" stroke-width="1px"></line><line x1="201.17249965667725" y1="0" x2="201.17249965667725" y2="5" style="visibility: inherit;" fill="rgb(0, 0, 0)" stroke="rgb(204, 204, 204)" stroke-width="1px"></line><line x1="234.7012495994568" y1="0" x2="234.7012495994568" y2="5" style="visibility: inherit;" fill="rgb(0, 0, 0)" stroke="rgb(204, 204, 204)" stroke-width="1px"></line><line x1="268.2299995422363" y1="0" x2="268.2299995422363" y2="5" style="visibility: inherit;" fill="rgb(0, 0, 0)" stroke="rgb(204, 204, 204)" stroke-width="1px"></line></g><g transform="translate(0, 8)"><text style="text-anchor: middle; visibility: hidden; font-family: Roboto, sans-serif; font-size: 12px; font-weight: 200;" x="0" y="0" dx="0em" dy="0.95em" fill="rgb(33, 33, 33)" stroke="none" stroke-width="1px">-2k</text><text style="text-anchor: middle; visibility: inherit; font-family: Roboto, sans-serif; font-size: 12px; font-weight: 200;" x="33.52874994277954" y="0" dx="0em" dy="0.95em" fill="rgb(33, 33, 33)" stroke="none" stroke-width="1px">0</text><text style="text-anchor: middle; visibility: inherit; font-family: Roboto, sans-serif; font-size: 12px; font-weight: 200;" x="67.05749988555908" y="0" dx="0em" dy="0.95em" fill="rgb(33, 33, 33)" stroke="none" stroke-width="1px">2k</text><text style="text-anchor: middle; visibility: inherit; font-family: Roboto, sans-serif; font-size: 12px; font-weight: 200;" x="100.58624982833862" y="0" dx="0em" dy="0.95em" fill="rgb(33, 33, 33)" stroke="none" stroke-width="1px">4k</text><text style="text-anchor: middle; visibility: inherit; font-family: Roboto, sans-serif; font-size: 12px; font-weight: 200;" x="134.11499977111816" y="0" dx="0em" dy="0.95em" fill="rgb(33, 33, 33)" stroke="none" stroke-width="1px">6k</text><text style="text-anchor: middle; visibility: inherit; font-family: Roboto, sans-serif; font-size: 12px; font-weight: 200;" x="167.6437497138977" y="0" dx="0em" dy="0.95em" fill="rgb(33, 33, 33)" stroke="none" stroke-width="1px">8k</text><text style="text-anchor: middle; visibility: inherit; font-family: Roboto, sans-serif; font-size: 12px; font-weight: 200;" x="201.17249965667725" y="0" dx="0em" dy="0.95em" fill="rgb(33, 33, 33)" stroke="none" stroke-width="1px">10k</text><text style="text-anchor: middle; visibility: inherit; font-family: Roboto, sans-serif; font-size: 12px; font-weight: 200;" x="234.7012495994568" y="0" dx="0em" dy="0.95em" fill="rgb(33, 33, 33)" stroke="none" stroke-width="1px">12k</text><text style="text-anchor: middle; visibility: hidden; font-family: Roboto, sans-serif; font-size: 12px; font-weight: 200;" x="268.2299995422363" y="0" dx="0em" dy="0.95em" fill="rgb(33, 33, 33)" stroke="none" stroke-width="1px">14k</text></g><line x1="0" y1="0" x2="268.2299995422363" y2="0" fill="rgb(0, 0, 0)" stroke="rgb(204, 204, 204)" stroke-width="1px"></line></g></g></g></g></svg>