<svg viewBox="0 0 330 200" xmlns="http://www.w3.org/2000/svg"><g><g><g><g><g><line x1="51.41600036621094" y1="176.95999908447266" x2="46.41600036621094" y2="176.95999908447266" style="visibility: inherit;" fill="rgb(0, 0, 0)" stroke="rgb(204, 204, 204)" stroke-width="1px"></line><line x1="51.41600036621094" y1="154.83999919891355" x2="46.41600036621094" y2="154.83999919891355" style="visibility: inherit;" fill="rgb(0, 0, 0)" stroke="rgb(204, 204, 204)" stroke-width="1px"></line><line x1="51.41600036621094" y1="132.7199993133545" x2="46.41600036621094" y2="132.7199993133545" style="visibility: inherit;" fill="rgb(0, 0, 0)" stroke="rgb(204, 204, 204)" stroke-width="1px"></line><line x1="51.41600036621094" y1="110.59999942779542" x2="46.41600036621094" y2="110.59999942779542" style="visibility: inherit;" fill="rgb(0, 0, 0)" stroke="rgb(204, 204, 204)" stroke-width="1px"></line><line x1="51.41600036621094" y1="88.47999954223633" x2="46.41600036621094" y2="88.47999954223633" style="visibility: inherit;" fill="rgb(0, 0, 0)" stroke="rgb(204, 204, 204)" stroke-width="1px"></line><line x1="51.41600036621094" y1="66.35999965667723" x2="46.41600036621094" y2="66.35999965667723" style="visibility: inherit;" fill="rgb(0, 0, 0)" stroke="rgb(204, 204, 204)" stroke-width="1px"></line><line x1="51.41600036621094" y1="44.23999977111821" x2="46.41600036621094" y2="44.23999977111821" style="visibility: inherit;" fill="rgb(0, 0, 0)" stroke="rgb(204, 204, 204)" stroke-width="1px"></line><line x1="51.41600036621094" y1="22.119999885559103" x2="46.41600036621094" y2="22.119999885559103" style="visibility: inherit;" fill="rgb(0, 0, 0)" stroke="rgb(204, 204, 204)" stroke-width="1px"></line><line x1="51.41600036621094" y1="0" x2="46.41600036621094" y2="0" style="visibility: inherit;" fill="rgb(0, 0, 0)" stroke="rgb(204, 204, 204)" stroke-width="1px"></line></g><g transform="translate(41.41600036621094, 0)"><text style="text-anchor: end; visibility: hidden; font-family: Roboto, sans-serif; font-size: 12px; font-weight: 200;" x="0" y="176.95999908447266" dx="0em" dy="0.3em" fill="rgb(33, 33, 33)" stroke="none" stroke-width="1px">0.09</text><text style="text-anchor: end; visibility: inherit; font-family: Roboto, sans-serif; font-size: 12px; font-weight: 200;" x="0" y="154.83999919891355" dx="0em" dy="0.3em" fill="rgb(33, 33, 33)" stroke="none" stroke-width="1px">0.1</text><text style="text-anchor: end; visibility: hidden; font-family: Roboto, sans-serif; font-size: 12px; font-weight: 200;" x="0" y="132.7199993133545" dx="0em" dy="0.3em" fill="rgb(33, 33, 33)" stroke="none" stroke-width="1px">0.11</text><text style="text-anchor: end; visibility: inherit; font-family: Roboto, sans-serif; font-size: 12px; font-weight: 200;" x="0" y="110.59999942779542" dx="0em" dy="0.3em" fill="rgb(33, 33, 33)" stroke="none" stroke-width="1px">0.12</text><text style="text-anchor: end; visibility: hidden; font-family: Roboto, sans-serif; font-size: 12px; font-weight: 200;" x="0" y="88.47999954223633" dx="0em" dy="0.3em" fill="rgb(33, 33, 33)" stroke="none" stroke-width="1px">0.13</text><text style="text-anchor: end; visibility: inherit; font-family: Roboto, sans-serif; font-size: 12px; font-weight: 200;" x="0" y="66.35999965667723" dx="0em" dy="0.3em" fill="rgb(33, 33, 33)" stroke="none" stroke-width="1px">0.14</text><text style="text-anchor: end; visibility: hidden; font-family: Roboto, sans-serif; font-size: 12px; font-weight: 200;" x="0" y="44.23999977111821" dx="0em" dy="0.3em" fill="rgb(33, 33, 33)" stroke="none" stroke-width="1px">0.15</text><text style="text-anchor: end; visibility: inherit; font-family: Roboto, sans-serif; font-size: 12px; font-weight: 200;" x="0" y="22.119999885559103" dx="0em" dy="0.3em" fill="rgb(33, 33, 33)" stroke="none" stroke-width="1px">0.16</text><text style="text-anchor: end; visibility: hidden; font-family: Roboto, sans-serif; font-size: 12px; font-weight: 200;" x="0" y="0" dx="0em" dy="0.3em" fill="rgb(33, 33, 33)" stroke="none" stroke-width="1px">0.17</text></g><line x1="51.41600036621094" y1="0" x2="51.41600036621094" y2="176.95999908447266" fill="rgb(0, 0, 0)" stroke="rgb(204, 204, 204)" stroke-width="1px"></line></g></g><g transform="translate(51, 0)" clip-path="url(#clip_0)"><clipPath id="clip_0"><rect width="278" height="176"></rect></clipPath><g><g><g><line x1="0" y1="0" x2="0" y2="176.95999908447266" fill="rgb(0, 0, 0)" stroke="rgb(66, 66, 66)" stroke-width="1px" opacity="0.25"></line><line x1="34.82299995422363" y1="0" x2="34.82299995422363" y2="176.95999908447266" fill="rgb(0, 0, 0)" stroke="rgb(66, 66, 66)" stroke-width="1px" opacity="0.25"></line><line x1="69.64599990844727" y1="0" x2="69.64599990844727" y2="176.95999908447266" fill="rgb(0, 0, 0)" stroke="rgb(66, 66, 66)" stroke-width="1px" opacity="0.25"></line><line x1="104.4689998626709" y1="0" x2="104.4689998626709" y2="176.95999908447266" fill="rgb(0, 0, 0)" stroke="rgb(66, 66, 66)" stroke-width="1px" opacity="0.25"></line><line x1="139.29199981689453" y1="0" x2="139.29199981689453" y2="176.95999908447266" fill="rgb(0, 0, 0)" stroke="rgb(66, 66, 66)" stroke-width="1px" opacity="0.25"></line><line x1="174.11499977111816" y1="0" x2="174.11499977111816" y2="176.95999908447266" fill="rgb(0, 0, 0)" stroke="rgb(66, 66, 66)" stroke-width="1px" opacity="0.25"></line><line x1="208.9379997253418" y1="0" x2="208.9379997253418" y2="176.95999908447266" fill="rgb(0, 0, 0)" stroke="rgb(66, 66, 66)" stroke-width="1px" opacity="0.25"></line><line x1="243.76099967956543" y1="0" x2="243.76099967956543" y2="176.95999908447266" fill="rgb(0, 0, 0)" stroke="rgb(66, 66, 66)" stroke-width="1px" opacity="0.25"></line><line x1="278.58399963378906" y1="0" x2="278.58399963378906" y2="176.95999908447266" fill="rgb(0, 0, 0)" stroke="rgb(66, 66, 66)" stroke-width="1px" opacity="0.25"></line></g><g><line x1="0" y1="176.95999908447266" x2="278.58399963378906" y2="176.95999908447266" fill="rgb(0, 0, 0)" stroke="rgb(66, 66, 66)" stroke-width="1px" opacity="0.25"></line><line x1="0" y1="154.83999919891355" x2="278.58399963378906" y2="154.83999919891355" fill="rgb(0, 0, 0)" stroke="rgb(66, 66, 66)" stroke-width="1px" opacity="0.25"></line><line x1="0" y1="132.7199993133545" x2="278.58399963378906" y2="132.7199993133545" fill="rgb(0, 0, 0)" stroke="rgb(66, 66, 66)" stroke-width="1px" opacity="0.25"></line><line x1="0" y1="110.59999942779542" x2="278.58399963378906" y2="110.59999942779542" fill="rgb(0, 0, 0)" stroke="rgb(66, 66, 66)" stroke-width="1px" opacity="0.25"></line><line x1="0" y1="88.47999954223633" x2="278.58399963378906" y2="88.47999954223633" fill="rgb(0, 0, 0)" stroke="rgb(66, 66, 66)" stroke-width="1px" opacity="0.25"></line><line x1="0" y1="66.35999965667723" x2="278.58399963378906" y2="66.35999965667723" fill="rgb(0, 0, 0)" stroke="rgb(66, 66, 66)" stroke-width="1px" opacity="0.25"></line><line x1="0" y1="44.23999977111821" x2="278.58399963378906" y2="44.23999977111821" fill="rgb(0, 0, 0)" stroke="rgb(66, 66, 66)" stroke-width="1px" opacity="0.25"></line><line x1="0" y1="22.119999885559103" x2="278.58399963378906" y2="22.119999885559103" fill="rgb(0, 0, 0)" stroke="rgb(66, 66, 66)" stroke-width="1px" opacity="0.25"></line><line x1="0" y1="0" x2="278.58399963378906" y2="0" fill="rgb(0, 0, 0)" stroke="rgb(66, 66, 66)" stroke-width="1px" opacity="0.25"></line></g></g></g><g><g><line x1="0" y1="376.0399980545044" x2="278.58399963378906" y2="376.0399980545044" fill="rgb(0, 0, 0)" stroke="rgb(153, 153, 153)" stroke-width="1.5px"></line></g></g><g><g><line x1="34.82299995422363" y1="0" x2="34.82299995422363" y2="176.95999908447266" fill="rgb(0, 0, 0)" stroke="rgb(153, 153, 153)" stroke-width="1.5px"></line></g></g><g><g><g><g><g><path style="fill: none;" stroke="rgb(255, 112, 67)" stroke-width="2px" d="M36.564149951934816,-5.9708569551547335L38.305299949646,28.792056226186197L40.046449947357175,-4.490672893111072L41.78759994506836,-10.194862373441724L43.52874994277954,62.95688297632058L45.269899940490724,60.503942528874205L47.01104993820191,73.52080606523133L48.75219993591308,69.09991671948221L50.493349933624266,103.73829936387025L52.23449993133545,89.31369734883101L53.97564992904663,36.48011785546928L55.716799926757815,-0.9110499161588083L57.45794992446899,72.89276800127297L59.199099922180174,90.70125130754315L60.94024991989136,22.4145850912323L62.68139991760254,15.138353300706733L64.42254991531372,49.20779245198194L66.1636999130249,98.55235309855232L67.90484991073608,30.150032982981795L69.64599990844727,68.24702456686745L71.38714990615844,81.08103068601092L73.12829990386963,90.56212760628766L74.86944990158081,82.08853116645538L76.610599899292,117.7170541626248L78.35174989700317,81.35524261459557L80.09289989471435,66.46020012447369L81.83404989242554,16.858115783670037L83.57519989013672,35.673150861163585L85.3163498878479,56.89487876893444L87.05749988555908,75.06863383947852L88.79864988327026,85.85643178047945L90.53979988098145,81.17303695740466L92.28094987869262,77.08715796263104L94.02209987640381,86.9648308902597L95.76324987411499,22.777632119968686L97.50439987182617,67.04916232291768L99.24554986953736,63.90137491350527L100.98669986724853,47.922930419527574L102.72784986495972,20.85103121583958L104.4689998626709,46.98558479358232L106.21014986038207,40.16550245915816L107.95129985809326,58.02485424035633L109.69244985580444,79.4857065950604L111.43359985351563,60.325330291895106L113.1747498512268,54.40333336665033L114.91589984893798,91.28439956974101L116.65704984664917,99.3754780886485L118.39819984436035,67.7327930532854L120.13934984207154,50.24861191636089L121.88049983978271,33.4999919089947L123.62164983749389,32.68207302791429L125.36279983520508,-90.35717377035292L127.10394983291626,12.896154292645331L128.84509983062745,45.63249286708581L130.58624982833862,26.123006775056847L132.3273998260498,79.49754613979086L134.068549823761,91.70540725413699L135.80969982147215,51.90961962035559L137.55084981918336,56.15023788182508L139.29199981689453,26.30527840458361L141.0331498146057,53.98784375072571L142.77429981231688,24.827714639945818L144.5154498100281,16.295454938114904L146.25659980773926,39.312450556837476L147.99774980545044,33.81648886543263L149.73889980316162,73.94159889419362L151.4800498008728,93.70714398581282L153.221199798584,80.88002122353014L154.96234979629517,114.94625618350476L156.70349979400635,137.20239928737155L158.44464979171752,135.037952018841L160.1857997894287,75.5128945508535L161.9269497871399,100.91835620570026L163.66809978485108,88.83529420243083L165.40924978256226,111.62795778202506L167.15039978027343,86.01396738364306L168.8915497779846,88.46882661246899L170.6326997756958,102.36931849623917L172.373849773407,120.70429159526972L174.11499977111816,135.18690569046714L175.85614976882934,125.55887926116067L177.59729976654052,111.24031596117742L179.33844976425172,140.00469231429062L181.0795997619629,165.58755349855065L182.82074975967407,105.78007646036971L184.56189975738525,118.74608514435226L186.30304975509642,127.39049777719706L188.04419975280763,120.2988312710478L189.7853497505188,98.47905435814587L191.52649974822998,125.00230982303911L193.26764974594116,121.06649196729727L195.00879974365233,129.96940387120287L196.74994974136354,120.83441254016486L198.4910997390747,124.7497413976484L200.2322497367859,144.3999654437657L201.97339973449706,116.4137048755418L203.71454973220824,113.44840535556472L205.45569972991944,125.3565195671921L207.19684972763062,150.79565292404678L208.9379997253418,142.5741579600988L210.67914972305297,172.23759235143183L212.42029972076415,168.2692178333023L214.16144971847535,146.48363119059405L215.90259971618653,108.4500152492989L217.6437497138977,137.07339825812738L219.38489971160888,102.84494535483317L221.12604970932006,141.53475891129642L222.86719970703126,117.55325451381078L224.60834970474244,104.30879695492396L226.3494997024536,98.93396614961038L228.0906497001648,101.7823645991697L229.83179969787597,122.3115012087134L231.57294969558717,163.54388872791208L233.31409969329835,176.95743907775906L235.05524969100952,125.12888357278187L236.7963996887207,124.61993968959959L238.53754968643187,140.05808314304608L240.27869968414308,98.47751790669517L242.01984968185425,109.19546911390269L243.76099967956543,105.39917763003378L245.5021496772766,82.44485500942801L247.24329967498778,91.615463587442L248.984449672699,57.833118470633636L250.72559967041016,75.52457444868635L252.46674966812134,74.20113705688101L254.2078996658325,59.31508760936225L255.9490496635437,122.83370590281152L257.6901996612549,115.87658033384616L259.4313496589661,137.21146397246838L261.17249965667725,108.03514881550866L262.9136496543884,116.16908527380171L264.6547996520996,151.7336134810604L266.3959496498108,160.19643989519136L268.137099647522,161.94677789650459L269.87824964523315,144.31233460474738L271.6193996429443,140.843571688144" fill="none"></path></g></g></g></g><g opacity="0.2"><g><g><g><path style="fill: none;" stroke="rgb(255, 112, 67)" stroke-width="2px" d="M36.564149951934816,-5.9708569551547335L38.305299949646,49.64980413499077L40.046449947357175,-36.44209284763646L41.78759994506836,-16.902989202310568L43.52874994277954,158.4638017049704L45.269899940490724,57.11064283149468L47.01104993820191,92.13512919203862L48.75219993591308,62.654217612842295L50.493349933624266,154.8231856048977L52.23449993133545,67.89484445731502L53.97564992904663,-42.29105470711984L57.45794992446899,183.35751260666254L59.199099922180174,117.37908759424568L60.94024991989136,-79.93514582047978L62.68139991760254,4.22913737731661L64.42254991531372,100.29753413404504L66.1636999130249,172.5566654898051L67.90484991073608,-72.4430267853735L69.64599990844727,125.38902972676294L71.38714990615844,100.33133601732925L73.12829990386963,104.78346100717016L74.86944990158081,69.37830380308709L76.610599899292,171.15941660305776L78.35174989700317,26.812783736745722L80.09289989471435,44.11769990984296L81.83404989242554,-57.544883809396325L83.57519989013672,63.895674591893076L85.3163498878479,88.7274510823799L87.05749988555908,102.32925640093652L88.79864988327026,102.03812511462954L90.53979988098145,74.14794565463139L92.28094987869262,70.95833995824263L94.02209987640381,101.78133957418521L95.76324987411499,-73.50316327690946L97.50439987182617,133.45645648575282L99.24554986953736,59.17969384808813L100.98669986724853,23.955263826888846L102.72784986495972,-19.756817438907735L104.4689998626709,86.18741507285803L106.21014986038207,29.935378971197075L107.95129985809326,84.81388189066747L109.69244985580444,111.6769851116251L111.43359985351563,31.584765845445723L113.1747498512268,45.52033798032212L114.91589984893798,146.60599886862667L116.65704984664917,111.51209586625282L118.39819984436035,20.26876550201691L120.13934984207154,24.022340211563026L121.88049983978271,8.377061898283804L123.62164983749389,31.455194706303608L125.36279983520508,-274.9160439668587L127.10394983291626,167.77614638669203L128.84509983062745,94.73700072866063L130.58624982833862,-3.141222362956018L132.3273998260498,159.55935518684169L134.068549823761,110.01719892564932L135.80969982147215,-7.784061830302978L137.55084981918336,62.51116527402856L139.29199981689453,-18.462160811275073L141.0331498146057,95.51169176993693L142.77429981231688,-18.912479026222815L144.5154498100281,3.497065385368918L146.25659980773926,73.83794398492098L147.99774980545044,25.57254632832538L149.73889980316162,134.12926393733483L151.4800498008728,123.35546162324161L153.221199798584,61.639337080106166L154.96234979629517,166.04560862346656L156.70349979400635,170.5866139431718L158.44464979171752,131.79128111604524L160.1857997894287,-13.7746916511277L161.9269497871399,139.0265486879704L163.66809978485108,70.7107011975266L165.40924978256226,145.8169531514164L167.15039978027343,47.592981786070105L168.8915497779846,92.1511154557079L170.6326997756958,123.22005632189442L172.373849773407,148.2067512438155L174.11499977111816,156.91082683326326L175.85614976882934,111.11683961720101L177.59729976654052,89.76247101120248L179.33844976425172,183.15125684396048L181.0795997619629,203.96184527494069L182.82074975967407,16.068860903098276L184.56189975738525,138.19509817032608L186.30304975509642,140.35711672646426L188.04419975280763,109.66133151182387L189.7853497505188,65.74938898879294L191.52649974822998,164.787193020379L193.26764974594116,115.16276518368454L195.00879974365233,143.32377172706128L196.74994974136354,107.13192554360785L198.4910997390747,130.62273468387372L200.2322497367859,173.8753015129417L201.97339973449706,74.43431402320597L203.71454973220824,109.00045607559915L205.45569972991944,143.21869088463313L207.19684972763062,188.95435295932882L208.9379997253418,130.24191551417684L210.67914972305297,216.7327439384314L212.42029972076415,162.31665605610797L214.16144971847535,113.80525122653165L215.90259971618653,51.39959133735615L217.6437497138977,180.0084727713701L219.38489971160888,51.50226599989181L221.12604970932006,199.56947924599132L222.86719970703126,81.58099791758231L224.60834970474244,84.44211061659372L226.3494997024536,90.87171994163992L228.0906497001648,106.05496227350866L229.83179969787597,153.10520612302892L231.57294969558717,225.39247000671008L233.31409969329835,197.07776460252956L235.05524969100952,47.38605031531605L236.7963996887207,123.85652386482616L238.53754968643187,163.21529832321585L240.27869968414308,36.106670052168816L242.01984968185425,125.272395924714L243.76099967956543,99.70474040423039L245.5021496772766,48.01337107851949L247.24329967498778,105.37137645446305L248.984449672699,7.159600795421133L250.72559967041016,102.06175841576535L252.46674966812134,72.21598096917303L254.2078996658325,36.98601343808419L255.9490496635437,218.11163334298539L257.6901996612549,105.4408919803981L259.4313496589661,169.21378943040165L261.17249965667725,64.27067608006907L262.9136496543884,128.36998996124134L264.6547996520996,205.08040579194838L266.3959496498108,172.89067951638782L268.137099647522,164.5722848984745L269.87824964523315,117.86066966711158L271.6193996429443,135.64042731323892" fill="none"></path></g></g></g></g></g></g><g transform="translate(51, 176)" clip-path="url(#clip_1)"><clipPath id="clip_1"><rect width="278" height="23"></rect></clipPath><g><g><line x1="0" y1="0" x2="0" y2="5" style="visibility: inherit;" fill="rgb(0, 0, 0)" stroke="rgb(204, 204, 204)" stroke-width="1px"></line><line x1="34.82299995422363" y1="0" x2="34.82299995422363" y2="5" style="visibility: inherit;" fill="rgb(0, 0, 0)" stroke="rgb(204, 204, 204)" stroke-width="1px"></line><line x1="69.64599990844727" y1="0" x2="69.64599990844727" y2="5" style="visibility: inherit;" fill="rgb(0, 0, 0)" stroke="rgb(204, 204, 204)" stroke-width="1px"></line><line x1="104.4689998626709" y1="0" x2="104.4689998626709" y2="5" style="visibility: inherit;" fill="rgb(0, 0, 0)" stroke="rgb(204, 204, 204)" stroke-width="1px"></line><line x1="139.29199981689453" y1="0" x2="139.29199981689453" y2="5" style="visibility: inherit;" fill="rgb(0, 0, 0)" stroke="rgb(204, 204, 204)" stroke-width="1px"></line><line x1="174.11499977111816" y1="0" x2="174.11499977111816" y2="5" style="visibility: inherit;" fill="rgb(0, 0, 0)" stroke="rgb(204, 204, 204)" stroke-width="1px"></line><line x1="208.9379997253418" y1="0" x2="208.9379997253418" y2="5" style="visibility: inherit;" fill="rgb(0, 0, 0)" stroke="rgb(204, 204, 204)" stroke-width="1px"></line><line x1="243.76099967956543" y1="0" x2="243.76099967956543" y2="5" style="visibility: inherit;" fill="rgb(0, 0, 0)" stroke="rgb(204, 204, 204)" stroke-width="1px"></line><line x1="278.58399963378906" y1="0" x2="278.58399963378906" y2="5" style="visibility: inherit;" fill="rgb(0, 0, 0)" stroke="rgb(204, 204, 204)" stroke-width="1px"></line></g><g transform="translate(0, 8)"><text style="text-anchor: middle; visibility: hidden; font-family: Roboto, sans-serif; font-size: 12px; font-weight: 200;" x="0" y="0" dx="0em" dy="0.95em" fill="rgb(33, 33, 33)" stroke="none" stroke-width="1px">-2k</text><text style="text-anchor: middle; visibility: inherit; font-family: Roboto, sans-serif; font-size: 12px; font-weight: 200;" x="34.82299995422363" y="0" dx="0em" dy="0.95em" fill="rgb(33, 33, 33)" stroke="none" stroke-width="1px">0</text><text style="text-anchor: middle; visibility: inherit; font-family: Roboto, sans-serif; font-size: 12px; font-weight: 200;" x="69.64599990844727" y="0" dx="0em" dy="0.95em" fill="rgb(33, 33, 33)" stroke="none" stroke-width="1px">2k</text><text style="text-anchor: middle; visibility: inherit; font-family: Roboto, sans-serif; font-size: 12px; font-weight: 200;" x="104.4689998626709" y="0" dx="0em" dy="0.95em" fill="rgb(33, 33, 33)" stroke="none" stroke-width="1px">4k</text><text style="text-anchor: middle; visibility: inherit; font-family: Roboto, sans-serif; font-size: 12px; font-weight: 200;" x="139.29199981689453" y="0" dx="0em" dy="0.95em" fill="rgb(33, 33, 33)" stroke="none" stroke-width="1px">6k</text><text style="text-anchor: middle; visibility: inherit; font-family: Roboto, sans-serif; font-size: 12px; font-weight: 200;" x="174.11499977111816" y="0" dx="0em" dy="0.95em" fill="rgb(33, 33, 33)" stroke="none" stroke-width="1px">8k</text><text style="text-anchor: middle; visibility: inherit; font-family: Roboto, sans-serif; font-size: 12px; font-weight: 200;" x="208.9379997253418" y="0" dx="0em" dy="0.95em" fill="rgb(33, 33, 33)" stroke="none" stroke-width="1px">10k</text><text style="text-anchor: middle; visibility: inherit; font-family: Roboto, sans-serif; font-size: 12px; font-weight: 200;" x="243.76099967956543" y="0" dx="0em" dy="0.95em" fill="rgb(33, 33, 33)" stroke="none" stroke-width="1px">12k</text><text style="text-anchor: middle; visibility: hidden; font-family: Roboto, sans-serif; font-size: 12px; font-weight: 200;" x="278.58399963378906" y="0" dx="0em" dy="0.95em" fill="rgb(33, 33, 33)" stroke="none" stroke-width="1px">14k</text></g><line x1="0" y1="0" x2="278.58399963378906" y2="0" fill="rgb(0, 0, 0)" stroke="rgb(204, 204, 204)" stroke-width="1px"></line></g></g></g></g></svg>